<svg xmlns="http://www.w3.org/2000/svg" viewBox="-16 -16 132 132">
  <path fill="white" d="M23.6 7.1v10.5h-9c-4.1 0-7.4 3.3-7.4 7.4v62.5c0 4.1 3.3 7.4 7.4 7.4h70.8c4.1 0 7.4-3.3 7.4-7.4V25.1c0-4.1-3.3-7.4-7.4-7.4h-9V7.2c0-2.8-4.4-2.8-4.4 0v10.5H28V7.2c0-2.9-4.4-2.9-4.4-.1zm61.8 83.5H14.6c-1.7 0-3.1-1.4-3.1-3.1V44.3h77v43.3c0 1.7-1.4 3-3.1 3zM72 22v7.7c0 2.8 4.4 2.8 4.4 0V22h9c1.7 0 3.1 1.4 3.1 3.1v14.8H11.6V25.1c0-1.7 1.4-3.1 3.1-3.1h9v7.7c0 2.8 4.4 2.8 4.4 0V22H72z"/>
  <circle fill="white"  cx="26.6" cy="59.7" r="3.7"/>
  <circle fill="white" cx="26.6" cy="76.9" r="3.7"/>
  <circle fill="white" cx="73.4" cy="59.7" r="3.7"/>
  <circle fill="white" cx="73.4" cy="76.9" r="3.7"/>
  <circle fill="white" cx="50" cy="59.7" r="3.7"/>
  <circle fill="white" cx="50" cy="76.9" r="3.7"/>
</svg>