<svg xmlns="http://www.w3.org/2000/svg" viewBox="0 0 90 90">
  <path fill="white" d="M28.893331 20.22756c-2.2132 0-4.0312 1.8178-4.0312 4.0313v48.40626c0 2.2148 1.8187 4.0312 4.0312 4.0312h19.8126a1.0001 1.0001 0 0 0 .9062-1.4062c-.543-1.262-.8438-2.6156-.8438-4.0625 0-5.7285 4.6153-10.3438 10.3438-10.3438 2.6709 0 5.0981 1.0255 6.9375 2.6874a1.0001 1.0001 0 0 0 1.6563-.75V35.29006a1.0001 1.0001 0 0 0 0-.062 1.0001 1.0001 0 0 0 0-.031 1.0001 1.0001 0 0 0 0-.062 1.0001 1.0001 0 0 0-.031-.031 1.0001 1.0001 0 0 0 0-.062 1.0001 1.0001 0 0 0 0-.062 1.0001 1.0001 0 0 0-.031-.031 1.0001 1.0001 0 0 0 0-.062 1.0001 1.0001 0 0 0-.031-.031 1.0001 1.0001 0 0 0 0-.062 1.0001 1.0001 0 0 0-.031-.031 1.0001 1.0001 0 0 0-.031-.031 1.0001 1.0001 0 0 0-.031-.062 1.0001 1.0001 0 0 0-.031-.031 1.0001 1.0001 0 0 0-.031-.063 1.0001 1.0001 0 0 0-.031-.031 1.0001 1.0001 0 0 0-.031-.031l-14.5624-14a1.0001 1.0001 0 0 0-.031 0 1.0001 1.0001 0 0 0-.031-.063 1.0001 1.0001 0 0 0-.031 0 1.0001 1.0001 0 0 0-.062-.062 1.0001 1.0001 0 0 0-.031 0 1.0001 1.0001 0 0 0-.062-.063 1.0001 1.0001 0 0 0-.031 0 1.0001 1.0001 0 0 0-.062-.031 1.0001 1.0001 0 0 0-.031 0 1.0001 1.0001 0 0 0-.063-.031 1.0001 1.0001 0 0 0-.031 0 1.0001 1.0001 0 0 0-.062-.031 1.0001 1.0001 0 0 0-.031 0 1.0001 1.0001 0 0 0-.062 0 1.0001 1.0001 0 0 0-.094 0h-23.2188zm0 2h22.2188v9.9687c0 2.2117 1.8208 4.0313 4.0312 4.0313h10.5626v24.81246c-1.9296-1.2572-4.1199-2.1562-6.5938-2.1562-6.8081 0-12.3438 5.5357-12.3438 12.3438 0 1.217.2622 2.366.5938 3.4687h-18.4688c-1.1273 0-2.0312-.9018-2.0312-2.0312V24.25886c0-1.1268.9046-2.0313 2.0312-2.0313zm24.2188 1.3437l10.375 9.9376.75.7187h-9.0938c-1.1293 0-2.0312-.9007-2.0312-2.0313v-8.625zm-22.7188 14.9376a1.0043896 1.0043896 0 0 0 .1876 2h31.5312a1.0001 1.0001 0 1 0 0-2h-31.5312a1.0001 1.0001 0 0 0-.094 0 1.0011039 1.0011039 0 0 0-.094 0zm0 5.9062a1.0043896 1.0043896 0 0 0 .1876 2h31.5312a1.0001 1.0001 0 1 0 0-2h-31.5312a1.0001 1.0001 0 0 0-.094 0 1.0011039 1.0011039 0 0 0-.094 0zm-.031 5.90616a1.0059664 1.0059664 0 0 0 .2188 2h31.5312a1.0001 1.0001 0 1 0 0-2h-31.5312a1.0001 1.0001 0 0 0-.2188 0zm0 5.9063a1.0059664 1.0059664 0 0 0 .2188 2h16.9687a1.0001 1.0001 0 1 0 0-2h-16.9687a1.0001 1.0001 0 0 0-.2188 0zm33.9688 11a1.0001 1.0001 0 0 0-.5938.3125l-5.875 5.8751-1.875-1.875a1.0054607 1.0054607 0 1 0-1.4375 1.4062l2.5937 2.5938a1.0001 1.0001 0 0 0 1.4063.031l6.5937-6.625a1.0001 1.0001 0 0 0-.7187-1.7188 1.0001 1.0001 0 0 0-.094 0z" style="text-indent:0;text-transform:none;block-progression:tb" overflow="visible" color="#000"/>
</svg>