<svg xmlns="http://www.w3.org/2000/svg" viewBox="-3 -2 108 108">
  <path fill="white" d="M53.7 12c-2.1-1.8-5.4-1.8-7.5 0L6.5 46.8c-1.9 1.6-1.5 3.1-1.3 3.7.2.6 1 1.9 3.5 1.9h9.9c.7 0 1.2.6 1.2 1.2v31.7c0 2.9 2.4 5.2 5.2 5.2h13.6c1.4 0 2.7-.5 3.7-1.5s1.5-2.3 1.5-3.7V65.5c0-.3.1-.6.4-.9.2-.2.5-.4.9-.4H57c.7 0 1.2.6 1.2 1.2v19.8c0 2.9 2.4 5.2 5.2 5.2h11.5c1.4 0 2.7-.5 3.7-1.5s1.5-2.3 1.5-3.7V53.5c0-.7.6-1.2 1.2-1.2h9.9c2.5 0 3.2-1.4 3.5-1.9.2-.6.5-2.1-1.3-3.7L53.7 12zm27.6 36.4c-2.9 0-5.2 2.4-5.2 5.2v31.7c0 .3-.1.6-.4.9-.2.2-.5.4-.9.4H63.3c-.7 0-1.2-.6-1.2-1.2V65.6c0-2.9-2.4-5.2-5.2-5.2H45c-1.4 0-2.7.5-3.7 1.5s-1.5 2.3-1.5 3.7v19.8c0 .3-.1.6-.4.9-.2.2-.5.4-.9.4H25c-.7 0-1.2-.6-1.2-1.2V53.8c0-2.9-2.4-5.2-5.2-5.2h-7.8l38-33.6c.6-.5 1.6-.5 2.2 0l38.1 33.4h-7.8z"/>
</svg>