<svg xmlns="http://www.w3.org/2000/svg" viewBox="-10 -10 120 120">
  <path class="step-1-path" fill="white" d="M12 82.1h76c3.9 0 7-3.2 7-7V24.8c0-3.9-3.2-7-7-7H12c-3.9 0-7 3.2-7 7V75c0 3.9 3.2 7.1 7 7.1zm25.8-30.2L9.1 74.1V29.7l28.7 22.2zM12 77.9c-.3 0-.6-.1-.9-.1l30-23.3 3.4 2.6c1.5 1.1 3.3 1.7 5.2 1.7 1.9 0 3.7-.6 5.2-1.7l3.6-2.8 30.3 23.5c-.3.1-.6.1-.9.1H12zm49.9-26.2l28.9-22.4v44.8L61.9 51.7zM12 21.9h76c1.4 0 2.5.9 2.8 2.2L52.4 53.9c-1.4 1.1-3.9 1.1-5.3 0L9.2 24.5c.2-1.5 1.4-2.6 2.8-2.6z"/>
</svg>