<svg xmlns="http://www.w3.org/2000/svg" viewBox="-3 -2 90 90">
  <path fill="white" d="M58.3 67.7c-7.3-7-25.6-8.3-33.6 0l-1.4-1.4c8.8-9.1 28.3-7.7 36.4 0l-1.4 1.4z"/>
  <path fill="white" d="M37.5 60.9l-1.9-.5c5.7-20.6.5-34.9.5-35l1.9-.7c.2.6 5.4 15-.5 36.2z"/>
  <path fill="white" d="M44.5 60.9l-1.9-.5c5.7-20.5-2.4-35.7-2.5-35.9l1.8-1c.3.7 8.5 16.1 2.6 37.4z"/>
  <path fill="white" d="M38.2054 54.0208l6.01704 1.00284-.3288 1.9728-6.01704-1.00284zm1-7.0001l6.01704 1.00284-.3288 1.9728-6.01704-1.00284zm5.5896-5.9977l.3292 1.9728-6.01704 1.00406-.3292-1.9728zm-1.15727-6.95535l.743 1.8568-5.01336 2.0061-.743-1.8568zm-2.1961-5.89616l1.1094 1.6642-2.99556 1.99692-1.1094-1.6642zm-.64487-5.15061l.4854 1.9402-3.97741.99507-.4854-1.9402z"/>
  <path fill="white" d="M30.1 42.5l-1-4.3c-.3-1.3-3-12.8.5-17.2.9-1.1 2.2-1.7 3.7-1.7s3.3.6 5.4 1.8l1.4.8-1.3.9c-5 3.4-7.6 15.3-7.6 15.4l-1.1 4.3zm3.1-21.2c-.9 0-1.6.3-2.1 1-1.7 2.1-1.5 7.2-.9 11.2 1.1-3.6 3.1-8.6 6-11.3-1.2-.6-2.2-.9-3-.9z"/>
  <path fill="white" d="M55.9 34.8l-3-4c-.1-.1-6.1-8.1-12-8.1-.7 0-1.4.1-2.1.4l-3.3 1.2 2.2-2.8c2.3-2.9 4.7-4.4 7-4.4 6.6 0 9.8 12.3 10 12.9l1.2 4.8zM41.2 20.7c3.8.1 7.5 2.8 10 5.2-1.4-3.3-3.7-6.8-6.4-6.8-1.2 0-2.4.5-3.6 1.6z"/>
  <path fill="white" d="M40.2 26l-1.9-2.9c-1.2-1.8-3.1-2.7-5.7-2.7-3.1 0-6.4 1.3-8.1 2l-.2.1H24c-.5 0-.9-.3-1.1-.7-.2-.4-.1-1 .2-1.3 2.6-2.8 7.5-7.4 11.5-7.4 3.5 0 5.4 3.2 5.6 9.4V26zm-7.7-7.6c2.1 0 3.9.5 5.4 1.5-.5-3.2-1.6-4.8-3.4-4.8-2.3 0-5.3 2.2-7.5 4.2 1.7-.5 3.6-.9 5.5-.9z"/>
  <path fill="white" d="M37.5 24.9l.1-3.5c.2-6.2 2.1-9.4 5.6-9.4 4 0 8.9 4.6 11.5 7.4.3.4.4.9.2 1.3-.2.5-.6.7-1.1.7h-.2l-.3-.1c-1.7-.7-5-2-8.1-2-2.6 0-4.6.9-5.7 2.7l-2 2.9zM43.2 14c-1.8 0-2.9 1.6-3.4 4.8 1.4-1 3.2-1.5 5.4-1.5 1.9 0 3.8.4 5.5.9-2.2-2-5.2-4.2-7.5-4.2zM71 71c-2.6 0-3.9-1.2-5-2.3-1.1-1-1.9-1.7-3.7-1.7s-2.6.8-3.7 1.7c-1.2 1.1-2.5 2.3-5 2.3-2.6 0-3.9-1.2-5-2.3-1.1-1-1.9-1.7-3.7-1.7-1.8 0-2.6.8-3.7 1.7-1.2 1.1-2.5 2.3-5 2.3-2.6 0-3.9-1.2-5-2.3-1.1-1-1.9-1.7-3.7-1.7-1.8 0-2.6.8-3.7 1.7-1.2 1.1-2.5 2.3-5 2.3-2.6 0-3.9-1.2-5-2.3-1.1-1-1.9-1.7-3.7-1.7v-2c2.6 0 3.9 1.2 5 2.3 1.1 1 1.9 1.7 3.7 1.7s2.6-.8 3.7-1.7c1.2-1.1 2.5-2.3 5-2.3s3.9 1.2 5 2.3c1.1 1 1.9 1.7 3.7 1.7 1.8 0 2.6-.8 3.7-1.7 1.2-1.1 2.5-2.3 5-2.3 2.6 0 3.9 1.2 5 2.3 1.1 1 1.9 1.7 3.7 1.7 1.8 0 2.6-.8 3.7-1.7 1.2-1.1 2.5-2.3 5-2.3 2.6 0 3.9 1.2 5 2.3 1.1 1 1.9 1.7 3.7 1.7v2z"/>
</svg>