<svg xmlns="http://www.w3.org/2000/svg" viewBox="-10 -10 120 120">
  <path fill="white" d="M29.03125 4.999995c-1.11438 0-2.0625.9481206-2.0625 2.0625v5.5c0 1.114379.94812 2.0625 2.0625 2.0625 1.114379 0 2.0625-.948121 2.0625-2.0625v-5.5c0-1.1143794-.948121-2.0625-2.0625-2.0625zm23.78125 0c-1.114379 0-2.03125.9481206-2.03125 2.0625v5.5c0 1.114379.916871 2.0625 2.03125 2.0625 1.11438 0 2.0625-.948121 2.0625-2.0625v-5.5c0-1.1143794-.94812-2.0625-2.0625-2.0625zm3.5 3.40625c-.02286.9541794.05548 1.917221.0625 2.875 1.337939.15354 2.9715.584661 4.3125 1.4375 1.928519 1.22634 3.38223 3.153682 3.28125 6.875-.50868 18.75401-6.377193 26.997721-11.90625 30.75-5.529056 3.752098-11.125 3.0625-11.125 3.0625-.10638-.0144-5.626653.689598-11.15625-3.0625-5.529056-3.752459-11.397571-11.99599-11.90625-30.75-.10098-3.721318 1.383801-5.64866 3.3125-6.875 1.33902-.851579 2.945831-1.28198 4.28125-1.4375.0126-.92934.10491-1.8594305.09375-2.71875-.0126-.04662-.02027-.07784-.03125-.125-1.790999.1387799-3.925601.6664102-5.875 1.90625-2.607119 1.657799-4.7492 4.765452-4.625 9.34375.52488 19.33415 6.816224 28.676222 13.1875 33 4.561838 3.095533 9.060022 3.592105 11.28125 3.625.06066 9.37892 1.704865 18.024047 4.46875 24.78125 2.817179 6.886436 6.782733 11.941091 11.90625 13.46875 2.834819.84546 5.752971.403169 8.28125-1.03125 2.528099-1.43442 4.720241-3.790772 6.625-6.84375 3.463019-5.549937 5.933061-13.458585 6.875-22.75-.981899.07254-1.95387-.02097-2.90625-.28125-.916019 9.005755-3.342621 16.595373-6.5 21.65625-1.735019 2.780999-3.682261 4.77286-5.625 5.875-1.942739 1.102139-3.808131 1.38803-5.84375.78125-3.671638-1.094939-7.409661-5.358173-10.0625-11.84375-2.604975-6.367696-4.192497-14.746761-4.25-23.84375 2.258759-.0472 6.69962-.548315 11.1875-3.59375 6.371456-4.323778 12.63173-13.66585 13.15625-33 .1242-4.578298-2.017881-7.685951-4.625-9.34375-1.955519-1.2436198-4.080761-1.8010601-5.875-1.9375zm20.84375 38.5625c-4.292998 0-7.78125 3.488252-7.78125 7.78125s3.488252 7.8125 7.78125 7.8125c4.292818 0 7.8125-3.519502 7.8125-7.8125s-3.519682-7.78125-7.8125-7.78125zm0 2.875c2.736539 0 4.9375 2.169711 4.9375 4.90625 0 2.736359-2.200961 4.9375-4.9375 4.9375-2.736358 0-4.90625-2.201141-4.90625-4.9375 0-2.736539 2.169892-4.90625 4.90625-4.90625z" style="text-indent:0;text-transform:none;block-progression:tb" overflow="visible" color="#000"/>
</svg>