<svg xmlns="http://www.w3.org/2000/svg" xmlns:xlink="http://www.w3.org/1999/xlink" version="1.1" x="0px" y="0px" viewBox="0 0 64 64" enable-background="new 0 0 64 64" xml:space="preserve"><g display="none"><rect x="-232.495" y="-10.779" display="inline" fill="#000000" width="787" height="375.042"></rect></g><g display="none"><g display="inline"><path fill="#000000" d="M32,63C14.906,63,1,49.094,1,32C1,14.907,14.906,1,32,1s31,13.907,31,31C63,49.094,49.094,63,32,63z"></path><g><path fill="#000000" d="M32,2c16.542,0,30,13.458,30,30S48.542,62,32,62S2,48.542,2,32S15.458,2,32,2 M32,0     C14.327,0,0,14.327,0,32s14.327,32,32,32s32-14.327,32-32S49.673,0,32,0L32,0z"></path></g></g><g display="inline"><g><circle fill="#000000" cx="31.999" cy="20.28" r="8.616"></circle></g><g><path fill="#000000" d="M46.862,47.997c0,0,0,0.402,0-7.626s-8.763-8.175-8.763-8.175H25.901c0,0-8.763,0.098-8.763,8.175     c0,8.028,0,7.626,0,7.626H46.862z"></path></g></g></g><g display="none"><g display="inline"><path fill="#000000" d="M32,63C14.906,63,1,49.094,1,32C1,14.907,14.906,1,32,1s31,13.907,31,31C63,49.094,49.094,63,32,63z"></path><g><path fill="#000000" d="M32,2c16.542,0,30,13.458,30,30S48.542,62,32,62S2,48.542,2,32S15.458,2,32,2 M32,0     C14.327,0,0,14.327,0,32s14.327,32,32,32s32-14.327,32-32S49.673,0,32,0L32,0z"></path></g></g><g display="inline"><g><circle fill="#000000" cx="31.999" cy="20.28" r="8.616"></circle></g><g><path fill="#000000" d="M46.862,47.997c0,0,0,0.402,0-7.626s-8.763-8.175-8.763-8.175H25.901c0,0-8.763,0.098-8.763,8.175     c0,8.028,0,7.626,0,7.626H46.862z"></path></g></g></g><g><path d="M32,64c17.673,0,32-14.327,32-32C64,14.327,49.673,0,32,0S0,14.327,0,32C0,49.673,14.327,64,32,64z M31.999,11.664   c4.759,0,8.616,3.858,8.616,8.616c0,4.759-3.858,8.616-8.616,8.616c-4.759,0-8.616-3.858-8.616-8.616   C23.383,15.521,27.241,11.664,31.999,11.664z M17.138,40.371c0-8.077,8.763-8.175,8.763-8.175h12.199c0,0,8.763,0.146,8.763,8.175   c0,6.979,0,7.587,0,7.626H17.138C17.138,47.957,17.138,47.35,17.138,40.371z"></path></g><g display="none"><g display="inline"><g><path fill="#000000" d="M32,2c16.542,0,30,13.458,30,30S48.542,62,32,62S2,48.542,2,32S15.458,2,32,2 M32,0     C14.327,0,0,14.327,0,32s14.327,32,32,32s32-14.327,32-32S49.673,0,32,0L32,0z"></path></g></g><g display="inline"><g><g><path fill="#000000" d="M31.999,13.664c3.648,0,6.616,2.968,6.616,6.616s-2.968,6.616-6.616,6.616s-6.616-2.968-6.616-6.616      S28.351,13.664,31.999,13.664 M31.999,11.664c-4.759,0-8.616,3.858-8.616,8.616s3.858,8.616,8.616,8.616      s8.616-3.858,8.616-8.616S36.758,11.664,31.999,11.664L31.999,11.664z"></path></g></g><g><g><path fill="#000000" d="M38.075,34.196c0.14,0.005,1.862,0.083,3.548,0.883c2.18,1.035,3.239,2.766,3.239,5.291v5.626H19.138      v-5.626c0-2.506,1.027-4.227,3.139-5.261c1.771-0.867,3.636-0.913,3.624-0.914H38.075 M38.099,32.196H25.901      c0,0-8.763,0.098-8.763,8.175c0,7.297,0,7.63,0,7.63v-0.003h29.724c0-0.047,0-0.694,0-7.626      C46.862,32.342,38.099,32.196,38.099,32.196L38.099,32.196z M46.862,47.997V48C46.862,48,46.862,48,46.862,47.997L46.862,47.997      z"></path></g></g></g></g><g display="none"><g display="inline"><g><path fill="#000000" d="M32,63C14.906,63,1,49.094,1,32C1,14.907,14.906,1,32,1s31,13.907,31,31C63,49.094,49.094,63,32,63z"></path><path d="M32,2c16.542,0,30,13.458,30,30S48.542,62,32,62S2,48.542,2,32S15.458,2,32,2 M32,0C14.327,0,0,14.327,0,32     s14.327,32,32,32s32-14.327,32-32S49.673,0,32,0L32,0z"></path></g><g><circle fill="#000000" cx="32" cy="32" r="27.562"></circle></g></g><g display="inline"><g><g><circle fill="#000000" cx="31.999" cy="20.28" r="7.616"></circle><path fill="#000000" d="M31.999,13.664c3.648,0,6.616,2.968,6.616,6.616s-2.968,6.616-6.616,6.616s-6.616-2.968-6.616-6.616      S28.351,13.664,31.999,13.664 M31.999,11.664c-4.759,0-8.616,3.858-8.616,8.616s3.858,8.616,8.616,8.616      s8.616-3.858,8.616-8.616S36.758,11.664,31.999,11.664L31.999,11.664z"></path></g></g><g><g><path fill="#000000" d="M18.138,46.997v-6.626c0-6.976,7.458-7.171,7.776-7.176L38.1,33.196      c0.299,0.006,7.763,0.241,7.763,7.175v6.626H18.138z"></path><path fill="#000000" d="M38.075,34.196c0.14,0.005,1.862,0.083,3.548,0.883c2.18,1.035,3.239,2.766,3.239,5.291v5.626H19.138      v-5.626c0-2.506,1.027-4.227,3.139-5.261c1.771-0.867,3.636-0.913,3.624-0.914H38.075 M38.099,32.196H25.901      c0,0-8.763,0.098-8.763,8.175c0,7.297,0,7.63,0,7.63v-0.003h29.724c0-0.047,0-0.694,0-7.626      C46.862,32.342,38.099,32.196,38.099,32.196L38.099,32.196z M46.862,47.997V48C46.862,48,46.862,48,46.862,47.997L46.862,47.997      z"></path></g></g></g></g></svg>