<svg xmlns="http://www.w3.org/2000/svg" xmlns:xlink="http://www.w3.org/1999/xlink" version="1.1" x="0px" y="0px" viewBox="0 0 64 64" enable-background="new 0 0 64 64" xml:space="preserve"><g display="none"><rect x="-158.495" y="-10.779" display="inline" fill="#000000" width="787" height="375.042"></rect></g><g display="none"><g display="inline"><path fill="#000000" d="M32,63C14.906,63,1,49.094,1,32C1,14.907,14.906,1,32,1s31,13.907,31,31C63,49.094,49.094,63,32,63z"></path><g><path fill="#000000" d="M32,2c16.542,0,30,13.458,30,30S48.542,62,32,62S2,48.542,2,32S15.458,2,32,2 M32,0     C14.327,0,0,14.327,0,32s14.327,32,32,32s32-14.327,32-32S49.673,0,32,0L32,0z"></path></g></g><g display="inline"><g><g><circle fill="#000000" cx="20.296" cy="24.322" r="5.122"></circle></g><g><path fill="#000000" d="M29.131,40.798c0,0,0,0.239,0-4.533s-5.209-4.859-5.209-4.859h-7.251c0,0-5.209,0.058-5.209,4.859      c0,4.772,0,4.533,0,4.533H29.131z"></path></g></g><g><g><circle fill="#000000" cx="43.703" cy="24.322" r="5.122"></circle></g><g><path fill="#000000" d="M52.538,40.798c0,0,0,0.239,0-4.533s-5.209-4.859-5.209-4.859h-7.251c0,0-5.209,0.058-5.209,4.859      c0,4.772,0,4.533,0,4.533H52.538z"></path></g></g></g></g><g display="none"><g display="inline"><path fill="#000000" d="M32,63C14.906,63,1,49.094,1,32C1,14.907,14.906,1,32,1s31,13.907,31,31C63,49.094,49.094,63,32,63z"></path><g><path fill="#000000" d="M32,2c16.542,0,30,13.458,30,30S48.542,62,32,62S2,48.542,2,32S15.458,2,32,2 M32,0     C14.327,0,0,14.327,0,32s14.327,32,32,32s32-14.327,32-32S49.673,0,32,0L32,0z"></path></g></g><g display="inline"><g><g><circle fill="#000000" cx="20.296" cy="24.322" r="5.122"></circle></g><g><path fill="#000000" d="M29.131,40.798c0,0,0,0.239,0-4.533s-5.209-4.859-5.209-4.859h-7.251c0,0-5.209,0.058-5.209,4.859      c0,4.772,0,4.533,0,4.533H29.131z"></path></g></g><g><g><circle fill="#000000" cx="43.703" cy="24.322" r="5.122"></circle></g><g><path fill="#000000" d="M52.538,40.798c0,0,0,0.239,0-4.533s-5.209-4.859-5.209-4.859h-7.251c0,0-5.209,0.058-5.209,4.859      c0,4.772,0,4.533,0,4.533H52.538z"></path></g></g></g></g><g><path d="M32,64c17.673,0,32-14.327,32-32C64,14.327,49.673,0,32,0S0,14.327,0,32C0,49.673,14.327,64,32,64z M43.703,19.2   c2.829,0,5.122,2.293,5.122,5.122s-2.293,5.122-5.122,5.122s-5.122-2.293-5.122-5.122S40.874,19.2,43.703,19.2z M34.869,36.264   c0-4.801,5.209-4.859,5.209-4.859h7.251c0,0,5.209,0.087,5.209,4.859c0,4.148,0,4.51,0,4.533H34.869   C34.869,40.774,34.869,40.412,34.869,36.264z M20.297,19.2c2.829,0,5.122,2.293,5.122,5.122s-2.293,5.122-5.122,5.122   c-2.829,0-5.122-2.293-5.122-5.122S17.468,19.2,20.297,19.2z M11.462,36.264c0-4.801,5.209-4.859,5.209-4.859h7.251   c0,0,5.209,0.087,5.209,4.859c0,4.148,0,4.51,0,4.533H11.462C11.462,40.774,11.462,40.412,11.462,36.264z"></path></g><g display="none"><g display="inline"><g><path fill="#000000" d="M32,2c16.542,0,30,13.458,30,30S48.542,62,32,62S2,48.542,2,32S15.458,2,32,2 M32,0     C14.327,0,0,14.327,0,32s14.327,32,32,32s32-14.327,32-32S49.673,0,32,0L32,0z"></path></g></g><g display="inline"><g><g><g><path fill="#000000" d="M20.296,21.2c1.721,0,3.122,1.4,3.122,3.122s-1.4,3.122-3.122,3.122s-3.122-1.4-3.122-3.122       S18.575,21.2,20.296,21.2 M20.296,19.2c-2.829,0-5.122,2.293-5.122,5.122c0,2.829,2.293,5.122,5.122,5.122       c2.829,0,5.122-2.293,5.122-5.122C25.418,21.493,23.125,19.2,20.296,19.2L20.296,19.2z"></path></g></g><g><g><path fill="#000000" d="M23.895,33.405c0.083,0.004,0.954,0.058,1.774,0.447c1.011,0.48,1.462,1.224,1.462,2.413v2.533H13.462       v-2.533c0-2.573,2.485-2.839,3.209-2.859H23.895 M23.923,31.405h-7.251c0,0-5.209,0.058-5.209,4.859c0,4.338,0,4.535,0,4.535       v-0.002h17.669c0-0.028,0-0.413,0-4.533C29.131,31.492,23.923,31.405,23.923,31.405L23.923,31.405z M29.131,40.798V40.8       C29.131,40.8,29.131,40.799,29.131,40.798L29.131,40.798z"></path></g></g></g><g><g><g><path fill="#000000" d="M43.703,21.2c1.721,0,3.122,1.4,3.122,3.122s-1.4,3.122-3.122,3.122s-3.122-1.4-3.122-3.122       S41.982,21.2,43.703,21.2 M43.703,19.2c-2.829,0-5.122,2.293-5.122,5.122c0,2.829,2.293,5.122,5.122,5.122       c2.829,0,5.122-2.293,5.122-5.122C48.825,21.493,46.532,19.2,43.703,19.2L43.703,19.2z"></path></g></g><g><g><path fill="#000000" d="M47.299,33.405c0.784,0.028,3.239,0.322,3.239,2.859v2.533H36.869v-2.533       c0-2.573,2.485-2.839,3.209-2.859H47.299 M47.329,31.405h-7.251c0,0-5.209,0.058-5.209,4.859c0,4.338,0,4.535,0,4.535v-0.002       h17.669c0-0.028,0-0.413,0-4.533C52.538,31.492,47.329,31.405,47.329,31.405L47.329,31.405z M52.538,40.798V40.8       C52.538,40.8,52.538,40.799,52.538,40.798L52.538,40.798z"></path></g></g></g></g></g><g display="none"><g display="inline"><g><path fill="#000000" d="M32,63C14.906,63,1,49.094,1,32C1,14.907,14.906,1,32,1s31,13.907,31,31C63,49.094,49.094,63,32,63z"></path><path d="M32,2c16.542,0,30,13.458,30,30S48.542,62,32,62S2,48.542,2,32S15.458,2,32,2 M32,0C14.327,0,0,14.327,0,32     s14.327,32,32,32s32-14.327,32-32S49.673,0,32,0L32,0z"></path></g><g><circle fill="#000000" cx="32" cy="32" r="27.562"></circle></g></g><g display="inline"><g><g><g><circle fill="#000000" cx="20.297" cy="24.322" r="4.122"></circle><path fill="#000000" d="M20.296,21.2c1.721,0,3.122,1.4,3.122,3.122s-1.4,3.122-3.122,3.122s-3.122-1.4-3.122-3.122       S18.575,21.2,20.296,21.2 M20.296,19.2c-2.829,0-5.122,2.293-5.122,5.122c0,2.829,2.293,5.122,5.122,5.122       c2.829,0,5.122-2.293,5.122-5.122C25.418,21.493,23.125,19.2,20.296,19.2L20.296,19.2z"></path></g></g><g><g><path fill="#000000" d="M12.462,39.798v-3.533c0-3.676,3.791-3.852,4.224-3.859h7.237c0.412,0.01,4.208,0.206,4.208,3.859       v3.533H12.462z"></path><path fill="#000000" d="M23.895,33.405c0.083,0.004,0.954,0.058,1.774,0.447c1.011,0.48,1.462,1.224,1.462,2.413v2.533H13.462       v-2.533c0-2.573,2.485-2.839,3.209-2.859H23.895 M23.923,31.405h-7.251c0,0-5.209,0.058-5.209,4.859c0,4.338,0,4.535,0,4.535       v-0.002h17.669c0-0.028,0-0.413,0-4.533C29.131,31.492,23.923,31.405,23.923,31.405L23.923,31.405z M29.131,40.798V40.8       C29.131,40.8,29.131,40.799,29.131,40.798L29.131,40.798z"></path></g></g></g><g><g><g><circle fill="#000000" cx="43.703" cy="24.322" r="4.122"></circle><path fill="#000000" d="M43.703,21.2c1.721,0,3.122,1.4,3.122,3.122s-1.4,3.122-3.122,3.122s-3.122-1.4-3.122-3.122       S41.982,21.2,43.703,21.2 M43.703,19.2c-2.829,0-5.122,2.293-5.122,5.122c0,2.829,2.293,5.122,5.122,5.122       c2.829,0,5.122-2.293,5.122-5.122C48.825,21.493,46.532,19.2,43.703,19.2L43.703,19.2z"></path></g></g><g><g><path fill="#000000" d="M35.869,39.798v-3.533c0-3.769,4.047-3.857,4.219-3.859h7.241c0.413,0.01,4.209,0.206,4.209,3.859       v3.533H35.869z"></path><path fill="#000000" d="M47.299,33.405c0.784,0.028,3.239,0.322,3.239,2.859v2.533H36.869v-2.533       c0-2.573,2.485-2.839,3.209-2.859H47.299 M47.329,31.405h-7.251c0,0-5.209,0.058-5.209,4.859c0,4.338,0,4.535,0,4.535v-0.002       h17.669c0-0.028,0-0.413,0-4.533C52.538,31.492,47.329,31.405,47.329,31.405L47.329,31.405z M52.538,40.798V40.8       C52.538,40.8,52.538,40.799,52.538,40.798L52.538,40.798z"></path></g></g></g></g></g></svg>