<svg xmlns="http://www.w3.org/2000/svg" xmlns:xlink="http://www.w3.org/1999/xlink" version="1.1" x="0px" y="0px" viewBox="0 0 64 64" enable-background="new 0 0 64 64" xml:space="preserve"><g display="none"><rect x="-84.495" y="-10.785" display="inline" fill="#000000" width="787" height="375.042"></rect></g><g display="none"><g display="inline"><path fill="#000000" d="M32,63C14.906,63,1,49.093,1,32S14.906,1,32,1s31,13.907,31,31S49.094,63,32,63z"></path><g><path fill="#000000" d="M32,2c16.542,0,30,13.458,30,30S48.542,62,32,62S2,48.542,2,32S15.458,2,32,2 M32,0     C14.327,0,0,14.327,0,32s14.327,32,32,32s32-14.327,32-32S49.673,0,32,0L32,0z"></path></g></g><g display="inline"><g><g><circle fill="#000000" cx="21.931" cy="34.556" r="4.406"></circle></g><g><path fill="#000000" d="M29.532,48.731c0,0,0,0.206,0-3.9s-4.481-4.181-4.481-4.181h-6.239c0,0-4.481,0.05-4.481,4.181      c0,4.106,0,3.9,0,3.9H29.532z"></path></g></g><g><g><circle fill="#000000" cx="42.069" cy="34.556" r="4.406"></circle></g><g><path fill="#000000" d="M49.669,48.731c0,0,0,0.206,0-3.9s-4.481-4.181-4.481-4.181h-6.239c0,0-4.481,0.05-4.481,4.181      c0,4.106,0,3.9,0,3.9H49.669z"></path></g></g><g><g><circle fill="#000000" cx="32" cy="13.649" r="4.406"></circle></g><g><path fill="#000000" d="M39.601,27.824c0,0,0,0.206,0-3.9s-4.481-4.181-4.481-4.181h-6.239c0,0-4.481,0.05-4.481,4.181      c0,4.106,0,3.9,0,3.9H39.601z"></path></g></g></g></g><g display="none"><g display="inline"><path fill="#000000" d="M32,63C14.906,63,1,49.093,1,32S14.906,1,32,1s31,13.907,31,31S49.094,63,32,63z"></path><g><path fill="#000000" d="M32,2c16.542,0,30,13.458,30,30S48.542,62,32,62S2,48.542,2,32S15.458,2,32,2 M32,0     C14.327,0,0,14.327,0,32s14.327,32,32,32s32-14.327,32-32S49.673,0,32,0L32,0z"></path></g></g><g display="inline"><g><g><circle fill="#000000" cx="21.931" cy="34.556" r="4.406"></circle></g><g><path fill="#000000" d="M29.532,48.731c0,0,0,0.206,0-3.9s-4.481-4.181-4.481-4.181h-6.239c0,0-4.481,0.05-4.481,4.181      c0,4.106,0,3.9,0,3.9H29.532z"></path></g></g><g><g><circle fill="#000000" cx="42.069" cy="34.556" r="4.406"></circle></g><g><path fill="#000000" d="M49.669,48.731c0,0,0,0.206,0-3.9s-4.481-4.181-4.481-4.181h-6.239c0,0-4.481,0.05-4.481,4.181      c0,4.106,0,3.9,0,3.9H49.669z"></path></g></g><g><g><circle fill="#000000" cx="32" cy="13.649" r="4.406"></circle></g><g><path fill="#000000" d="M39.601,27.824c0,0,0,0.206,0-3.9s-4.481-4.181-4.481-4.181h-6.239c0,0-4.481,0.05-4.481,4.181      c0,4.106,0,3.9,0,3.9H39.601z"></path></g></g></g></g><g><path d="M32,64c17.673,0,32-14.327,32-32S49.673,0,32,0S0,14.327,0,32S14.327,64,32,64z M49.669,44.831c0,3.57,0,3.88,0,3.9H34.468   c0-0.02,0-0.33,0-3.9c0-4.13,4.481-4.181,4.481-4.181h6.239C45.188,40.65,49.669,40.725,49.669,44.831z M46.475,34.556   c0,2.434-1.973,4.406-4.406,4.406c-2.434,0-4.406-1.973-4.406-4.406c0-2.434,1.973-4.406,4.406-4.406   C44.502,30.15,46.475,32.123,46.475,34.556z M32,9.243c2.434,0,4.406,1.973,4.406,4.406c0,2.434-1.973,4.406-4.406,4.406   c-2.434,0-4.406-1.973-4.406-4.406C27.593,11.216,29.566,9.243,32,9.243z M24.399,23.924c0-4.13,4.481-4.181,4.481-4.181h6.239   c0,0,4.481,0.075,4.481,4.181c0,3.57,0,3.88,0,3.9H24.399C24.399,27.804,24.399,27.494,24.399,23.924z M21.931,30.15   c2.434,0,4.406,1.973,4.406,4.406c0,2.434-1.973,4.406-4.406,4.406c-2.434,0-4.406-1.973-4.406-4.406   C17.524,32.123,19.497,30.15,21.931,30.15z M14.331,44.831c0-4.13,4.481-4.181,4.481-4.181h6.239c0,0,4.481,0.075,4.481,4.181   c0,3.57,0,3.88,0,3.9H14.331C14.331,48.711,14.331,48.401,14.331,44.831z"></path></g><g display="none"><g display="inline"><g><path fill="#000000" d="M32,2c16.542,0,30,13.458,30,30S48.542,62,32,62S2,48.542,2,32S15.458,2,32,2 M32,0     C14.327,0,0,14.327,0,32s14.327,32,32,32s32-14.327,32-32S49.673,0,32,0L32,0z"></path></g></g><g display="inline"><g><g><g><path fill="#000000" d="M21.931,32.15c1.327,0,2.406,1.08,2.406,2.406s-1.08,2.406-2.406,2.406s-2.406-1.08-2.406-2.406       S20.604,32.15,21.931,32.15 M21.931,30.15c-2.434,0-4.406,1.973-4.406,4.406s1.973,4.406,4.406,4.406       c2.434,0,4.406-1.973,4.406-4.406S24.365,30.15,21.931,30.15L21.931,30.15z"></path></g></g><g><g><path fill="#000000" d="M25.032,42.65c0.451,0.01,2.5,0.167,2.5,2.181v1.9H16.331v-1.9c0-1.901,1.763-2.159,2.481-2.181H25.032        M25.051,40.65h-6.239c0,0-4.481,0.05-4.481,4.181c0,3.732,0,3.902,0,3.902v-0.002h15.201c0-0.024,0-0.355,0-3.9       C29.532,40.725,25.051,40.65,25.051,40.65L25.051,40.65z M29.532,48.731v0.002C29.532,48.733,29.532,48.733,29.532,48.731       L29.532,48.731z"></path></g></g></g><g><g><g><path fill="#000000" d="M42.069,32.15c1.327,0,2.406,1.08,2.406,2.406s-1.08,2.406-2.406,2.406s-2.406-1.08-2.406-2.406       S40.742,32.15,42.069,32.15 M42.069,30.15c-2.434,0-4.406,1.973-4.406,4.406s1.973,4.406,4.406,4.406       c2.434,0,4.406-1.973,4.406-4.406S44.502,30.15,42.069,30.15L42.069,30.15z"></path></g></g><g><g><path fill="#000000" d="M45.169,42.65c0.451,0.01,2.5,0.167,2.5,2.181v1.9H36.468v-1.9c0-1.901,1.763-2.159,2.481-2.181H45.169        M45.188,40.65h-6.239c0,0-4.481,0.05-4.481,4.181c0,3.732,0,3.902,0,3.902v-0.002h15.201c0-0.024,0-0.355,0-3.9       C49.669,40.725,45.188,40.65,45.188,40.65L45.188,40.65z M49.669,48.731v0.002C49.669,48.733,49.669,48.733,49.669,48.731       L49.669,48.731z"></path></g></g></g><g><g><g><path fill="#000000" d="M32,11.243c1.327,0,2.406,1.08,2.406,2.406s-1.08,2.406-2.406,2.406s-2.406-1.08-2.406-2.406       S30.673,11.243,32,11.243 M32,9.243c-2.434,0-4.406,1.973-4.406,4.406s1.973,4.406,4.406,4.406s4.406-1.973,4.406-4.406       S34.433,9.243,32,9.243L32,9.243z"></path></g></g><g><g><path fill="#000000" d="M35.1,21.743c0.451,0.01,2.5,0.167,2.5,2.181v1.9H26.399v-1.9c0-1.901,1.763-2.159,2.481-2.181H35.1        M35.119,19.743h-6.239c0,0-4.481,0.05-4.481,4.181c0,3.732,0,3.902,0,3.902v-0.002h15.201c0-0.024,0-0.355,0-3.9       C39.601,19.818,35.119,19.743,35.119,19.743L35.119,19.743z M39.601,27.824v0.002C39.601,27.826,39.601,27.826,39.601,27.824       L39.601,27.824z"></path></g></g></g></g></g><g display="none"><g display="inline"><g><path fill="#000000" d="M32,63C14.906,63,1,49.093,1,32S14.906,1,32,1s31,13.907,31,31S49.094,63,32,63z"></path><path d="M32,2c16.542,0,30,13.458,30,30S48.542,62,32,62S2,48.542,2,32S15.458,2,32,2 M32,0C14.327,0,0,14.327,0,32     s14.327,32,32,32s32-14.327,32-32S49.673,0,32,0L32,0z"></path></g><g><circle fill="#000000" cx="32" cy="32" r="27.562"></circle></g></g><g display="inline"><g><g><g><circle fill="#000000" cx="21.931" cy="34.556" r="3.406"></circle><path fill="#000000" d="M21.931,32.15c1.327,0,2.406,1.08,2.406,2.406s-1.08,2.406-2.406,2.406s-2.406-1.08-2.406-2.406       S20.604,32.15,21.931,32.15 M21.931,30.15c-2.434,0-4.406,1.973-4.406,4.406s1.973,4.406,4.406,4.406       c2.434,0,4.406-1.973,4.406-4.406S24.365,30.15,21.931,30.15L21.931,30.15z"></path></g></g><g><g><path fill="#000000" d="M15.33,47.731v-2.9c0-3.024,3.139-3.174,3.497-3.181h6.224c0.338,0.009,3.481,0.175,3.481,3.181v2.9       H15.33z"></path><path fill="#000000" d="M25.032,42.65c0.451,0.01,2.5,0.167,2.5,2.181v1.9H16.331v-1.9c0-1.901,1.763-2.159,2.481-2.181H25.032        M25.051,40.65h-6.239c0,0-4.481,0.05-4.481,4.181c0,3.732,0,3.902,0,3.902v-0.002h15.201c0-0.024,0-0.355,0-3.9       C29.532,40.725,25.051,40.65,25.051,40.65L25.051,40.65z M29.532,48.731v0.002C29.532,48.733,29.532,48.733,29.532,48.731       L29.532,48.731z"></path></g></g></g><g><g><g><circle fill="#000000" cx="42.068" cy="34.556" r="3.406"></circle><path fill="#000000" d="M42.069,32.15c1.327,0,2.406,1.08,2.406,2.406s-1.08,2.406-2.406,2.406s-2.406-1.08-2.406-2.406       S40.742,32.15,42.069,32.15 M42.069,30.15c-2.434,0-4.406,1.973-4.406,4.406s1.973,4.406,4.406,4.406       c2.434,0,4.406-1.973,4.406-4.406S44.502,30.15,42.069,30.15L42.069,30.15z"></path></g></g><g><g><path fill="#000000" d="M35.468,47.731v-2.9c0-3.105,3.351-3.179,3.493-3.181h6.228c0.338,0.009,3.481,0.175,3.481,3.181v2.9       H35.468z"></path><path fill="#000000" d="M45.169,42.65c0.451,0.01,2.5,0.167,2.5,2.181v1.9H36.468v-1.9c0-1.901,1.763-2.159,2.481-2.181H45.169        M45.188,40.65h-6.239c0,0-4.481,0.05-4.481,4.181c0,3.732,0,3.902,0,3.902v-0.002h15.201c0-0.024,0-0.355,0-3.9       C49.669,40.725,45.188,40.65,45.188,40.65L45.188,40.65z M49.669,48.731v0.002C49.669,48.733,49.669,48.733,49.669,48.731       L49.669,48.731z"></path></g></g></g><g><g><g><circle fill="#000000" cx="32" cy="13.649" r="3.407"></circle><path fill="#000000" d="M32,11.243c1.327,0,2.406,1.08,2.406,2.406s-1.08,2.406-2.406,2.406s-2.406-1.08-2.406-2.406       S30.673,11.243,32,11.243 M32,9.243c-2.434,0-4.406,1.973-4.406,4.406s1.973,4.406,4.406,4.406s4.406-1.973,4.406-4.406       S34.433,9.243,32,9.243L32,9.243z"></path></g></g><g><g><path fill="#000000" d="M25.399,26.824v-2.9c0-3.106,3.35-3.179,3.492-3.181h6.228c0.338,0.009,3.481,0.175,3.481,3.181v2.9       H25.399z"></path><path fill="#000000" d="M35.1,21.743c0.451,0.01,2.5,0.167,2.5,2.181v1.9H26.399v-1.9c0-1.901,1.763-2.159,2.481-2.181H35.1        M35.119,19.743h-6.239c0,0-4.481,0.05-4.481,4.181c0,3.732,0,3.902,0,3.902v-0.002h15.201c0-0.024,0-0.355,0-3.9       C39.601,19.818,35.119,19.743,35.119,19.743L35.119,19.743z M39.601,27.824v0.002C39.601,27.826,39.601,27.826,39.601,27.824       L39.601,27.824z"></path></g></g></g></g></g></svg>