<svg xmlns="http://www.w3.org/2000/svg" xmlns:xlink="http://www.w3.org/1999/xlink" version="1.1" x="0px" y="0px" viewBox="0 0 100 100" enable-background="new 0 0 100 100" xml:space="preserve"><path fill="#000000" d="M43.319,1.109"></path><g><path fill="#000000" d="M52.219,98.893"></path></g><g><g><path d="M29.892,63.6c2.177,0,3.936-1.768,3.936-3.94c0-2.182-1.759-3.94-3.936-3.94c-2.172,0-3.936,1.759-3.936,3.94    C25.956,61.832,27.719,63.6,29.892,63.6z M29.892,57.294c1.304,0,2.361,1.061,2.361,2.365c0,1.3-1.057,2.36-2.361,2.36    s-2.361-1.061-2.361-2.36C27.531,58.354,28.587,57.294,29.892,57.294z"></path><path d="M27.705,70.6H38.2c0.005,0,0.005,0,0.009,0c0.542,0,1.047-0.17,1.465-0.454c0.703-0.469,1.162-1.268,1.162-2.173    c0-0.005,0-0.014,0-0.023v-1.731h1.745V54.837h-1.745h-2.627c-1.447,0-2.623,1.185-2.623,2.627v2.627v0.877v4.378h-7.882    c-1.447,0-2.627,1.18-2.627,2.627C25.078,69.415,26.258,70.6,27.705,70.6z M27.705,66.916h7.882h1.571v-1.57v-7.882    c0-0.579,0.473-1.048,1.052-1.048c0.57,0,1.052,0.479,1.052,1.048v10.485v0.074c-0.018,0.326-0.188,0.629-0.468,0.817    c-0.115,0.073-0.298,0.175-0.538,0.179H38.2H27.705c-0.583,0-1.052-0.468-1.052-1.047C26.653,67.403,27.136,66.916,27.705,66.916z    "></path><path d="M46.964,70.6h25.391c1.446,0,2.627-1.18,2.627-2.627v-9.632l-19.263-3.504H44.337v13.136    C44.337,69.42,45.517,70.6,46.964,70.6z"></path><path d="M76.731,58.341v4.382v4.373v5.25H23.328v-8.75v-4.377v-4.382c-2.42,0-4.377,1.961-4.377,4.382v21.886h4.377v-4.378h53.403    v4.378h4.373V62.723C81.104,60.302,79.139,58.341,76.731,58.341z"></path></g><polygon points="40.377,23.434 34.273,23.438 32.386,17.674 30.516,23.438 24.403,23.443 29.35,27.04 27.458,32.882 32.413,29.271    37.346,32.808 35.454,27.044  "></polygon><polygon points="58.038,23.434 51.929,23.438 50.042,17.674 48.172,23.438 42.059,23.443 47.005,27.04 45.113,32.882    50.073,29.271 55.002,32.808 53.114,27.044  "></polygon><polygon points="48.425,38.642 42.32,38.646 40.433,32.877 38.563,38.646 32.45,38.646 37.396,42.242 35.504,48.084 40.465,44.479    45.393,48.011 43.501,42.247  "></polygon><polygon points="75.657,23.434 69.548,23.438 67.66,17.674 65.791,23.438 59.678,23.443 64.624,27.035 62.728,32.882    67.688,29.271 72.621,32.808 70.733,27.044  "></polygon><polygon points="67.646,38.642 61.538,38.646 59.65,32.877 57.78,38.646 51.672,38.646 56.614,42.242 54.722,48.084 59.683,44.479    64.61,48.011 62.723,42.247  "></polygon></g></svg>