<svg xmlns:dc="http://purl.org/dc/elements/1.1/" xmlns:cc="http://creativecommons.org/ns#" xmlns:rdf="http://www.w3.org/1999/02/22-rdf-syntax-ns#" xmlns:svg="http://www.w3.org/2000/svg" xmlns="http://www.w3.org/2000/svg" version="1.1" viewBox="0 0 100.00001 100" xml:space="preserve" x="0px" y="0px"><path d="m 73.78125,16.71875 c -0.530955,0.106557 -0.950892,0.649513 -0.90625,1.21875 0.133939,1.862377 0.285685,3.732013 0.6875,5.5625 0.07016,0.325278 0.186837,1.125 0.53125,1.125 0.344411,0 0.40497,-0.799722 0.46875,-1.125 0.382679,-1.836865 0.510195,-3.731373 0.625,-5.59375 0.03827,-0.650557 -0.524826,-1.21939 -1.15625,-1.1875 -0.07893,-0.0032 -0.174149,-0.01522 -0.25,0 z m 7,1.71875 c -0.460412,-0.05949 -0.967459,0.184918 -1.1875,0.625 -0.848275,1.664659 -1.681718,3.345537 -2.28125,5.125 -0.108426,0.312522 -0.456017,1.040166 -0.15625,1.21875 0.293388,0.178584 0.776769,-0.470008 1,-0.71875 1.275602,-1.37127 2.378751,-2.894023 3.4375,-4.4375 0.376302,-0.535752 0.186264,-1.356484 -0.375,-1.65625 -0.130749,-0.0877 -0.284029,-0.136418 -0.4375,-0.15625 z M 67.3125,18.53125 c -0.15357,0.02143 -0.275501,0.06696 -0.40625,0.15625 -0.554886,0.306144 -0.757679,1.126876 -0.375,1.65625 1.077883,1.524343 2.211644,3.047736 3.5,4.40625 0.229608,0.242364 0.706612,0.872462 1,0.6875 C 71.324638,25.258916 70.989805,24.531272 70.875,24.21875 70.249956,22.452043 69.398659,20.776903 68.53125,19.125 68.306426,18.689702 67.773211,18.466972 67.3125,18.53125 z M 6.375,23.5625 C 5.6606637,23.5625 5,24.223164 5,24.9375 L 5,65.625 5,66.03125 5,72.25 c 0,0.714337 0.6606637,1.34375 1.375,1.34375 l 4.78125,0 c 0.529375,0 1.039526,-0.321395 1.25,-0.8125 1.415917,-3.399477 4.752272,-5.8125 8.6875,-5.8125 3.922471,0 7.265204,2.413023 8.6875,5.8125 0.204095,0.491105 0.745497,0.8125 1.28125,0.8125 l 37.84375,0 c 0.535753,0 1.077153,-0.321395 1.28125,-0.8125 1.422294,-3.399477 4.75865,-5.8125 8.6875,-5.8125 3.743888,0 7.063667,2.571833 8.5625,5.84375 0.216851,0.471972 0.733383,0.78125 1.25,0.78125 l 4.9375,0 C 94.339337,73.59375 95,72.964337 95,72.25 l 0,-21.8125 c 0,-0.235986 -0.0727,-0.452156 -0.1875,-0.65625 L 84.75,32.1875 C 84.514015,31.77293 84.04085,31.5 83.5625,31.5 l -19.0625,0 0,-6.5625 c 0,-0.714336 -0.629414,-1.375 -1.34375,-1.375 l -56.78125,0 z m 67.6875,2.375 c -2.155766,0 -3.940038,1.645259 -4.125,3.75 2.736164,0.01913 5.482588,0.0064 8.21875,0 -0.178583,-2.111119 -1.937985,-3.75 -4.09375,-3.75 z m -39.34375,3.75 c 9.413931,0 17.03125,7.648569 17.03125,17.0625 0,9.420311 -7.617319,17.03125 -17.03125,17.03125 -9.420311,0 -17.0625,-7.610939 -17.0625,-17.03125 0,-9.413931 7.642189,-17.0625 17.0625,-17.0625 z m 32.15625,5.15625 14.75,0 c 0.478352,0 0.951515,0.24168 1.1875,0.65625 l 7.625,13.25 c 0.229608,0.41457 0.236008,0.966809 0,1.375 -0.235985,0.41457 -0.70915,0.6875 -1.1875,0.6875 l -22.375,0 c -0.714336,0 -1.375,-0.660662 -1.375,-1.375 l 0,-13.25 c 0,-0.714338 0.660664,-1.34375 1.375,-1.34375 z m -34.625,0.375 c -0.676067,0 -1.21875,0.567554 -1.21875,1.25 l 0,6.59375 -6.59375,0 c -0.676068,0 -1.25,0.536305 -1.25,1.21875 l 0,4.90625 c 0,0.676067 0.573932,1.25 1.25,1.25 l 6.59375,0 0,6.59375 c 0,0.682447 0.542683,1.21875 1.21875,1.21875 l 4.90625,0 c 0.682445,0 1.21875,-0.536303 1.21875,-1.21875 l 0,-6.59375 6.625,0 c 0.682446,0 1.21875,-0.573933 1.21875,-1.25 l 0,-4.90625 C 46.21875,43.598805 45.682446,43.0625 45,43.0625 l -6.625,0 0,-6.59375 c 0,-0.682446 -0.536305,-1.25 -1.21875,-1.25 l -4.90625,0 z m -11.15625,34.25 c -3.820424,0 -6.90625,3.092203 -6.90625,6.90625 0,3.820424 3.085826,6.9375 6.90625,6.9375 C 24.907796,83.3125 28,80.195424 28,76.375 28,72.560953 24.907796,69.46875 21.09375,69.46875 z m 57.78125,0 c -3.820424,0 -6.90625,3.092203 -6.90625,6.90625 0,3.820424 3.085826,6.9375 6.90625,6.9375 3.814045,0 6.90625,-3.117076 6.90625,-6.9375 0,-3.814047 -3.092205,-6.90625 -6.90625,-6.90625 z" transform="translate(0,-5e-6)" style="" fill="#009FE3" fill-opacity="1" fill-rule="nonzero" stroke="none"></path></svg>