<svg xmlns:dc="http://purl.org/dc/elements/1.1/" xmlns:cc="http://creativecommons.org/ns#" xmlns:rdf="http://www.w3.org/1999/02/22-rdf-syntax-ns#" xmlns:svg="http://www.w3.org/2000/svg" xmlns="http://www.w3.org/2000/svg" version="1.1" viewBox="0 0 100.00001 100" xml:space="preserve" x="0px" y="0px"><path d="m 30.6875,8.25 c -1.103378,-0.023982 -3.03132,0.8102119 -3.84375,2 -1.792799,2.62512 -1.531479,7.718681 1.0625,10.5625 4.305959,4.720139 -5.268862,9.205901 -10.25,13.1875 -1.19988,-1.977119 -2.46438,-3.01097 -2.8125,-2.28125 0.93924,5.637417 5.394741,12.673171 9.5,15.46875 7.905417,5.216758 26.893853,5.864369 35.09375,1.21875 2.55402,-1.4472 11.051601,-0.63642 15.6875,-1.3125 11.914556,-1.738259 12.417128,-16.630963 5.78125,-24.25 -3.498479,-4.016699 -12.559783,-7.138139 -18.4375,-3.1875 -6.123418,4.115519 -7.30643,8.151163 -5.84375,14.125 1.11168,4.539059 0.91971,5.10585 -1.40625,4.59375 -4.407659,-0.97164 -5.75523,-7.328912 -1.40625,-13.40625 3.861719,-5.399818 3.404909,-9.23971 -0.09375,-9.34375 -1.26288,-0.03744 -1.75618,0.7297 -1.5625,2.5 0.16884,1.539539 -0.54882,4.815711 -2.8125,7.15625 -2.497139,2.5821 -2.36941,5.850621 -2.21875,8 0.42444,3.6081 -1.570551,0.37331 -4.15625,0.96875 -0.9324,0.2547 -1.996891,0.3545 -2.90625,0.125 -0.07668,-0.3681 -0.51606,-0.92648 -1.125,-1.4375 -0.64818,-0.543419 -1.29049,-0.87489 -1.65625,-0.84375 -1.36152,-1.4634 -2.340349,-2.009851 -0.40625,-5.15625 1.8288,-2.77164 -0.217601,-6.279491 -4.1875,-9.15625 -1.596599,-1.15632 -3.60048,-5.63136 -1.875,-7.6875 C 31.889563,8.8106769 31.545683,8.2686526 30.6875,8.25 z M 8.25,37.625 C 3.2100016,37.4594 5.3796103,49.007141 5.96875,53.6875 c 0.5889598,4.680719 5.904721,10.198042 8.4375,15.125 0.90036,1.63242 6.898711,5.48023 11.15625,7.65625 4.076099,1.550699 7.65416,5.077453 7.625,10.84375 0.03438,1.44108 -0.3153,4.33976 0.9375,4.4375 l 11.4375,0 c 0.75762,-0.05904 0.81359,-0.98662 0.96875,-2.3125 1.11636,-7.189198 1.18242,-12.929662 -1.125,-19.8125 C 43.164171,64.616142 38.086219,61.889669 33.5,59.34375 29.023941,57.21165 26.15669,52.997719 22.34375,50 c -1.286279,-1.27656 -4.016441,-1.37287 -4.9375,0.40625 -0.98298,2.247299 0.116761,4.93461 1.875,6.46875 2.03202,1.20762 4.74672,4.36093 5.8125,6.71875 -3.358439,-0.04032 -6.387321,-2.134501 -8.1875,-4.875 C 14.97017,55.32125 11.9145,52.317929 11.4375,48.28125 11.38062,46.00317 11.47721,43.67112 10.90625,41.4375 10.50881,39.976981 10.008239,37.9139 8.25,37.625 z m 83.5,0 c -1.75824,0.28908 -2.25899,2.351981 -2.65625,3.8125 -0.57114,2.23362 -0.47437,4.56567 -0.53125,6.84375 -0.47718,4.036679 -3.53267,7.04018 -5.46875,10.4375 -1.80018,2.740499 -4.829241,4.83468 -8.1875,4.875 1.06578,-2.35764 3.78066,-5.51131 5.8125,-6.71875 1.758419,-1.53414 2.85798,-4.221451 1.875,-6.46875 C 81.67251,48.62713 78.94271,48.72344 77.65625,50 73.843491,52.997719 70.975879,57.21183 66.5,59.34375 61.913601,61.889849 56.83565,64.616142 54.59375,69.625 c -2.307419,6.882838 -2.24154,12.623302 -1.125,19.8125 0.15516,1.32606 0.211131,2.25346 0.96875,2.3125 l 11.4375,0 c 1.25298,-0.09756 0.90312,-2.99642 0.9375,-4.4375 -0.02934,-5.766477 3.548721,-9.293051 7.625,-10.84375 4.257359,-2.17584 10.256071,-6.02383 11.15625,-7.65625 2.53296,-4.926958 7.84836,-10.444281 8.4375,-15.125 C 94.620209,49.006961 96.789998,37.45958 91.75,37.625 z" transform="translate(0,-5e-6)" style="" fill="#009FE3" fill-opacity="1"></path></svg>