<svg xmlns:dc="http://purl.org/dc/elements/1.1/" xmlns:cc="http://creativecommons.org/ns#" xmlns:rdf="http://www.w3.org/1999/02/22-rdf-syntax-ns#" xmlns:svg="http://www.w3.org/2000/svg" xmlns="http://www.w3.org/2000/svg" version="1.1" viewBox="0 0 100.00001 100" xml:space="preserve" x="0px" y="0px"><path d="M 50,5 C 36.898906,5 26.21875,17.430192 26.21875,32.6875 a 2.5386248,2.9563714 0 0 0 5.0625,0 c 0,-12.063396 8.360131,-21.78125 18.71875,-21.78125 10.358978,0 18.6875,9.717854 18.6875,21.78125 a 2.546875,2.9659792 0 0 0 5.09375,0 C 73.78125,17.430192 63.101273,5 50,5 z M 14.4375,23.6875 c -1.762017,0 -3.15625,1.425304 -3.15625,3.1875 l 0,64.9375 c 0,1.762197 1.394233,3.1875 3.15625,3.1875 l 71.125,0 c 1.762377,0 3.15625,-1.425303 3.15625,-3.1875 l 0,-64.9375 c 0,-1.762196 -1.393873,-3.1875 -3.15625,-3.1875 l -10.5,0 c 0.385199,1.401477 0.68726,2.816843 0.875,4.25 0.0144,0.12348 0.04594,0.28007 0.0625,0.40625 1.230658,1.261977 1.96875,3.007724 1.96875,4.9375 0,3.848752 -3.014287,6.96875 -6.75,6.96875 -3.734632,0 -6.75,-3.119818 -6.75,-6.96875 0,-1.621797 0.535881,-3.128282 1.4375,-4.3125 C 65.58729,27.154894 65.108678,25.376616 64.375,23.6875 l -28.78125,0 c -0.49356,1.096377 -0.874011,2.223722 -1.15625,3.375 -0.20664,0.584099 -0.330291,1.219872 -0.40625,1.84375 0.938698,1.195918 1.5,2.717383 1.5,4.375 0,3.848752 -3.014647,6.96875 -6.75,6.96875 C 25.045897,40.25 22,37.130182 22,33.28125 c 0,-1.923836 0.776902,-3.676243 2,-4.9375 0.18054,-1.568877 0.499021,-3.128233 0.9375,-4.65625 l -10.5,0 z m 30.90625,21.71875 9.3125,0 c 0.627299,0 1.15625,0.497701 1.15625,1.125 l 0,11.1875 11.1875,0 c 0.627298,0 1.125,0.497701 1.125,1.125 l 0,9.34375 c 0,0.627299 -0.497702,1.125 -1.125,1.125 l -11.1875,0 0,11.1875 c 0,0.627299 -0.528951,1.125 -1.15625,1.125 l -9.3125,0 c -0.627479,0 -1.15625,-0.497701 -1.15625,-1.125 l 0,-11.1875 -11.15625,0 c -0.627299,0 -1.15625,-0.497701 -1.15625,-1.125 l 0,-9.34375 c 0,-0.627299 0.528951,-1.125 1.15625,-1.125 l 11.15625,0 0,-11.1875 c 0,-0.627299 0.528771,-1.125 1.15625,-1.125 z" transform="translate(0,-5e-6)" style="" fill="#292e31" fill-opacity="1" fill-rule="nonzero" stroke="none"></path></svg>