<svg xmlns:dc="http://purl.org/dc/elements/1.1/" xmlns:cc="http://creativecommons.org/ns#" xmlns:rdf="http://www.w3.org/1999/02/22-rdf-syntax-ns#" xmlns:svg="http://www.w3.org/2000/svg" xmlns="http://www.w3.org/2000/svg" version="1.1" viewBox="0 0 100.00001 100" xml:space="preserve" x="0px" y="0px"><path d="m 85.625,11.1875 c -2.264841,0.183103 -4.742701,2.138836 -5.71875,4.6875 -2.127599,5.554616 -6.711752,9.414942 -11.53125,12.4375 -7.469455,4.684498 -15.064255,9.159772 -22.71875,13.53125 l -0.34375,1.5 c -0.05112,0.21384 0.07047,0.40593 0.28125,0.46875 l 2.3125,0.6875 c 0.337859,0.0999 0.45762,0.31389 0.375,0.65625 L 47.6875,47.625 c -0.0261,0.10728 0.0121,0.19503 0.0625,0.28125 0.04968,0.08604 0.11273,0.15636 0.21875,0.1875 l 2,0.59375 C 61.077623,42.230184 72.284966,36.478427 83.5625,31.90625 c 2.905918,-1.1691 6.643131,-0.312721 9.21875,-2.0625 C 94.417449,28.73207 95.03852,26.186778 95,23.9375 94.93304,20.029522 90.853109,18.594278 89.71875,14.5 89.015985,11.962677 87.386543,11.045087 85.625,11.1875 z m -44.9375,3.34375 c -0.113207,0.0017 -0.233028,0.02961 -0.34375,0.0625 -0.442685,0.131615 -0.768522,0.51674 -0.96875,0.96875 -0.200107,0.451927 -0.30811,0.972883 -0.34375,1.59375 -0.07096,1.24169 0.139806,2.805773 0.625,4.4375 0.508261,1.709136 1.686471,3.760074 2.75,5.4375 C 43.469415,28.708923 44.4375,30 44.4375,30 c 0.134261,0.181791 0.33919,0.24471 0.53125,0.1875 0.192142,-0.05709 0.36219,-0.24324 0.375,-0.46875 0,0 0.08832,-1.576503 0.0625,-3.5625 -0.0259,-1.986118 -0.147907,-4.353244 -0.65625,-6.0625 -0.485194,-1.631728 -1.168314,-3.061427 -1.90625,-4.0625 -0.368907,-0.500578 -0.741672,-0.886986 -1.15625,-1.15625 -0.311115,-0.201827 -0.660378,-0.34871 -1,-0.34375 z m -12.5625,3.4375 c -0.229675,0.0189 -0.433792,0.08925 -0.625,0.21875 -0.382537,0.259075 -0.570301,0.696099 -0.625,1.1875 -0.05458,0.491319 0.0029,1.053536 0.15625,1.65625 0.306706,1.205225 0.951657,2.621742 1.90625,4.03125 0.999921,1.476436 2.76151,3.064963 4.28125,4.34375 1.519862,1.278705 2.8125,2.21875 2.8125,2.21875 0.182562,0.132984 0.427762,0.14367 0.59375,0.03125 0.165867,-0.112334 0.243116,-0.343541 0.1875,-0.5625 0,0 -0.407774,-1.551715 -1.03125,-3.4375 -0.623475,-1.885783 -1.437578,-4.086063 -2.4375,-5.5625 -0.954593,-1.409507 -2.025792,-2.549257 -3.03125,-3.28125 -0.50277,-0.366057 -0.992262,-0.649597 -1.46875,-0.78125 -0.238243,-0.06583 -0.489075,-0.0814 -0.71875,-0.0625 z M 20.65625,28.25 c -0.494038,0.01818 -0.963499,0.169021 -1.25,0.53125 -0.28654,0.362432 -0.345938,0.858686 -0.25,1.34375 0.09618,0.484898 0.328325,0.971667 0.65625,1.5 0.65573,1.056748 1.727357,2.225152 3.0625,3.28125 1.398545,1.106364 3.540324,2.082632 5.375,2.84375 1.834594,0.760997 3.34375,1.28125 3.34375,1.28125 0.214162,0.07179 0.438185,9.87e-4 0.5625,-0.15625 0.124397,-0.157115 0.150239,-0.401613 0.03125,-0.59375 0,0 -0.836684,-1.358905 -2,-2.96875 -1.162952,-1.610092 -2.632787,-3.456257 -4.03125,-4.5625 -1.335143,-1.056098 -2.695648,-1.823835 -3.875,-2.21875 -0.589757,-0.197314 -1.131084,-0.299352 -1.625,-0.28125 z m 25.125,2.96875 c -0.154014,0.0135 -0.314892,0.048 -0.46875,0.09375 -1.229976,0.365738 -1.928238,1.645024 -1.5625,2.875 0.366071,1.23099 1.644457,1.928446 2.875,1.5625 1.230868,-0.365989 1.959821,-1.644011 1.59375,-2.875 -0.320239,-1.077009 -1.3594,-1.750745 -2.4375,-1.65625 z m -7.21875,1 c -0.447817,4.62e-4 -0.882814,0.136408 -1.28125,0.40625 -1.063223,0.720071 -1.345071,2.155527 -0.625,3.21875 0.720154,1.063345 2.155527,1.345071 3.21875,0.625 1.063103,-0.719989 1.345154,-2.186655 0.625,-3.25 -0.449685,-0.663984 -1.191138,-1.00077 -1.9375,-1 z m -3.9375,6.5 c -0.591018,0.06899 -1.164461,0.371794 -1.5625,0.875 -0.79664,1.007148 -0.632148,2.48461 0.375,3.28125 1.00723,0.796762 2.484609,0.600898 3.28125,-0.40625 0.79648,-1.006862 0.63223,-2.453238 -0.375,-3.25 -0.503206,-0.398039 -1.127732,-0.568986 -1.71875,-0.5 z m 8,5.96875 C 37.499324,49.148978 32.300606,53.542872 27.09375,57.90625 22.431212,61.813508 16.751216,64.5281 10.5,65.9375 c -3.5873975,0.808919 -8.3653469,6.493771 -3.28125,9.84375 6.943495,4.575417 0.122621,6.167742 1.75,9.625 0.3954598,0.840419 0.7784706,1.49031 1.21875,1.96875 0.96876,1.052459 2.200841,1.34138 4.1875,1.4375 6.073556,0.2934 9.249431,-3.241024 10.46875,-10.3125 1.219499,-7.071655 4.570122,-10.391581 7.75,-13.5 5.116497,-4.973397 10.301824,-9.818812 15.5625,-14.46875 l -2.0625,-0.1875 C 45.873611,50.32413 45.74136,50.15818 45.75,49.9375 l 0.09375,-2.5 c 0.0144,-0.35172 -0.18043,-0.56189 -0.53125,-0.59375 L 42.9375,46.625 c -0.21906,-0.02016 -0.3831,-0.18665 -0.375,-0.40625 L 42.625,44.6875 z" transform="translate(0,-5e-6)" style="" fill="#009FE3" fill-opacity="1"></path></svg>