<?xml version="1.0" encoding="UTF-8" ?>
<!DOCTYPE svg PUBLIC "-//W3C//DTD SVG 1.1//EN" "http://www.w3.org/Graphics/SVG/1.1/DTD/svg11.dtd">
<svg width="225pt" height="225pt" viewBox="0 0 225 225" version="1.1" xmlns="http://www.w3.org/2000/svg">
<path fill="#ffffff" d=" M 0.00 0.00 L 225.00 0.00 L 225.00 225.00 L 0.00 225.00 L 0.00 0.00 Z" />
<path fill="#333333" d=" M 3.65 27.69 C 7.49 24.74 13.37 26.03 15.90 30.06 C 27.73 48.03 34.34 69.42 34.53 90.94 C 34.55 101.40 34.70 111.86 34.44 122.31 C 52.69 125.12 70.60 132.11 84.62 144.34 C 93.11 151.59 100.12 160.94 103.08 171.83 C 109.19 173.58 115.86 173.26 122.03 171.93 C 125.57 157.58 136.48 146.37 148.34 138.23 C 160.90 129.65 175.59 124.63 190.56 122.34 C 190.68 103.56 188.96 84.41 193.57 66.00 C 196.68 53.04 202.05 40.59 209.48 29.52 C 212.86 24.65 220.82 25.15 223.76 30.23 C 223.96 33.91 224.89 38.21 222.38 41.34 C 213.07 56.11 207.89 73.49 207.73 90.96 C 207.62 100.31 207.74 109.67 207.66 119.02 C 207.48 122.00 208.65 124.79 209.53 127.57 C 214.18 141.88 216.83 156.95 216.10 172.02 C 215.24 181.63 209.66 190.35 202.24 196.30 C 191.06 205.27 176.14 208.68 162.04 207.09 C 148.49 205.43 134.90 199.56 126.08 188.86 C 117.14 190.79 107.92 190.52 98.97 189.00 C 81.47 208.88 49.09 213.40 26.78 199.17 C 17.36 193.23 9.91 183.32 8.90 172.00 C 8.21 157.77 10.54 143.53 14.71 129.95 C 15.84 126.04 17.72 122.20 17.34 118.02 C 16.90 102.01 18.68 85.70 14.67 70.01 C 12.11 58.87 7.21 48.42 1.17 38.77 C 1.11 35.06 -0.26 29.97 3.65 27.69 Z" />
</svg>
