<svg xmlns="http://www.w3.org/2000/svg" xmlns:xlink="http://www.w3.org/1999/xlink" version="1.1" x="0px" y="0px" viewBox="0 0 100 100" style="enable-background:new 0 0 100 100;" xml:space="preserve"><path d="M73,58.6c7-0.3,6.2-7.2,6.2-12.2c0-7.4,0.1-14.7,0-22.1c0-2.9-0.8-5.6-3.8-6.8c-1.6-0.6-3.6-0.4-5.3-0.4  c-14.2,0-28.5,0-42.7,0c-0.1,0-0.3,0-0.4,0c-0.2,0-0.4,0-0.6,0.1c-6.9,1.2-5.3,9.9-5.3,15.2c0,6.7-0.3,13.4,0,20.1  c0.3,6.5,6.2,6.1,11,6.1c7.9,0,15.7,0,23.6,0C61.4,58.6,67.2,58.9,73,58.6z M42.3,55.1c-4.8,0-10,0.6-14.8,0  c-2.9-0.3-2.9-2.3-2.9-4.6c0-3.5,0-7.1,0-10.6c0-3.9,0-7.8,0-11.7c0-2.3-0.9-7.3,2.4-7.6c11.2,0,22.4,0,33.6,0c4,0,8.7-0.7,12.7,0  c3,0.5,2.5,3.4,2.5,5.6c0,3.2,0,6.4,0,9.6c0,3.6,0,7.3,0,10.9c0,1.9,0.3,4.1,0,5.9c-0.7,4-8.7,2.5-11.6,2.5  C56.8,55.1,49.6,55.1,42.3,55.1z"></path><path d="M39.2,49.9c-2.1,0-4.8,0.5-6.8-0.2c-2.8-1.1-2-5.1-2-7.5c0-1.3-2.1-1.3-2.1,0c0,3-0.6,6.8,2.2,8.8c2.3,1.6,6,1,8.7,1  C40.6,52,40.6,49.9,39.2,49.9z"></path><path d="M35.6,72.4c-0.5-4.2-3.7-7.7-8.2-7.7c-4.5,0-8.2,3.8-8.2,8.2c0,4.3,3.5,8,7.9,8.2c4.6,0.2,8.1-3.3,8.5-7.7  c0-0.2,0.1-0.3,0.1-0.5C35.7,72.7,35.6,72.6,35.6,72.4z M22.7,72.9c0-6.1,9.2-6.1,9.5,0C31.8,79,22.7,79.1,22.7,72.9z"></path><path d="M81,73.4c0-0.2,0.1-0.3,0.1-0.5c0-0.2,0-0.4-0.1-0.5c-0.5-4.2-3.7-7.7-8.2-7.7c-4.5,0-8.2,3.8-8.2,8.2c0,4.3,3.5,8,7.9,8.2  C77.1,81.3,80.5,77.8,81,73.4z M68.1,72.9c0-6.1,9.2-6.1,9.5,0C77.2,79,68.1,79.1,68.1,72.9z"></path><path d="M92.8,32.9c-1-2.6-2.8-3.1-5-3.2c0-0.2,0-0.3,0-0.5c0-5,0-10,0-15c0-3.5,0.1-7.3-3.8-8.8c-2.6-1-6.3-0.4-9-0.4  c-6.2,0-12.4,0-18.7,0C44.4,5,32.5,5,20.6,5c-0.6,0-1.2,0-1.9,0c-0.1,0-0.3,0-0.4,0c-0.2,0-0.4,0-0.5,0.1c-4.5,0.7-5.4,4.3-5.4,8.3  c0,4.8,0,9.6,0,14.4c0,0.7,0,1.3,0,2c-2.3,0.1-4.2,0.5-5.3,3.2C6.4,34.8,6.6,37,6.6,39c0,2-0.2,4.2,0.5,6.1c1.1,2.7,2.9,3.1,5.3,3.2  c0,6.7,0,13.4,0,20.1c0,4.2-0.1,8.4,0,12.6c0,2.5,0.8,4.7,2.5,5.9c0,2.5-0.2,5,2,6.7c1.9,1.5,4.2,1.3,6.4,1.3c2.2,0,4.4,0.2,6.3-1.2  c2-1.4,2.2-3.3,2.2-5.4c5.8,0,11.5-0.2,17.2-0.2c6.3,0,12.6,0.1,18.8,0.1c0,2,0.2,3.9,2,5.3c1.9,1.5,4.2,1.3,6.4,1.3  c2.2,0,4.4,0.2,6.3-1.2c2.3-1.7,2.2-4.1,2.2-6.6c4.6-3,3-12.2,3-17.1c0-7.3,0-14.5,0-21.8c2.2-0.1,4-0.6,5-3.2  c0.8-1.9,0.5-4.1,0.5-6.1C93.4,37,93.6,34.8,92.8,32.9z M10.5,44.2c-0.3-0.4-0.3-1.5-0.4-2c-0.1-1,0-2.1,0-3.1c0-1-0.1-2.1,0-3.1  c0-0.5,0.1-1.6,0.4-2c0.5-0.6,1.2-0.7,1.9-0.7c0,3.9,0,7.8,0,11.7C11.7,44.9,10.9,44.7,10.5,44.2z M26.9,91.4  c-1,0.3-2.4,0.2-3.5,0.2c-1,0-2,0.1-3-0.1c-1.8-0.4-2-1.8-2-3.2c0.1,0,0.1,0,0.2,0c3.3,0.2,6.5,0.2,9.8,0.2  C28.4,89.7,28.2,90.9,26.9,91.4z M25.7,84.7c-2.3,0-5.1,0.4-7.3,0c-3.4-0.6-2.4-5.5-2.4-8.1c0-11.6,0-23.3,0-34.9  c0-9.8-0.5-19.7,0-29.5c0.1-1.7-0.1-3.5,2.4-3.8c19.7,0,39.4,0,59.2,0c2.6,0,6.3-0.8,6.8,2.7c0.4,2.8,0,5.9,0,8.7  c0,12.2,0,24.5,0,36.7c0,5.6,0,11.2,0,16.8c0,2.8,0.4,5.9,0,8.7c-0.5,3.4-4.1,2.7-6.6,2.7c-5.1,0-10.2,0-15.3,0  C50.1,84.7,37.9,84.7,25.7,84.7z M79.9,91.4c-1,0.3-2.4,0.2-3.5,0.2c-1,0-2,0.1-3-0.1c-1.7-0.4-2-1.7-2-3.1c3.3,0,6.7,0,10-0.1  c0,0,0,0,0,0C81.4,89.6,81.2,90.9,79.9,91.4z M89.9,42.2c0,0.5-0.1,1.6-0.4,2c-0.4,0.5-1,0.7-1.7,0.7c0-3.9,0-7.8,0-11.7  c0.7,0.1,1.3,0.2,1.7,0.7c0.3,0.4,0.3,1.5,0.4,2c0.1,1,0,2.1,0,3.1C89.9,40.1,90,41.1,89.9,42.2z"></path></svg>