<svg xmlns="http://www.w3.org/2000/svg" xmlns:xlink="http://www.w3.org/1999/xlink" version="1.1" x="0px" y="0px" viewBox="0 0 100 100" style="enable-background:new 0 0 100 100;" xml:space="preserve"><path d="M23.6,7.1c0,3.5,0,7,0,10.5h-9c-4.1,0-7.4,3.3-7.4,7.4v62.5c0,4.1,3.3,7.4,7.4,7.4h70.8c4.1,0,7.4-3.3,7.4-7.4V25.1  c0-4.1-3.3-7.4-7.4-7.4h-9c0-3.5,0-7,0-10.5c0-2.8-4.4-2.8-4.4,0c0,3.5,0,7,0,10.5H28c0-3.5,0-7,0-10.5C28,4.3,23.6,4.3,23.6,7.1z   M85.4,90.6H14.6c-1.7,0-3.1-1.4-3.1-3.1V44.3c23,0,46,0,69.1,0c2.6,0,5.2,0,7.9,0v43.3C88.5,89.3,87.1,90.6,85.4,90.6z M72,22  c0,2.6,0,5.1,0,7.7c0,2.8,4.4,2.8,4.4,0c0-2.6,0-5.1,0-7.7h9c1.7,0,3.1,1.4,3.1,3.1v14.8c-22.7,0-45.5,0-68.2,0c-2.9,0-5.8,0-8.7,0  V25.1c0-1.7,1.4-3.1,3.1-3.1h9c0,2.6,0,5.1,0,7.7c0,2.8,4.4,2.8,4.4,0c0-2.6,0-5.1,0-7.7H72z"></path><circle cx="26.6" cy="59.7" r="3.7"></circle><circle cx="26.6" cy="76.9" r="3.7"></circle><circle cx="73.4" cy="59.7" r="3.7"></circle><circle cx="73.4" cy="76.9" r="3.7"></circle><circle cx="50" cy="59.7" r="3.7"></circle><circle cx="50" cy="76.9" r="3.7"></circle></svg>