<svg xmlns="http://www.w3.org/2000/svg" xmlns:xlink="http://www.w3.org/1999/xlink" version="1.1" x="0px" y="0px" viewBox="0 0 100 100" style="enable-background:new 0 0 100 100;" xml:space="preserve"><path d="M88,24.4H77c-1.8,0-3.9-1.5-4.4-3.3l-1-3.3c-1.1-3.5-4.8-6.2-8.4-6.2H37c-3.6,0-7.3,2.7-8.4,6.2l-1,3.3  c-0.5,1.7-2.6,3.3-4.4,3.3h-11c-3.9,0-7,3.1-7,7v48.3c0,3.9,3.1,7,7,7H88c3.9,0,7-3.1,7-7V31.4C95,27.6,91.9,24.4,88,24.4z   M90.9,79.8c0,1.6-1.3,2.9-2.9,2.9H12.2c-1.6,0-2.9-1.3-2.9-2.9V31.4c0-1.6,1.3-2.9,2.9-2.9h11c3.6,0,7.3-2.7,8.4-6.2l1-3.3  c0.5-1.7,2.6-3.3,4.4-3.3h26.2c1.8,0,3.9,1.5,4.4,3.3l1,3.3c1.1,3.5,4.8,6.2,8.4,6.2h11c1.6,0,2.9,1.3,2.9,2.9V79.8z"></path><path d="M50.1,31.1c-12.2,0-22.2,10-22.2,22.2s10,22.2,22.2,22.2c12.2,0,22.2-10,22.2-22.2S62.3,31.1,50.1,31.1z M50.1,71.4  c-10,0-18.1-8.1-18.1-18.1c0-10,8.1-18.1,18.1-18.1c10,0,18.1,8.1,18.1,18.1C68.2,63.3,60.1,71.4,50.1,71.4z"></path></svg>