<svg xmlns="http://www.w3.org/2000/svg" xmlns:xlink="http://www.w3.org/1999/xlink" version="1.1" x="0px" y="0px" viewBox="0 0 100 100" style="enable-background:new 0 0 100 100;" xml:space="preserve"><path d="M86.2,15.2c2.3-2.3-1.2-5.7-3.5-3.5C71.8,22.6,60.9,33.5,50,44.4c-8-8-16.1-16.1-24.1-24.1c-2.9-2.9-5.8-5.8-8.7-8.7  c-2.3-2.3-5.7,1.2-3.5,3.5C24.7,26.1,35.6,37,46.5,47.9c-8,8-16.1,16.1-24.1,24.1c-2.9,2.9-5.8,5.8-8.7,8.7  c-2.3,2.3,1.2,5.7,3.5,3.5C28.2,73.2,39.1,62.3,50,51.4c8,8,16.1,16.1,24.1,24.1c2.9,2.9,5.8,5.8,8.7,8.7c2.3,2.3,5.7-1.2,3.5-3.5  C75.3,69.7,64.4,58.8,53.5,47.9c8-8,16.1-16.1,24.1-24.1C80.5,20.9,83.4,18,86.2,15.2z"></path></svg>