<svg xmlns="http://www.w3.org/2000/svg" xmlns:xlink="http://www.w3.org/1999/xlink" version="1.1" x="0px" y="0px" viewBox="0 0 100 100" style="enable-background:new 0 0 100 100;" xml:space="preserve"><path d="M33,71.1c3.5,0.1,6.2-2.5,6.6-5.9c0-0.1,0.1-0.3,0-0.5c0-0.2,0-0.4-0.1-0.6c-0.4-3.2-2.9-5.7-6.3-5.7  c-3.4,0-6.3,2.9-6.3,6.3C26.9,68.1,29.6,71,33,71.1z M36.5,64.8c-0.2,4.2-6.5,4.2-6.5,0C30,60.6,36.3,60.6,36.5,64.8z"></path><path d="M66.5,71.1c3.5,0.1,6.2-2.5,6.6-5.9c0-0.1,0.1-0.3,0-0.5c0-0.2,0-0.4-0.1-0.6c-0.4-3.2-2.9-5.7-6.3-5.7  c-3.4,0-6.3,2.9-6.3,6.3C60.4,68.1,63.1,71,66.5,71.1z M70,64.8c-0.2,4.2-6.5,4.2-6.5,0C63.5,60.6,69.8,60.6,70,64.8z"></path><path d="M94.3,40.1c-12.3-7.5-24.7-15-37-22.5c-1.6-1-3.3-2.3-5.1-2.7c-3-0.8-5.4,0.4-7.9,1.8c-6.8,4.1-13.6,8.3-20.5,12.4  c-6,3.6-12,7.3-18,10.9c-1.7,1-0.1,3.7,1.6,2.7c12-7.3,24-14.6,36-21.9c1.4-0.8,2.8-1.9,4.2-2.6c3.1-1.4,5.1,0.2,7.5,1.6  c6.9,4.2,13.7,8.3,20.6,12.5c5.7,3.4,11.3,6.9,17,10.3C94.4,43.8,96,41.1,94.3,40.1z"></path><path d="M14.3,80.1c-2,0-2,3.1,0,3.1c21.2,0,42.3,0,63.5,0c3,0,6,0,9,0c2,0,2-3.1,0-3.1c-3.7,0-7.5,0-11.2,0  c0.2-0.2,0.3-0.4,0.4-0.6c0.7-1.3,0.5-2.8,0.5-4.2c2-0.7,3.5-2.7,3.5-4.9v-11c0-2.3-1.5-4.3-3.7-5l-5.6-14.6c-1-2.5-3.8-4.5-6.5-4.5  H35.9c-2.7,0-5.6,2-6.5,4.5l-5.6,14.6c-2.1,0.7-3.7,2.7-3.7,5v11c0,2.3,1.5,4.3,3.6,5c0,1.4-0.2,2.9,0.5,4.2  c0.1,0.2,0.3,0.4,0.4,0.6c-0.5,0-0.9,0-1.4,0C20.2,80.1,17.2,80.1,14.3,80.1z M70.9,75.6h2.4c0.1,1.2,0.3,3-1.2,3  C70.6,78.6,70.8,76.7,70.9,75.6z M32.3,40.7c0.5-1.3,2.2-2.5,3.6-2.5h28.2c1.4,0,3.1,1.2,3.6,2.5l5,13.3H27.3L32.3,40.7z M23.3,59.3  c0-1.2,1-2.2,2.2-2.2h49.1c1.2,0,2.2,1,2.2,2.2v11c0,1.2-1,2.2-2.2,2.2H25.4c-1.2,0-2.2-1-2.2-2.2V59.3z M28,78.6  c-1.5,0-1.3-1.8-1.2-3h2.4C29.3,76.7,29.6,78.6,28,78.6z M31.9,79.5c0.6-1.2,0.5-2.6,0.5-3.9h35.5c0,1.3-0.2,2.7,0.5,3.9  c0.1,0.2,0.3,0.4,0.4,0.6c-12.4,0-24.8,0-37.2,0C31.6,79.9,31.7,79.7,31.9,79.5z"></path></svg>