<svg xmlns:dc="http://purl.org/dc/elements/1.1/" xmlns:cc="http://creativecommons.org/ns#" xmlns:rdf="http://www.w3.org/1999/02/22-rdf-syntax-ns#" xmlns:svg="http://www.w3.org/2000/svg" xmlns="http://www.w3.org/2000/svg" version="1.1" viewBox="0 0 100.00001 100" xml:space="preserve" x="0px" y="0px"><path d="M 29.0625,7.71875 C 14.787959,7.71875 5,19.672842 5,33.0625 c 0,13.552561 12.225881,39.568212 44.3125,59.03125 0.4608,0.27954 0.97954,0.23886 1.375,0 C 82.809761,72.689572 95,46.615061 95,33.0625 95,19.672842 85.212401,7.71875 70.9375,7.71875 c -11.121659,0 -18.264318,9.2688 -20.9375,12.75 -2.67336,-3.4812 -9.815661,-12.75 -20.9375,-12.75 z M 58.625,20.9375 a 2.160216,2.160216 0 0 1 0.34375,0 2.160216,2.160216 0 0 1 2.0625,1.59375 l 8.3125,31.375 11.125,0 a 2.160216,2.160216 0 1 1 0,4.3125 l -12.78125,0 A 2.160216,2.160216 0 0 1 65.59375,56.625 L 59.125,32.15625 48.90625,77.375 A 2.160216,2.160216 0 0 1 44.6875,77.3125 L 38.96875,47.625 34.9375,56.9375 a 2.160216,2.160216 0 0 1 -2,1.28125 l -13.40625,0 a 2.160216,2.160216 0 1 1 0,-4.3125 l 12,0 L 37.8125,39.5 a 2.160216,2.160216 0 0 1 4.09375,0.46875 l 5.0625,26.375 9.875,-43.71875 A 2.160216,2.160216 0 0 1 58.625,20.9375 z" transform="translate(0,-5e-6)" style="text-indent:0;text-transform:none;direction:ltr;block-progression:tb;baseline-shift:baseline;color:#000000;enable-background:accumulate;" fill="#009FE3" fill-opacity="1" stroke="none" marker="none" visibility="visible" display="inline" overflow="visible"></path></svg>