<?xml version="1.0" encoding="utf-8"?>
<!-- Generator: Adobe Illustrator 19.0.1, SVG Export Plug-In . SVG Version: 6.00 Build 0)  -->
<svg version="1.1" id="Layer_1" xmlns="http://www.w3.org/2000/svg" xmlns:xlink="http://www.w3.org/1999/xlink" x="0px" y="0px"
	 viewBox="-306.8 -102 139.5 138.8" style="enable-background:new -306.8 -102 139.5 138.8;" xml:space="preserve">
<style type="text/css">
	.st0{fill:none;}
	.st1{fill:#318DDE;}
</style>
<g>
	<path class="st0" d="M-240.1-16.1C-240.1-16.1-240.1-16.1-240.1-16.1c-0.8,0-1.5-0.3-2-0.9l-13.7-16c-0.9-1-0.8-2.6,0.3-3.5
		c1-0.9,2.6-0.8,3.5,0.3l11.7,13.7l21.5-28.1c-5-5.4-12.1-8.8-20-8.8c-15.1,0-27.2,12.2-27.3,27.2c0,15,12.2,27.2,27.3,27.2
		c15,0,27.2-12.2,27.2-27.2c0-5.3-1.5-10.2-4.1-14.4l-22.5,29.5C-238.6-16.5-239.3-16.1-240.1-16.1z"/>
	<path class="st1" d="M-169.3-100.8c-2.3-1.8-5.5-1.3-7.2,1l-16.1,21.5c-12.1-12.6-28.9-20.5-47.6-20.5c-36.7,0-66.5,30.3-66.5,67.8
		c0,37.4,29.8,67.8,66.5,67.8c36.7,0,66.5-30.3,66.5-67.8c0-14.5-4.5-28-12.1-39l17.5-23.4C-166.6-95.7-167-99-169.3-100.8z
		 M-184-31c-0.1,31.6-25.2,57.2-56.2,57.3c-31-0.1-56.2-25.6-56.2-57.3c0.1-31.6,25.2-57.2,56.2-57.3c16.3,0,31,7.1,41.3,18.4
		l-44.3,59.1l-24.2-28.7c-1.9-2.2-5.1-2.5-7.3-0.6c-2.2,1.9-2.4,5.2-0.6,7.4L-247,1.1c1,1.2,2.4,1.8,3.9,1.8c0.1,0,0.1,0,0.2,0
		c1.5,0,3-0.8,4-2.1l46.5-62C-187.1-52.4-184-42.1-184-31z"/>
</g>
</svg>
