<svg xmlns="http://www.w3.org/2000/svg" xmlns:xlink="http://www.w3.org/1999/xlink" version="1.1" x="0px" y="0px" viewBox="0 0 100 100" enable-background="new 0 0 100 100" xml:space="preserve"><path d="M88.369,51.861c-0.27-1.078-1.243-1.888-2.354-1.944c-0.668-0.036-1.276,0.129-1.812,0.544  c-1.099,0.849-1.356,2.407-0.588,3.57c0.057,0.084,0.117,0.169,0.174,0.254c-0.205,0.201-9.452,7.516-9.642,7.629  c-0.012-0.024-0.036-0.045-0.04-0.069c-0.576-4.79-1.147-9.577-1.723-14.387c0.092-0.009,0.164-0.021,0.237-0.021  c1.333,0.036,2.821-0.914,3.136-2.613c0.258-1.385-0.387-2.697-1.55-3.365c-1.667-0.954-3.881-0.266-4.605,1.663  c-0.503,1.344-0.04,2.782,0.979,3.603c0.089,0.069,0.177,0.142,0.27,0.214c-0.032,0.04-0.052,0.072-0.076,0.101  c-3.325,3.313-6.651,6.625-9.976,9.938c-0.013,0.012-0.037,0.012-0.053,0.017c-0.016-0.012-0.036-0.017-0.044-0.032  c-3.365-6.771-6.731-13.542-10.1-20.317c-0.008-0.024-0.012-0.053-0.021-0.097c0.081-0.024,0.157-0.052,0.238-0.077  c1.224-0.398,2.053-1.199,2.436-2.427c0.632-2.021-0.608-4.151-2.677-4.626c-0.117-0.023-0.246,0.004-0.351-0.084  c-0.302,0-0.608,0-0.91,0c-0.032,0.016-0.064,0.044-0.101,0.048c-1.083,0.116-2.371,0.938-2.878,2.371  c-0.72,2.024,0.438,4.21,2.52,4.754c0.076,0.021,0.157,0.048,0.237,0.073C49,36.854,38.573,56.797,38.4,57.066  c-0.048-0.032-0.097-0.057-0.133-0.093c-0.277-0.27-0.556-0.543-0.833-0.817c-0.725-0.72-1.453-1.444-2.177-2.165  c-0.878-0.866-1.751-1.73-2.629-2.601c-0.898-0.886-1.795-1.771-2.693-2.657c-0.523-0.523-1.051-1.038-1.578-1.558  c-0.056-0.053-0.104-0.109-0.157-0.165c0.036-0.108,0.133-0.141,0.206-0.197c0.591-0.487,0.979-1.099,1.136-1.856  c0.378-1.84-0.866-3.482-2.509-3.792c-1.843-0.35-3.393,0.837-3.743,2.396c-0.254,1.123,0.012,2.125,0.805,2.966  c0.571,0.608,1.288,0.922,2.117,0.979c0.057,0,0.113,0.004,0.186,0.008c0,0.056,0.008,0.101,0,0.146  c-0.109,0.68-0.217,1.364-0.326,2.049c-0.125,0.756-0.246,1.514-0.371,2.271s-0.25,1.518-0.371,2.274  c-0.125,0.757-0.246,1.514-0.37,2.27c-0.121,0.749-0.246,1.498-0.367,2.246c-0.125,0.766-0.249,1.535-0.374,2.3  c-0.044,0.273-0.088,0.543-0.133,0.812c-0.012,0.064-0.033,0.129-0.048,0.197c-0.036-0.016-0.068-0.016-0.088-0.036  c-2.722-2.455-5.443-4.915-8.176-7.391c0.069-0.064,0.121-0.112,0.177-0.157c0.503-0.411,0.829-0.93,0.946-1.574  c0.282-1.521-0.712-2.81-2.024-3.091c-1.498-0.322-2.867,0.632-3.168,2.024c-0.02,0.093-0.032,0.186-0.117,0.246  c0,0.209,0,0.418,0,0.628c0.084,0.072,0.101,0.177,0.121,0.277c0.157,0.668,0.515,1.199,1.075,1.59  c0.431,0.302,0.91,0.468,1.437,0.468c0.056,0,0.113,0.008,0.169,0.016c0.008,0,0.017,0.008,0.044,0.028  c0.089,0.913,0.137,1.852,0.213,2.785c0.073,0.926,0.129,1.852,0.197,2.777c0.069,0.935,0.141,1.873,0.209,2.807  c0.065,0.926,0.125,1.852,0.198,2.777c0.072,0.938,0.125,1.872,0.213,2.81c0.088,0.017,0.165,0.037,0.237,0.04  c0.72,0.064,1.437,0.13,2.154,0.194c0.801,0.063,1.606,0.136,2.407,0.2c0.636,0.049,1.268,0.089,1.9,0.133  c0.672,0.049,1.345,0.101,2.013,0.146c0.351,0.028,0.7,0.052,1.051,0.072c0.777,0.049,1.554,0.089,2.327,0.133  c0.813,0.049,1.625,0.097,2.443,0.137c0.652,0.036,1.304,0.064,1.956,0.093c0.91,0.041,1.82,0.081,2.729,0.117  c1.031,0.04,2.061,0.076,3.096,0.112c0.861,0.033,1.723,0.064,2.584,0.093c0.415,0.013,0.833,0.013,1.252,0.021  c0.842,0.02,1.687,0.04,2.528,0.056c0.447,0.008,0.89,0.021,1.336,0.024c1.091,0.008,2.182,0.016,3.272,0.024  c1.478,0.004,2.959,0.008,4.437,0.008c0.95,0,1.896-0.008,2.847-0.021c0.917-0.012,1.834-0.032,2.756-0.052  c0.883-0.021,1.764-0.037,2.642-0.061c0.817-0.023,1.63-0.06,2.443-0.089c0.391-0.016,0.776-0.021,1.167-0.04  c1.039-0.045,2.082-0.089,3.125-0.141c1.002-0.053,2.004-0.109,3.007-0.166c0.757-0.04,1.513-0.084,2.271-0.136  c0.909-0.062,1.814-0.134,2.721-0.206c0.576-0.044,1.156-0.084,1.731-0.133c0.526-0.044,1.054-0.097,1.582-0.145  c0.483-0.04,0.966-0.084,1.444-0.133c0.512-0.048,1.02-0.101,1.53-0.153c0.253-0.024,0.507-0.049,0.765-0.076  c0.094-0.009,0.186-0.024,0.273-0.032c0.057-0.129,0.065-0.254,0.081-0.374c0.108-0.902,0.222-1.804,0.331-2.71  c0.104-0.865,0.205-1.73,0.309-2.597c0.085-0.696,0.174-1.393,0.258-2.089c0.085-0.685,0.166-1.373,0.25-2.061  c0.084-0.705,0.174-1.409,0.258-2.113c0.068-0.548,0.133-1.092,0.197-1.639c0.012-0.105,0.031-0.205,0.048-0.303  c0.104-0.052,0.198-0.016,0.29-0.007c0.877,0.092,1.631-0.174,2.242-0.807c0.307-0.317,0.535-0.688,0.615-1.134  c0.005-0.024,0.033-0.045,0.045-0.069c0-0.415,0-0.833,0-1.252C88.398,51.906,88.374,51.89,88.369,51.861z M19.693,66.205  c-1.111,0-2.013-0.902-2.013-2.013c0-1.111,0.901-2.009,2.013-2.009c1.111,0,2.013,0.897,2.013,2.009  C21.706,65.303,20.804,66.205,19.693,66.205z M32.688,66.205c-1.401,0-2.536-1.8-2.536-4.021c0-2.223,1.135-4.025,2.536-4.025  c1.401,0,2.54,1.803,2.54,4.025C35.228,64.405,34.089,66.205,32.688,66.205z M55.533,56.882h-0.012l-5.64,10.397l-5.647-10.397  h-0.013l0.004-0.013l-0.004-0.008h0.013l5.635-10.398l5.652,10.398h0.012l-0.008,0.008L55.533,56.882z M66.104,66.205  c-1.401,0-2.536-1.8-2.536-4.021c0-2.223,1.135-4.025,2.536-4.025c1.405,0,2.54,1.803,2.54,4.025  C68.645,64.405,67.51,66.205,66.104,66.205z M79.104,66.205c-1.111,0-2.014-0.902-2.014-2.013c0-1.111,0.902-2.009,2.014-2.009  c1.11,0,2.008,0.897,2.008,2.009C81.111,65.303,80.214,66.205,79.104,66.205z"></path></svg>