<svg xmlns="http://www.w3.org/2000/svg" xmlns:xlink="http://www.w3.org/1999/xlink" version="1.1" x="0px" y="0px" viewBox="0 0 100 100" enable-background="new 0 0 100 100" xml:space="preserve"><g><path d="M84.957,47.667c-0.244-0.984-1.134-1.72-2.145-1.771c-0.609-0.031-1.163,0.118-1.65,0.494   c-1.002,0.775-1.236,2.193-0.535,3.253c0.052,0.077,0.106,0.155,0.158,0.232c-0.09,0.088-2.037,1.636-4.076,3.249   c-0.072-1.156-0.287-2.425-0.72-3.784c-0.845-2.658-2.741-4.448-5.546-5.267c-0.017-0.139-0.033-0.278-0.051-0.418   c0.085-0.008,0.151-0.021,0.217-0.02c1.216,0.031,2.57-0.833,2.858-2.381c0.235-1.26-0.354-2.458-1.413-3.065   c-1.52-0.87-3.537-0.242-4.195,1.517c-0.459,1.225-0.035,2.534,0.891,3.279c0.08,0.064,0.16,0.128,0.244,0.196   c-0.026,0.037-0.045,0.066-0.067,0.09c-0.138,0.137-0.273,0.274-0.411,0.411c-0.241-0.031-0.487-0.055-0.738-0.074   c-2.338-0.174-4.479,0.19-5.463,0.4c-0.283-0.783-0.643-1.504-1.076-2.156c-1.798-2.705-4.831-4.287-9.033-4.719   c-0.552-1.109-1.104-2.22-1.655-3.329c-0.011-0.021-0.012-0.049-0.021-0.088c0.074-0.025,0.146-0.049,0.217-0.071   c1.113-0.361,1.869-1.092,2.219-2.211c0.576-1.843-0.555-3.783-2.437-4.215c-0.107-0.023-0.227,0.003-0.32-0.075   c-0.276,0-0.554,0-0.83,0c-0.029,0.015-0.059,0.038-0.09,0.042c-0.988,0.108-2.163,0.855-2.625,2.159   c-0.653,1.845,0.402,3.84,2.296,4.333c0.073,0.02,0.145,0.044,0.217,0.066c-0.023,0.065-0.723,1.419-1.736,3.369   c-4.32,0.399-7.436,1.992-9.276,4.747c-0.462,0.693-0.843,1.462-1.137,2.302c-1.088-0.209-3.022-0.484-5.116-0.329   c-0.366,0.027-0.721,0.066-1.066,0.119c-0.188-0.185-0.376-0.37-0.564-0.555c-0.048-0.049-0.093-0.101-0.14-0.149   c0.031-0.1,0.12-0.129,0.186-0.182c0.541-0.443,0.893-1.002,1.034-1.688c0.344-1.68-0.788-3.175-2.285-3.457   c-1.68-0.317-3.092,0.764-3.412,2.183c-0.231,1.024,0.013,1.936,0.736,2.703c0.521,0.552,1.172,0.84,1.929,0.89   c0.051,0.003,0.101,0.005,0.167,0.009c0.002,0.052,0.009,0.093,0.003,0.13c-0.041,0.254-0.081,0.507-0.122,0.761   c-2.329,0.915-3.923,2.595-4.677,4.969c-0.508,1.596-0.718,3.07-0.745,4.383c-1.376-1.244-2.755-2.49-4.138-3.74   c0.064-0.058,0.11-0.104,0.161-0.145c0.461-0.373,0.757-0.849,0.865-1.433c0.256-1.388-0.649-2.561-1.846-2.817   c-1.365-0.294-2.611,0.575-2.887,1.844c-0.02,0.085-0.032,0.17-0.107,0.227c0,0.19,0,0.381,0,0.57   c0.077,0.067,0.09,0.161,0.111,0.255c0.141,0.606,0.468,1.092,0.978,1.448c0.392,0.273,0.828,0.422,1.31,0.426   c0.051,0,0.103,0.007,0.153,0.012c0.008,0.001,0.015,0.009,0.043,0.027c0.079,0.833,0.125,1.686,0.191,2.536   c0.066,0.844,0.12,1.688,0.181,2.531c0.062,0.854,0.128,1.705,0.19,2.558c0.061,0.844,0.112,1.688,0.18,2.531   c0.067,0.852,0.114,1.705,0.194,2.56c0.082,0.015,0.15,0.032,0.218,0.038c0.654,0.059,1.307,0.116,1.961,0.173   c0.732,0.062,1.463,0.124,2.194,0.183c0.577,0.046,1.155,0.083,1.73,0.125c0.612,0.044,1.225,0.089,1.835,0.132   c0.319,0.022,0.638,0.046,0.956,0.064c0.707,0.042,1.414,0.082,2.12,0.121c0.742,0.043,1.483,0.087,2.225,0.125   c0.595,0.032,1.19,0.06,1.785,0.085c0.828,0.036,1.655,0.072,2.484,0.104c0.94,0.036,1.881,0.07,2.821,0.104   c0.785,0.029,1.569,0.06,2.354,0.084c0.38,0.012,0.76,0.013,1.14,0.021c0.77,0.016,1.537,0.034,2.305,0.05   c0.406,0.009,0.812,0.017,1.218,0.021c0.993,0.009,1.987,0.018,2.98,0.022c1.348,0.005,2.694,0.01,4.044,0.01   c0.863-0.001,1.727-0.008,2.591-0.02c0.837-0.011,1.675-0.031,2.513-0.049c0.803-0.018,1.605-0.031,2.408-0.055   c0.742-0.021,1.484-0.055,2.226-0.082c0.353-0.013,0.707-0.019,1.062-0.034c0.948-0.041,1.897-0.082,2.846-0.13   c0.913-0.046,1.828-0.098,2.742-0.149c0.688-0.038,1.379-0.077,2.067-0.124c0.827-0.057,1.653-0.123,2.479-0.187   c0.525-0.04,1.051-0.078,1.575-0.122c0.482-0.04,0.963-0.087,1.444-0.131c0.439-0.04,0.877-0.078,1.316-0.121   c0.465-0.045,0.928-0.094,1.391-0.14c0.232-0.023,0.465-0.046,0.697-0.069c0.084-0.01,0.169-0.022,0.252-0.032   c0.051-0.116,0.057-0.229,0.07-0.34c0.102-0.822,0.201-1.645,0.301-2.468c0.097-0.788,0.188-1.577,0.283-2.366   c0.078-0.635,0.159-1.269,0.236-1.901c0.078-0.626,0.151-1.252,0.227-1.878c0.078-0.643,0.159-1.285,0.236-1.928   c0.061-0.498,0.118-0.995,0.18-1.492c0.012-0.094,0.028-0.187,0.042-0.274c0.097-0.05,0.181-0.016,0.265-0.007   c0.799,0.081,1.484-0.158,2.043-0.736c0.28-0.289,0.486-0.625,0.562-1.032c0.004-0.022,0.027-0.041,0.039-0.062   c0-0.38,0-0.76,0-1.141C84.984,47.709,84.963,47.691,84.957,47.667z M27.859,47.775c-0.111,0.689-0.226,1.38-0.338,2.069   c-0.113,0.69-0.224,1.38-0.336,2.07c-0.11,0.683-0.223,1.363-0.334,2.045c-0.114,0.699-0.228,1.398-0.34,2.097   c-0.041,0.247-0.081,0.495-0.122,0.741c-0.009,0.058-0.028,0.114-0.045,0.178c-0.033-0.013-0.062-0.015-0.079-0.031   c-0.681-0.615-1.362-1.231-2.043-1.846c-0.094-1.461,0.039-3.21,0.658-5.156c0.562-1.773,1.655-3.074,3.261-3.89   C28.047,46.626,27.953,47.201,27.859,47.775z M34.581,61.7c-1.328,0.323-2.845-1.216-3.386-3.439   c-0.542-2.224,0.095-4.29,1.422-4.613c1.328-0.323,2.845,1.217,3.387,3.44S35.908,61.377,34.581,61.7z M36.261,49.307   c-0.695-0.69-1.392-1.378-2.088-2.068c-0.731-0.721-1.461-1.444-2.191-2.165c1.876-0.143,3.652,0.097,4.692,0.289   C36.385,46.565,36.246,47.885,36.261,49.307z M39.431,52.408c-0.041-0.027-0.085-0.051-0.119-0.084   c-0.255-0.246-0.508-0.494-0.759-0.743c-0.331-0.328-0.663-0.657-0.993-0.987c-0.212-2.739,0.08-5.716,1.635-8.044   c1.509-2.259,4.044-3.635,7.554-4.109C43.898,43.916,39.539,52.242,39.431,52.408z M49.455,61.818   c-2.008,0-3.638-2.727-3.638-6.089s1.63-6.088,3.638-6.088s3.637,2.726,3.637,6.088S51.463,61.818,49.455,61.818z M61.816,50.357   c-0.66,0.657-1.319,1.313-1.979,1.97c-0.011,0.01-0.031,0.01-0.048,0.015c-0.014-0.009-0.034-0.015-0.04-0.027   c-2.295-4.615-4.588-9.232-6.883-13.848c3.404,0.497,5.865,1.86,7.336,4.07C61.707,44.797,62.01,47.676,61.816,50.357z    M67.357,44.836c-1.416,1.411-2.831,2.822-4.248,4.232c0.006-1.394-0.14-2.688-0.434-3.865   C63.579,45.02,65.387,44.73,67.357,44.836z M67.589,58.261c-0.542,2.224-2.058,3.763-3.387,3.439   c-1.327-0.323-1.964-2.389-1.421-4.612c0.54-2.224,2.057-3.764,3.385-3.44S68.131,56.037,67.589,58.261z M72,56.824   c-0.013-0.021-0.033-0.04-0.036-0.063c-0.452-3.768-0.903-7.534-1.355-11.314c1.841,0.66,3.458,1.937,4.199,4.27   c0.511,1.606,0.688,3.083,0.68,4.375C73.673,55.523,72.074,56.78,72,56.824z"></path><path d="M78.425,65.274c-0.626,0.064-1.255,0.126-1.882,0.184c-0.474,0.045-0.947,0.082-1.42,0.121   c-0.758,0.063-1.514,0.131-2.271,0.188c-0.854,0.062-1.707,0.118-2.559,0.173c-0.982,0.064-1.965,0.132-2.948,0.188   c-0.965,0.056-1.931,0.099-2.896,0.145c-0.794,0.037-1.587,0.073-2.382,0.103c-1.025,0.038-2.053,0.073-3.08,0.104   c-0.854,0.025-1.709,0.049-2.563,0.065c-1.088,0.021-2.176,0.038-3.265,0.053c-0.544,0.006-1.088,0.009-1.633,0.008   c-2.15-0.005-4.303,0.018-6.452-0.04c-0.907-0.023-1.813-0.033-2.72-0.053c-0.657-0.015-1.312-0.033-1.969-0.052   c-0.733-0.021-1.468-0.041-2.2-0.066c-0.837-0.032-1.675-0.067-2.51-0.105c-0.709-0.031-1.416-0.065-2.123-0.104   c-0.783-0.043-1.568-0.092-2.352-0.138c-0.69-0.042-1.38-0.082-2.069-0.125c-0.301-0.018-0.604-0.042-0.904-0.065   c-0.568-0.043-1.137-0.087-1.705-0.131c-0.533-0.042-1.067-0.08-1.602-0.125c-0.679-0.058-1.358-0.121-2.037-0.183   c-0.637-0.058-1.273-0.114-1.909-0.175c-0.688-0.067-1.374-0.142-2.062-0.21c-0.049-0.005-0.103-0.03-0.161,0.038   c0.007,0.118,0.015,0.254,0.021,0.391c0.035,0.672,0.07,1.345,0.104,2.018c0.035,0.663,0.07,1.328,0.104,1.99   c0.027,0.544,0.053,1.088,0.08,1.631c0.007,0.093,0.021,0.187,0.032,0.298c0.076,0.01,0.117,0.02,0.159,0.022   c0.508,0.049,1.015,0.097,1.522,0.144c0.474,0.041,0.946,0.082,1.419,0.12c0.517,0.042,1.033,0.082,1.55,0.121   c0.595,0.047,1.188,0.094,1.783,0.138c0.61,0.042,1.223,0.08,1.836,0.12c0.662,0.044,1.325,0.093,1.988,0.134   c0.845,0.051,1.69,0.098,2.535,0.142c1.061,0.056,2.121,0.106,3.182,0.155c0.82,0.037,1.639,0.072,2.459,0.104   c1.018,0.038,2.036,0.071,3.054,0.104c0.812,0.025,1.623,0.047,2.435,0.066c0.897,0.02,1.795,0.039,2.694,0.051   c1.296,0.017,2.591,0.032,3.887,0.037c1.054,0.003,2.107-0.009,3.162-0.018c1.278-0.01,2.557-0.021,3.835-0.033   c0.354-0.004,0.708-0.013,1.062-0.021c0.647-0.016,1.295-0.033,1.943-0.049c0.354-0.008,0.707-0.01,1.062-0.021   c0.715-0.024,1.432-0.054,2.146-0.082c0.682-0.026,1.364-0.049,2.045-0.082c0.871-0.041,1.741-0.088,2.613-0.136   c0.715-0.038,1.432-0.079,2.146-0.119c0.302-0.018,0.604-0.038,0.905-0.06c0.637-0.046,1.274-0.091,1.912-0.138   c0.525-0.038,1.051-0.078,1.574-0.122c0.517-0.042,1.033-0.088,1.55-0.133c0.456-0.04,0.912-0.08,1.368-0.123   c0.438-0.041,0.875-0.089,1.313-0.135c0.56-0.056,1.117-0.111,1.675-0.169c0.041-0.004,0.082-0.021,0.137-0.036   c0.053-0.702,0.075-1.398,0.115-2.095c0.041-0.698,0.076-1.397,0.108-2.096c0.031-0.695,0.077-1.391,0.101-2.098   c-0.066,0-0.117-0.005-0.166,0C79.609,65.15,79.019,65.215,78.425,65.274z M22.637,69.984c-0.622,0.008-1.252-0.469-1.247-1.252   c0.005-0.752,0.59-1.251,1.26-1.242c0.746,0.012,1.232,0.603,1.234,1.242C23.885,69.431,23.335,69.986,22.637,69.984z    M30.713,70.504c-0.664,0.04-1.265-0.555-1.253-1.237c0.014-0.698,0.558-1.261,1.252-1.249c0.781,0.013,1.237,0.642,1.241,1.234   C31.958,70.031,31.298,70.543,30.713,70.504z M39.6,70.96c-0.698-0.001-1.266-0.562-1.247-1.252   c0.021-0.787,0.663-1.248,1.268-1.239c0.548,0.01,1.212,0.406,1.233,1.248C40.873,70.404,40.296,70.961,39.6,70.96z M49.776,70.998   c-0.736-0.019-1.227-0.591-1.218-1.257c0.009-0.724,0.572-1.244,1.264-1.235c0.701,0.008,1.244,0.572,1.23,1.269   C51.043,70.439,50.517,71.018,49.776,70.998z M59.45,70.763c-0.702-0.001-1.251-0.555-1.242-1.252   c0.011-0.682,0.563-1.238,1.243-1.234c0.76,0.002,1.248,0.625,1.253,1.248C60.709,70.183,60.132,70.803,59.45,70.763z    M68.336,70.32c-0.694-0.011-1.243-0.578-1.229-1.274c0.015-0.674,0.566-1.238,1.281-1.219c0.699,0.021,1.232,0.582,1.215,1.285   C69.586,69.791,69.02,70.332,68.336,70.32z M76.514,69.794c-0.701,0.021-1.264-0.556-1.259-1.269   c0.007-0.677,0.571-1.249,1.244-1.231c0.859,0.021,1.269,0.714,1.245,1.258C77.762,69.101,77.337,69.771,76.514,69.794z"></path></g></svg>