<svg xmlns="http://www.w3.org/2000/svg" xmlns:xlink="http://www.w3.org/1999/xlink" version="1.1" x="0px" y="0px" viewBox="0 0 100 100" enable-background="new 0 0 100 100" xml:space="preserve"><g><path d="M90.566,42.574c-2.361,2.258-5.244,3.103-7.094,5.438c-1.453-1.938-3.182-3.402-5.092-4.542   c0.268-4.494-1.068-6.232-1.09-9.907c-1.99,3.51-3.012,1.509-6.66,6.286c-5.098-2.084-10.297-3.075-15.545-3.564   c1.451-3.843-0.014-7.128-2.82-8.284l-0.135-1.725h1.223l1.119,1.191c1.893-2.313,1.613-4.511-0.153-6.626l-0.507,1.061   l-1.377,0.067v-0.861l0.865-1.328c-2.18-1.41-4.438-1.432-6.773-0.063l1.223,0.927l0.458,1.392h-1.423l-0.969-0.995   c-1.566,2.033-1.535,4.463,0.102,7.291l0.851-1.903l1.185,0.048l-0.082,1.576c-3.412,1.992-4.149,4.78-2.208,8.367   c-5.721,0.254-11.166,1.69-16.429,3.936c-2.081-2.989-4.336-2.255-6.074-6.73c0.362,5.459-0.975,7.042-0.854,10.365   c-1.944,1.169-3.662,2.83-5.149,4.99c-2.776-3.358-5.254-4.581-7.725-5.734c2.138,4.072,3.243,8.29,4.863,12.436   c-0.181,1.75,0.256,3.065,2.061,3.428l4.635,8.936c-0.553,1.84,0.133,3.476,1.544,3.727l1.944,3.424   c8.011-1.619,16.079-2.872,24.09-2.929c9.27-0.062,18.256,1.059,27.754,2.554l1.828-3.945c1.506-0.124,2.441-1.785,1.658-3.795   l4.52-8.713c2.117-0.128,2.383-1.366,2.061-3.876L90.566,42.574z M74.201,41.214c1.023,0,1.85,0.83,1.85,1.849   c0,1.023-0.826,1.849-1.85,1.849c-1.02,0-1.848-0.826-1.848-1.849C72.354,42.044,73.182,41.214,74.201,41.214z M45.829,31.492h1.29   c0.336-0.665,0.876-1.205,1.541-1.541v-1.47h2.878v1.347c0.788,0.317,1.434,0.915,1.814,1.665h0.818v2.878h-0.695   c-0.352,0.879-1.055,1.581-1.938,1.937v3.542c0.258,0.318,0.41,0.721,0.41,1.162c0,1.021-0.83,1.85-1.85,1.85   s-1.848-0.829-1.848-1.85c0-0.441,0.152-0.844,0.41-1.162v-3.666c-0.752-0.381-1.347-1.025-1.664-1.813h-1.166V31.492z    M52.332,47.456l-1.824,4.247l-1.821-4.247H52.332z M26.405,41.351c1.022,0,1.849,0.829,1.849,1.849   c0,1.022-0.826,1.849-1.849,1.849c-1.02,0-1.849-0.827-1.849-1.849C24.556,42.18,25.385,41.351,26.405,41.351z M26.713,64.096   c-4.289,0.688-5.664-1.656-6.792-4.258c-0.429-1.09-0.061-1.749,0.546-0.32c1.322,1.725,0.95,3.758,5.102,4.256   c-2.678-3.306-2.188-6.505-3.872-10.453c-0.15-0.359-0.318-0.722-0.512-1.093c-0.708-1.299-1.559-1.191-2.407-1.141   c1.537-1.693,3.176-3.132,4.844-4.498l0.498,1.023c-2.449,0.8-3.383,2.531-2.15,5.591c0.124,0.304,0.267,0.621,0.432,0.952   c0.839,3.274,4.413,5.877,4.358,8.907c1.607-0.902,2.347-2.573,1.188-5.931v-0.003c-0.301-1.281,0.149-1.516,0.645-0.709   C30.512,60.083,29.321,62.396,26.713,64.096z M30.048,54.474l-3.055-3.466l3.458-1.138L30.048,54.474z M33.39,68.742   c-1.021,0-1.849-0.826-1.849-1.85c0-1.019,0.829-1.849,1.849-1.849c1.02,0,1.849,0.83,1.849,1.849   C35.239,67.916,34.41,68.742,33.39,68.742z M47.277,55.063c-1.105,6.885-8.198,9.184-12.935,4.388   c-1.052-1.09-1.667-2.428-1.842-4.007c-0.032-1.928,1.147-1.705,1.697,0.846c0.197,2.916,1.965,4.184,4.806,4.32   c-1.462-3.271-0.562-6.535-0.842-9.803c-0.832-5.124-3.784-7.43-7.63-5.499l-0.102-2.37c5.336-1.877,10.384-2.891,14.964-2.967   c-0.238,1.14-0.041,2.277,0.597,3.417c-4.011-1.928-7.131-0.339-7.087,4.708c0.185,3.615,3.39,7.537,2.589,12.382   c3.062-0.544,4.406-3.149,4.199-6.964C46.22,51.516,47.595,52.157,47.277,55.063z M50.508,67.509c-1.626,0-2.944-1.317-2.944-2.943   s1.318-2.944,2.944-2.944c1.625,0,2.945,1.318,2.945,2.944S52.133,67.509,50.508,67.509z M66.943,68.742   c-1.02,0-1.85-0.826-1.85-1.85c0-1.019,0.83-1.849,1.85-1.849s1.848,0.83,1.848,1.849C68.791,67.916,67.963,68.742,66.943,68.742z    M69.879,45.141c-3.158-2.849-6.795,0.505-7.564,5.648c-0.246,3.271,0.691,6.524-0.727,9.818c2.836-0.194,4.59-1.494,4.754-4.416   c0.52-2.561,1.695-2.805,1.686-0.877c-0.156,1.586-0.754,2.933-1.797,4.041c-4.678,4.892-11.796,2.731-12.984-4.129   c-0.557-3.034,1.219-3.635,1.772-1.643c-0.161,4.214,0.702,5.934,3.771,6.412c-0.857-4.824,2.604-8.28,2.75-11.898   c-0.018-5.047-3.154-6.576-7.141-4.568c0.623-1.152,0.808-2.296,0.553-3.43c0.162-0.003,0.325-0.003,0.49-0.003   c4.482,0,10.27,0.833,14.51,2.671L69.879,45.141z M69.996,49.458l3.459,1.141l-3.057,3.465L69.996,49.458z M79.594,51.764   c-0.459,0.89-0.844,1.763-1.164,2.617c-1.307,3.428-1.646,6.468-2.15,8.398c2.826-0.565,2.607-2.068,3.932-3.793   c0.607-1.425,0.926-0.766,0.494,0.324c-1.125,2.602-2.35,5.01-6.637,4.32c-3.127-1.358-3.92-3.933-1.885-7.674   c0.645-0.855,1.383-0.716,0.645,0.707h0.004c-1.162,3.361-0.826,4.966,1.188,5.935c-0.051-2.844,3.092-5.308,4.172-8.307   c0.072-0.197,0.137-0.397,0.186-0.601c1.834-3.659,0.875-5.864-1.822-6.276l0.605-1.293c1.828,1.299,3.545,2.704,4.844,4.501   C81.152,50.576,80.301,50.464,79.594,51.764z"></path><path d="M75.367,76.687c-8.473-2.094-16.209-2.501-23.537-2.631V74.03c-0.42,0-0.843,0.004-1.265,0.007   c-0.423-0.003-0.845-0.007-1.268-0.007l0.003,0.025c-7.331,0.13-15.066,0.674-23.538,2.768c-4.062,1.003-3.243,5.523,1.916,4.246   c7.502-1.861,14.983-1.995,22.887-2.293c7.899,0.298,15.38,0.432,22.884,2.293C78.607,82.347,79.43,77.689,75.367,76.687z"></path></g></svg>