<?xml version="1.0" encoding="utf-8"?>
<!-- Generator: Adobe Illustrator 19.0.1, SVG Export Plug-In . SVG Version: 6.00 Build 0)  -->
<svg version="1.1" id="Layer_1" xmlns="http://www.w3.org/2000/svg" xmlns:xlink="http://www.w3.org/1999/xlink" x="0px" y="0px"
	 viewBox="-255 347 100 100" style="enable-background:new -255 347 100 100;" xml:space="preserve">
<style type="text/css">
	.st0{fill:#009FE3;}
</style>
<path class="st0" d="M-166.6,398.9c-0.3-1.1-1.2-1.9-2.4-1.9c-0.7,0-1.3,0.1-1.8,0.5c-1.1,0.8-1.4,2.4-0.6,3.6
	c0.1,0.1,0.1,0.2,0.2,0.3c-0.2,0.2-9.5,7.5-9.6,7.6c0,0,0,0,0-0.1c-0.6-4.8-1.1-9.6-1.7-14.4c0.1,0,0.2,0,0.2,0
	c1.3,0,2.8-0.9,3.1-2.6c0.3-1.4-0.4-2.7-1.6-3.4c-1.7-1-3.9-0.3-4.6,1.7c-0.5,1.3,0,2.8,1,3.6c0.1,0.1,0.2,0.1,0.3,0.2
	c0,0-0.1,0.1-0.1,0.1c-3.3,3.3-6.7,6.6-10,9.9c0,0,0,0-0.1,0c0,0,0,0,0,0c-3.4-6.8-6.7-13.5-10.1-20.3c0,0,0-0.1,0-0.1
	c0.1,0,0.2-0.1,0.2-0.1c1.2-0.4,2.1-1.2,2.4-2.4c0.6-2-0.6-4.2-2.7-4.6c-0.1,0-0.2,0-0.4-0.1c-0.3,0-0.6,0-0.9,0c0,0-0.1,0-0.1,0
	c-1.1,0.1-2.4,0.9-2.9,2.4c-0.7,2,0.4,4.2,2.5,4.8c0.1,0,0.2,0,0.2,0.1c-0.1,0.3-10.5,20.2-10.7,20.5c0,0-0.1-0.1-0.1-0.1
	c-0.3-0.3-0.6-0.5-0.8-0.8c-0.7-0.7-1.5-1.4-2.2-2.2c-0.9-0.9-1.8-1.7-2.6-2.6c-0.9-0.9-1.8-1.8-2.7-2.7c-0.5-0.5-1.1-1-1.6-1.6
	c-0.1-0.1-0.1-0.1-0.2-0.2c0-0.1,0.1-0.1,0.2-0.2c0.6-0.5,1-1.1,1.1-1.9c0.4-1.8-0.9-3.5-2.5-3.8c-1.8-0.4-3.4,0.8-3.7,2.4
	c-0.3,1.1,0,2.1,0.8,3c0.6,0.6,1.3,0.9,2.1,1c0.1,0,0.1,0,0.2,0c0,0.1,0,0.1,0,0.1c-0.1,0.7-0.2,1.4-0.3,2c-0.1,0.8-0.2,1.5-0.4,2.3
	c-0.1,0.8-0.3,1.5-0.4,2.3c-0.1,0.8-0.2,1.5-0.4,2.3c-0.1,0.7-0.2,1.5-0.4,2.2c-0.1,0.8-0.2,1.5-0.4,2.3c0,0.3-0.1,0.5-0.1,0.8
	c0,0.1,0,0.1,0,0.2c0,0-0.1,0-0.1,0c-2.7-2.5-5.4-4.9-8.2-7.4c0.1-0.1,0.1-0.1,0.2-0.2c0.5-0.4,0.8-0.9,0.9-1.6
	c0.3-1.5-0.7-2.8-2-3.1c-1.5-0.3-2.9,0.6-3.2,2c0,0.1,0,0.2-0.1,0.2c0,0.2,0,0.4,0,0.6c0.1,0.1,0.1,0.2,0.1,0.3
	c0.2,0.7,0.5,1.2,1.1,1.6c0.4,0.3,0.9,0.5,1.4,0.5c0.1,0,0.1,0,0.2,0c0,0,0,0,0,0c0.1,0.9,0.1,1.9,0.2,2.8c0.1,0.9,0.1,1.9,0.2,2.8
	c0.1,0.9,0.1,1.9,0.2,2.8c0.1,0.9,0.1,1.9,0.2,2.8c0.1,0.9,0.1,1.9,0.2,2.8c0.1,0,0.2,0,0.2,0c0.7,0.1,1.4,0.1,2.2,0.2
	c0.8,0.1,1.6,0.1,2.4,0.2c0.6,0,1.3,0.1,1.9,0.1c0.7,0,1.3,0.1,2,0.1c0.4,0,0.7,0.1,1.1,0.1c0.8,0,1.6,0.1,2.3,0.1
	c0.8,0,1.6,0.1,2.4,0.1c0.7,0,1.3,0.1,2,0.1c0.9,0,1.8,0.1,2.7,0.1c1,0,2.1,0.1,3.1,0.1c0.9,0,1.7,0.1,2.6,0.1c0.4,0,0.8,0,1.3,0
	c0.8,0,1.7,0,2.5,0.1c0.4,0,0.9,0,1.3,0c1.1,0,2.2,0,3.3,0c1.5,0,3,0,4.4,0c0.9,0,1.9,0,2.8,0c0.9,0,1.8,0,2.8-0.1
	c0.9,0,1.8,0,2.6-0.1c0.8,0,1.6-0.1,2.4-0.1c0.4,0,0.8,0,1.2,0c1,0,2.1-0.1,3.1-0.1c1-0.1,2-0.1,3-0.2c0.8,0,1.5-0.1,2.3-0.1
	c0.9-0.1,1.8-0.1,2.7-0.2c0.6,0,1.2-0.1,1.7-0.1c0.5,0,1.1-0.1,1.6-0.1c0.5,0,1-0.1,1.4-0.1c0.5,0,1-0.1,1.5-0.2
	c0.3,0,0.5,0,0.8-0.1c0.1,0,0.2,0,0.3,0c0.1-0.1,0.1-0.3,0.1-0.4c0.1-0.9,0.2-1.8,0.3-2.7c0.1-0.9,0.2-1.7,0.3-2.6
	c0.1-0.7,0.2-1.4,0.3-2.1c0.1-0.7,0.2-1.4,0.3-2.1c0.1-0.7,0.2-1.4,0.3-2.1c0.1-0.5,0.1-1.1,0.2-1.6c0-0.1,0-0.2,0-0.3
	c0.1-0.1,0.2,0,0.3,0c0.9,0.1,1.6-0.2,2.2-0.8c0.3-0.3,0.5-0.7,0.6-1.1c0,0,0,0,0-0.1C-166.6,399.8-166.6,399.3-166.6,398.9
	C-166.6,398.9-166.6,398.9-166.6,398.9z M-235.3,413.2c-1.1,0-2-0.9-2-2c0-1.1,0.9-2,2-2c1.1,0,2,0.9,2,2
	C-233.3,412.3-234.2,413.2-235.3,413.2z M-222.3,413.2c-1.4,0-2.5-1.8-2.5-4c0-2.2,1.1-4,2.5-4s2.5,1.8,2.5,4
	C-219.8,411.4-220.9,413.2-222.3,413.2z M-199.5,403.9L-199.5,403.9l-5.7,10.4l-5.6-10.4h0l0,0l0,0h0l5.6-10.4L-199.5,403.9
	L-199.5,403.9L-199.5,403.9L-199.5,403.9z M-188.9,413.2c-1.4,0-2.5-1.8-2.5-4c0-2.2,1.1-4,2.5-4c1.4,0,2.5,1.8,2.5,4
	C-186.4,411.4-187.5,413.2-188.9,413.2z M-175.9,413.2c-1.1,0-2-0.9-2-2c0-1.1,0.9-2,2-2c1.1,0,2,0.9,2,2
	C-173.9,412.3-174.8,413.2-175.9,413.2z"/>
</svg>
