<?xml version="1.0" encoding="utf-8"?>
<!-- Generator: Adobe Illustrator 19.0.1, SVG Export Plug-In . SVG Version: 6.00 Build 0)  -->
<svg version="1.1" id="Layer_1" xmlns="http://www.w3.org/2000/svg" xmlns:xlink="http://www.w3.org/1999/xlink" x="0px" y="0px"
	 viewBox="-255 347 100 100" style="enable-background:new -255 347 100 100;" xml:space="preserve">
<style type="text/css">
	.st0{fill:#009FE3;}
</style>
<g>
	<path class="st0" d="M-164.4,389.6c-2.4,2.3-5.2,3.1-7.1,5.4c-1.5-1.9-3.2-3.4-5.1-4.5c0.3-4.5-1.1-6.2-1.1-9.9
		c-2,3.5-3,1.5-6.7,6.3c-5.1-2.1-10.3-3.1-15.5-3.6c1.5-3.8,0-7.1-2.8-8.3l-0.1-1.7h1.2l1.1,1.2c1.9-2.3,1.6-4.5-0.2-6.6l-0.5,1.1
		l-1.4,0.1v-0.9l0.9-1.3c-2.2-1.4-4.4-1.4-6.8-0.1l1.2,0.9l0.5,1.4h-1.4l-1-1c-1.6,2-1.5,4.5,0.1,7.3l0.9-1.9l1.2,0l-0.1,1.6
		c-3.4,2-4.1,4.8-2.2,8.4c-5.7,0.3-11.2,1.7-16.4,3.9c-2.1-3-4.3-2.3-6.1-6.7c0.4,5.5-1,7-0.9,10.4c-1.9,1.2-3.7,2.8-5.1,5
		c-2.8-3.4-5.3-4.6-7.7-5.7c2.1,4.1,3.2,8.3,4.9,12.4c-0.2,1.8,0.3,3.1,2.1,3.4l4.6,8.9c-0.6,1.8,0.1,3.5,1.5,3.7l1.9,3.4
		c8-1.6,16.1-2.9,24.1-2.9c9.3-0.1,18.3,1.1,27.8,2.6l1.8-3.9c1.5-0.1,2.4-1.8,1.7-3.8l4.5-8.7c2.1-0.1,2.4-1.4,2.1-3.9
		L-164.4,389.6z M-180.8,388.2c1,0,1.9,0.8,1.9,1.8c0,1-0.8,1.8-1.9,1.8c-1,0-1.8-0.8-1.8-1.8C-182.6,389-181.8,388.2-180.8,388.2z
		 M-209.2,378.5h1.3c0.3-0.7,0.9-1.2,1.5-1.5v-1.5h2.9v1.3c0.8,0.3,1.4,0.9,1.8,1.7h0.8v2.9h-0.7c-0.4,0.9-1.1,1.6-1.9,1.9v3.5
		c0.3,0.3,0.4,0.7,0.4,1.2c0,1-0.8,1.9-1.8,1.9s-1.8-0.8-1.8-1.9c0-0.4,0.2-0.8,0.4-1.2v-3.7c-0.8-0.4-1.3-1-1.7-1.8h-1.2V378.5z
		 M-202.7,394.5l-1.8,4.2l-1.8-4.2H-202.7z M-228.6,388.4c1,0,1.8,0.8,1.8,1.8c0,1-0.8,1.8-1.8,1.8c-1,0-1.8-0.8-1.8-1.8
		C-230.4,389.2-229.6,388.4-228.6,388.4z M-228.3,411.1c-4.3,0.7-5.7-1.7-6.8-4.3c-0.4-1.1-0.1-1.7,0.5-0.3c1.3,1.7,0.9,3.8,5.1,4.3
		c-2.7-3.3-2.2-6.5-3.9-10.5c-0.2-0.4-0.3-0.7-0.5-1.1c-0.7-1.3-1.6-1.2-2.4-1.1c1.5-1.7,3.2-3.1,4.8-4.5l0.5,1
		c-2.4,0.8-3.4,2.5-2.1,5.6c0.1,0.3,0.3,0.6,0.4,1c0.8,3.3,4.4,5.9,4.4,8.9c1.6-0.9,2.3-2.6,1.2-5.9v0c-0.3-1.3,0.1-1.5,0.6-0.7
		C-224.5,407.1-225.7,409.4-228.3,411.1z M-225,401.5l-3.1-3.5l3.5-1.1L-225,401.5z M-221.6,415.7c-1,0-1.8-0.8-1.8-1.9
		c0-1,0.8-1.8,1.8-1.8s1.8,0.8,1.8,1.8C-219.8,414.9-220.6,415.7-221.6,415.7z M-207.7,402.1c-1.1,6.9-8.2,9.2-12.9,4.4
		c-1.1-1.1-1.7-2.4-1.8-4c0-1.9,1.1-1.7,1.7,0.8c0.2,2.9,2,4.2,4.8,4.3c-1.5-3.3-0.6-6.5-0.8-9.8c-0.8-5.1-3.8-7.4-7.6-5.5l-0.1-2.4
		c5.3-1.9,10.4-2.9,15-3c-0.2,1.1,0,2.3,0.6,3.4c-4-1.9-7.1-0.3-7.1,4.7c0.2,3.6,3.4,7.5,2.6,12.4c3.1-0.5,4.4-3.1,4.2-7
		C-208.8,398.5-207.4,399.2-207.7,402.1z M-204.5,414.5c-1.6,0-2.9-1.3-2.9-2.9s1.3-2.9,2.9-2.9c1.6,0,2.9,1.3,2.9,2.9
		S-202.9,414.5-204.5,414.5z M-188.1,415.7c-1,0-1.8-0.8-1.8-1.9c0-1,0.8-1.8,1.8-1.8c1,0,1.8,0.8,1.8,1.8
		C-186.2,414.9-187,415.7-188.1,415.7z M-185.1,392.1c-3.2-2.8-6.8,0.5-7.6,5.6c-0.2,3.3,0.7,6.5-0.7,9.8c2.8-0.2,4.6-1.5,4.8-4.4
		c0.5-2.6,1.7-2.8,1.7-0.9c-0.2,1.6-0.8,2.9-1.8,4c-4.7,4.9-11.8,2.7-13-4.1c-0.6-3,1.2-3.6,1.8-1.6c-0.2,4.2,0.7,5.9,3.8,6.4
		c-0.9-4.8,2.6-8.3,2.8-11.9c0-5-3.2-6.6-7.1-4.6c0.6-1.2,0.8-2.3,0.6-3.4c0.2,0,0.3,0,0.5,0c4.5,0,10.3,0.8,14.5,2.7L-185.1,392.1z
		 M-185,396.5l3.5,1.1l-3.1,3.5L-185,396.5z M-175.4,398.8c-0.5,0.9-0.8,1.8-1.2,2.6c-1.3,3.4-1.6,6.5-2.1,8.4
		c2.8-0.6,2.6-2.1,3.9-3.8c0.6-1.4,0.9-0.8,0.5,0.3c-1.1,2.6-2.3,5-6.6,4.3c-3.1-1.4-3.9-3.9-1.9-7.7c0.6-0.9,1.4-0.7,0.6,0.7h0
		c-1.2,3.4-0.8,5,1.2,5.9c-0.1-2.8,3.1-5.3,4.2-8.3c0.1-0.2,0.1-0.4,0.2-0.6c1.8-3.7,0.9-5.9-1.8-6.3l0.6-1.3
		c1.8,1.3,3.5,2.7,4.8,4.5C-173.8,397.6-174.7,397.5-175.4,398.8z"/>
	<path class="st0" d="M-179.6,423.7c-8.5-2.1-16.2-2.5-23.5-2.6v0c-0.4,0-0.8,0-1.3,0c-0.4,0-0.8,0-1.3,0l0,0
		c-7.3,0.1-15.1,0.7-23.5,2.8c-4.1,1-3.2,5.5,1.9,4.2c7.5-1.9,15-2,22.9-2.3c7.9,0.3,15.4,0.4,22.9,2.3
		C-176.4,429.3-175.6,424.7-179.6,423.7z"/>
</g>
</svg>
