<?xml version="1.0" encoding="utf-8"?>
<!-- Generator: Adobe Illustrator 19.0.1, SVG Export Plug-In . SVG Version: 6.00 Build 0)  -->
<svg version="1.1" id="Layer_1" xmlns="http://www.w3.org/2000/svg" xmlns:xlink="http://www.w3.org/1999/xlink" x="0px" y="0px"
	 viewBox="-255 347 100 100" style="enable-background:new -255 347 100 100;" xml:space="preserve">
<style type="text/css">
	.st0{fill:#009FE3;}
</style>
<g>
	<path class="st0" d="M-170,394.7c-0.2-1-1.1-1.7-2.1-1.8c-0.6,0-1.2,0.1-1.7,0.5c-1,0.8-1.2,2.2-0.5,3.3c0.1,0.1,0.1,0.2,0.2,0.2
		c-0.1,0.1-2,1.6-4.1,3.2c-0.1-1.2-0.3-2.4-0.7-3.8c-0.8-2.7-2.7-4.4-5.5-5.3c0-0.1,0-0.3-0.1-0.4c0.1,0,0.2,0,0.2,0
		c1.2,0,2.6-0.8,2.9-2.4c0.2-1.3-0.4-2.5-1.4-3.1c-1.5-0.9-3.5-0.2-4.2,1.5c-0.5,1.2,0,2.5,0.9,3.3c0.1,0.1,0.2,0.1,0.2,0.2
		c0,0,0,0.1-0.1,0.1c-0.1,0.1-0.3,0.3-0.4,0.4c-0.2,0-0.5-0.1-0.7-0.1c-2.3-0.2-4.5,0.2-5.5,0.4c-0.3-0.8-0.6-1.5-1.1-2.2
		c-1.8-2.7-4.8-4.3-9-4.7c-0.6-1.1-1.1-2.2-1.7-3.3c0,0,0,0,0-0.1c0.1,0,0.1,0,0.2-0.1c1.1-0.4,1.9-1.1,2.2-2.2
		c0.6-1.8-0.6-3.8-2.4-4.2c-0.1,0-0.2,0-0.3-0.1c-0.3,0-0.6,0-0.8,0c0,0-0.1,0-0.1,0c-1,0.1-2.2,0.9-2.6,2.2
		c-0.7,1.8,0.4,3.8,2.3,4.3c0.1,0,0.1,0,0.2,0.1c0,0.1-0.7,1.4-1.7,3.4c-4.3,0.4-7.4,2-9.3,4.7c-0.5,0.7-0.8,1.5-1.1,2.3
		c-1.1-0.2-3-0.5-5.1-0.3c-0.4,0-0.7,0.1-1.1,0.1c-0.2-0.2-0.4-0.4-0.6-0.6c0,0-0.1-0.1-0.1-0.1c0-0.1,0.1-0.1,0.2-0.2
		c0.5-0.4,0.9-1,1-1.7c0.3-1.7-0.8-3.2-2.3-3.5c-1.7-0.3-3.1,0.8-3.4,2.2c-0.2,1,0,1.9,0.7,2.7c0.5,0.6,1.2,0.8,1.9,0.9
		c0.1,0,0.1,0,0.2,0c0,0.1,0,0.1,0,0.1c0,0.3-0.1,0.5-0.1,0.8c-2.3,0.9-3.9,2.6-4.7,5c-0.5,1.6-0.7,3.1-0.7,4.4
		c-1.4-1.2-2.8-2.5-4.1-3.7c0.1-0.1,0.1-0.1,0.2-0.1c0.5-0.4,0.8-0.8,0.9-1.4c0.3-1.4-0.6-2.6-1.8-2.8c-1.4-0.3-2.6,0.6-2.9,1.8
		c0,0.1,0,0.2-0.1,0.2c0,0.2,0,0.4,0,0.6c0.1,0.1,0.1,0.2,0.1,0.3c0.1,0.6,0.5,1.1,1,1.4c0.4,0.3,0.8,0.4,1.3,0.4c0.1,0,0.1,0,0.2,0
		c0,0,0,0,0,0c0.1,0.8,0.1,1.7,0.2,2.5c0.1,0.8,0.1,1.7,0.2,2.5c0.1,0.9,0.1,1.7,0.2,2.6c0.1,0.8,0.1,1.7,0.2,2.5
		c0.1,0.9,0.1,1.7,0.2,2.6c0.1,0,0.2,0,0.2,0c0.7,0.1,1.3,0.1,2,0.2c0.7,0.1,1.5,0.1,2.2,0.2c0.6,0,1.2,0.1,1.7,0.1
		c0.6,0,1.2,0.1,1.8,0.1c0.3,0,0.6,0,1,0.1c0.7,0,1.4,0.1,2.1,0.1c0.7,0,1.5,0.1,2.2,0.1c0.6,0,1.2,0.1,1.8,0.1
		c0.8,0,1.7,0.1,2.5,0.1c0.9,0,1.9,0.1,2.8,0.1c0.8,0,1.6,0.1,2.4,0.1c0.4,0,0.8,0,1.1,0c0.8,0,1.5,0,2.3,0c0.4,0,0.8,0,1.2,0
		c1,0,2,0,3,0c1.3,0,2.7,0,4,0c0.9,0,1.7,0,2.6,0c0.8,0,1.7,0,2.5,0c0.8,0,1.6,0,2.4-0.1c0.7,0,1.5-0.1,2.2-0.1c0.4,0,0.7,0,1.1,0
		c0.9,0,1.9-0.1,2.8-0.1c0.9,0,1.8-0.1,2.7-0.1c0.7,0,1.4-0.1,2.1-0.1c0.8-0.1,1.7-0.1,2.5-0.2c0.5,0,1.1-0.1,1.6-0.1
		c0.5,0,1-0.1,1.4-0.1c0.4,0,0.9-0.1,1.3-0.1c0.5,0,0.9-0.1,1.4-0.1c0.2,0,0.5,0,0.7-0.1c0.1,0,0.2,0,0.3,0c0.1-0.1,0.1-0.2,0.1-0.3
		c0.1-0.8,0.2-1.6,0.3-2.5c0.1-0.8,0.2-1.6,0.3-2.4c0.1-0.6,0.2-1.3,0.2-1.9c0.1-0.6,0.2-1.3,0.2-1.9c0.1-0.6,0.2-1.3,0.2-1.9
		c0.1-0.5,0.1-1,0.2-1.5c0-0.1,0-0.2,0-0.3c0.1-0.1,0.2,0,0.3,0c0.8,0.1,1.5-0.2,2-0.7c0.3-0.3,0.5-0.6,0.6-1c0,0,0,0,0-0.1
		C-170,395.5-170,395.1-170,394.7C-170,394.7-170,394.7-170,394.7z M-227.1,394.8c-0.1,0.7-0.2,1.4-0.3,2.1
		c-0.1,0.7-0.2,1.4-0.3,2.1c-0.1,0.7-0.2,1.4-0.3,2c-0.1,0.7-0.2,1.4-0.3,2.1c0,0.2-0.1,0.5-0.1,0.7c0,0.1,0,0.1,0,0.2
		c0,0-0.1,0-0.1,0c-0.7-0.6-1.4-1.2-2-1.8c-0.1-1.5,0-3.2,0.7-5.2c0.6-1.8,1.7-3.1,3.3-3.9C-227,393.6-227,394.2-227.1,394.8z
		 M-220.4,408.7c-1.3,0.3-2.8-1.2-3.4-3.4c-0.5-2.2,0.1-4.3,1.4-4.6c1.3-0.3,2.8,1.2,3.4,3.4C-218.5,406.3-219.1,408.4-220.4,408.7z
		 M-218.7,396.3c-0.7-0.7-1.4-1.4-2.1-2.1c-0.7-0.7-1.5-1.4-2.2-2.2c1.9-0.1,3.7,0.1,4.7,0.3C-218.6,393.6-218.8,394.9-218.7,396.3z
		 M-215.6,399.4c0,0-0.1-0.1-0.1-0.1c-0.3-0.2-0.5-0.5-0.8-0.7c-0.3-0.3-0.7-0.7-1-1c-0.2-2.7,0.1-5.7,1.6-8c1.5-2.3,4-3.6,7.6-4.1
		C-211.1,390.9-215.5,399.2-215.6,399.4z M-205.5,408.8c-2,0-3.6-2.7-3.6-6.1s1.6-6.1,3.6-6.1s3.6,2.7,3.6,6.1
		S-203.5,408.8-205.5,408.8z M-193.2,397.4c-0.7,0.7-1.3,1.3-2,2c0,0,0,0,0,0c0,0,0,0,0,0c-2.3-4.6-4.6-9.2-6.9-13.8
		c3.4,0.5,5.9,1.9,7.3,4.1C-193.3,391.8-193,394.7-193.2,397.4z M-187.6,391.8c-1.4,1.4-2.8,2.8-4.2,4.2c0-1.4-0.1-2.7-0.4-3.9
		C-191.4,392-189.6,391.7-187.6,391.8z M-187.4,405.3c-0.5,2.2-2.1,3.8-3.4,3.4c-1.3-0.3-2-2.4-1.4-4.6c0.5-2.2,2.1-3.8,3.4-3.4
		C-187.5,401-186.9,403-187.4,405.3z M-183,403.8C-183,403.8-183,403.8-183,403.8c-0.5-3.8-0.9-7.6-1.4-11.4
		c1.8,0.7,3.5,1.9,4.2,4.3c0.5,1.6,0.7,3.1,0.7,4.4C-181.3,402.5-182.9,403.8-183,403.8z"/>
	<path class="st0" d="M-176.6,412.3c-0.6,0.1-1.3,0.1-1.9,0.2c-0.5,0-0.9,0.1-1.4,0.1c-0.8,0.1-1.5,0.1-2.3,0.2
		c-0.9,0.1-1.7,0.1-2.6,0.2c-1,0.1-2,0.1-2.9,0.2c-1,0.1-1.9,0.1-2.9,0.1c-0.8,0-1.6,0.1-2.4,0.1c-1,0-2.1,0.1-3.1,0.1
		c-0.9,0-1.7,0-2.6,0.1c-1.1,0-2.2,0-3.3,0.1c-0.5,0-1.1,0-1.6,0c-2.1,0-4.3,0-6.5,0c-0.9,0-1.8,0-2.7-0.1c-0.7,0-1.3,0-2-0.1
		c-0.7,0-1.5,0-2.2-0.1c-0.8,0-1.7-0.1-2.5-0.1c-0.7,0-1.4-0.1-2.1-0.1c-0.8,0-1.6-0.1-2.4-0.1c-0.7,0-1.4-0.1-2.1-0.1
		c-0.3,0-0.6,0-0.9-0.1c-0.6,0-1.1-0.1-1.7-0.1c-0.5,0-1.1-0.1-1.6-0.1c-0.7-0.1-1.4-0.1-2-0.2c-0.6-0.1-1.3-0.1-1.9-0.2
		c-0.7-0.1-1.4-0.1-2.1-0.2c0,0-0.1,0-0.2,0c0,0.1,0,0.3,0,0.4c0,0.7,0.1,1.3,0.1,2c0,0.7,0.1,1.3,0.1,2c0,0.5,0.1,1.1,0.1,1.6
		c0,0.1,0,0.2,0,0.3c0.1,0,0.1,0,0.2,0c0.5,0,1,0.1,1.5,0.1c0.5,0,0.9,0.1,1.4,0.1c0.5,0,1,0.1,1.6,0.1c0.6,0,1.2,0.1,1.8,0.1
		c0.6,0,1.2,0.1,1.8,0.1c0.7,0,1.3,0.1,2,0.1c0.8,0.1,1.7,0.1,2.5,0.1c1.1,0.1,2.1,0.1,3.2,0.2c0.8,0,1.6,0.1,2.5,0.1
		c1,0,2,0.1,3.1,0.1c0.8,0,1.6,0,2.4,0.1c0.9,0,1.8,0,2.7,0.1c1.3,0,2.6,0,3.9,0c1.1,0,2.1,0,3.2,0c1.3,0,2.6,0,3.8,0
		c0.4,0,0.7,0,1.1,0c0.6,0,1.3,0,1.9,0c0.4,0,0.7,0,1.1,0c0.7,0,1.4-0.1,2.1-0.1c0.7,0,1.4,0,2-0.1c0.9,0,1.7-0.1,2.6-0.1
		c0.7,0,1.4-0.1,2.1-0.1c0.3,0,0.6,0,0.9-0.1c0.6,0,1.3-0.1,1.9-0.1c0.5,0,1.1-0.1,1.6-0.1c0.5,0,1-0.1,1.6-0.1
		c0.5,0,0.9-0.1,1.4-0.1c0.4,0,0.9-0.1,1.3-0.1c0.6-0.1,1.1-0.1,1.7-0.2c0,0,0.1,0,0.1,0c0.1-0.7,0.1-1.4,0.1-2.1
		c0-0.7,0.1-1.4,0.1-2.1c0-0.7,0.1-1.4,0.1-2.1c-0.1,0-0.1,0-0.2,0C-175.4,412.1-176,412.2-176.6,412.3z M-232.4,417
		c-0.6,0-1.3-0.5-1.2-1.3c0-0.8,0.6-1.3,1.3-1.2c0.7,0,1.2,0.6,1.2,1.2C-231.1,416.4-231.7,417-232.4,417z M-224.3,417.5
		c-0.7,0-1.3-0.6-1.3-1.2c0-0.7,0.6-1.3,1.3-1.2c0.8,0,1.2,0.6,1.2,1.2C-223,417-223.7,417.5-224.3,417.5z M-215.4,418
		c-0.7,0-1.3-0.6-1.2-1.3c0-0.8,0.7-1.2,1.3-1.2c0.5,0,1.2,0.4,1.2,1.2C-214.1,417.4-214.7,418-215.4,418z M-205.2,418
		c-0.7,0-1.2-0.6-1.2-1.3c0-0.7,0.6-1.2,1.3-1.2c0.7,0,1.2,0.6,1.2,1.3C-204,417.4-204.5,418-205.2,418z M-195.6,417.8
		c-0.7,0-1.3-0.6-1.2-1.3c0-0.7,0.6-1.2,1.2-1.2c0.8,0,1.2,0.6,1.3,1.2C-194.3,417.2-194.9,417.8-195.6,417.8z M-186.7,417.3
		c-0.7,0-1.2-0.6-1.2-1.3c0-0.7,0.6-1.2,1.3-1.2c0.7,0,1.2,0.6,1.2,1.3C-185.4,416.8-186,417.3-186.7,417.3z M-178.5,416.8
		c-0.7,0-1.3-0.6-1.3-1.3c0-0.7,0.6-1.2,1.2-1.2c0.9,0,1.3,0.7,1.2,1.3C-177.2,416.1-177.7,416.8-178.5,416.8z"/>
</g>
</svg>
