<svg xmlns="http://www.w3.org/2000/svg" xmlns:xlink="http://www.w3.org/1999/xlink" version="1.1" x="0px" y="0px" viewBox="0 0 100 100" enable-background="new 0 0 100 100" xml:space="preserve"><g><path fill="#009FE3" fill-rule="evenodd" clip-rule="evenodd" d="M44.82,39.937c-2.941-0.074-5.41,0.688-7.48,1.376   c-1.806,0.602-3.529,0.602-5.335,0c-2.07-0.688-4.539-1.45-7.481-1.376c-13.613,0.343-14.631,17.748-8.597,29   c4.247,8.352,3.37,15.993,5.979,24.363c0.415,1.331,1.615,2.193,3.009,2.162c1.394-0.031,2.554-0.946,2.91-2.294   c1.024-3.888,1.499-8.815,2.813-12.945c0.568-1.786,2.16-2.949,4.035-2.949s3.466,1.163,4.035,2.949   c1.314,4.13,1.789,9.058,2.813,12.945c0.355,1.348,1.516,2.263,2.909,2.294c1.394,0.031,2.594-0.831,3.009-2.161   c2.702-8.669,1.83-15.365,6.001-24.408C59.476,57.642,58.435,40.28,44.82,39.937z"></path><rect x="44.322" y="9.757" fill="#009FE3" fill-rule="evenodd" clip-rule="evenodd" width="43.272" height="8.353"></rect><polygon fill="#009FE3" fill-rule="evenodd" clip-rule="evenodd" points="36.002,26.076 36.056,25.674 33.432,25.674 33.485,26.076 34.744,35.404     "></polygon><circle fill="#009FE3" fill-rule="evenodd" clip-rule="evenodd" cx="34.744" cy="36.932" r="1.453"></circle><path fill="#009FE3" fill-rule="evenodd" clip-rule="evenodd" d="M29.754,24.782h9.979c1.678,0,3.043-1.366,3.043-3.043V7.581   c0-1.678-1.365-3.043-3.043-3.043h-9.979c-1.678,0-3.043,1.366-3.043,3.043v14.158C26.71,23.416,28.076,24.782,29.754,24.782z"></path></g></svg>