<svg xmlns:dc="http://purl.org/dc/elements/1.1/" xmlns:cc="http://creativecommons.org/ns#" xmlns:rdf="http://www.w3.org/1999/02/22-rdf-syntax-ns#" xmlns:svg="http://www.w3.org/2000/svg" xmlns="http://www.w3.org/2000/svg" version="1.1" viewBox="0 0 100.00001 100" xml:space="preserve" x="0px" y="0px"><path d="M 64.6875,5 C 63.662,5.036485 62.660863,5.5269788 62,6.3125 c -5.584432,6.429243 -6.265087,15.987698 -4.0625,23.21875 2.886687,9.477073 6.50534,18.398234 5.15625,26.875 -1.150809,4.26249 -6.087055,7.655318 -10.4375,7.15625 -0.155498,-0.01651 -0.312384,-0.03429 -0.46875,-0.03125 -2.483393,0.03583 -5.013233,-0.430018 -7.65625,-1.15625 0.914306,2.678199 1.778832,5.391855 2.40625,8.125 1.735444,0.28211 3.49885,0.432963 5.34375,0.40625 8.207686,0.702563 15.982446,-4.829132 18,-12.84375 C 72.062517,47.346227 67.781792,36.367122 65,27.375 63.553399,22.626039 64.470799,14.715745 67.5625,11.15625 68.178407,10.469109 68.518677,9.5475585 68.5,8.625 68.481323,7.7024415 68.111804,6.7867315 67.46875,6.125 66.75381,5.3883431 65.713433,4.9626459 64.6875,5 z m 5.53125,10.0625 c -0.578119,1.242674 -1.056428,2.539592 -1.34375,3.875 l 15.71875,15.71875 c -1.362064,0.432991 -2.843522,0.7173 -4.34375,0.875 L 69,24.28125 c 0.371803,2.305528 0.940054,4.563872 1.59375,6.8125 L 75,35.5 c -0.838771,-0.110925 -1.655135,-0.280719 -2.375,-0.5 -0.304262,-0.09404 -0.628677,-0.183956 -0.9375,-0.28125 0.815274,2.702089 1.632354,5.414201 2.25,8.15625 C 80.553512,43.955662 88.240323,42.73137 93.6875,38 94.473022,37.339137 94.963515,36.338 95,35.3125 95.03735,34.286566 94.611874,33.246406 93.875,32.53125 93.213919,31.887544 92.297558,31.518677 91.375,31.5 90.452441,31.48132 89.530891,31.821592 88.84375,32.4375 88.62728,32.625521 88.403175,32.828037 88.15625,33 L 88.125,33 70.21875,15.0625 z M 46.25,29.3125 c -1.44724,0.03668 -2.869944,0.166408 -4.3125,0.40625 -8.014835,2.017337 -13.546311,9.792313 -12.84375,18 -0.09795,6.735676 2.248998,12.685183 4.1875,18.15625 1.249194,3.52562 2.330097,6.806181 2.78125,9.9375 l -6,-6 c -2.20693,-0.691919 -4.436677,-1.244603 -6.71875,-1.5 l 12.78125,12.75 c -0.177809,1.188293 -0.682664,2.578658 -1.34375,3.90625 l -16.5,-16.5 c -1.170138,0.45433 -2.233792,1.152026 -3.3125,1.875 l 17.8125,17.8125 c -0.174879,0.222189 -0.327885,0.435306 -0.5,0.625 -0.668247,0.711682 -1.039525,1.712385 -1,2.6875 0.03931,0.975332 0.464308,1.938751 1.1875,2.59375 0.723844,0.655217 1.743852,0.994617 2.71875,0.9375 0.974681,-0.05733 1.889281,-0.514646 2.53125,-1.25 2.677982,-2.952057 5.160587,-7.187864 5.75,-11.96875 C 44.297489,75.055781 42.226074,68.983081 40.25,63.40625 38.525633,58.537984 36.873952,54.010873 36.53125,49.6875 l 8.34375,8.34375 c 0.93863,0.248014 1.862143,0.479447 2.8125,0.6875 1.155153,0.353778 2.453249,0.600002 3.75,0.65625 L 36.625,44.5625 c 0.285939,-1.258349 0.844728,-2.491971 1.59375,-3.59375 L 55.875,58.625 c 0.989014,-0.46432 1.865392,-1.171579 2.53125,-2.15625 0.04126,-0.142032 0.08808,-0.295467 0.125,-0.4375 l -17.75,-17.75 c 0.867339,-0.630761 1.842005,-1.104543 2.84375,-1.375 0.292095,-0.04649 0.581811,-0.05897 0.875,-0.09375 l 14.5625,14.53125 c -0.03649,-2.032756 -0.388528,-4.045814 -0.875,-6.0625 l -8.5625,-8.5625 c 2.089531,0.161814 4.199166,0.531667 6.34375,1.03125 -0.147679,-0.484299 -0.300028,-0.989445 -0.4375,-1.46875 -0.858058,-2.079449 -1.551054,-4.232935 -2.0625,-6.46875 -2.383765,-0.360239 -4.806683,-0.561142 -7.21875,-0.5 z M 20.15625,56.34375 c -0.642281,0.02798 -1.282772,0.106874 -1.9375,0.1875 -4.780887,0.589412 -9.0166931,3.072017 -11.96875,5.75 -0.7353538,0.641969 -1.1926659,1.55657 -1.25,2.53125 -0.057334,0.974681 0.2822837,1.994907 0.9375,2.71875 0.6552163,0.72341 1.6184181,1.148191 2.59375,1.1875 0.9751148,0.03952 1.975818,-0.331753 2.6875,-1 1.851415,-1.679848 5.381593,-3.563789 7.90625,-3.875 2.964436,-0.365288 6.044453,0.123025 9.3125,1.03125 -0.983585,-2.700134 -1.97367,-5.3927 -2.65625,-8.15625 -1.823128,-0.288462 -3.698158,-0.458945 -5.625,-0.375 z" transform="translate(0,-5e-6)" style="text-indent:0;text-transform:none;direction:ltr;block-progression:tb;baseline-shift:baseline;color:#000000;enable-background:accumulate;" fill="#009FE3" fill-opacity="1" stroke="none" marker="none" visibility="visible" display="inline" overflow="visible"></path></svg>