<?xml version="1.0" encoding="utf-8"?>
<!-- Generator: Adobe Illustrator 19.0.1, SVG Export Plug-In . SVG Version: 6.00 Build 0)  -->
<svg version="1.1"
	 id="Layer_1" xmlns:rdf="http://www.w3.org/1999/02/22-rdf-syntax-ns#" xmlns:cc="http://creativecommons.org/ns#" xmlns:dc="http://purl.org/dc/elements/1.1/" xmlns:svg="http://www.w3.org/2000/svg"
	 xmlns="http://www.w3.org/2000/svg" xmlns:xlink="http://www.w3.org/1999/xlink" x="0px" y="0px" viewBox="-255 347 100 100"
	 style="enable-background:new -255 347 100 100;" xml:space="preserve">
<style type="text/css">
	.st0{fill:#009FE3;}
</style>
<path class="st0" d="M-204.7,352c-3.6,0-7.2,0.4-10.6,1.4c0,0-0.1,0-0.1,0c-3.4,0.9-4.8,6.5-6.9,8.8c-0.5,0.5-0.7,1.2-0.7,1.9
	l0.1,13.8c0,0.5,0.4,1.1,1,1.1c0.5,0.1,0.6-0.2,1.2-0.8c3.1-3,4.9-3.3,6.9-4c0,0,0.1,0,0.1,0c2.9-0.8,6.1-1.2,9.3-1.2
	c3.1,0,6.3,0.4,9.2,1.2c0,0,0.1,0,0.1,0c2,0.8,3.8,1.1,6.9,4c0.7,0.7,0.7,0.9,1.2,0.8c0.5-0.1,1-0.6,1-1.1l0.1-13.8
	c0-0.7-0.2-1.4-0.7-1.9c-2.1-2.3-3.5-7.9-6.8-8.8c0,0-0.1,0-0.1,0h0c-3.4-0.9-7-1.4-10.6-1.4c0,0-0.1,0-0.1,0h-0.1h0H-204.7
	C-204.7,352-204.7,352-204.7,352z M-204.5,353.8c3.9,0,6.4,7.2,6.4,10.7c0,3.6-2.9,6.4-6.4,6.4s-6.4-2.9-6.4-6.4
	C-211,361-208.5,353.8-204.5,353.8z M-204.7,359.5c-0.6,0.1-1,0.6-1,1.1v2.9h-2.9c-0.6,0-1.1,0.5-1.1,1.1s0.5,1.1,1.1,1.1h2.9v2.9
	c0,0.6,0.5,1.1,1.1,1.1s1.1-0.5,1.1-1.1v-2.9h2.9c0.6,0,1.1-0.5,1.1-1.1s-0.5-1.1-1.1-1.1h-2.9v-2.9c0-0.6-0.5-1.1-1.1-1.1
	c0,0,0,0,0,0C-204.6,359.5-204.7,359.5-204.7,359.5z M-204.6,374.3c-6.4,0-11.9,1.4-15.5,5l-1.4,1.5c0,0.7,0,1.8,0,1.8
	c-0.1,0.1-0.2,0.1-0.3,0.2c-0.4,0.3-0.7,0.8-0.9,1.2c-0.4,0.9-0.4,1.9-0.4,3.2c0,4.1,2.3,7.9,4.6,10.2c1.8,6.7,7.1,11.7,13.9,11.7
	c6.8,0,12.1-5,13.9-11.7c2.3-2.3,4.6-6.1,4.6-10.2c0-1.3,0-2.3-0.4-3.2c-0.2-0.5-0.5-0.9-0.9-1.2c-0.1-0.1-0.2-0.1-0.3-0.2
	c0,0,0-1,0-1.8l-1.4-1.5C-192.7,375.7-198.2,374.3-204.6,374.3z M-192.3,404C-192.3,404-192.3,404-192.3,404
	c-0.6,5.2-1.7,12.2-3.7,18.2c-1.1,3.4-2.6,6.5-4.3,8.7c-1.5,2-3.1,3.1-4.7,3.1c-1.6,0-3.2-1.1-4.8-3.1c-1.7-2.2-3.2-5.3-4.3-8.7
	c-2-6-3.1-13-3.7-18.2c-1.5,1.9-2.3,4.4-2.3,7.6v6.7c2.2,0.8,3.8,2.9,3.8,5.4c0,3.1-2.6,5.7-5.7,5.7c-3.1,0-5.7-2.6-5.7-5.7
	c0-2.5,1.6-4.6,3.8-5.4c0-2.6,0.1-5.7,0.1-7.1c0-1.9,0.3-3.6,1-5.2c-3.7,1.5-8.3,3.5-10.2,4.8c-3.2,2.2-5.2,4.6-7,8.4
	c-1.7,3.7-2.8,8.1-2.8,12.1c0,0.5,0.3,1,0.7,1.2c10.2,4.6,28,9.6,37,9.6s26.8-5.1,37-9.6c0.4-0.2,0.7-0.7,0.7-1.2
	c0-4-1.1-8.3-2.8-12.1c-1.7-3.7-3.7-6.2-6.9-8.4c-1.1-0.7-3.1-1.7-5.3-2.6c0.2,0.8,0.3,1.6,0.3,2.4c4.3,0.9,7.5,4.7,7.5,10.5v3.9
	c0.7,0.6,1.2,1.4,1.2,2.4c0,1.7-1.4,3.1-3.1,3.1c-1.7,0-3.1-1.4-3.1-3.1c0-1,0.5-1.9,1.2-2.4v-3.7c0-3.1-0.7-6.6-4.6-7.1h-2.1
	c-4,0.5-4.6,4-4.6,7.1v3.6c0.7,0.6,1.2,1.4,1.2,2.4c0,1.7-1.4,3.1-3.1,3.1c-1.7,0-3.1-1.4-3.1-3.1c0-1,0.5-1.9,1.2-2.4
	c0-1.5,0-3,0-3.9c0-5.8,3.3-9.6,7.6-10.5c-0.1-1.6-0.4-3.1-1-4.4C-189.5,405.1-191.9,404.2-192.3,404z"/>
</svg>
