<svg xmlns:dc="http://purl.org/dc/elements/1.1/" xmlns:cc="http://creativecommons.org/ns#" xmlns:rdf="http://www.w3.org/1999/02/22-rdf-syntax-ns#" xmlns:svg="http://www.w3.org/2000/svg" xmlns="http://www.w3.org/2000/svg" version="1.1" viewBox="0 0 100.00001 100" xml:space="preserve" x="0px" y="0px"><path d="m 49.8125,22.375 c -0.275398,0 -0.568531,0.02585 -0.84375,0.03125 -12.893695,0.183779 -25.817545,5.279638 -34.75,14.78125 -4.179399,4.471358 -7.5144783,9.931401 -9.15625,15.96875 a 1.3747426,1.3747426 0 0 0 0.09375,1 c 4.888595,9.356353 13.866839,15.858978 23.40625,19.5 13.853271,5.253273 29.67377,5.260914 43.5625,0.125 9.073574,-3.397663 17.616206,-9.268234 22.6875,-17.84375 A 1.3747426,1.3747426 0 0 0 95,55.03125 C 94.656202,52.451323 93.968844,49.897949 92.71875,47.5 c -0.0072,-0.0162 0.0072,-0.04666 0,-0.0625 C 86.92242,35.250122 74.986725,26.826225 62.09375,23.8125 58.08283,22.853824 53.9433,22.3606 49.8125,22.375 z m -0.03125,10.5 c 11.141043,-0.09378 22.22707,4.4914 30.09375,12.375 3.276523,3.232244 6.054771,6.99423 8.3125,11.03125 C 88.129,56.36117 88.13068,56.370401 88,56.5 c -0.271258,0.268739 -0.662362,0.585322 -1.0625,1.0625 -9.006254,8.822295 -21.753894,13.269373 -34.34375,13.84375 -13.181514,0.595617 -26.824372,-2.907721 -37.125,-11.1875 -0.0072,-0.0054 -0.02603,-0.02585 -0.03125,-0.03125 -1.91969,-1.616212 -3.767597,-3.283539 -5.21875,-5.15625 0.694077,-1.173954 1.710105,-2.404576 2.6875,-3.71875 0.0108,-0.0144 0.02117,-0.01847 0.03125,-0.03125 7.923379,-9.93325 19.725134,-16.914367 32.40625,-18.1875 1.468253,-0.14814 2.963487,-0.21317 4.4375,-0.21875 z m 1.1875,1.625 c -9.279781,0 -16.8125,7.68847 -16.8125,17.125 0,9.436531 7.532719,17.15625 16.8125,17.15625 9.279949,0 16.8125,-7.719719 16.8125,-17.15625 0,-9.43653 -7.532551,-17.125 -16.8125,-17.125 z m 0,2.5625 c 3.84414,0 7.314249,1.562629 9.875,4.09375 0.243247,0.240433 0.461466,0.492399 0.6875,0.75 2.261659,2.577504 3.65625,5.964506 3.65625,9.71875 0,8.079214 -6.355759,14.59375 -14.21875,14.59375 -7.862991,0 -14.25,-6.514536 -14.25,-14.59375 0,-8.079382 6.387009,-14.5625 14.25,-14.5625 z m 10.5625,4.84375 c -0.211279,-0.256039 -0.452985,-0.515462 -0.6875,-0.75 -1.876117,-1.876306 -4.449519,-3.03125 -7.3125,-3.03125 -5.726633,0 -10.375,4.648366 -10.375,10.375 0,5.726633 4.648367,10.34375 10.375,10.34375 5.726129,0 10.34375,-4.617285 10.34375,-10.34375 0,-2.505329 -0.864796,-4.801479 -2.34375,-6.59375 z M 38,37.125 c -9.663791,2.892945 -18.322381,9.163471 -24.28125,17.28125 -0.748077,0.674817 0.609652,1.206513 0.96875,1.78125 7.053984,6.629907 16.356868,10.607317 25.9375,12.09375 C 35.077248,64.622588 31.431031,58.026285 31.59375,51.3125 31.53399,45.907667 34.083759,40.749822 38,37.125 z m 27.40625,1.4375 c 5.142754,5.631091 6.281424,14.522115 3.0625,21.4375 -1.327313,3.105524 -3.562903,5.694509 -6.28125,7.625 7.98098,-1.739872 15.536031,-5.205338 21.6875,-10.65625 0.280258,-0.402298 1.042491,-0.734582 1.15625,-1.125 C 80.583652,48.198109 73.541489,42.055742 65.40625,38.5625 z m -9.5625,2.84375 c 2.171471,0 3.9375,1.735115 3.9375,3.90625 0,2.171302 -1.766029,3.9375 -3.9375,3.9375 -2.171303,0 -3.9375,-1.766198 -3.9375,-3.9375 0,-2.171135 1.766365,-3.90625 3.9375,-3.90625 z" transform="translate(0,-5e-6)" style="text-indent:0;text-transform:none;direction:ltr;block-progression:tb;baseline-shift:baseline;color:#000000;enable-background:accumulate;" fill="#009FE3" fill-opacity="1" fill-rule="evenodd" stroke="none" marker="none" visibility="visible" display="inline" overflow="visible"></path></svg>