<svg xmlns:dc="http://purl.org/dc/elements/1.1/" xmlns:cc="http://creativecommons.org/ns#" xmlns:rdf="http://www.w3.org/1999/02/22-rdf-syntax-ns#" xmlns:svg="http://www.w3.org/2000/svg" xmlns="http://www.w3.org/2000/svg" version="1.1" viewBox="0 0 100.00001 100" xml:space="preserve" x="0px" y="0px"><path d="M 50,5 C 25.163126,5 5,25.163126 5,50 5,74.837014 25.163126,95 50,95 74.837014,95 95,74.837014 95,50 95,25.163126 74.837014,5 50,5 z m 0,2.78125 c 20.430914,0 37.434408,14.51136 41.34375,33.78125 -2.328787,-0.03712 -4.682756,-0.240233 -6.125,-0.71875 C 82.202354,39.843087 79.616301,36.931209 76.875,34.0625 74.134119,31.193512 71.118966,28.311816 66.90625,28.25 c -4.740391,-0.06895 -8.182604,3.288289 -11.34375,6.53125 -3.161566,3.243101 -6.161612,6.400907 -9.6875,7.09375 -0.976749,0.191881 -2.990839,-0.112726 -4.71875,-0.5625 -0.06909,0.825145 -0.142981,1.717525 -0.375,2.4375 1.790146,0.468514 3.810815,0.875433 5.5625,0.53125 4.597179,-0.903464 7.849141,-4.611775 10.96875,-7.8125 3.120448,-3.200725 6.025563,-5.832437 9.5625,-5.78125 3.086463,0.04517 5.572473,2.260642 8.25,5.0625 2.676828,2.801719 5.400052,6.108394 9.3125,7.40625 2.0691,0.686474 4.78632,0.845166 7.34375,0.84375 0.278222,1.959077 0.4375,3.963552 0.4375,6 C 92.21875,73.32518 73.32518,92.21875 50,92.21875 26.67496,92.21875 7.78125,73.32518 7.78125,50 7.78125,26.67496 26.67496,7.78125 50,7.78125 z M 52.78125,17.75 C 49.357736,17.69588 44.955086,20.949733 43.9375,24.96875 42.248609,31.6397 32.841853,24.195826 26,23.59375 18.671451,22.948878 18.263037,33.866159 18.125,37.4375 c 0,10.201453 10.646845,27.66561 19.6875,32.28125 2.816124,1.437571 7.110548,9.545782 10.46875,13.3125 8.63088,9.679794 22.337516,1.266329 25.25,-9.21875 1.535609,-5.528054 -1.024291,-15.528436 -8.0625,-18.46875 -7.332185,-3.063248 -11.684863,-1.702597 -16.1875,3.15625 -3.421136,3.692036 -4.018372,3.86377 -4.9375,1.46875 -1.741616,-4.538859 3.175401,-9.554185 11.21875,-9.25 7.145198,0.268522 10.294806,-2.418121 8.3125,-5.625 -0.715639,-1.157581 -1.680079,-1.099571 -3.15625,0.125 -1.28401,1.064858 -4.64688,2.33419 -8.09375,1.6875 -3.802521,-0.712982 -6.657268,1.339421 -8.5,2.75 -2.991501,2.522008 -1.274593,-1.215962 -3.34375,-3.1875 -0.790414,-0.694515 -1.484628,-1.596928 -1.8125,-2.5625 0.277155,-0.300186 0.529352,-0.982747 0.625,-1.8125 0.105748,-0.917377 -0.03156,-1.699134 -0.28125,-2 0.508889,-2.094581 0.428225,-3.278441 4.40625,-3.40625 3.576516,0 5.519239,-3.943555 5.75,-9.21875 0.09272,-2.121323 2.971825,-6.550626 5.84375,-6.21875 4.097057,0.47341 0.226694,-3.456365 -2.53125,-3.5 z" transform="translate(0,-5e-6)" style="" fill="#009FE3" fill-opacity="1"></path></svg>