<svg xmlns:dc="http://purl.org/dc/elements/1.1/" xmlns:cc="http://creativecommons.org/ns#" xmlns:rdf="http://www.w3.org/1999/02/22-rdf-syntax-ns#" xmlns:svg="http://www.w3.org/2000/svg" xmlns="http://www.w3.org/2000/svg" xmlns:sodipodi="http://sodipodi.sourceforge.net/DTD/sodipodi-0.dtd" xmlns:inkscape="http://www.inkscape.org/namespaces/inkscape" version="1.1" x="0px" y="0px" viewBox="0 0 100 100"><g transform="translate(0,-952.36218)"><path d="m 28.893331,972.58974 c -2.2132,0 -4.0312,1.8178 -4.0312,4.0313 l 0,48.40626 c 0,2.2148 1.8187,4.0312 4.0312,4.0312 l 19.8126,0 a 1.0001,1.0001 0 0 0 0.9062,-1.4062 c -0.543,-1.262 -0.8438,-2.6156 -0.8438,-4.0625 0,-5.7285 4.6153,-10.3438 10.3438,-10.3438 2.6709,0 5.0981,1.0255 6.9375,2.6874 a 1.0001,1.0001 0 0 0 1.6563,-0.75 l 0,-27.53116 a 1.0001,1.0001 0 0 0 0,-0.062 1.0001,1.0001 0 0 0 0,-0.031 1.0001,1.0001 0 0 0 0,-0.062 1.0001,1.0001 0 0 0 -0.031,-0.031 1.0001,1.0001 0 0 0 0,-0.062 1.0001,1.0001 0 0 0 0,-0.062 1.0001,1.0001 0 0 0 -0.031,-0.031 1.0001,1.0001 0 0 0 0,-0.062 1.0001,1.0001 0 0 0 -0.031,-0.031 1.0001,1.0001 0 0 0 0,-0.062 1.0001,1.0001 0 0 0 -0.031,-0.031 1.0001,1.0001 0 0 0 -0.031,-0.031 1.0001,1.0001 0 0 0 -0.031,-0.062 1.0001,1.0001 0 0 0 -0.031,-0.031 1.0001,1.0001 0 0 0 -0.031,-0.063 1.0001,1.0001 0 0 0 -0.031,-0.031 1.0001,1.0001 0 0 0 -0.031,-0.031 l -14.5624,-14 a 1.0001,1.0001 0 0 0 -0.031,0 1.0001,1.0001 0 0 0 -0.031,-0.063 1.0001,1.0001 0 0 0 -0.031,0 1.0001,1.0001 0 0 0 -0.062,-0.062 1.0001,1.0001 0 0 0 -0.031,0 1.0001,1.0001 0 0 0 -0.062,-0.063 1.0001,1.0001 0 0 0 -0.031,0 1.0001,1.0001 0 0 0 -0.062,-0.031 1.0001,1.0001 0 0 0 -0.031,0 1.0001,1.0001 0 0 0 -0.063,-0.031 1.0001,1.0001 0 0 0 -0.031,0 1.0001,1.0001 0 0 0 -0.062,-0.031 1.0001,1.0001 0 0 0 -0.031,0 1.0001,1.0001 0 0 0 -0.062,0 1.0001,1.0001 0 0 0 -0.094,0 l -0.125,0 -23.0938,0 z m 0,2 22.2188,0 0,9.9687 c 0,2.2117 1.8208,4.0313 4.0312,4.0313 l 10.5626,0 0,24.81246 c -1.9296,-1.2572 -4.1199,-2.1562 -6.5938,-2.1562 -6.8081,0 -12.3438,5.5357 -12.3438,12.3438 0,1.217 0.2622,2.366 0.5938,3.4687 l -18.4688,0 c -1.1273,0 -2.0312,-0.9018 -2.0312,-2.0312 l 0,-48.40626 c 0,-1.1268 0.9046,-2.0313 2.0312,-2.0313 z m 24.2188,1.3437 10.375,9.9376 0.75,0.7187 -9.0938,0 c -1.1293,0 -2.0312,-0.9007 -2.0312,-2.0313 l 0,-8.625 z m -22.7188,14.9376 a 1.0043896,1.0043896 0 0 0 0.1876,2 l 31.5312,0 a 1.0001,1.0001 0 1 0 0,-2 l -31.5312,0 a 1.0001,1.0001 0 0 0 -0.094,0 1.0011039,1.0011039 0 0 0 -0.094,0 z m 0,5.9062 a 1.0043896,1.0043896 0 0 0 0.1876,2 l 31.5312,0 a 1.0001,1.0001 0 1 0 0,-2 l -31.5312,0 a 1.0001,1.0001 0 0 0 -0.094,0 1.0011039,1.0011039 0 0 0 -0.094,0 z m -0.031,5.90616 a 1.0059664,1.0059664 0 0 0 0.2188,2 l 31.5312,0 a 1.0001,1.0001 0 1 0 0,-2 l -31.5312,0 a 1.0001,1.0001 0 0 0 -0.2188,0 z m 0,5.9063 a 1.0059664,1.0059664 0 0 0 0.2188,2 l 16.9687,0 a 1.0001,1.0001 0 1 0 0,-2 l -16.9687,0 a 1.0001,1.0001 0 0 0 -0.2188,0 z m 33.9688,11 a 1.0001,1.0001 0 0 0 -0.5938,0.3125 l -5.875,5.8751 -1.875,-1.875 a 1.0054607,1.0054607 0 1 0 -1.4375,1.4062 l 2.5937,2.5938 a 1.0001,1.0001 0 0 0 1.4063,0.031 l 6.5937,-6.625 a 1.0001,1.0001 0 0 0 -0.7187,-1.7188 1.0001,1.0001 0 0 0 -0.094,0 z" style="text-indent:0;text-transform:none;direction:ltr;block-progression:tb;baseline-shift:baseline;color:#000000;enable-background:accumulate;" fill="#000000" fill-opacity="1" stroke="none" marker="none" visibility="visible" display="inline" overflow="visible"></path></g></svg>