<svg xmlns:dc="http://purl.org/dc/elements/1.1/" xmlns:cc="http://creativecommons.org/ns#" xmlns:rdf="http://www.w3.org/1999/02/22-rdf-syntax-ns#" xmlns:svg="http://www.w3.org/2000/svg" xmlns="http://www.w3.org/2000/svg" version="1.1" viewBox="0 0 100.00001 100" xml:space="preserve" x="0px" y="0px"><path d="M 9.9375,17.96875 C 7.2165519,17.96875 5,20.216552 5,22.9375 l 0,38.09375 c 0,2.721317 2.2165519,4.9375 4.9375,4.9375 l 41.5,0 c 0.578036,-0.54268 1.196604,-1.038216 1.875,-1.46875 0.550229,-0.40678 1.134766,-0.708422 1.75,-0.9375 l -45.125,0 c -1.4330278,0 -2.53125,-1.097854 -2.53125,-2.53125 l 0,-38.09375 c 0,-1.433028 1.098038,-2.5625 2.53125,-2.5625 l 65.09375,0 c 1.433396,0 2.5625,1.129472 2.5625,2.5625 l 0,7.15625 C 78.459422,30.434236 79.269307,30.885061 80,31.4375 l 0,-8.5 c 0,-2.720948 -2.247618,-4.96875 -4.96875,-4.96875 l -65.09375,0 z m 29,7.3125 c -0.986657,0 -1.78125,0.794593 -1.78125,1.78125 l 0,9.5625 -9.5625,0 c -0.986473,0 -1.78125,0.794778 -1.78125,1.78125 l 0,7.125 c 0,0.986657 0.794777,1.78125 1.78125,1.78125 l 9.5625,0 0,9.59375 c 0,0.986657 0.794593,1.78125 1.78125,1.78125 l 7.125,0 c 0.986657,0 1.78125,-0.794593 1.78125,-1.78125 l 0,-9.59375 9.5625,0 c 0.986841,0 1.78125,-0.794593 1.78125,-1.78125 l 0,-7.125 c 0,-0.986472 -0.794409,-1.78125 -1.78125,-1.78125 l -9.5625,0 0,-9.5625 c 0,-0.986657 -0.794409,-1.78125 -1.78125,-1.78125 l -7.125,0 z m 33.09375,6.3125 c -4.924076,0 -9.593259,2.741379 -10.1875,9.125 -0.290951,1.877557 -0.0625,3.9375 -0.0625,3.9375 -0.454658,0.05543 -1.823439,0.729416 -1.875,2.71875 -0.04512,2.399061 0.589937,5.185915 3.8125,6.71875 0.942094,1.678495 2.464769,3.580193 2.21875,6.59375 -0.380079,4.658722 -7.933224,4.087784 -11,5.8125 -3.178552,1.787878 -5.067627,5.769248 -5.8125,9.46875 -0.726458,3.734491 3.82402,4.902002 8.15625,5.4375 4.330573,0.535129 9.742506,0.625 14.75,0.625 5.007495,0 10.388178,-0.08987 14.71875,-0.625 4.332231,-0.535498 8.913957,-1.703009 8.1875,-5.4375 C 94.192627,72.269248 92.272302,68.287878 89.09375,66.5 86.026974,64.775284 78.505079,65.346222 78.125,60.6875 c -0.246019,-3.013557 1.245406,-4.915255 2.1875,-6.59375 3.222563,-1.532835 3.857616,-4.319689 3.8125,-6.71875 -0.05156,-1.989334 -1.420342,-2.663507 -1.875,-2.71875 0,0 0.228452,-2.059943 -0.0625,-3.9375 -0.594241,-6.383621 -5.232173,-9.125 -10.15625,-9.125 z m -40.5,35.28125 0,5.75 0,0.125 -4.5625,0 c -1.329538,0 -2.375,0.891623 -2.375,2 0,1.108378 1.045647,2.03125 2.375,2.03125 l 19.53125,0 0,-0.03125 c 0.327781,-3.547213 1.666625,-7.156869 4.03125,-9.84375 -6.63406,-0.0055 -14.519163,-0.01891 -19,-0.03125 z" transform="translate(0,-5e-6)" style="" fill="#009FE3" fill-opacity="1" fill-rule="nonzero" stroke="none"></path></svg>