<?xml version="1.0" encoding="utf-8"?>
<!-- Generator: Adobe Illustrator 19.0.1, SVG Export Plug-In . SVG Version: 6.00 Build 0)  -->
<svg version="1.1" id="Layer_1" xmlns="http://www.w3.org/2000/svg" xmlns:xlink="http://www.w3.org/1999/xlink" x="0px" y="0px"
	 viewBox="-209 294 193 205" style="enable-background:new -209 294 193 205;" xml:space="preserve">
<style type="text/css">
	.st0{fill:#202020;}
	.st1{fill:#626262;}
</style>
<g>
	<path class="st0" d="M-89.3,406.2c0,0,30.6-20.8,53.6-52.5c0,0,8.1-10.7,12.6,0.6c0,0,18,49.9-53.6,86.1c0,0-33.1,17.9-74.2,15.9
		c0,0,8.5-24.1,41.9-38.1L-89.3,406.2z"/>
	<path class="st1" d="M-193.4,448c0,0,61.9-3.4,48-26.1c0,0-47.4-61.2-53-87c-5.6-25.8,2.8-35.6,10.1-33.1l74.6,67.1
		c0,0,38.4,30,25.3,59.2c0,0-10.4,34.8-74.4,27.5C-162.8,455.6-204.9,452.2-193.4,448z"/>
</g>
</svg>
