<?xml version="1.0" encoding="utf-8"?><!DOCTYPE svg PUBLIC "-//W3C//DTD SVG 1.1//EN" "http://www.w3.org/Graphics/SVG/1.1/DTD/svg11.dtd"><svg version="1.1" xmlns="http://www.w3.org/2000/svg" xmlns:xlink="http://www.w3.org/1999/xlink" x="0px" y="0px" viewBox="0 0 100 42.855" enable-background="new 0 0 100 42.855" xml:space="preserve"><polygon fill="#fff" points="92.385,0.689 61.739,12.653 72.623,34.348 75.554,33.678 76.349,35.268 100,26.125 "></polygon><path fill="#fff" d="M61.698,15.604c0,0-0.733,0.815-1.711,0.815c-0.979,0-5.217-2.119-5.787-2.527
	c-0.57-0.407-1.875-1.712-4.238-1.06c-2.364,0.652-5.624,1.712-6.113,2.12c-0.489,0.407-1.467,1.792-1.467,2.282
	c0,0.489-0.57,1.911-0.815,2.056s-1.305,1.856-0.327,2.834s1.957,0.734,2.853,0.408c0.897-0.328,3.159-3.08,3.159-3.731
	c0-0.652-0.611-2.3-0.611-2.3s1.446-0.137,1.528,1.235c0.082,1.372,0.897-1.154,3.098,0.965c2.2,2.12,7.673,6.24,7.673,6.24
	s3.756-0.019,4.325-0.345c0.571-0.325-0.166,0.492-0.521,0.782c-0.353,0.291-1.983,0.746-1.983,0.746s1.438,1.398,1.683,2.051
	c0.244,0.652,1.14,2.798,1.14,2.798l4.88-2.329C68.463,28.645,63.084,16.908,61.698,15.604z"></path><path fill="#fff" d="M4.035,0l29.117,11.065l3.342,0.913c0,0,0.354,0.266,0,1.06c-0.354,0.793-9.899,22.229-9.899,22.229
	l-2.571-1.223l-0.998,2.098L0,26.04L4.035,0z"></path><path fill="#fff" d="M37.207,14.504c0,0,2.73-0.367,4.482-1.304c1.752-0.937,5.461-2.445,6.643-2.078
	c1.181,0.367,1.19,0.46,1.19,0.46s-5.124,1.842-6.183,2.29c-1.06,0.448-1.978,2.402-2.019,2.85
	c-0.041,0.449-1.047,2.805-1.374,3.171s-0.846,2.506,0.703,3.484c1.548,0.978,2.384,0.336,2.792,0.172
	c0.407-0.161,2.099-0.734,2.955-1.998s1.834-2.567,2.628-2.364c0.794,0.204,1.06-0.12,2.567,1.469
	c1.509,1.589,4.951,4.035,4.951,4.035s4.894,4.061,5.033,4.4c0.324,0.789,1.601,3.118,1.397,3.695
	c-0.138,0.393-0.576,1.646-1.846,1.807c-0.68,0.086-1.059-0.244-1.059-0.244L55.708,29.5l-1.549-2.026c0,0,0.326,2.189,0.571,2.516
	c0.244,0.326,3.038,3.276,3.341,3.627c0.479,0.551,1.262,1.115,1.429,1.512c0.344,0.812-0.653,2.401-1.918,2.401
	c-1.263,0-2.017-0.497-2.017-0.497l-2.935-2.682l-1.161-1.437c0,0,0.041,1.559,0.244,1.884c0.204,0.326,3.383,3.22,3.383,3.22
	l0.449,0.325c0,0,0.08,0.408-0.653,0.938c-0.733,0.529-1.951,0.7-2.073,0.658c-0.122-0.04-3.407-3.511-3.794-3.797
	c-0.387-0.285,0,1.382,0,1.382l1.102,1.022l1.624,1.751c0,0,0.127,0.043-0.444,0.532c-0.57,0.488-2.906,0.327-2.906,0.327
	s1.541-1.978,0.166-3.14c-0.729-0.616-1.008-0.738-1.008-0.738c0.318-0.736,0.621-1.687,0.336-2.501
	c-0.286-0.815-0.988-1.57-1.762-1.773c-0.774-0.204-2.028,0.153-2.028,0.153s0.167-1.373-1.11-2.314
	c-0.774-0.571-2.162-0.512-3.252,0.252c-0.604,0.423-2.056,1.573-2.056,1.573c0.041-0.336-1.54-3.605-4.78-2.352l-1.874-1.592
	L37.207,14.504z"></path><path fill="#fff" d="M32.133,31.51c0,0-0.477,1.737,0.051,2.198c2.201,1.926,3.393,1.417,3.393,1.417s0,0.814,0.815,1.793
	c0.815,0.978,2.445,1.67,2.445,1.67s-0.326,0.418,0.408,1.233c0.733,0.815,2.058,1.559,3.545,1.039c0,0-0.469,0.438,0.428,1.253
	c0.896,0.814,1.243,0.785,2.14,0.703c0.896-0.082,2.201-1.578,2.201-1.578s1.07-1.634,0-2.528c-0.821-0.685-1.947-0.223-2.109-0.02
	c-0.163,0.203,1.213-1.509,1.406-2.721c0.161-1.018-0.418-1.487-1.314-1.772s-1.714,0.104-2.201,0.55
	c-0.547,0.503-1.039,0.867-1.039,0.867l-2.493,1.751c0,0,2.584-2.312,3.012-3.32c0.237-0.558,0.167-1.476-0.52-1.896
	c-0.466-0.283-0.896-0.631-1.834-0.408c-0.177,0.044-2.608,1.795-2.608,1.795l-0.856,0.611l-0.611,0.366c0,0,0.652-1.142,0-1.834
	C35.74,31.985,34.951,30.602,32.133,31.51z"></path></svg>
