<svg xmlns="http://www.w3.org/2000/svg" xmlns:xlink="http://www.w3.org/1999/xlink" version="1.1" x="0px" y="0px" viewBox="0 0 100 100" enable-background="new 0 0 100 100" xml:space="preserve"><path fill="white" d="M32.707,56.93c-0.673-0.673-1.554-1.009-2.436-1.009c-0.881,0-1.763,0.336-2.436,1.009l-4.67,4.67  c-1.346,1.346-1.346,3.526,0,4.872c0.672,0.674,1.554,1.01,2.436,1.01s1.763-0.336,2.436-1.01l4.67-4.669  C34.052,60.456,34.052,58.275,32.707,56.93z"></path><path fill="white" d="M40.132,60.527c-0.672-0.672-1.554-1.008-2.436-1.008c-0.881,0-1.763,0.336-2.436,1.008l-5.474,5.475  c-1.345,1.346-1.345,3.527,0,4.871c0.673,0.675,1.555,1.011,2.437,1.011c0.881,0,1.763-0.336,2.436-1.011l5.473-5.473  C41.479,64.055,41.479,61.874,40.132,60.527z"></path><path fill="white" d="M46.329,65.232c-0.645-0.645-1.489-0.967-2.333-0.967c-0.845,0-1.689,0.322-2.333,0.967l-4.913,4.913  c-1.289,1.288-1.289,3.377,0,4.667c0.644,0.645,1.489,0.966,2.333,0.966c0.844,0,1.688-0.321,2.333-0.966l4.913-4.914  C47.618,68.61,47.618,66.521,46.329,65.232z"></path><path fill="white" d="M51.202,70.429c-0.561-0.562-1.296-0.843-2.033-0.843c-0.735,0-1.471,0.281-2.032,0.843l-4.279,4.279  c-1.123,1.123-1.123,2.943,0,4.063c0.561,0.562,1.297,0.843,2.032,0.843c0.735,0,1.471-0.281,2.032-0.843l4.28-4.277  C52.324,73.371,52.324,71.552,51.202,70.429z"></path><path fill="white" d="M21.605,33.378l-8.87-4.34c-0.484-0.237-1.069-0.037-1.306,0.448l-9.41,19.231c-0.237,0.484-0.037,1.069,0.448,1.306  l8.87,4.34c0.484,0.236,1.069,0.036,1.307-0.448l9.41-19.23C22.291,34.2,22.089,33.615,21.605,33.378z"></path><path fill="white" d="M97.754,48.717l-9.411-19.231c-0.236-0.485-0.822-0.685-1.306-0.448l-8.87,4.34c-0.484,0.237-0.685,0.822-0.448,1.307  l9.411,19.23c0.236,0.484,0.821,0.685,1.306,0.448l8.87-4.34C97.79,49.786,97.99,49.201,97.754,48.717z"></path><path fill="white" d="M60.301,50.238c-0.875-1.03-1.633-1.919-2.269-2.618c-0.36-0.396-1.204-1.324-1.449-1.324c-0.265,0-1.106,0.741-1.92,1.457  c-1.23,1.085-3.092,2.723-6.062,4.823c-1.11,0.784-2.572,1.216-4.117,1.216c-2.034,0-3.969-0.722-5.178-1.93  c-1.189-1.188-1.316-2.402-1.213-3.21c0.146-1.138,0.874-2.246,1.856-2.824c0.947-0.557,6.844-4.514,10.162-8.627  c0.123-0.152,0.245-0.285,0.368-0.426c-1.012-0.815-2.481-1.234-4.399-1.234c-3.052,0-6.781,0.996-10.026,1.969  c-1.227,0.368-2.508,0.555-3.809,0.555c-3.504,0-6.299-1.312-7.642-1.944c-0.132-0.061-0.248-0.116-0.338-0.156  c-0.196-0.095-0.406-0.143-0.623-0.143c-0.548,0-1.056,0.319-1.294,0.812l-7.385,15.306c-0.34,0.704-0.052,1.55,0.641,1.903  c1.131,0.743,4.884,4.417,7.209,6.811l4.373-4.372c0.824-0.825,1.92-1.279,3.085-1.279c1.166,0,2.262,0.454,3.086,1.279  c0.989,0.989,1.385,2.338,1.224,3.629l0.03-0.03c0.825-0.825,1.92-1.279,3.086-1.279c1.166,0,2.262,0.454,3.086,1.279  c1.089,1.089,1.473,2.613,1.167,4.018c0.621-0.349,1.316-0.551,2.047-0.551c1.126,0,2.187,0.44,2.983,1.235  c1.16,1.16,1.484,2.829,1.008,4.292c0.378-0.124,0.772-0.205,1.182-0.205c1.013,0,1.965,0.395,2.682,1.111  c1.478,1.479,1.478,3.884,0,5.362l-4.226,4.226c0.814,0.709,1.836,1.113,2.925,1.113c1.204,0,2.333-0.47,3.178-1.323  c0.677-0.68,1.108-1.54,1.25-2.469c0.532,0.217,1.105,0.329,1.688,0.329c1.203,0,2.333-0.47,3.18-1.323  c0.771-0.776,1.224-1.811,1.289-2.886c0.641,0.339,1.359,0.52,2.093,0.52c1.21,0,2.344-0.475,3.191-1.336  c0.806-0.817,1.258-1.911,1.284-3.04c0.544,0.229,1.129,0.347,1.728,0.347c1.211,0,2.343-0.476,3.191-1.337  c0.835-0.849,1.346-2.04,1.402-3.267c0.044-0.987-0.201-1.9-0.695-2.648C69.077,60.537,64.086,54.684,60.301,50.238z"></path><path fill="white" d="M85.312,52.356L77.927,37.05c-0.167-0.349-0.517-0.552-0.88-0.552c-0.143,0-0.286,0.031-0.424,0.097  c-1.096,0.497-4.22,2.146-8.179,2.146c-1.243,0-2.569-0.163-3.941-0.574c-3.629-1.088-6.234-3.312-8.861-3.312  c-1.438,0-2.888,0.683-4.512,2.573c-0.103,0.117-0.2,0.223-0.304,0.35c-3.284,4.07-9.11,8.076-10.411,8.841  c-1.175,0.691-2.297,2.756-0.46,4.594c1.058,1.057,2.791,1.66,4.529,1.66c1.283,0,2.569-0.329,3.587-1.047  c5.915-4.18,7.299-6.448,8.512-6.448c0.586,0,1.132,0.528,2.128,1.625c2.836,3.119,8.169,10.084,12.785,13.079  c1.345,0.872,2.633,1.425,3.776,1.425c0.842,0,1.607-0.289,2.265-0.946c1.981-1.981,6.085-6.104,7.32-6.899  C85.343,53.426,85.548,52.842,85.312,52.356z"></path></svg>