<svg xmlns="http://www.w3.org/2000/svg" xmlns:xlink="http://www.w3.org/1999/xlink" version="1.1" x="0px" y="0px" viewBox="0 0 100 100" style="enable-background:new 0 0 100 100;" xml:space="preserve"><path d="M53.7,12c-2.1-1.8-5.4-1.8-7.5,0L6.5,46.8c-1.9,1.6-1.5,3.1-1.3,3.7c0.2,0.6,1,1.9,3.5,1.9h9.9c0.7,0,1.2,0.6,1.2,1.2  l0,31.7c0,2.9,2.4,5.2,5.2,5.2h13.6c1.4,0,2.7-0.5,3.7-1.5c1-1,1.5-2.3,1.5-3.7l0-19.8c0-0.3,0.1-0.6,0.4-0.9  c0.2-0.2,0.5-0.4,0.9-0.4h11.9c0.7,0,1.2,0.6,1.2,1.2l0,19.8c0,2.9,2.4,5.2,5.2,5.2h11.5c1.4,0,2.7-0.5,3.7-1.5c1-1,1.5-2.3,1.5-3.7  l0-31.7c0-0.7,0.6-1.2,1.2-1.2h9.9c2.5,0,3.2-1.4,3.5-1.9c0.2-0.6,0.5-2.1-1.3-3.7L53.7,12z M81.3,48.4c-2.9,0-5.2,2.4-5.2,5.2  l0,31.7c0,0.3-0.1,0.6-0.4,0.9c-0.2,0.2-0.5,0.4-0.9,0.4H63.3c-0.7,0-1.2-0.6-1.2-1.2l0-19.8c0-2.9-2.4-5.2-5.2-5.2H45  c-1.4,0-2.7,0.5-3.7,1.5c-1,1-1.5,2.3-1.5,3.7l0,19.8c0,0.3-0.1,0.6-0.4,0.9c-0.2,0.2-0.5,0.4-0.9,0.4H25c-0.7,0-1.2-0.6-1.2-1.2  l0-31.7c0-2.9-2.4-5.2-5.2-5.2h-7.8L48.8,15c0.6-0.5,1.6-0.5,2.2,0l38.1,33.4H81.3z"></path></svg>