<svg xmlns:dc="http://purl.org/dc/elements/1.1/" xmlns:cc="http://creativecommons.org/ns#" xmlns:rdf="http://www.w3.org/1999/02/22-rdf-syntax-ns#" xmlns:svg="http://www.w3.org/2000/svg" xmlns="http://www.w3.org/2000/svg" version="1.1" viewBox="0 0 100.00001 100" xml:space="preserve" x="0px" y="0px"><path d="m 81.59375,5.96875 c -7.401995,0 -13.40625,6.004426 -13.40625,13.40625 0,2.891399 0.91154,5.560446 2.46875,7.75 3.592562,5.612885 9.621754,10.529529 10.34375,17.6875 0.07104,0.252562 0.332479,0.4375 0.59375,0.4375 0.261442,0 0.522883,-0.184938 0.59375,-0.4375 C 82.909667,37.654529 88.93903,32.737885 92.53125,27.125 94.088289,24.935446 95,22.266399 95,19.375 95,11.973176 88.995915,5.96875 81.59375,5.96875 z m -1.9375,4.25 3.90625,0 c 0.541156,0 0.96875,0.427595 0.96875,0.96875 l 0,5.25 5.25,0 c 0.541155,0 0.96875,0.427765 0.96875,0.96875 l 0,3.90625 c 0,0.540985 -0.427595,1 -0.96875,1 l -5.25,0 0,5.25 c 0,0.541156 -0.427765,0.96875 -0.96875,0.96875 l -3.90625,0 c -0.540985,0 -1,-0.427594 -1,-0.96875 l 0,-5.25 -5.25,0 c -0.541156,0 -0.96875,-0.459015 -0.96875,-1 l 0,-3.90625 c 0,-0.540985 0.427594,-0.96875 0.96875,-0.96875 l 5.25,0 0,-5.25 c 0,-0.541155 0.459186,-0.96875 1,-0.96875 z m -61.25,5.25 C 11.004256,15.46875 5,21.441927 5,28.84375 c 0,2.891399 0.9115409,5.591697 2.46875,7.78125 3.592561,5.612885 9.621754,10.498279 10.34375,17.65625 0.07104,0.252562 0.332479,0.4375 0.59375,0.4375 0.261442,0 0.522883,-0.184938 0.59375,-0.4375 0.722167,-7.157971 6.75153,-12.043365 10.34375,-17.65625 1.557039,-2.189553 2.46875,-4.889851 2.46875,-7.78125 0,-7.401823 -6.004085,-13.375 -13.40625,-13.375 z m 28.78125,3.6875 c -5.017256,5.006327 -9.553272,10.517919 -12.84375,16.75 4.17009,1.189893 8.457301,1.883709 12.84375,1.96875 l 0,-5.53125 0,-13.1875 z m 2.65625,0.125 0,2.3125 0,16.28125 C 54.563534,37.693476 59.235817,36.853828 63.75,35.46875 63.286713,34.670422 62.816941,33.898396 62.3125,33.125 59.886607,29.406243 57.042185,25.926748 53.875,22.8125 c -1.177086,-1.157106 -2.435107,-2.244192 -3.71875,-3.28125 -0.103142,-0.08367 -0.208504,-0.166667 -0.3125,-0.25 z m -6.71875,0.25 c -3.136788,0.451845 -6.222331,1.26844 -9.15625,2.5 -0.371927,0.156079 -0.726776,0.331284 -1.09375,0.5 1.174011,2.685456 1.63166,5.67759 1.1875,8.59375 2.596999,-4.176238 5.669222,-7.990601 9.0625,-11.59375 z m 11.1875,0.03125 c 2.473366,2.215168 4.698937,4.705254 6.75,7.3125 1.924355,2.446555 3.72814,5.030562 5.28125,7.75 1.776814,-0.634735 3.505291,-1.329405 5.21875,-2.125 -2.160352,-2.674869 -4.169226,-5.562323 -5.15625,-8.8125 -3.190751,-1.744368 -6.632165,-3.035688 -10.21875,-3.78125 -0.628929,-0.130806 -1.240777,-0.245731 -1.875,-0.34375 z m -37.875,0.125 3.90625,0 c 0.541155,0 1,0.458845 1,1 l 0,5.25 5.25,0 c 0.541156,0 0.96875,0.427765 0.96875,0.96875 l 0,3.90625 c 0,0.540985 -0.427594,0.96875 -0.96875,0.96875 l -5.25,0 0,5.25 c 0,0.541156 -0.459016,1 -1,1 l -3.90625,0 c -0.540984,0 -0.96875,-0.458844 -0.96875,-1 l 0,-5.25 -5.25,0 C 9.6775947,31.78125 9.25,31.353485 9.25,30.8125 l 0,-3.90625 c 0,-0.540985 0.4275947,-0.96875 0.96875,-0.96875 l 5.25,0 0,-5.25 c 0,-0.541155 0.427936,-1 0.96875,-1 z m 56.875,14.90625 c -1.878419,0.864585 -3.784662,1.658981 -5.71875,2.375 1.799013,3.549699 3.188864,7.302588 3.96875,11.21875 0.464311,2.331289 0.72763,4.692447 0.78125,7.0625 l 0.6875,0 12.90625,0 c -0.127904,-3.233955 -0.691085,-6.434761 -1.625,-9.53125 -0.105875,0.246415 -0.218067,0.490949 -0.375,0.71875 -1.214825,2.01708 -4.567451,1.264519 -5.21875,-0.84375 C 78.328893,41.499992 75.981733,37.886276 73.4375,34.75 c -0.04457,-0.05242 -0.08043,-0.103654 -0.125,-0.15625 z m -8.25,3.25 c -1.382516,0.444502 -2.795591,0.855361 -4.21875,1.1875 -2.342388,0.54662 -4.726772,0.959699 -7.125,1.21875 0.663765,0.240437 1.311474,0.543374 1.9375,0.875 5.209709,2.592389 8.498122,8.357401 8.34375,14.125 l 5.65625,0 c -0.08128,-3.389693 -0.592552,-6.727624 -1.59375,-10 -0.780568,-2.550893 -1.789103,-5.036198 -3,-7.40625 z m -31.9375,0.5 c -0.79423,1.725072 -1.478653,3.504948 -2.0625,5.34375 -1.192967,3.757521 -1.932035,7.626187 -2.03125,11.5625 l 4,0 C 32.68767,48.77492 37.154702,42.618174 43.09375,40.3125 39.700642,39.970457 36.367151,39.301403 33.125,38.34375 z m -3.9375,2.625 c -2.367833,3.035012 -5.029881,5.949447 -6.625,9.40625 -0.964996,1.458166 -0.775442,3.330256 -1.46875,4.875 l 5.28125,0 c 0.01895,-0.898226 0.07019,-1.788421 0.15625,-2.6875 0.379611,-3.963635 1.279369,-7.863893 2.65625,-11.59375 z M 48.5,41.40625 c -7.401995,0 -13.40625,6.004426 -13.40625,13.40625 0,2.891399 0.94279,5.560446 2.5,7.75 l 0,0.03125 c 3.592562,5.612886 9.621754,10.498279 10.34375,17.65625 0.07104,0.252562 0.301229,0.4375 0.5625,0.4375 0.261442,0 0.522883,-0.184938 0.59375,-0.4375 0.722167,-7.157971 6.75153,-12.043364 10.34375,-17.65625 l 0,-0.03125 c 1.557039,-2.189554 2.46875,-4.858601 2.46875,-7.75 0,-7.401824 -6.004085,-13.40625 -13.40625,-13.40625 z m -1.9375,4.25 3.90625,0 c 0.541156,0 0.96875,0.427594 0.96875,0.96875 l 0,5.25 5.25,0 c 0.541155,0 0.96875,0.459015 0.96875,1 l 0,3.90625 c 0,0.540984 -0.427595,0.96875 -0.96875,0.96875 l -5.25,0 0,5.25 c 0,0.541155 -0.427765,0.96875 -0.96875,0.96875 l -3.90625,0 c -0.540985,0 -0.96875,-0.427595 -0.96875,-0.96875 l 0,-5.25 -5.25,0 c -0.541156,0 -1,-0.427766 -1,-0.96875 l 0,-3.90625 c 0,-0.540985 0.458844,-1 1,-1 l 5.25,0 0,-5.25 c 0,-0.541156 0.427936,-0.96875 0.96875,-0.96875 z M 12.3125,47 c -0.712945,2.686481 -1.143101,5.44313 -1.25,8.25 l 2.84375,0 1.6875,0 C 15.56011,55.16991 15.52528,55.084017 15.5,55 15.223189,52.080766 13.952189,49.423844 12.3125,47 z m -1.25,10.9375 c 0.16308,4.387474 1.062497,8.70491 2.71875,12.78125 1.453384,3.577876 3.473526,6.877385 5.90625,9.78125 0.610315,-0.330261 1.226092,-0.652151 1.84375,-0.96875 3.012301,-1.540645 6.131482,-2.870387 9.3125,-3.9375 -1.27835,-2.78894 -2.323598,-5.703204 -3.0625,-8.6875 -0.731558,-2.954411 -1.231728,-5.939885 -1.375,-8.96875 l -3.3125,0 -12.03125,0 z m 18,0 c 0.222849,4.670261 1.297298,9.32769 2.96875,13.6875 0.412569,1.076163 0.857069,2.110654 1.34375,3.15625 3.084706,-0.886955 6.246237,-1.526127 9.4375,-1.875 -0.811818,-1.197066 -1.698939,-2.335893 -2.59375,-3.4375 C 37.350575,66.066933 34.349558,62.342392 33.375,57.9375 l -4.3125,0 z m 34.59375,0 c -0.02971,0.134733 -0.05994,0.272199 -0.09375,0.40625 -1.423841,5.803118 -6.096306,9.780045 -9.34375,14.59375 3.578559,0.412911 7.137118,1.197061 10.5625,2.28125 2.573264,-5.023062 4.383879,-10.525605 4.78125,-16.125 0.02818,-0.394297 0.07701,-0.762636 0.09375,-1.15625 l -6,0 z m 8.65625,0 c -0.07275,1.670939 -0.247096,3.345796 -0.53125,5 -0.790131,4.597858 -2.40266,8.986843 -4.46875,13.15625 1.944676,0.714141 3.832817,1.512976 5.71875,2.375 1.436307,0.656422 2.890878,1.306522 4.3125,2.03125 2.27579,-2.738735 4.171616,-5.781585 5.59375,-9.0625 1.870052,-4.314387 2.858777,-8.904705 3,-13.5 l -3.71875,0 -9.90625,0 z M 44.28125,75.375 c -3.305847,0.24761 -6.548321,0.864581 -9.71875,1.78125 1.351608,2.563871 2.903856,5.030221 4.59375,7.375 1.429989,1.983611 2.950987,3.910857 4.5625,5.75 0.890712,1.015883 1.803789,2.004438 2.75,2.96875 0.237363,0.241974 0.482411,0.493169 0.71875,0.75 l 0,-3.25 0,-8.4375 C 46.527834,81.913251 46.000513,81.283813 45.84375,80.53125 45.684255,78.694498 45.099728,76.976779 44.28125,75.375 z M 52.6875,75.5 c -0.211749,0.419058 -0.414105,0.844091 -0.59375,1.28125 -0.992146,1.667353 -0.389683,4.063522 -1.96875,5.40625 -0.08572,0.07941 -0.189036,0.125512 -0.28125,0.1875 l 0,11.65625 c 0.03142,0 0.0625,0.0017 0.09375,0 0.115437,-0.105875 0.228483,-0.206626 0.34375,-0.3125 0.667522,-0.616976 1.36424,-1.225238 2,-1.875 1.246416,-1.274592 2.443816,-2.602115 3.625,-3.9375 2.379444,-2.690237 4.629607,-5.510069 6.53125,-8.5625 0.357753,-0.574283 0.722677,-1.159664 1.0625,-1.75 -0.234461,-0.07121 -0.483436,-0.119706 -0.71875,-0.1875 C 59.480184,76.451501 56.098368,75.816257 52.6875,75.5 z M 32,77.96875 c -3.598026,1.225242 -7.100062,2.795249 -10.46875,4.5625 5.760598,5.938364 13.418872,9.963113 21.6875,11.15625 C 42.816939,93.255464 42.420766,92.819502 42.03125,92.375 39.883364,89.924005 37.838801,87.379616 36,84.6875 34.532613,82.538931 33.196723,80.284158 32,77.96875 z m 34.0625,0.46875 c -2.14413,3.832999 -4.765363,7.376701 -7.65625,10.6875 -1.334873,1.529204 -2.718576,3.061643 -4.15625,4.5 5.305679,-0.822064 10.428611,-2.758362 14.9375,-5.75 2.29816,-1.524764 4.406246,-3.301396 6.3125,-5.28125 -3.046625,-1.573773 -6.198081,-3.011781 -9.4375,-4.15625 z" transform="translate(0,-5e-6)" style="" fill="#292e31" fill-opacity="1"></path></svg>