<svg xmlns:dc="http://purl.org/dc/elements/1.1/" xmlns:cc="http://creativecommons.org/ns#" xmlns:rdf="http://www.w3.org/1999/02/22-rdf-syntax-ns#" xmlns:svg="http://www.w3.org/2000/svg" xmlns="http://www.w3.org/2000/svg" version="1.1" viewBox="0 0 100.00001 100" xml:space="preserve" x="0px" y="0px"><path d="M 50,5 C 38.491943,5 29.125,14.366944 29.125,25.875 29.125,37.382881 38.491943,46.75 50,46.75 61.507881,46.75 70.875,37.382881 70.875,25.875 70.875,14.366944 61.508056,5 50,5 z m 0,2.8125 c 9.992911,0 18.0625,8.069589 18.0625,18.0625 0,9.992736 -8.069589,18.0625 -18.0625,18.0625 -9.992912,0 -18.0625,-8.069764 -18.0625,-18.0625 C 31.9375,15.882089 40.007088,7.8125 50,7.8125 z M 47,11.75 c -0.834232,0 -1.5,0.665943 -1.5,1.5 l 0,8.09375 -8.09375,0 c -0.833882,0 -1.53125,0.666294 -1.53125,1.5 l 0,6.03125 c 0,0.834056 0.697368,1.5 1.53125,1.5 l 8.09375,0 0,8.09375 c 0,0.833882 0.665768,1.5 1.5,1.5 l 6,0 c 0.834057,0 1.53125,-0.666118 1.53125,-1.5 l 0,-8.09375 8.0625,0 c 0.834233,0 1.53125,-0.665944 1.53125,-1.5 l 0,-6.03125 c 0,-0.833706 -0.697017,-1.5 -1.53125,-1.5 l -8.0625,0 0,-8.09375 c 0,-0.834057 -0.697018,-1.5 -1.53125,-1.5 l -6,0 z m -29.9375,2 c -1.553168,0 -2.8125,1.259332 -2.8125,2.8125 l 0,69.03125 c 23.827565,-0.142806 47.670331,0.0066 71.5,-0.0625 l 0,-68.96875 c 0,-1.553168 -1.259332,-2.8125 -2.8125,-2.8125 l -9.1875,0 -3.8125,0 c 0.859114,1.401601 1.5609,2.905244 2.09375,4.46875 0.470296,1.264753 0.8138,2.587178 1.03125,3.90625 l 6.5625,0 c 0.776584,0 1.375,0.598416 1.375,1.375 l 0,9.8125 c 0,0.776584 -0.598416,1.40625 -1.375,1.40625 l -7.71875,0 c -0.113193,0 -0.238441,-0.0069 -0.34375,-0.03125 -1.030305,2.518466 -2.482131,4.869058 -4.3125,6.875 -1.030481,1.191335 -2.179931,2.234232 -3.4375,3.15625 0.0233,0.101804 0.03125,0.203512 0.03125,0.3125 l 0,9.8125 c 0,0.776584 -0.629666,1.40625 -1.40625,1.40625 l -7.71875,0 c -0.776584,0 -1.375,-0.629666 -1.375,-1.40625 l 0,-5.90625 c -2.203942,0.314524 -4.483032,0.340342 -6.6875,0.03125 l 0,5.875 c 0,0.776584 -0.598416,1.40625 -1.375,1.40625 l -7.71875,0 c -0.776585,0 -1.40625,-0.629666 -1.40625,-1.40625 l 0,-9.8125 c 0,-0.109514 0.0069,-0.210345 0.03125,-0.3125 -3.423839,-2.546151 -6.10852,-6.071232 -7.75,-10.03125 -0.108462,0.02681 -0.226702,0.03125 -0.34375,0.03125 l -7.71875,0 C 19.598416,34.71875 19,34.089084 19,33.3125 L 19,23.5 c 0,-0.776584 0.598416,-1.375 1.375,-1.375 l 6.53125,0 c 0.454701,-2.977373 1.572067,-5.838136 3.15625,-8.375 l -13,0 z m 3.3125,29.875 7.71875,0 c 0.776584,0 1.40625,0.629666 1.40625,1.40625 l 0,9.8125 c 0,0.776584 -0.629666,1.40625 -1.40625,1.40625 l -7.71875,0 C 19.598416,56.25 19,55.620334 19,54.84375 l 0,-9.8125 C 19,44.254666 19.598416,43.625 20.375,43.625 z m 51.53125,0 7.71875,0 c 0.776584,0 1.375,0.629666 1.375,1.40625 l 0,9.8125 C 81,55.620334 80.401584,56.25 79.625,56.25 l -7.71875,0 C 71.129666,56.25 70.5,55.620334 70.5,54.84375 l 0,-9.8125 c 0,-0.776584 0.629666,-1.40625 1.40625,-1.40625 z m -51.53125,21 7.71875,0 c 0.776584,0 1.40625,0.629666 1.40625,1.40625 l 0,9.8125 c 0,0.776584 -0.629666,1.40625 -1.40625,1.40625 l -7.71875,0 C 19.598416,77.25 19,76.620334 19,75.84375 l 0,-9.8125 C 19,65.254666 19.598416,64.625 20.375,64.625 z m 17.1875,0 7.71875,0 c 0.776584,0 1.375,0.629666 1.375,1.40625 l 0,9.8125 c 0,0.776584 -0.598416,1.40625 -1.375,1.40625 l -7.71875,0 c -0.776585,0 -1.40625,-0.629666 -1.40625,-1.40625 l 0,-9.8125 c 0,-0.776584 0.629665,-1.40625 1.40625,-1.40625 z m 17.15625,0 7.71875,0 c 0.776584,0 1.40625,0.629666 1.40625,1.40625 l 0,9.8125 c 0,0.776584 -0.629666,1.40625 -1.40625,1.40625 l -7.71875,0 c -0.776584,0 -1.375,-0.629666 -1.375,-1.40625 l 0,-9.8125 c 0,-0.776584 0.598416,-1.40625 1.375,-1.40625 z m 17.1875,0 7.71875,0 c 0.776584,0 1.375,0.629666 1.375,1.40625 l 0,9.8125 C 81,76.620334 80.401584,77.25 79.625,77.25 l -7.71875,0 C 71.129666,77.25 70.5,76.620334 70.5,75.84375 l 0,-9.8125 c 0,-0.776584 0.629666,-1.40625 1.40625,-1.40625 z M 7.59375,88 C 6.8171661,88 6.1875,88.629666 6.1875,89.40625 l 0,4.1875 C 6.1875,94.370334 6.8171661,95 7.59375,95 l 84.8125,0 c 0.776584,0 1.40625,-0.629666 1.40625,-1.40625 l 0,-4.1875 C 93.8125,88.629666 93.182834,88 92.40625,88 l -84.8125,0 z" transform="translate(0,-5e-6)" style="" fill="#292e31" fill-opacity="1" fill-rule="nonzero" stroke="none"></path></svg>