<svg xmlns="http://www.w3.org/2000/svg" xmlns:xlink="http://www.w3.org/1999/xlink" version="1.1" x="0px" y="0px" viewBox="0 0 100 100" enable-background="new 0 0 100 100" xml:space="preserve"><path fill="#292e31" d="M50,41.6c-5.4,0-10.5,2.1-14.3,5.9c-3.8,3.8-5.9,8.9-5.9,14.3c0,5.4,2.1,10.5,5.9,14.3C39.6,79.9,44.6,82,50,82  s10.5-2.1,14.3-5.9c3.8-3.8,5.9-8.9,5.9-14.3c0-5.4-2.1-10.5-5.9-14.3C60.5,43.7,55.4,41.6,50,41.6z M48.8,45.1c0.4,0,0.8,0,1.3,0  c0.5,0,1,0,1.5,0.1c1.7,2.7,3,5.6,3.8,8.7H44.7C45.6,50.7,47,47.8,48.8,45.1z M44.2,46.1c-1.3,2.4-2.3,5-3,7.7h-5.9  C37.2,50.3,40.4,47.5,44.2,46.1z M33.2,61.8c0-1.6,0.2-3.2,0.7-4.7h6.6c-0.2,1.6-0.3,3.2-0.3,4.9c0,1.5,0.1,3,0.3,4.4h-6.6  C33.5,65,33.2,63.4,33.2,61.8z M35.3,69.9h5.8c0.6,2.6,1.6,5.2,2.8,7.6C40.2,76,37.2,73.3,35.3,69.9z M43.6,62.1  c0-1.6,0.1-3.3,0.4-4.9h12c0.2,1.5,0.3,2.9,0.3,4.4c0,1.6-0.1,3.3-0.4,4.8H43.9C43.7,65,43.6,63.5,43.6,62.1z M51.2,78.6  c-0.4,0-0.8,0-1.2,0c-0.5,0-1.1,0-1.6-0.1c-1.7-2.7-3-5.6-3.8-8.7h10.6C54.4,73,53,75.9,51.2,78.6z M55.8,77.6c1.3-2.5,2.3-5,3-7.7  h6C62.8,73.4,59.6,76.2,55.8,77.6z M66.8,61.8c0,1.6-0.2,3.2-0.6,4.6h-6.7c0.2-1.6,0.3-3.2,0.3-4.8c0-1.5-0.1-3-0.3-4.4h6.7  C66.6,58.7,66.8,60.2,66.8,61.8z M58.9,53.8c-0.6-2.6-1.6-5.2-2.8-7.6c3.7,1.4,6.8,4.1,8.7,7.6H58.9z M64.5,81.7  C64.5,81.7,64.5,81.7,64.5,81.7C64.5,81.7,64.5,81.7,64.5,81.7z M35.7,81.7C35.7,81.7,35.7,81.7,35.7,81.7  C35.7,81.7,35.7,81.7,35.7,81.7z M51.4,96.6c0,0.7-0.6,1.3-1.3,1.3l-0.2,0c-0.7,0-1.3-0.6-1.3-1.3c0-0.7,0.6-1.3,1.3-1.3  c0,0,0,0,0,0l0.2,0C50.8,95.3,51.4,95.9,51.4,96.6z M57.4,95.8c0.1,0.7-0.3,1.4-1.1,1.5l-0.2,0c-0.1,0-0.1,0-0.2,0  c-0.6,0-1.2-0.5-1.3-1.1c-0.1-0.7,0.4-1.4,1.1-1.5l0.2,0C56.6,94.7,57.3,95.1,57.4,95.8z M45.3,96.3c-0.1,0.6-0.7,1.1-1.3,1.1  c-0.1,0-0.1,0-0.2,0l-0.2,0c-0.7-0.1-1.2-0.8-1.1-1.5c0.1-0.7,0.8-1.2,1.5-1.1l0.2,0C44.9,94.9,45.4,95.6,45.3,96.3z M63.3,94  c0.2,0.7-0.1,1.4-0.8,1.7l-0.2,0.1c-0.1,0.1-0.3,0.1-0.4,0.1c-0.5,0-1-0.3-1.2-0.9c-0.2-0.7,0.1-1.4,0.8-1.7l0.2-0.1  C62.3,93,63,93.4,63.3,94z M39.3,95c-0.2,0.5-0.7,0.9-1.2,0.9c-0.1,0-0.3,0-0.4-0.1l-0.2-0.1c-0.7-0.2-1-1-0.8-1.7  c0.2-0.7,1-1,1.7-0.8l0.2,0.1C39.2,93.5,39.5,94.3,39.3,95z M68.7,91.2c0.4,0.6,0.2,1.4-0.5,1.8l-0.2,0.1c-0.2,0.1-0.4,0.2-0.6,0.2  c-0.5,0-0.9-0.2-1.1-0.7c-0.4-0.6-0.1-1.4,0.5-1.8l0.2-0.1C67.5,90.4,68.3,90.6,68.7,91.2z M33.7,92.6c-0.2,0.4-0.7,0.7-1.1,0.7  c-0.2,0-0.4-0.1-0.7-0.2L31.7,93c-0.6-0.4-0.8-1.2-0.5-1.8c0.4-0.6,1.2-0.8,1.8-0.5l0.2,0.1C33.8,91.2,34,92,33.7,92.6z M84.3,54.1  c0.7-0.1,1.4,0.3,1.5,1.1l0,0.2c0.1,0.7-0.4,1.4-1.1,1.5c-0.1,0-0.1,0-0.2,0c-0.6,0-1.2-0.5-1.3-1.1l0-0.2  C83.1,54.9,83.6,54.3,84.3,54.1z M14.2,55.1c0.1-0.7,0.8-1.2,1.5-1c0.7,0.1,1.2,0.8,1,1.5l0,0.2c-0.1,0.6-0.7,1.1-1.3,1.1  c-0.1,0-0.2,0-0.2,0c-0.7-0.1-1.2-0.8-1.1-1.5L14.2,55.1z M84.2,49.3c0.2,0.7-0.1,1.4-0.8,1.7C83.3,51,83.1,51,83,51  c-0.5,0-1-0.3-1.2-0.9L81.7,50c-0.2-0.7,0.1-1.4,0.8-1.7c0.7-0.2,1.4,0.1,1.7,0.8L84.2,49.3z M18.3,49.8L18.3,50  c-0.2,0.5-0.7,0.9-1.2,0.9c-0.1,0-0.3,0-0.4-0.1c-0.7-0.2-1-1-0.8-1.7l0.1-0.2c0.3-0.7,1-1,1.7-0.8C18.2,48.4,18.6,49.2,18.3,49.8z   M81.6,43.5c0.4,0.6,0.1,1.4-0.5,1.8c-0.2,0.1-0.4,0.2-0.6,0.2c-0.5,0-0.9-0.2-1.1-0.7l-0.1-0.2c-0.4-0.6-0.1-1.4,0.5-1.8  c0.6-0.4,1.4-0.1,1.8,0.5L81.6,43.5z M20.4,42.7c0.6,0.4,0.8,1.2,0.5,1.8l-0.1,0.2c-0.2,0.4-0.7,0.7-1.1,0.7c-0.2,0-0.4-0.1-0.7-0.2  c-0.6-0.4-0.8-1.2-0.5-1.8l0.1-0.2C19,42.6,19.8,42.4,20.4,42.7z M77.8,40.1c-0.2,0.2-0.5,0.3-0.8,0.3c-0.4,0-0.7-0.2-1-0.5  l-0.1-0.1c-0.5-0.6-0.4-1.4,0.2-1.8c0.6-0.5,1.4-0.4,1.8,0.2l0.1,0.1C78.4,38.9,78.3,39.7,77.8,40.1z M22.1,38.2l0.1-0.1  c0.5-0.5,1.3-0.6,1.8-0.1c0.5,0.5,0.6,1.3,0.1,1.8l-0.1,0.1c-0.3,0.3-0.6,0.5-1,0.5c-0.3,0-0.6-0.1-0.8-0.3  C21.8,39.6,21.7,38.7,22.1,38.2z M71.5,33.8c0.5-0.6,1.3-0.6,1.8-0.2l0.1,0.1c0.6,0.5,0.6,1.3,0.2,1.8c-0.3,0.3-0.6,0.5-1,0.5  c-0.3,0-0.6-0.1-0.8-0.3l-0.1-0.1C71.1,35.2,71,34.4,71.5,33.8z M28.6,33.8c0.5,0.6,0.4,1.4-0.2,1.8l-0.1,0.1  c-0.2,0.2-0.5,0.3-0.8,0.3c-0.4,0-0.7-0.2-1-0.5c-0.5-0.6-0.4-1.4,0.2-1.8l0.1-0.1C27.3,33.1,28.1,33.2,28.6,33.8z M68.3,30.1  c0.6,0.4,0.8,1.2,0.5,1.8c-0.2,0.4-0.7,0.6-1.1,0.6c-0.2,0-0.4-0.1-0.7-0.2l-0.2-0.1c-0.6-0.4-0.8-1.2-0.5-1.8  c0.4-0.6,1.2-0.8,1.8-0.5L68.3,30.1z M33.8,30.5c0.4,0.6,0.1,1.4-0.5,1.8l-0.2,0.1c-0.2,0.1-0.4,0.2-0.7,0.2c-0.5,0-0.9-0.2-1.1-0.7  c-0.4-0.6-0.1-1.4,0.5-1.8L32,30C32.6,29.6,33.4,29.8,33.8,30.5z M43.3,11.3c-0.4-1.2-0.4-2.4-0.2-3.5c0.3-1.3,1-2.3,1.8-3.1  c0.5-0.5,1.1-1,1.7-1.4c0.5-0.3,1-0.6,1.6-0.8l0,0c0.5-0.2,0.9-0.3,1.5-0.3c1.6-0.1,2.8,0.3,3.7,0.8c1.3,0.7,1.8,1.7,1.8,1.7  s3.3,0.2,1.8,7.1c0.4,0.2,0.8,0.8,0.2,2.6c-0.6,2.2-1.2,2.3-1.5,2.1c-0.4,2.4-1.7,5.5-5.9,5.6c-4.2-0.3-5.5-3.5-5.9-5.9  c-0.3,0-0.8-0.5-1.3-2.2C42,11.6,42.7,11.2,43.3,11.3z M50,34.7H35.9c0.1-5.9-0.2-9,3.7-10.4C43,23,45,21.6,45,21.6l2.7,8.4l0.4,1.1  l1.2-3.4c-2.7-3.8,0.2-4,0.7-4v0c0,0,0,0,0,0c0,0,0,0,0,0c0,0,0,0,0,0c0,0,0,0,0,0v0c0.5,0,3.5,0.2,0.7,4l1.2,3.4l0.4-1.1l2.7-8.4  c0,0,2.1,1.4,5.5,2.7c3.8,1.4,3.6,4.5,3.7,10.4H50L50,34.7z M92.4,69.2c0.4,0.2,0.8,0.8,0.2,2.6c-0.6,2.2-1.2,2.3-1.5,2.1  c-0.4,2.4-1.7,5.5-5.9,5.6c-4.2-0.3-5.5-3.5-5.9-5.9c-0.3,0-0.8-0.5-1.3-2.2c-0.7-2.3,0-2.7,0.6-2.6c-0.4-1.2-0.4-2.4-0.2-3.5  c0.3-1.3,1-2.3,1.8-3.1c0.5-0.5,1.1-1,1.7-1.4c0.5-0.3,1-0.6,1.6-0.8l0,0c0.5-0.2,0.9-0.3,1.5-0.3c1.6-0.1,2.8,0.3,3.7,0.8  c1.3,0.7,1.8,1.7,1.8,1.7S93.9,62.3,92.4,69.2z M99.6,92.2H85.4h0H71.3c0.1-5.9-0.2-9,3.7-10.4c3.5-1.3,5.5-2.7,5.5-2.7l2.7,8.4  l0.4,1.1l1.2-3.4c-2.7-3.8,0.2-4,0.7-4v0c0,0,0,0,0,0c0,0,0,0,0,0s0,0,0,0c0,0,0,0,0,0v0c0.5,0,3.5,0.2,0.7,4l1.2,3.4l0.4-1.1  l2.7-8.4c0,0,2.1,1.4,5.5,2.7C99.8,83.2,99.5,86.4,99.6,92.2z M7.9,68.8c-0.4-1.2-0.4-2.4-0.2-3.5c0.3-1.3,1-2.3,1.8-3.1  c0.5-0.5,1.1-1,1.7-1.4c0.5-0.3,1-0.6,1.6-0.8l0,0c0.5-0.2,0.9-0.3,1.5-0.3c1.6-0.1,2.8,0.3,3.7,0.8c1.3,0.7,1.8,1.7,1.8,1.7  s3.3,0.2,1.8,7.1c0.4,0.2,0.8,0.8,0.2,2.6c-0.6,2.2-1.2,2.3-1.5,2.1c-0.4,2.4-1.7,5.5-5.9,5.6c-4.2-0.3-5.5-3.5-5.9-5.9  c-0.3,0-0.8-0.5-1.3-2.2C6.6,69,7.3,68.7,7.9,68.8z M28.7,92.2H14.6h0H0.4c0.1-5.9-0.2-9,3.7-10.4c3.5-1.3,5.5-2.7,5.5-2.7l2.7,8.4  l0.4,1.1l1.2-3.4c-2.7-3.8,0.2-4,0.7-4v0c0,0,0,0,0,0c0,0,0,0,0,0c0,0,0,0,0,0c0,0,0,0,0,0v0c0.5,0,3.5,0.2,0.7,4l1.2,3.4l0.4-1.1  l2.7-8.4c0,0,2.1,1.4,5.5,2.7C28.9,83.2,28.7,86.4,28.7,92.2z"></path></svg>