<svg xmlns:dc="http://purl.org/dc/elements/1.1/" xmlns:cc="http://creativecommons.org/ns#" xmlns:rdf="http://www.w3.org/1999/02/22-rdf-syntax-ns#" xmlns:svg="http://www.w3.org/2000/svg" xmlns="http://www.w3.org/2000/svg" version="1.1" viewBox="0 0 100.00001 100" xml:space="preserve" x="0px" y="0px"><path d="M 30.21875,5 C 26.42021,5 23.25,8.0435902 23.25,11.84375 l 0,76.3125 C 23.25,91.95425 26.42021,95 30.21875,95 l 39.71875,0 c 3.79926,0 6.8125,-3.04575 6.8125,-6.84375 l 0,-76.3125 C 76.75,8.0437702 73.73676,5 69.9375,5 L 30.21875,5 z M 44.1875,8.53125 c 0.09105,-0.018773 0.184185,0 0.28125,0 l 11.34375,0 c 0.74232,0.03744 1.34375,0.6560101 1.34375,1.40625 0,0.75474 -0.62789,1.36863 -1.34375,1.40625 l -11.28125,0 c -0.89604,0 -1.4375,-0.62991 -1.4375,-1.40625 0,-0.6797699 0.456436,-1.2748359 1.09375,-1.40625 z m -18.0625,6.3125 47.9375,0 0,66.1875 -47.9375,0 0,-66.1875 z m 23.09375,4.75 c -3.8513,0.273214 -7.312125,2.614676 -7.78125,7.65625 -0.24534,1.58184 -0.0625,3.34375 -0.0625,3.34375 -0.38304,0.04662 -1.55019,0.60527 -1.59375,2.28125 -0.0378,2.02086 0.504169,4.364749 3.21875,5.65625 0.79362,1.4139 2.08254,3.0236 1.875,5.5625 -0.32004,3.92436 -6.66646,3.45311 -9.25,4.90625 -2.6775,1.50606 -4.27859,4.852229 -4.90625,7.96875 -0.61182,3.14622 3.2255,4.11124 6.875,4.5625 3.64806,0.45054 8.18795,0.53125 12.40625,0.53125 4.2183,0 8.758189,-0.08071 12.40625,-0.53125 3.6495,-0.45126 7.48682,-1.41628 6.875,-4.5625 C 68.65359,53.852229 67.0525,50.50606 64.375,49 c -2.58354,-1.45314 -8.92996,-0.98189 -9.25,-4.90625 -0.20754,-2.5389 1.08138,-4.1486 1.875,-5.5625 2.71458,-1.291501 3.25655,-3.63539 3.21875,-5.65625 -0.04356,-1.67598 -1.21071,-2.23463 -1.59375,-2.28125 0,0 0.18284,-1.76191 -0.0625,-3.34375 C 58.0621,21.872321 54.1481,19.59375 50,19.59375 c -0.259256,0 -0.524497,-0.01821 -0.78125,0 z M 35.875,66.21875 c -0.79776,0 -1.4375,0.630051 -1.4375,1.40625 0,0.776199 0.63974,1.40625 1.4375,1.40625 l 28.25,0 c 0.79776,0 1.4375,-0.630051 1.4375,-1.40625 0,-0.776199 -0.63974,-1.40625 -1.4375,-1.40625 l -28.25,0 z M 31.4375,73.1875 C 30.63974,73.1875 30,73.817551 30,74.59375 30,75.369949 30.63974,76 31.4375,76 l 37.125,0 C 69.36026,76 70,75.369949 70,74.59375 70,73.817551 69.36026,73.1875 68.5625,73.1875 l -37.125,0 z m 18.65625,10.59375 c 2.33388,0 4.21875,1.88667 4.21875,4.21875 0,2.33118 -1.88487,4.25 -4.21875,4.25 -2.33244,0 -4.21875,-1.91882 -4.21875,-4.25 0,-2.33208 1.88631,-4.21875 4.21875,-4.21875 z" transform="translate(0,-5e-6)" style="" fill="#009FE3" fill-opacity="1" stroke="none"></path></svg>