<svg xmlns:dc="http://purl.org/dc/elements/1.1/" xmlns:cc="http://creativecommons.org/ns#" xmlns:rdf="http://www.w3.org/1999/02/22-rdf-syntax-ns#" xmlns:svg="http://www.w3.org/2000/svg" xmlns="http://www.w3.org/2000/svg" version="1.1" viewBox="0 0 100.00001 100" xml:space="preserve" x="0px" y="0px"><path d="m 29.1875,22.8125 c -1.746054,-0.02631 -3.603708,0.300938 -5.75,1.03125 C 16.006804,26.382306 9.7051038,34.278074 6.34375,45.3125 2.1468413,59.089587 8.1428122,73.234926 19.6875,76.78125 c 0.905716,0.280646 2.246649,0.394135 3.65625,0.375 8.164199,-0.146701 11.582918,-5.02626 11.5,-9.625 -0.08929,-5.006949 -2.241446,-6.45389 -4.53125,-8.125 4.031075,-4.133127 3.259729,-9.11363 1.84375,-13.71875 0,0 8.520345,-2.434005 9.0625,-10.6875 C 41.614204,28.940634 37.883055,25.213797 34.375,23.90625 32.573135,23.23653 30.933554,22.838811 29.1875,22.8125 z m 41.625,0 c -1.746852,0.02631 -3.385636,0.42403 -5.1875,1.09375 -3.508054,1.307547 -7.239203,5.034384 -6.84375,11.09375 0.542154,8.253495 9.0625,10.6875 9.0625,10.6875 -1.415978,4.60512 -2.187324,9.585623 1.84375,13.71875 -2.289805,1.67111 -4.44196,3.118051 -4.53125,8.125 -0.08292,4.59874 3.367051,9.478299 11.53125,9.625 1.403221,0.01914 2.719285,-0.09435 3.625,-0.375 C 91.857188,73.234926 97.853159,59.089587 93.65625,45.3125 90.294896,34.278074 83.999575,26.382306 76.5625,23.84375 74.419397,23.113438 72.559352,22.786189 70.8125,22.8125 z M 43.15625,45.84375 c -1.03966,0.261511 -2.09236,0.495509 -3.09375,0.71875 -1.766783,0.389075 -3.362743,0.695125 -4.59375,0.9375 0.363561,1.505274 0.53827,3.093572 0.5,4.65625 l 0.03125,0 c 1.301168,-0.26151 3.052701,-0.578392 5.09375,-1.03125 1.033282,-0.235996 2.134443,-0.519742 3.21875,-0.78125 0.01913,0 0.01211,0.0064 0.03125,0 L 44.375,50.3125 c 0.01276,-0.01276 0.02488,-0.04337 0.03125,-0.0625 0.01276,-0.02551 0.03125,-0.06187 0.03125,-0.09375 L 43.375,46 c -0.0064,-0.01913 -0.0185,-0.04336 -0.03125,-0.0625 -0.0064,-0.0064 0.01275,-0.02488 0,-0.03125 -0.0064,-0.01276 -0.02488,0.0064 -0.03125,0 C 43.29974,45.89985 43.28763,45.88138 43.28125,45.875 43.26849,45.8686 43.26913,45.85013 43.25,45.84375 l -0.03125,0 -0.03125,0 -0.03125,0 z m 13.59375,0 c -0.01914,0.0064 -0.01212,0.02485 -0.03125,0.03125 -0.0064,0.0064 -0.02485,0.02485 -0.03125,0.03125 -0.01275,0.0064 -0.02485,-0.01276 -0.03125,0 -0.01275,0.0064 0.0064,0.02485 0,0.03125 C 56.6435,45.95664 56.6314,45.98087 56.625,46 l -1.0625,4.15625 c 0,0.03188 0.01849,0.06824 0.03125,0.09375 0.0064,0.01913 0.02485,0.04974 0.03125,0.0625 0.0064,0.0064 0.02485,0.01849 0.03125,0.03125 0.01914,0.0064 0.01212,0 0.03125,0 1.084308,0.261508 2.185468,0.545254 3.21875,0.78125 2.04105,0.452858 3.792582,0.76974 5.09375,1.03125 l 0.03125,0 c -0.03189,-1.562678 0.142814,-3.150976 0.5,-4.65625 -1.23101,-0.242375 -2.826966,-0.548425 -4.59375,-0.9375 -1.00139,-0.223241 -2.05409,-0.457239 -3.09375,-0.71875 l -0.03125,0 -0.03125,0 -0.03125,0 z m -20.8125,7.0625 c -0.10843,1.575436 -0.468679,3.121007 -1.09375,4.5625 0.625071,0.114808 1.186181,0.295252 1.5625,0.53125 0.548531,0.344426 0.827785,0.614059 1,1.46875 0.484748,2.347208 0.723847,6.95364 0.78125,10.8125 0.05103,3.157249 0.02551,5.401048 0,6.28125 l 0,0.03125 c 0.0064,0.01914 0.0185,0.04974 0.03125,0.0625 0.01913,0.02551 0.03699,0.04975 0.0625,0.0625 l 0.03125,0 0.03125,0 0.03125,0 4.3125,0 0.03125,0 c 0.05103,-0.01276 0.09949,-0.01785 0.125,-0.0625 0.01276,-0.01914 0.03125,-0.03699 0.03125,-0.0625 0.0064,-0.0064 0.0064,-0.02488 0,-0.03125 0.02551,-0.982257 0.05103,-3.19288 0,-6.34375 C 42.8176,66.251459 42.619334,61.638114 41.96875,58.5 41.554162,56.484461 40.316493,54.899337 38.875,54 37.924636,53.413198 36.906999,53.103978 35.9375,52.90625 z m 28.125,0 C 63.093001,53.103978 62.075364,53.413198 61.125,54 c -1.441492,0.899337 -2.679161,2.484461 -3.09375,4.5 -0.650584,3.138114 -0.84247,7.751459 -0.90625,11.71875 -0.05103,3.15087 -0.02551,5.361493 0,6.34375 l 0,0.03125 c 0,0.02551 0.02485,0.04336 0.03125,0.0625 0.02551,0.04465 0.08035,0.04974 0.125,0.0625 l 0.03125,0 4.3125,0 0.03125,0 0.03125,0 0.03125,0 c 0.02551,-0.01275 0.04974,-0.03699 0.0625,-0.0625 0.01275,-0.01276 0.02485,-0.04336 0.03125,-0.0625 l 0,-0.03125 c -0.02551,-0.880202 -0.05103,-3.124001 0,-6.28125 0.06378,-3.85886 0.296501,-8.465292 0.78125,-10.8125 0.178592,-0.854691 0.451468,-1.124324 1,-1.46875 0.382698,-0.235998 0.937428,-0.416442 1.5625,-0.53125 -0.625072,-1.441493 -0.978942,-2.987064 -1.09375,-4.5625 z" transform="translate(0,-5e-6)" style="" fill="#009FE3" fill-opacity="1" fill-rule="nonzero" stroke="none"></path></svg>