<?xml version="1.0" encoding="utf-8"?>
<!-- Generator: Adobe Illustrator 19.0.1, SVG Export Plug-In . SVG Version: 6.00 Build 0)  -->
<svg version="1.1" id="Layer_1" xmlns="http://www.w3.org/2000/svg" xmlns:xlink="http://www.w3.org/1999/xlink" x="0px" y="0px"
	 viewBox="0 0 595.3 841.9" style="enable-background:new 0 0 595.3 841.9;" xml:space="preserve">
<style type="text/css">
	.st0{fill:#83CDDB;}
	.st1{fill:#878787;}
	.st2{fill:#36A9E1;}
	.st3{fill:#009FE3;}
</style>
<g>
	<g>
		<path class="st0" d="M112,540.7c-3.2,1.3-7.3,2.6-12.4,3.8c-5.1,1.2-10.1,1.8-15,1.8c-11.4,0-20.4-3.3-27.2-9.8
			c-6.7-6.6-10.1-15.9-10.1-27.9c0-11.3,3.4-20.4,10.1-27.2c6.8-6.8,16-10.2,27.7-10.2c6.1,0,11,0.6,14.8,1.7
			c3.8,1.1,7.7,2.7,11.7,4.7v16.9h-1.7c-0.9-0.7-2.1-1.6-3.8-2.9c-1.6-1.2-3.2-2.3-4.8-3.2c-1.8-1-3.9-1.9-6.3-2.7
			c-2.4-0.7-4.9-1.1-7.6-1.1c-3.1,0-5.9,0.5-8.5,1.5c-2.6,1-4.8,2.5-6.8,4.5c-1.9,1.9-3.4,4.4-4.5,7.4c-1.1,3-1.7,6.4-1.7,10.4
			c0,8.4,2.1,14.7,6.4,18.7c4.2,4,10,6,17.4,6c0.6,0,1.4,0,2.3,0c0.9,0,1.6-0.1,2.3-0.1v-14.2h-14v-13.6H112V540.7z"/>
		<path class="st0" d="M174.6,517.6c0,9-2.5,16-7.4,21.2c-4.9,5.2-11.8,7.7-20.8,7.7c-8.9,0-15.8-2.6-20.8-7.7
			c-4.9-5.2-7.4-12.2-7.4-21.2c0-9.1,2.5-16.2,7.4-21.3c4.9-5.1,11.9-7.7,20.8-7.7c8.9,0,15.9,2.6,20.8,7.7
			C172.2,501.5,174.6,508.6,174.6,517.6z M157.2,517.7c0-3.2-0.3-5.9-0.8-8.1c-0.5-2.2-1.3-3.9-2.2-5.2c-1-1.4-2.1-2.3-3.4-2.8
			c-1.3-0.5-2.7-0.8-4.3-0.8c-1.5,0-2.9,0.2-4.1,0.7c-1.2,0.5-2.4,1.4-3.4,2.7c-1,1.3-1.7,3-2.3,5.2c-0.6,2.2-0.9,5-0.9,8.3
			s0.3,6,0.8,8.1c0.6,2.1,1.3,3.7,2.1,4.9c0.9,1.3,2,2.2,3.4,2.8c1.4,0.6,2.9,0.9,4.5,0.9c1.4,0,2.7-0.3,4.2-0.9
			c1.4-0.6,2.5-1.5,3.4-2.6c1-1.4,1.8-3.1,2.3-5C156.9,523.9,157.2,521.2,157.2,517.7z"/>
		<path class="st1" d="M230.5,486.3h-30.4V500h27.9v13.8h-27.9v31.1h-18.1v-72.3h48.4V486.3z"/>
		<path class="st1" d="M288.8,517.6c0,9-2.5,16-7.4,21.2c-4.9,5.2-11.8,7.7-20.8,7.7c-8.9,0-15.8-2.6-20.8-7.7
			c-4.9-5.2-7.4-12.2-7.4-21.2c0-9.1,2.5-16.2,7.4-21.3c4.9-5.1,11.9-7.7,20.8-7.7c8.9,0,15.9,2.6,20.8,7.7
			C286.4,501.5,288.8,508.6,288.8,517.6z M271.4,517.7c0-3.2-0.3-5.9-0.8-8.1c-0.5-2.2-1.3-3.9-2.2-5.2c-1-1.4-2.1-2.3-3.4-2.8
			c-1.3-0.5-2.7-0.8-4.3-0.8c-1.5,0-2.9,0.2-4.1,0.7c-1.2,0.5-2.4,1.4-3.4,2.7c-1,1.3-1.7,3-2.3,5.2c-0.6,2.2-0.9,5-0.9,8.3
			s0.3,6,0.8,8.1c0.6,2.1,1.3,3.7,2.1,4.9c0.9,1.3,2,2.2,3.4,2.8c1.4,0.6,2.9,0.9,4.5,0.9c1.4,0,2.7-0.3,4.2-0.9
			c1.4-0.6,2.5-1.5,3.4-2.6c1-1.4,1.8-3.1,2.3-5C271.1,523.9,271.4,521.2,271.4,517.7z"/>
		<path class="st1" d="M332,506.4h-1.4c-0.6-0.2-1.6-0.4-2.8-0.5c-1.2-0.1-2.6-0.2-4.1-0.2c-1.8,0-3.6,0.3-5.6,0.8
			c-2,0.5-3.9,1.1-5.7,1.8v36.5h-17v-54.5h17v7.8c0.8-0.7,1.9-1.6,3.2-2.7c1.4-1.1,2.6-2,3.8-2.6c1.2-0.7,2.7-1.4,4.3-1.9
			c1.6-0.5,3.2-0.8,4.6-0.8c0.6,0,1.2,0,1.8,0c0.7,0,1.3,0.1,1.8,0.1V506.4z"/>
		<path class="st0" d="M368.1,546.3c-10.8,0-19.5-3.3-25.8-9.8c-6.4-6.6-9.6-15.8-9.6-27.7c0-11.5,3.2-20.6,9.6-27.4
			c6.4-6.8,15-10.2,25.9-10.2c2.9,0,5.5,0.2,7.8,0.5c2.3,0.3,4.5,0.8,6.6,1.4c1.7,0.5,3.4,1.1,5.4,2c1.9,0.8,3.5,1.6,4.7,2.2v17.2
			h-1.8c-0.9-0.8-2-1.7-3.3-2.8c-1.3-1.1-2.8-2.1-4.5-3.2c-1.7-1-3.5-1.9-5.6-2.6c-2-0.7-4.1-1.1-6.3-1.1c-2.6,0-5,0.4-7.2,1.2
			c-2.2,0.8-4.3,2.3-6.2,4.3c-1.8,1.8-3.3,4.3-4.4,7.5c-1.1,3.1-1.7,6.8-1.7,11.1c0,4.5,0.6,8.3,1.8,11.3c1.2,3.1,2.8,5.5,4.7,7.4
			c1.9,1.8,4,3.1,6.3,3.9c2.3,0.8,4.6,1.2,6.9,1.2c2.4,0,4.7-0.4,6.8-1.2c2.2-0.8,4-1.7,5.5-2.6c1.6-1,3-2,4.3-3.1
			c1.2-1,2.3-2,3.2-2.8h1.7v17c-1.3,0.6-2.9,1.3-4.6,2.1c-1.7,0.8-3.5,1.5-5.4,2c-2.3,0.7-4.4,1.2-6.4,1.5
			C374.3,546.1,371.6,546.3,368.1,546.3z"/>
		<path class="st0" d="M430,539.1c-1.2,1-2.2,1.8-3.1,2.6c-0.9,0.8-2.2,1.6-3.7,2.3c-1.5,0.7-3,1.3-4.4,1.7c-1.4,0.4-3.5,0.6-6,0.6
			c-4.8,0-8.8-1.6-12-4.9c-3.2-3.2-4.8-7.3-4.8-12.2c0-4,0.8-7.3,2.4-9.8c1.6-2.5,3.9-4.5,7-5.9c3.1-1.5,6.7-2.5,11-3.1
			c4.3-0.6,8.9-1,13.8-1.4v-0.3c0-3-1.1-5.1-3.3-6.2c-2.2-1.1-5.5-1.7-10-1.7c-2,0-4.4,0.4-7,1.1c-2.7,0.7-5.3,1.7-7.9,2.8h-1.5
			v-13.2c1.7-0.5,4.4-1.1,8.2-1.7c3.8-0.7,7.5-1,11.4-1c9.4,0,16.2,1.6,20.5,4.7c4.3,3.1,6.4,7.9,6.4,14.3v37.1H430V539.1z
			 M430,530.6v-11.4c-2.9,0.3-5.2,0.5-7,0.8c-1.8,0.2-3.5,0.6-5.2,1.2c-1.5,0.5-2.6,1.3-3.5,2.4c-0.8,1.1-1.2,2.5-1.2,4.2
			c0,2.6,0.7,4.3,2.1,5.3c1.4,1,3.4,1.4,6.1,1.4c1.5,0,3-0.3,4.6-1C427.3,532.8,428.7,531.9,430,530.6z"/>
		<path class="st0" d="M493.6,506.4h-1.4c-0.6-0.2-1.6-0.4-2.8-0.5c-1.2-0.1-2.6-0.2-4.1-0.2c-1.8,0-3.6,0.3-5.6,0.8
			c-2,0.5-3.9,1.1-5.7,1.8v36.5h-17v-54.5h17v7.8c0.8-0.7,1.9-1.6,3.2-2.7c1.4-1.1,2.6-2,3.8-2.6c1.2-0.7,2.7-1.4,4.3-1.9
			c1.6-0.5,3.2-0.8,4.6-0.8c0.6,0,1.2,0,1.8,0c0.7,0,1.3,0.1,1.8,0.1V506.4z"/>
		<path class="st0" d="M525.5,546.3c-10.3,0-18.2-2.5-23.7-7.4c-5.5-4.9-8.2-11.9-8.2-21c0-8.9,2.6-16,7.7-21.3
			c5.1-5.3,12.3-8,21.5-8c8.3,0,14.6,2.3,18.8,6.8c4.2,4.5,6.3,10.9,6.3,19.3v6.1h-37.2c0.2,2.5,0.7,4.6,1.6,6.3
			c0.9,1.7,2.1,3.1,3.6,4.1c1.5,1,3.2,1.7,5.1,2.2c1.9,0.4,4.1,0.7,6.4,0.7c2,0,3.9-0.2,5.8-0.7c1.9-0.4,3.7-1,5.2-1.7
			c1.4-0.6,2.7-1.3,3.9-2c1.2-0.7,2.1-1.3,2.9-1.9h1.8v14c-1.4,0.6-2.7,1.1-3.8,1.5c-1.1,0.5-2.7,0.9-4.7,1.4
			c-1.8,0.5-3.7,0.9-5.7,1.1C530.7,546.2,528.3,546.3,525.5,546.3z M531.1,510.6c-0.1-3.6-0.9-6.3-2.5-8.2c-1.6-1.9-4-2.8-7.2-2.8
			c-3.3,0-5.9,1-7.7,3c-1.9,2-2.9,4.7-3.1,8.1H531.1z"/>
	</g>
	<g>
		<g>
			<g>
				<g>
					<path class="st2" d="M76.2,599.6h-4.8V582H55v17.5h-4.8v-35.8H55v14h16.5v-14h4.8V599.6z"/>
				</g>
			</g>
			<g>
				<g>
					<path class="st2" d="M94.8,600.2c-4.3,0-7.6-1.2-10-3.6c-2.4-2.4-3.6-5.8-3.6-10.3c0-4.4,1.1-7.9,3.4-10.4
						c2.3-2.6,5.3-3.9,9-3.9c1.7,0,3.1,0.2,4.4,0.7c1.3,0.5,2.4,1.2,3.4,2.3c1,1,1.7,2.3,2.2,3.8c0.5,1.5,0.8,3.3,0.8,5.4v2.5H85.9
						c0,3.1,0.8,5.5,2.4,7.2s3.7,2.5,6.5,2.5c1,0,2-0.1,2.9-0.3s1.8-0.5,2.6-0.9c0.8-0.4,1.5-0.7,2.1-1.1c0.6-0.3,1-0.7,1.4-1h0.3
						v4.9c-0.5,0.2-1.2,0.5-2,0.8c-0.8,0.3-1.5,0.6-2.1,0.7c-0.9,0.2-1.7,0.4-2.4,0.6C96.8,600.1,95.9,600.2,94.8,600.2z
						 M100.1,583.1c0-1.2-0.2-2.3-0.4-3.1c-0.3-0.9-0.6-1.6-1.1-2.2c-0.5-0.7-1.2-1.2-2-1.5c-0.8-0.4-1.8-0.5-3.1-0.5
						c-1.2,0-2.2,0.2-3.1,0.5c-0.8,0.4-1.6,0.9-2.3,1.6c-0.7,0.7-1.2,1.5-1.5,2.3c-0.4,0.9-0.6,1.9-0.7,3H100.1z"/>
				</g>
			</g>
			<g>
				<g>
					<path class="st2" d="M124.1,596.7c-0.4,0.3-0.9,0.7-1.5,1.1s-1.2,0.9-1.8,1.2c-0.8,0.4-1.6,0.7-2.3,1c-0.7,0.2-1.8,0.3-3.1,0.3
						c-1.1,0-2.2-0.2-3.2-0.6s-1.9-1-2.6-1.8c-0.7-0.7-1.3-1.7-1.7-2.7c-0.4-1.1-0.6-2.2-0.6-3.4c0-1.9,0.4-3.4,1.2-4.7
						c0.8-1.3,2-2.3,3.7-3.1c1.5-0.7,3.3-1.2,5.3-1.4c2.1-0.3,4.3-0.5,6.6-0.6V581c0-1.1-0.2-1.9-0.5-2.6c-0.3-0.6-0.8-1.1-1.3-1.5
						c-0.6-0.4-1.3-0.6-2.1-0.7c-0.8-0.1-1.7-0.2-2.6-0.2c-1,0-2.3,0.2-3.7,0.5c-1.4,0.3-2.8,0.8-4.2,1.4h-0.3v-4.6
						c0.8-0.2,2-0.5,3.6-0.8c1.6-0.3,3.1-0.4,4.6-0.4c1.8,0,3.4,0.1,4.7,0.4c1.3,0.3,2.4,0.8,3.4,1.6c1,0.7,1.7,1.7,2.2,2.9
						c0.5,1.2,0.7,2.6,0.7,4.3v18.4h-4.5V596.7z M124.1,593v-7.5c-1.1,0.1-2.4,0.2-4.1,0.4c-1.6,0.2-3,0.4-4,0.7
						c-1.2,0.4-2.2,0.9-3,1.7c-0.8,0.8-1.2,1.8-1.2,3.2c0,1.5,0.4,2.7,1.3,3.5c0.9,0.8,2.1,1.2,3.8,1.2c1.4,0,2.7-0.3,3.9-0.9
						C122,594.6,123.1,593.8,124.1,593z"/>
				</g>
			</g>
			<g>
				<g>
					<path class="st2" d="M139.5,599.6H135v-37.4h4.5V599.6z"/>
				</g>
			</g>
			<g>
				<g>
					<path class="st2" d="M154.4,600.1c-2.5,0-4.4-0.7-5.8-2.1s-2.1-3.6-2.1-6.6v-14.9h-3.1v-3.8h3.1V565h4.5v7.7h8.3v3.8h-8.3v12.8
						c0,1.4,0,2.4,0.1,3.2s0.2,1.4,0.6,2.1c0.3,0.6,0.7,1,1.3,1.3c0.6,0.3,1.4,0.4,2.5,0.4c0.7,0,1.4-0.1,2.1-0.3
						c0.7-0.2,1.2-0.4,1.5-0.5h0.3v4.1c-0.9,0.2-1.7,0.4-2.6,0.6C155.9,600,155.1,600.1,154.4,600.1z"/>
				</g>
			</g>
			<g>
				<g>
					<path class="st2" d="M183.8,599.6h-4.5v-15.3c0-1.2-0.1-2.4-0.2-3.4s-0.4-1.9-0.7-2.6c-0.4-0.7-0.9-1.2-1.5-1.5
						c-0.7-0.3-1.6-0.5-2.7-0.5c-1.1,0-2.3,0.3-3.5,0.9c-1.2,0.6-2.4,1.4-3.5,2.3v20.1h-4.5v-37.4h4.5v13.5c1.3-1.2,2.7-2.1,4-2.8
						c1.3-0.6,2.7-1,4.2-1c2.6,0,4.7,0.9,6.2,2.6c1.5,1.7,2.2,4.3,2.2,7.6V599.6z"/>
				</g>
			</g>
			<g>
				<g>
					<path class="st2" d="M230.2,588.6c0,1.8-0.3,3.4-1,4.7c-0.7,1.4-1.6,2.5-2.7,3.4c-1.3,1.1-2.8,1.8-4.3,2.3
						c-1.5,0.4-3.5,0.7-6,0.7h-10.3v-35.8h9.5c2.5,0,4.5,0.1,5.7,0.3c1.3,0.2,2.5,0.6,3.7,1.2c1.3,0.7,2.2,1.6,2.8,2.7
						s0.9,2.4,0.9,3.9c0,1.7-0.4,3.2-1.3,4.5c-0.9,1.3-2.1,2.4-3.7,3.1v0.2c2.1,0.6,3.8,1.6,5,3.2
						C229.6,584.4,230.2,586.3,230.2,588.6z M223.6,572.5c0-0.9-0.1-1.6-0.4-2.3c-0.3-0.6-0.8-1.1-1.4-1.5c-0.8-0.4-1.6-0.7-2.6-0.8
						s-2.3-0.1-3.9-0.1h-4.6v10.5h5.4c1.5,0,2.6-0.1,3.3-0.2c0.7-0.2,1.4-0.5,2.2-0.9c0.7-0.5,1.2-1.1,1.5-1.8
						C223.4,574.5,223.6,573.6,223.6,572.5z M225.3,588.8c0-1.3-0.2-2.5-0.6-3.3c-0.4-0.9-1.2-1.6-2.3-2.2c-0.8-0.4-1.6-0.7-2.5-0.8
						c-0.9-0.1-2.1-0.2-3.8-0.2h-5.4v13.2h3.9c2.1,0,3.7-0.1,4.9-0.3c1.2-0.2,2.3-0.6,3.2-1.2c0.9-0.6,1.6-1.3,2-2.1
						C225.1,591.1,225.3,590,225.3,588.8z"/>
				</g>
			</g>
			<g>
				<g>
					<path class="st2" d="M246.5,600.2c-4.3,0-7.6-1.2-10-3.6c-2.4-2.4-3.6-5.8-3.6-10.3c0-4.4,1.1-7.9,3.4-10.4
						c2.3-2.6,5.3-3.9,9-3.9c1.7,0,3.1,0.2,4.4,0.7c1.3,0.5,2.4,1.2,3.4,2.3c1,1,1.7,2.3,2.2,3.8c0.5,1.5,0.8,3.3,0.8,5.4v2.5h-18.6
						c0,3.1,0.8,5.5,2.4,7.2s3.7,2.5,6.5,2.5c1,0,2-0.1,2.9-0.3s1.8-0.5,2.6-0.9c0.8-0.4,1.5-0.7,2.1-1.1c0.6-0.3,1-0.7,1.4-1h0.3
						v4.9c-0.5,0.2-1.2,0.5-2,0.8c-0.8,0.3-1.5,0.6-2.1,0.7c-0.9,0.2-1.7,0.4-2.4,0.6C248.5,600.1,247.6,600.2,246.5,600.2z
						 M251.8,583.1c0-1.2-0.2-2.3-0.4-3.1c-0.3-0.9-0.6-1.6-1.1-2.2c-0.5-0.7-1.2-1.2-2-1.5c-0.8-0.4-1.8-0.5-3.1-0.5
						c-1.2,0-2.2,0.2-3.1,0.5c-0.8,0.4-1.6,0.9-2.3,1.6c-0.7,0.7-1.2,1.5-1.5,2.3c-0.4,0.9-0.6,1.9-0.7,3H251.8z"/>
				</g>
			</g>
			<g>
				<g>
					<path class="st2" d="M281.9,572.7l-14.5,36.8h-4.8l4.8-11.2l-9.8-25.6h4.9l7.3,19.9l7.3-19.9H281.9z"/>
				</g>
			</g>
			<g>
				<g>
					<path class="st2" d="M307,586.1c0,4.5-1.1,8-3.3,10.5c-2.2,2.5-5.1,3.7-8.7,3.7c-3.7,0-6.7-1.3-8.8-3.8
						c-2.1-2.5-3.2-6-3.2-10.4c0-4.5,1.1-8,3.3-10.5c2.2-2.5,5.1-3.7,8.7-3.7c3.6,0,6.5,1.2,8.7,3.7
						C305.9,578.2,307,581.6,307,586.1z M302.3,586.1c0-3.5-0.6-6.1-1.9-7.8c-1.3-1.7-3.1-2.5-5.4-2.5c-2.4,0-4.2,0.8-5.4,2.5
						c-1.3,1.7-1.9,4.3-1.9,7.8c0,3.4,0.6,5.9,1.9,7.7c1.3,1.7,3.1,2.6,5.4,2.6c2.3,0,4.1-0.9,5.4-2.6
						C301.7,592.1,302.3,589.6,302.3,586.1z"/>
				</g>
			</g>
			<g>
				<g>
					<path class="st2" d="M332.8,599.6h-4.5v-15.3c0-1.2-0.1-2.4-0.2-3.4s-0.4-1.9-0.7-2.6c-0.4-0.7-0.9-1.2-1.5-1.5
						c-0.7-0.3-1.6-0.5-2.7-0.5c-1.1,0-2.3,0.3-3.5,0.9c-1.2,0.6-2.4,1.4-3.5,2.3v20.1h-4.5v-26.9h4.5v3c1.3-1.2,2.7-2.1,4-2.8
						c1.3-0.6,2.7-1,4.2-1c2.6,0,4.7,0.9,6.2,2.6c1.5,1.7,2.2,4.3,2.2,7.6V599.6z"/>
				</g>
			</g>
			<g>
				<g>
					<path class="st2" d="M359.8,599.6h-4.5v-2.7c-0.7,0.6-1.3,1.1-1.8,1.5c-0.5,0.4-1.1,0.7-1.8,1.1c-0.6,0.3-1.3,0.5-2,0.7
						c-0.7,0.2-1.5,0.3-2.4,0.3c-1.5,0-2.8-0.3-4.1-0.9c-1.2-0.6-2.3-1.5-3.2-2.7c-0.9-1.2-1.6-2.6-2-4.4c-0.5-1.7-0.7-3.7-0.7-6
						c0-2.4,0.3-4.4,0.9-6.1c0.6-1.7,1.4-3.2,2.5-4.5c1-1.2,2.2-2.1,3.5-2.8s2.8-1,4.4-1c1.3,0,2.5,0.2,3.5,0.4c1,0.3,2,0.8,3.1,1.4
						v-11.6h4.5V599.6z M355.3,593v-15.5c-1.1-0.5-2.1-0.9-3-1.1c-0.9-0.2-1.9-0.3-2.9-0.3c-2.3,0-4.1,0.9-5.5,2.6
						c-1.3,1.7-2,4.3-2,7.5c0,3.2,0.5,5.6,1.5,7.2c1,1.7,2.6,2.5,4.9,2.5c1.2,0,2.4-0.3,3.6-0.8C353.1,594.7,354.2,593.9,355.3,593z
						"/>
				</g>
			</g>
			<g>
				<g>
					<path class="st2" d="M406.4,588.6c0,1.8-0.3,3.4-1,4.7c-0.7,1.4-1.6,2.5-2.7,3.4c-1.3,1.1-2.8,1.8-4.3,2.3
						c-1.5,0.4-3.5,0.7-6,0.7h-10.3v-35.8h9.5c2.5,0,4.5,0.1,5.7,0.3c1.3,0.2,2.5,0.6,3.7,1.2c1.3,0.7,2.2,1.6,2.8,2.7
						c0.6,1.1,0.9,2.4,0.9,3.9c0,1.7-0.4,3.2-1.3,4.5c-0.9,1.3-2.1,2.4-3.7,3.1v0.2c2.1,0.6,3.8,1.6,5,3.2
						C405.8,584.4,406.4,586.3,406.4,588.6z M399.7,572.5c0-0.9-0.1-1.6-0.4-2.3c-0.3-0.6-0.8-1.1-1.4-1.5c-0.8-0.4-1.6-0.7-2.6-0.8
						s-2.3-0.1-3.9-0.1h-4.6v10.5h5.4c1.5,0,2.6-0.1,3.3-0.2c0.7-0.2,1.4-0.5,2.2-0.9c0.7-0.5,1.2-1.1,1.5-1.8
						C399.6,574.5,399.7,573.6,399.7,572.5z M401.4,588.8c0-1.3-0.2-2.5-0.6-3.3c-0.4-0.9-1.2-1.6-2.3-2.2c-0.8-0.4-1.6-0.7-2.5-0.8
						c-0.9-0.1-2.1-0.2-3.8-0.2h-5.4v13.2h3.9c2.1,0,3.7-0.1,4.9-0.3c1.2-0.2,2.3-0.6,3.2-1.2c0.9-0.6,1.6-1.3,2-2.1
						C401.2,591.1,401.4,590,401.4,588.8z"/>
				</g>
			</g>
			<g>
				<g>
					<path class="st2" d="M433.1,586.1c0,4.5-1.1,8-3.3,10.5c-2.2,2.5-5.1,3.7-8.7,3.7c-3.7,0-6.7-1.3-8.8-3.8
						c-2.1-2.5-3.2-6-3.2-10.4c0-4.5,1.1-8,3.3-10.5c2.2-2.5,5.1-3.7,8.7-3.7c3.6,0,6.5,1.2,8.7,3.7
						C432,578.2,433.1,581.6,433.1,586.1z M428.4,586.1c0-3.5-0.6-6.1-1.9-7.8c-1.3-1.7-3.1-2.5-5.4-2.5c-2.4,0-4.2,0.8-5.4,2.5
						c-1.3,1.7-1.9,4.3-1.9,7.8c0,3.4,0.6,5.9,1.9,7.7c1.3,1.7,3.1,2.6,5.4,2.6c2.3,0,4.1-0.9,5.4-2.6
						C427.8,592.1,428.4,589.6,428.4,586.1z"/>
				</g>
			</g>
			<g>
				<g>
					<path class="st2" d="M452,577.6h-0.2c-0.3-0.1-0.7-0.2-1.1-0.2c-0.4,0-0.8,0-1.4,0c-1.2,0-2.4,0.3-3.6,0.8
						c-1.2,0.5-2.3,1.3-3.4,2.4v19.1h-4.5v-26.9h4.5v4c1.7-1.5,3.1-2.5,4.3-3.1c1.2-0.6,2.4-0.9,3.6-0.9c0.5,0,0.8,0,1,0
						c0.2,0,0.5,0.1,0.8,0.1V577.6z"/>
				</g>
			</g>
			<g>
				<g>
					<path class="st2" d="M475.9,599.6h-4.5v-2.7c-0.7,0.6-1.3,1.1-1.8,1.5c-0.5,0.4-1.1,0.7-1.8,1.1c-0.6,0.3-1.3,0.5-2,0.7
						c-0.7,0.2-1.5,0.3-2.4,0.3c-1.5,0-2.8-0.3-4.1-0.9c-1.2-0.6-2.3-1.5-3.2-2.7c-0.9-1.2-1.6-2.6-2-4.4c-0.5-1.7-0.7-3.7-0.7-6
						c0-2.4,0.3-4.4,0.9-6.1c0.6-1.7,1.4-3.2,2.5-4.5c1-1.2,2.2-2.1,3.5-2.8s2.8-1,4.4-1c1.3,0,2.5,0.2,3.5,0.4c1,0.3,2,0.8,3.1,1.4
						v-11.6h4.5V599.6z M471.4,593v-15.5c-1.1-0.5-2.1-0.9-3-1.1c-0.9-0.2-1.9-0.3-2.9-0.3c-2.3,0-4.1,0.9-5.5,2.6
						c-1.3,1.7-2,4.3-2,7.5c0,3.2,0.5,5.6,1.5,7.2c1,1.7,2.6,2.5,4.9,2.5c1.2,0,2.4-0.3,3.6-0.8C469.2,594.7,470.3,593.9,471.4,593z
						"/>
				</g>
			</g>
			<g>
				<g>
					<path class="st2" d="M494.1,600.2c-4.3,0-7.6-1.2-10-3.6s-3.6-5.8-3.6-10.3c0-4.4,1.1-7.9,3.4-10.4c2.3-2.6,5.3-3.9,9-3.9
						c1.7,0,3.1,0.2,4.4,0.7c1.3,0.5,2.4,1.2,3.4,2.3c1,1,1.7,2.3,2.2,3.8c0.5,1.5,0.8,3.3,0.8,5.4v2.5h-18.6c0,3.1,0.8,5.5,2.4,7.2
						c1.6,1.7,3.7,2.5,6.5,2.5c1,0,2-0.1,2.9-0.3c1-0.2,1.8-0.5,2.6-0.9c0.8-0.4,1.5-0.7,2.1-1.1c0.6-0.3,1-0.7,1.4-1h0.3v4.9
						c-0.5,0.2-1.2,0.5-2,0.8c-0.8,0.3-1.5,0.6-2.1,0.7c-0.9,0.2-1.7,0.4-2.4,0.6C496.1,600.1,495.2,600.2,494.1,600.2z
						 M499.4,583.1c0-1.2-0.2-2.3-0.4-3.1c-0.3-0.9-0.6-1.6-1.1-2.2c-0.5-0.7-1.2-1.2-2-1.5c-0.8-0.4-1.8-0.5-3.1-0.5
						c-1.2,0-2.2,0.2-3.1,0.5c-0.8,0.4-1.6,0.9-2.3,1.6c-0.7,0.7-1.2,1.5-1.5,2.3c-0.4,0.9-0.6,1.9-0.7,3H499.4z"/>
				</g>
			</g>
			<g>
				<g>
					<path class="st2" d="M522.6,577.6h-0.2c-0.3-0.1-0.7-0.2-1.1-0.2c-0.4,0-0.8,0-1.4,0c-1.2,0-2.4,0.3-3.6,0.8
						c-1.2,0.5-2.3,1.3-3.4,2.4v19.1h-4.5v-26.9h4.5v4c1.7-1.5,3.1-2.5,4.3-3.1c1.2-0.6,2.4-0.9,3.6-0.9c0.5,0,0.8,0,1,0
						c0.2,0,0.5,0.1,0.8,0.1V577.6z"/>
				</g>
			</g>
			<g>
				<g>
					<path class="st2" d="M533.4,600.2c-1.8,0-3.5-0.2-5-0.7c-1.6-0.5-2.9-1-3.9-1.5v-5.1h0.2c0.4,0.3,0.8,0.6,1.4,1
						c0.5,0.4,1.2,0.8,2.1,1.2c0.8,0.4,1.6,0.7,2.5,0.9c0.9,0.3,1.9,0.4,2.9,0.4c0.7,0,1.5-0.1,2.3-0.2c0.8-0.2,1.4-0.4,1.8-0.6
						c0.6-0.4,1-0.8,1.2-1.2c0.2-0.4,0.4-1,0.4-1.9c0-1.1-0.3-1.9-0.9-2.4c-0.6-0.5-1.6-1-3.1-1.4c-0.6-0.1-1.3-0.3-2.3-0.5
						s-1.8-0.4-2.6-0.6c-2.1-0.6-3.5-1.5-4.5-2.8c-0.9-1.2-1.4-2.7-1.4-4.5c0-2.4,0.9-4.4,2.7-5.9c1.8-1.5,4.3-2.3,7.3-2.3
						c1.5,0,3,0.2,4.5,0.6s2.8,0.8,3.8,1.4v4.8h-0.2c-1.2-0.9-2.4-1.6-3.9-2.2c-1.4-0.5-2.8-0.8-4.3-0.8c-1.5,0-2.8,0.3-3.8,0.9
						c-1,0.6-1.5,1.6-1.5,2.8c0,1.1,0.3,2,0.9,2.5c0.6,0.6,1.6,1,2.9,1.4c0.7,0.2,1.4,0.4,2.3,0.5c0.8,0.2,1.7,0.4,2.6,0.6
						c2,0.5,3.5,1.3,4.5,2.5c1,1.2,1.5,2.7,1.5,4.7c0,1.2-0.2,2.3-0.7,3.3c-0.5,1-1.1,1.9-2,2.7c-1,0.8-2,1.4-3.3,1.8
						S535.2,600.2,533.4,600.2z"/>
				</g>
			</g>
		</g>
	</g>
	<path class="st3" d="M312.7,337.2c0,0,30.6-20.8,53.6-52.5c0,0,8.1-10.7,12.6,0.6c0,0,18,49.9-53.6,86.1c0,0-33.1,17.9-74.2,15.9
		c0,0,8.5-24.1,41.9-38.1L312.7,337.2z"/>
	<path class="st0" d="M208.6,379c0,0,61.9-3.4,48-26.1c0,0-47.4-61.2-53-87c-5.6-25.8,2.8-35.6,10.1-33.1l74.6,67.1
		c0,0,38.4,30,25.3,59.2c0,0-10.4,34.8-74.4,27.5C239.2,386.6,197.1,383.2,208.6,379z"/>
	<g>
		<g>
			<path class="st0" d="M352.6,292.5c-15-18-37.1-28.4-60.5-28.4c-10.7,0-21.1,2.1-30.8,6.3l-1.2-2.8c10.1-4.3,20.9-6.5,32-6.5
				c24.4,0,47.3,10.8,62.9,29.5L352.6,292.5z"/>
		</g>
	</g>
	<g>
		<g>
			<path class="st0" d="M216.5,374c-4.1-9.9-6.2-20.4-6.2-31.2c0-11.9,2.5-23.4,7.5-34.2l2.8,1.3c-4.8,10.4-7.2,21.4-7.2,32.9
				c0,10.4,2,20.5,5.9,30L216.5,374z"/>
		</g>
	</g>
	<g>
		<g>
			<path class="st0" d="M292.1,424.6c-25.8,0-50.3-12.4-65.7-33.1l2.5-1.9c14.8,19.9,38.4,31.8,63.2,31.8
				c43.4,0,78.7-35.3,78.7-78.7h3.1C373.9,387.9,337.2,424.6,292.1,424.6z"/>
		</g>
	</g>
</g>
</svg>
