<svg xmlns:dc="http://purl.org/dc/elements/1.1/" xmlns:cc="http://creativecommons.org/ns#" xmlns:rdf="http://www.w3.org/1999/02/22-rdf-syntax-ns#" xmlns:svg="http://www.w3.org/2000/svg" xmlns="http://www.w3.org/2000/svg" version="1.1" viewBox="0 0 100.00001 100" xml:space="preserve" x="0px" y="0px"><path d="m 15.53125,5 c -1.415917,0 -2.5625,1.1529614 -2.5625,2.5625 l 0,84.875 c 0,1.415917 1.146583,2.5625 2.5625,2.5625 l 68.9375,0 c 1.415916,0 2.5625,-1.146583 2.5625,-2.5625 l 0,-84.875 C 87.03125,6.1529614 85.884666,5 84.46875,5 l -68.9375,0 z m 2.1875,3.5625 64.5625,0 c 0.695202,0 1.21875,0.5235479 1.21875,1.21875 l 0,80.46875 c 0,0.695203 -0.510792,1.1875 -1.21875,1.1875 l -64.5625,0 C 17.010791,91.4375 16.5,90.945203 16.5,90.25 l 0,-80.46875 c 0,-0.6952021 0.523548,-1.21875 1.21875,-1.21875 z m 2.9375,2.96875 c -0.631423,0 -1.125,0.512071 -1.125,1.15625 l 0,74.65625 c 0,0.644179 0.480821,1.09375 1.125,1.09375 l 58.6875,0 c 0.644179,0 1.125,-0.449571 1.125,-1.09375 l 0,-74.65625 c 0,-0.644179 -0.493578,-1.15625 -1.125,-1.15625 l -58.6875,0 z m 27.375,9.9375 c 0.03189,-0.0064 0.06186,0 0.09375,0 l 3.75,0 c 0.48473,0 0.875,0.421521 0.875,0.90625 l 0,2.625 c 0,0.491107 -0.39027,0.90625 -0.875,0.90625 l -0.75,0 0,0.90625 0.75,0 c 0.48473,0 0.875,0.390272 0.875,0.875 l 0,2.65625 c 0,0.491107 -0.39027,0.90625 -0.875,0.90625 l -0.75,0 0,0.90625 0.75,0 c 0.48473,0 0.875,0.390272 0.875,0.875 l 0,2.65625 c 0,0.491107 -0.39027,0.875 -0.875,0.875 l -0.75,0 0,0.9375 0.75,0 c 0.48473,0 0.875,0.390272 0.875,0.875 l 0,2.65625 c 0,0.491105 -0.39027,0.875 -0.875,0.875 l -0.75,0 0,7.90625 c 0,0.08291 0.382593,0.82201 1.25,1.59375 0.861032,0.765359 2.063051,1.616018 3.28125,2.375 1.639147,1.033237 3.263329,1.909406 4.15625,2.375 1.492451,-0.484728 3.234595,-0.617982 4.625,-0.65625 1.409539,-0.03189 2.46875,0.03125 2.46875,0.03125 0.235986,0.01913 0.440678,0.133915 0.59375,0.3125 0.153073,0.172206 0.237884,0.395392 0.21875,0.625 -0.01276,0.229608 -0.140294,0.471929 -0.3125,0.625 -0.178584,0.146694 -0.395391,0.237882 -0.625,0.21875 0,0 -2.728791,-0.157554 -5.03125,0.21875 0.631421,0.548508 1.469964,1.283104 2.34375,2.125 1.766707,1.722061 3.692553,3.774099 4.375,5.6875 0.08929,0.216851 0.06442,0.439397 -0.03125,0.65625 -0.09567,0.216852 -0.27677,0.423463 -0.5,0.5 -0.223231,0.08291 -0.477024,0.04593 -0.6875,-0.0625 -0.210474,-0.108428 -0.37372,-0.301642 -0.4375,-0.53125 -0.427325,-1.186308 -2.259446,-3.310468 -3.96875,-4.96875 -0.554887,-0.54213 -1.090527,-1.041422 -1.5625,-1.46875 1.014103,5.944299 2.71875,9.25 2.71875,9.25 0.108428,0.204096 0.132659,0.439398 0.0625,0.65625 -0.07016,0.22323 -0.233406,0.422824 -0.4375,0.53125 -0.204097,0.102048 -0.43302,0.132659 -0.65625,0.0625 -0.223229,-0.06378 -0.422822,-0.233404 -0.53125,-0.4375 0,0 -2.211665,-4.301772 -3.1875,-11.6875 -0.758983,-0.395436 -2.58596,-1.344303 -4.53125,-2.5625 -1.256468,-0.790864 -2.536281,-1.682336 -3.53125,-2.5625 -0.446461,-0.395436 -0.862223,-0.772929 -1.1875,-1.1875 -0.325279,0.414571 -0.74104,0.792064 -1.1875,1.1875 -0.994969,0.880164 -2.268405,1.771628 -3.53125,2.5625 -1.785841,1.116149 -3.489098,2.022288 -4.34375,2.46875 -0.963078,7.487774 -3.25,11.84375 -3.25,11.84375 -0.102048,0.204097 -0.27677,0.36734 -0.5,0.4375 -0.216852,0.07016 -0.483404,0.04593 -0.6875,-0.0625 -0.204097,-0.108428 -0.36734,-0.283149 -0.4375,-0.5 -0.07016,-0.223231 -0.04593,-0.483403 0.0625,-0.6875 0,0 1.773524,-3.377756 2.78125,-9.46875 -0.510242,0.452839 -1.118576,1.012713 -1.75,1.625 -1.709304,1.658282 -3.516552,3.782442 -3.9375,4.96875 -0.07016,0.229608 -0.258276,0.422822 -0.46875,0.53125 -0.210476,0.108425 -0.464269,0.14541 -0.6875,0.0625 -0.229608,-0.07654 -0.404329,-0.283148 -0.5,-0.5 -0.09567,-0.216853 -0.126915,-0.439399 -0.03125,-0.65625 0.676067,-1.913401 2.633164,-3.965439 4.40625,-5.6875 0.854652,-0.822762 1.656205,-1.557997 2.28125,-2.09375 C 35.960936,57.218087 33.375,57.375 33.375,57.375 c -0.229608,0.01276 -0.452794,-0.06568 -0.625,-0.21875 -0.178585,-0.153071 -0.299745,-0.364142 -0.3125,-0.59375 -0.01913,-0.229608 0.07206,-0.477666 0.21875,-0.65625 0.153071,-0.172206 0.364142,-0.268495 0.59375,-0.28125 0,0 1.027961,-0.10076 2.4375,-0.0625 1.33938,0.03189 3.020943,0.184918 4.46875,0.625 0.886541,-0.465595 2.554092,-1.360257 4.21875,-2.40625 1.211822,-0.758982 2.413843,-1.609641 3.28125,-2.375 0.861031,-0.77174 1.25,-1.510836 1.25,-1.59375 l 0,-7.90625 -0.78125,0 c -0.491107,0 -0.875,-0.383895 -0.875,-0.875 l 0,-2.65625 c 0,-0.484728 0.383893,-0.875 0.875,-0.875 l 0.78125,0 0,-0.9375 -0.78125,0 c -0.491107,0 -0.875,-0.383893 -0.875,-0.875 l 0,-2.65625 c 0,-0.484728 0.383893,-0.875 0.875,-0.875 l 0.78125,0 0,-0.90625 -0.78125,0 c -0.491107,0 -0.875,-0.415143 -0.875,-0.90625 l 0,-2.65625 c 0,-0.484728 0.383893,-0.875 0.875,-0.875 l 0.78125,0 0,-0.90625 -0.78125,0 C 47.633893,25.90625 47.25,25.491107 47.25,25 l 0,-2.625 c 0,-0.459216 0.328411,-0.861604 0.78125,-0.90625 z m -4.3125,17.5625 c 0.312522,-0.0064 0.607124,0.05484 0.875,0.125 1.052371,0.287011 1.5625,1.125 1.5625,1.125 0.07016,0.12756 0.09375,0.297184 0.09375,0.4375 0,0 0.07717,4.122682 -0.03125,9.84375 -1.773084,1.588122 -4.028556,2.624911 -6.03125,3.875 -1.077883,0.172207 -2.128113,-0.426023 -3.21875,-0.375 -1.702927,-0.133937 -3.486494,-0.193922 -5.09375,0.4375 -1.626391,1.058749 -1.070931,4.095008 0.90625,4.34375 0.574021,0.06378 1.175981,0.06887 1.75,0.0625 -1.94529,1.855998 -3.942553,3.946238 -4.625,6.625 -0.15945,1.804975 2.200785,3.316406 3.71875,2.1875 1.205442,-0.841898 1.422117,-2.480799 2.5,-3.4375 0.223231,-0.210474 -0.279968,0.875619 -0.34375,1.15625 -0.446459,1.333004 -1.044623,2.653601 -1.3125,4.03125 0.114805,1.989937 3.170837,2.946547 4.3125,1.25 1.945291,-3.437745 2.723162,-7.372814 3.4375,-11.21875 0.01276,-0.440082 0.08286,-0.948336 0.625,-1.03125 1.084262,-0.599532 2.166378,-1.193192 3.21875,-1.84375 -0.13394,5.402168 -0.09108,8.761764 -1.78125,13.78125 -0.0064,0.0064 -0.03125,0.02489 -0.03125,0.03125 -1.307491,3.680108 -4.810976,5.845582 -8.3125,7 -1.747573,0.580398 -3.519023,0.910067 -5.0625,1.03125 -1.549855,0.121182 -2.861538,0.04402 -3.84375,-0.28125 -1.671037,-0.554887 -3.390889,-1.669469 -4.15625,-4.125 -0.758982,-2.455533 -0.723297,-6.116281 0.4375,-12.15625 2.385373,-12.392459 13.634335,-18.830817 16.90625,-21.34375 1.384028,-1.065126 2.556054,-1.474489 3.5,-1.5 l 0,-0.03125 z m 12.3125,0.03125 0.25,0 c 0.943945,0.02551 2.109595,0.434874 3.5,1.5 3.265538,2.512934 14.520876,8.951291 16.90625,21.34375 1.160797,6.039969 1.196482,9.700717 0.4375,12.15625 -0.76536,2.455531 -2.485214,3.570114 -4.15625,4.125 -0.982212,0.325277 -2.300273,0.402433 -3.84375,0.28125 -1.549855,-0.121182 -3.314928,-0.45723 -5.0625,-1.03125 -3.495148,-1.160797 -7.005009,-3.319892 -8.3125,-7 -0.0064,-0.0064 0,-0.02489 0,-0.03125 -1.690171,-5.019487 -1.678563,-8.379082 -1.8125,-13.78125 1.2756,0.790872 2.579625,1.510792 3.90625,2.21875 0.66969,4.171215 1.524075,8.445533 3.75,12.09375 1.422294,1.460563 4.369284,0.04734 4.03125,-2 -0.427327,-1.562613 -1.165782,-2.987773 -1.625,-4.53125 0.848275,1.033237 1.381952,2.305415 2.28125,3.28125 1.486075,1.058748 4.017877,-0.199481 3.75,-2.09375 -0.178583,-2.047338 -1.776062,-3.538158 -2.96875,-5.0625 -0.529374,-0.586776 -1.050981,-1.14537 -1.625,-1.6875 1.256466,0.07016 2.911944,0.0071 3.5625,-1.28125 0.733472,-1.422296 -0.253067,-3.56314 -1.96875,-3.53125 -2.378995,-0.318901 -4.777895,0.02931 -7.125,0.4375 -2.053717,-1.237334 -4.345536,-2.292614 -6.125,-3.90625 C 53.679202,44.841433 53.75,40.71875 53.75,40.71875 c 0,-0.146694 0.02359,-0.30994 0.09375,-0.4375 0,0 0.503751,-0.83799 1.5625,-1.125 0.191339,-0.05102 0.40177,-0.08099 0.625,-0.09375 z" transform="translate(0,-5e-6)" style="" fill="#009FE3" fill-opacity="1" fill-rule="nonzero" stroke="none"></path></svg>