<svg xmlns="http://www.w3.org/2000/svg" xmlns:xlink="http://www.w3.org/1999/xlink" version="1.1" x="0px" y="0px" viewBox="0 0 100 100" style="enable-background:new 0 0 100 100;" xml:space="preserve"><path d="M12,82.1H88c3.9,0,7-3.2,7-7V24.8c0-3.9-3.2-7-7-7H12c-3.9,0-7,3.2-7,7v50.2C5,78.9,8.2,82.1,12,82.1z M37.8,51.9L9.1,74.1  V29.7L37.8,51.9z M12,77.9c-0.3,0-0.6-0.1-0.9-0.1l30-23.3l3.4,2.6c1.5,1.1,3.3,1.7,5.2,1.7c1.9,0,3.7-0.6,5.2-1.7l3.6-2.8  l30.3,23.5c-0.3,0.1-0.6,0.1-0.9,0.1H12z M61.9,51.7l28.9-22.4v44.8L61.9,51.7z M12,21.9H88c1.4,0,2.5,0.9,2.8,2.2L52.4,53.9  c-1.4,1.1-3.9,1.1-5.3,0L9.2,24.5C9.4,23,10.6,21.9,12,21.9z"></path></svg>