<svg xmlns:dc="http://purl.org/dc/elements/1.1/" xmlns:cc="http://creativecommons.org/ns#" xmlns:rdf="http://www.w3.org/1999/02/22-rdf-syntax-ns#" xmlns:svg="http://www.w3.org/2000/svg" xmlns="http://www.w3.org/2000/svg" version="1.1" viewBox="0 0 100.00001 100" xml:space="preserve" x="0px" y="0px"><path d="m 20.25,7.40625 c -2.104497,0 -3.78125,1.7080025 -3.78125,3.8125 l 0,6.21875 c 0,2.104498 1.676753,3.8125 3.78125,3.8125 2.104497,0 3.8125,-1.708002 3.8125,-3.8125 l 0,-6.21875 c 0,-2.1044975 -1.708003,-3.8125 -3.8125,-3.8125 z m 46.1875,0 c -2.104497,0 -3.8125,1.7080025 -3.8125,3.8125 l 0,6.21875 c 0,2.104498 1.708003,3.8125 3.8125,3.8125 2.104498,0 3.78125,-1.708002 3.78125,-3.8125 l 0,-6.21875 c 0,-2.1044975 -1.676752,-3.8125 -3.78125,-3.8125 z m 12.21875,5.5 c -0.146677,0 -0.322073,0.0058 -0.46875,0.03125 l -6.0625,0 c 0.01276,2.780488 0.53818,6.022426 -1.375,8.34375 -2.340456,2.691206 -7.308116,2.386978 -9.09375,-0.71875 -1.35198,-2.270306 -0.931759,-5.080471 -0.90625,-7.625 l -34.78125,0 c 0.01276,2.818752 0.527334,6.135944 -1.46875,8.40625 -2.436115,2.646565 -7.396761,2.283655 -9.125,-0.96875 -1.205303,-2.244798 -0.819514,-4.956744 -0.78125,-7.4375 -2.334079,0.0064 -4.6722985,-0.02552 -7,0 -1.6835977,0.121167 -2.8239679,1.855302 -2.5625,3.46875 0.00638,21.84213 -6.36e-4,43.682742 0.03125,65.53125 0.1275453,1.670843 1.8304295,2.792718 3.4375,2.53125 l 33.84375,0 c -1.581561,-1.721862 -2.927348,-3.615526 -4.0625,-5.65625 -8.558288,0 -17.129212,-0.03064 -25.6875,-0.0625 -1.383867,-0.165809 -2.123713,-1.680543 -1.875,-2.96875 0.01913,-15.904897 -0.0389,-31.788981 0.03125,-47.6875 0.1403,-1.007609 1.06701,-1.849491 2.09375,-1.875 20.413621,0.01276 40.836378,-0.01977 61.25,0.03125 1.39662,0.165809 2.13009,1.674164 1.875,2.96875 l 0,4.3125 c 1.976952,0.688744 3.88911,1.559997 5.6875,2.625 0,-6.893822 -0.01852,-13.793678 -0.03125,-20.6875 -0.114792,-1.505035 -1.514734,-2.575255 -2.96875,-2.5625 z M 14.21875,28.4375 c -0.701499,0 -1.28125,0.57975 -1.28125,1.28125 l 0,7.59375 c 0,0.7015 0.579751,1.25 1.28125,1.25 l 7.59375,0 c 0.701499,0 1.25,-0.5485 1.25,-1.25 l 0,-7.59375 c 0,-0.7015 -0.548501,-1.28125 -1.25,-1.28125 l -7.59375,0 z m 12.65625,0 c -0.7015,0 -1.25,0.57975 -1.25,1.28125 l 0,7.59375 c 0,0.7015 0.5485,1.25 1.25,1.25 l 7.59375,0 c 0.707876,0 1.28125,-0.5485 1.28125,-1.25 l 0,-7.59375 c 0,-0.7015 -0.573374,-1.28125 -1.28125,-1.28125 l -7.59375,0 z m 12.65625,0 c -0.7015,0 -1.25,0.57975 -1.25,1.28125 l 0,7.59375 c 0,0.7015 0.5485,1.25 1.25,1.25 l 6.1875,0 c 0.867308,-0.695121 1.756419,-1.33166 2.6875,-1.9375 l 0,-6.90625 c 0,-0.7015 -0.5485,-1.28125 -1.25,-1.28125 l -7.625,0 z m 12.6875,0 c -0.7015,0 -1.28125,0.57975 -1.28125,1.28125 l 0,5.40625 c 3.156746,-1.683598 6.610491,-2.83357 10.15625,-3.34375 l 0,-2.0625 c 0,-0.7015 -0.579751,-1.28125 -1.28125,-1.28125 l -7.59375,0 z m 12.65625,0 c -0.701499,0 -1.25,0.57975 -1.25,1.28125 l 0,1.8125 c 0.605839,-0.03189 1.20666,-0.03763 1.8125,-0.03125 2.805996,-0.0574 5.60854,0.279369 8.3125,1 l 0,-2.78125 c 0,-0.7015 -0.579751,-1.28125 -1.28125,-1.28125 l -7.59375,0 z m 0.78125,5.5 c -16.191872,0 -29.3125,13.145498 -29.3125,29.34375 0,16.191874 13.120628,29.3125 29.3125,29.3125 C 81.848123,92.59375 95,79.473124 95,63.28125 95,47.082998 81.848123,33.9375 65.65625,33.9375 z m -51.4375,7.15625 c -0.707877,0 -1.28125,0.579753 -1.28125,1.28125 l 0,7.59375 c 0,0.7015 0.573373,1.28125 1.28125,1.28125 l 7.59375,0 c 0.701499,0 1.25,-0.57975 1.25,-1.28125 l 0,-7.59375 c 0,-0.701497 -0.548501,-1.28125 -1.25,-1.28125 l -7.59375,0 z m 12.65625,0 c -0.7015,0 -1.25,0.579753 -1.25,1.28125 l 0,7.59375 c 0,0.7015 0.5485,1.28125 1.25,1.28125 l 7.59375,0 c 0.707876,0 1.28125,-0.57975 1.28125,-1.28125 l 0,-7.59375 c 0,-0.701497 -0.573374,-1.28125 -1.28125,-1.28125 l -7.59375,0 z m 12.65625,0 c -0.7015,0 -1.25,0.573374 -1.25,1.28125 l 0,4.6875 c 1.294586,-2.155515 2.852121,-4.170361 4.625,-5.96875 l -3.375,0 z m 21.90625,2.375 8.46875,0 c 1.167041,0 2.09375,0.951583 2.09375,2.125 l 0,11.34375 11.34375,0 c 1.16704,0 2.125,0.926711 2.125,2.09375 l 0,8.46875 c 0,1.167039 -0.95796,2.09375 -2.125,2.09375 l -11.34375,0 0,11.34375 c 0,1.173418 -0.926709,2.125 -2.09375,2.125 l -8.46875,0 c -1.167039,0 -2.09375,-0.951582 -2.09375,-2.125 l 0,-11.34375 -11.34375,0 c -1.167041,0 -2.125,-0.926711 -2.125,-2.09375 l 0,-8.46875 c 0,-1.167039 0.957959,-2.09375 2.125,-2.09375 l 11.34375,0 0,-11.34375 c 0,-1.173417 0.926711,-2.125 2.09375,-2.125 z m -47.21875,10.3125 c -0.707877,0 -1.28125,0.548502 -1.28125,1.25 l 0,7.625 c 0,0.701498 0.573373,1.25 1.28125,1.25 l 7.59375,0 c 0.701499,0 1.25,-0.548502 1.25,-1.25 l 0,-7.625 c 0,-0.701498 -0.548501,-1.25 -1.25,-1.25 l -7.59375,0 z m 12.65625,0 c -0.7015,0 -1.25,0.548502 -1.25,1.25 l 0,7.625 c 0,0.701498 0.5485,1.25 1.25,1.25 l 7.03125,0 c -0.06377,-2.608302 0.188164,-5.236721 0.78125,-7.78125 0.153054,-0.72063 0.327177,-1.429879 0.53125,-2.125 -0.210451,-0.153053 -0.475778,-0.21875 -0.75,-0.21875 l -7.59375,0 z M 14.21875,66.4375 c -0.707877,0 -1.28125,0.579752 -1.28125,1.28125 l 0,7.59375 c 0,0.701498 0.573373,1.25 1.28125,1.25 l 7.59375,0 c 0.701499,0 1.25,-0.548502 1.25,-1.25 l 0,-7.59375 c 0,-0.701498 -0.548501,-1.28125 -1.25,-1.28125 l -7.59375,0 z m 12.65625,0 c -0.7015,0 -1.25,0.579752 -1.25,1.28125 l 0,7.59375 c 0,0.701498 0.5485,1.25 1.25,1.25 l 7.59375,0 c 0.7015,0 1.28125,-0.548502 1.28125,-1.25 l 0,-1.375 c -0.848176,-2.416982 -1.426031,-4.949094 -1.6875,-7.5 l -7.1875,0 z" transform="translate(0,-5e-6)" style="" fill="#000000" fill-opacity="1" fill-rule="nonzero" stroke="none"></path></svg>