<svg xmlns:dc="http://purl.org/dc/elements/1.1/" xmlns:cc="http://creativecommons.org/ns#" xmlns:rdf="http://www.w3.org/1999/02/22-rdf-syntax-ns#" xmlns:svg="http://www.w3.org/2000/svg" xmlns="http://www.w3.org/2000/svg" version="1.1" viewBox="0 0 100.00001 100" xml:space="preserve" x="0px" y="0px"><path d="M 49.78125,5 A 2.4739825,2.4739825 0 0 0 48.5625,5.4375 l -2.03125,1.46875 c -6.902648,4.886366 -16.10273,5.782883 -23.875,2.1875 L 19.53125,7.625 A 2.4739825,2.4739825 0 0 0 16.25,8.78125 l -1.5,3.125 c -4.038719,8.244786 -6.125,17.121449 -6.125,26.3125 0,25.088394 15.791778,47.654071 39.3125,56.1875 l 1.21875,0.4375 a 2.4739825,2.4739825 0 0 0 1.6875,0 l 1.21875,-0.4375 C 75.571972,85.876161 91.375,63.308199 91.375,38.21875 c 0,-9.188414 -2.085929,-18.066307 -6.125,-26.3125 l -1.53125,-3.125 a 2.4739825,2.4739825 0 0 0 -3.25,-1.15625 l -3.125,1.46875 a 2.4739825,2.4739825 0 0 0 -0.03125,0 C 69.573106,12.679816 60.377551,11.795429 53.46875,6.90625 L 51.40625,5.4375 A 2.4739825,2.4739825 0 0 0 50.03125,5 a 2.4739825,2.4739825 0 0 0 -0.25,0 z m -5.65625,22.25 11.75,0 c 0.787528,0 1.40625,0.650147 1.40625,1.4375 l 0,14.03125 14.03125,0 c 0.787528,0 1.4375,0.618721 1.4375,1.40625 l 0,11.71875 c 0,0.787528 -0.649972,1.4375 -1.4375,1.4375 l -14.03125,0 0,14.03125 c 0,0.787528 -0.618722,1.4375 -1.40625,1.4375 l -11.75,0 c -0.787353,0 -1.40625,-0.649972 -1.40625,-1.4375 l 0,-14.03125 -14.03125,0 c -0.787352,0 -1.4375,-0.649972 -1.4375,-1.4375 l 0,-11.71875 c 0,-0.787529 0.650148,-1.40625 1.4375,-1.40625 l 14.03125,0 0,-14.03125 c 0,-0.787353 0.618897,-1.4375 1.40625,-1.4375 z m 1.84375,2.4375 c -0.389545,0 -0.71875,0.329205 -0.71875,0.71875 l 0,14.84375 -14.84375,0 c -0.389545,0 -0.71875,0.329205 -0.71875,0.71875 l 0,8.0625 c 0,0.389545 0.329205,0.71875 0.71875,0.71875 l 14.84375,0 0,14.84375 c 0,0.389545 0.329205,0.71875 0.71875,0.71875 l 8.0625,0 c 0.389545,0 0.71875,-0.329205 0.71875,-0.71875 l 0,-14.84375 14.84375,0 c 0.389545,0 0.71875,-0.329205 0.71875,-0.71875 l 0,-8.0625 c 0,-0.389545 -0.329205,-0.71875 -0.71875,-0.71875 l -14.84375,0 0,-14.84375 c 0,-0.389545 -0.329205,-0.71875 -0.71875,-0.71875 l -8.0625,0 z" transform="translate(0,-5e-6)" style="text-indent:0;text-transform:none;direction:ltr;block-progression:tb;baseline-shift:baseline;color:#000000;enable-background:accumulate;" fill="#000000" fill-opacity="1" fill-rule="nonzero" stroke="none" marker="none" visibility="visible" display="inline" overflow="visible"></path></svg>