<svg xmlns:dc="http://purl.org/dc/elements/1.1/" xmlns:cc="http://creativecommons.org/ns#" xmlns:rdf="http://www.w3.org/1999/02/22-rdf-syntax-ns#" xmlns:svg="http://www.w3.org/2000/svg" xmlns="http://www.w3.org/2000/svg" version="1.1" viewBox="0 0 100.00001 100" xml:space="preserve" x="0px" y="0px"><path d="m 43.28125,5 c -0.93222,0 -1.6875,0.7550999 -1.6875,1.6875 l 0,10.5625 -9.15625,-5.28125 c -0.80748,-0.46638 -1.84648,-0.18248 -2.3125,0.625 L 23.40625,24.25 c -0.4662,0.80766 -0.18248,1.81523 0.625,2.28125 l 9.125,5.28125 -9.125,5.28125 c -0.80748,0.46584 -1.0912,1.50502 -0.625,2.3125 L 30.125,51.0625 c 0.46602,0.807661 1.50502,1.0912 2.3125,0.625 l 9.15625,-5.28125 0,10.5625 c 0,0.9324 0.75528,1.65625 1.6875,1.65625 l 13.4375,0 c 0.932221,0 1.6875,-0.72385 1.6875,-1.65625 l 0,-10.5625 9.15625,5.28125 c 0.80748,0.4662 1.84648,0.182661 2.3125,-0.625 l 6.71875,-11.65625 c 0.4662,-0.80748 0.18248,-1.84648 -0.625,-2.3125 l -9.125,-5.28125 9.125,-5.28125 c 0.80748,-0.46602 1.0912,-1.47359 0.625,-2.28125 L 69.875,12.59375 c -0.46602,-0.80748 -1.50502,-1.09138 -2.3125,-0.625 l -9.15625,5.28125 0,-10.5625 C 58.40625,5.7550999 57.650971,5 56.71875,5 L 43.28125,5 z M 49.125,9.6875 c 1.4373,0 2.625,1.15645 2.625,2.59375 0,1.00332 -0.57411,1.87852 -1.40625,2.3125 l -0.375,12.125 c -0.5751,-0.29214 -1.14354,-0.6063 -1.6875,-0.9375 L 47.9375,14.59375 c -0.831061,-0.43434 -1.40625,-1.30972 -1.40625,-2.3125 0,-1.4373 1.156809,-2.59375 2.59375,-2.59375 z m 2.1875,7.78125 c 0.04338,0 0.08144,0 0.125,0 0.06606,0 0.12108,-0.0018 0.1875,0 2.061361,0.02934 4.43359,1.040069 5.21875,3.84375 0.506701,1.80756 -0.53796,1.37324 -1.3125,1.4375 -1.23084,0.10134 -2.48679,-0.80897 -3.09375,-2.46875 -0.282961,-0.802261 -0.11308,-0.99564 -1.1875,-0.9375 0.01908,-0.62478 0.04342,-1.2504 0.0625,-1.875 z M 47,18.375 c 0.02016,0.65412 0.0427,1.31463 0.0625,1.96875 -1.26792,0.6417 -2.25346,1.6332 -2.3125,3.1875 0.43128,2.169721 4.59286,4.02782 6.4375,5 1.16046,0.701641 1.925,1.43568 2.375,2.25 0.45054,0.81432 0.52353,1.716459 0.28125,2.5 -0.4617,1.38654 -1.75754,2.5966 -3.125,3.8125 0.02358,-0.77688 0.03874,-1.53598 0.0625,-2.3125 0.57312,-0.59994 1.06994,-1.258759 1.4375,-2 C 52.569211,31.60945 51.33105,30.62154 50.34375,30 45.498689,28.034399 43.406661,25.948741 43.0625,23.8125 42.88952,22.73772 43.207369,21.75607 43.71875,20.96875 44.56277,19.72981 45.69518,18.9078 47,18.375 z m 1.40625,11.90625 c 0.45648,0.22266 0.92968,0.45008 1.375,0.6875 0.02052,0.0126 0.04126,0.01865 0.0625,0.03125 L 49.5,41.875 C 49.24926,41.69284 49.00074,41.52249 48.75,41.34375 L 48.40625,30.28125 z M 47.5625,37.6875 c 0.0252,0.82152 0.06783,1.6158 0.09375,2.4375 -0.04068,0.05454 -0.0863,0.1326 -0.125,0.1875 -0.4932,0.87192 -0.0466,1.484629 0.875,2.09375 2.13066,1.3887 4.677701,3.655999 3.4375,6.5 -0.2304,0.53946 -0.80272,0.96604 -1.5625,1.375 0.0054,-0.46962 0.02758,-0.93897 0.0625,-1.40625 0.46836,-0.59886 0.59343,-1.343919 0.09375,-2.3125 -0.42246,-0.76878 -1.320199,-1.7087 -2.9375,-2.75 -1.56222,-1.02384 -2.39942,-2.35835 -1.4375,-4.34375 0.3879,-0.6489 0.91284,-1.22253 1.5,-1.78125 z M 8.25,40.875 C 3.2099994,40.7094 5.3796099,52.257139 5.96875,56.9375 c 0.58896,4.680721 5.904719,10.198038 8.4375,15.125 0.90036,1.63242 6.898709,5.48023 11.15625,7.65625 4.076101,1.550701 7.65416,5.077449 7.625,10.84375 0.03438,1.44108 -0.3153,4.33976 0.9375,4.4375 l 11.4375,0 c 0.75762,-0.05904 0.81359,-0.98662 0.96875,-2.3125 1.11636,-7.1892 1.18242,-12.92966 -1.125,-19.8125 C 43.164169,67.86614 38.086221,65.139671 33.5,62.59375 29.023939,60.46165 26.15669,56.247721 22.34375,53.25 c -1.286281,-1.27656 -4.016439,-1.37287 -4.9375,0.40625 -0.98298,2.247301 0.116759,4.93461 1.875,6.46875 2.03202,1.20762 4.74672,4.36093 5.8125,6.71875 -3.358441,-0.04032 -6.387319,-2.134499 -8.1875,-4.875 C 14.97017,58.57125 11.9145,55.567931 11.4375,51.53125 11.38062,49.25317 11.47721,46.92112 10.90625,44.6875 10.50881,43.226979 10.00824,41.1639 8.25,40.875 z m 83.5,0 c -1.75824,0.28908 -2.25899,2.351979 -2.65625,3.8125 -0.57114,2.23362 -0.47437,4.56567 -0.53125,6.84375 -0.47718,4.036681 -3.53267,7.04018 -5.46875,10.4375 -1.80018,2.740501 -4.829239,4.83468 -8.1875,4.875 1.06578,-2.35764 3.78066,-5.51131 5.8125,-6.71875 1.758421,-1.53414 2.85798,-4.221449 1.875,-6.46875 C 81.67251,51.87713 78.94271,51.97344 77.65625,53.25 73.843489,56.247721 70.975881,60.46183 66.5,62.59375 61.913599,65.139851 56.83565,67.86614 54.59375,72.875 c -2.307421,6.88284 -2.24154,12.6233 -1.125,19.8125 0.15516,1.32606 0.211129,2.25346 0.96875,2.3125 l 11.4375,0 c 1.25298,-0.09756 0.90312,-2.99642 0.9375,-4.4375 -0.02934,-5.766481 3.548719,-9.293049 7.625,-10.84375 4.257361,-2.17584 10.256069,-6.02383 11.15625,-7.65625 2.53296,-4.926962 7.84836,-10.444279 8.4375,-15.125 C 94.620211,52.256959 96.79,40.70958 91.75,40.875 z M 48.90625,46.25 c 0.17316,0.1737 0.31276,0.360719 0.4375,0.5625 L 49.125,53.96875 48.90625,46.25 z M 48,50.53125 c 0.009,0.2574 0.02189,0.492599 0.03125,0.75 -0.725941,0.30006 -1.47672,0.6355 -2.25,1 0.26478,-0.69408 1.209489,-1.20532 2.21875,-1.75 z" transform="translate(0,-5e-6)" style="" fill="#009FE3" fill-opacity="1"></path></svg>