<svg xmlns:dc="http://purl.org/dc/elements/1.1/" xmlns:cc="http://creativecommons.org/ns#" xmlns:rdf="http://www.w3.org/1999/02/22-rdf-syntax-ns#" xmlns:svg="http://www.w3.org/2000/svg" xmlns="http://www.w3.org/2000/svg" version="1.1" viewBox="0 0 100.00001 100" xml:space="preserve" x="0px" y="0px"><path d="m 68.78125,5 c -0.603891,0.032785 -1.170263,0.3528561 -1.5,0.90625 l -1.625,2.75 c 0.910453,0.5743087 1.781946,1.218651 2.6875,1.75 0.166376,0.07443 0.329478,0.137163 0.5,0.21875 L 70.5,7.84375 C 71.046423,6.9393268 70.760581,5.8088302 69.875,5.28125 69.535841,5.0764358 69.143584,4.9804042 68.78125,5 z M 61.5625,8.875 c -0.604834,0.037307 -1.170262,0.3528561 -1.5,0.90625 L 40.09375,43.21875 39.9375,43.125 c -0.904423,-0.546423 -2.03492,-0.229331 -2.5625,0.65625 -0.546422,0.904423 -0.260581,2.034919 0.625,2.5625 l 10.78125,6.4375 c 0.885581,0.52758 2.047328,0.260581 2.59375,-0.625 0.546423,-0.904424 0.229331,-2.06617 -0.65625,-2.59375 L 50.5625,49.46875 53.65625,44.3125 C 52.140399,42.709975 51.037454,40.727302 50.625,38.53125 48.93467,31.368218 55.128037,23.697374 62.46875,23.8125 c 1.091337,-0.03637 2.18262,0.06922 3.21875,0.34375 l 4.875,-8.125 C 71.090081,15.145668 70.760581,13.96508 69.875,13.4375 L 62.625,9.125 C 62.292813,8.9271574 61.925211,8.8525778 61.5625,8.875 z m 1.09375,17.59375 c -5.296905,0 -9.59375,4.297034 -9.59375,9.59375 0,5.296905 4.296845,9.59375 9.59375,9.59375 5.296717,0 9.59375,-4.296845 9.59375,-9.59375 0,-5.296716 -4.297033,-9.59375 -9.59375,-9.59375 z M 62.4375,32.1875 c 0.06614,-0.0038 0.151672,0 0.21875,0 2.143672,0 3.875,1.731329 3.875,3.875 0,2.143672 -1.731328,3.875 -3.875,3.875 -2.14386,0 -3.875,-1.731328 -3.875,-3.875 0,-2.076593 1.60547,-3.770991 3.65625,-3.875 z m 10.84375,9.875 c -0.912714,1.583494 -2.147399,2.964031 -3.625,4.03125 2.917142,7.263084 0.756411,15.881697 -5.78125,20.8125 -3.787461,2.864007 -8.464554,4.096976 -13.15625,3.4375 C 46.027054,69.684275 41.864007,67.224584 39,63.4375 38.191012,62.367461 37.50954,61.225564 36.96875,60.03125 l 7.5625,4.53125 c 1.187056,0.716002 2.721498,0.330897 3.4375,-0.875 0.716001,-1.187056 0.312055,-2.690248 -0.875,-3.40625 L 32.21875,51.375 c -1.187056,-0.716001 -2.721498,-0.312055 -3.4375,0.875 -0.716002,1.187056 -0.312056,2.721498 0.875,3.4375 l 1.21875,0.71875 -0.1875,0.03125 c 0.584107,3.598851 2.089126,7.060624 4.3125,10 3.674219,4.861275 9.001763,7.995853 15.03125,8.84375 1.055161,0.150737 2.132339,0.25 3.1875,0.25 4.917801,0 9.692776,-1.591414 13.6875,-4.625 9.044421,-6.834425 11.534922,-19.139854 6.375,-28.84375 z m -9.6875,33.84375 C 60.132823,77.494078 56.336074,78.323164 52.5,78.1875 50.148877,78.17431 47.830098,77.768703 45.625,77.0625 l -3.75,9.59375 -20.4375,0 c -1.733478,0 -3.125,1.422772 -3.125,3.15625 l 0,2.03125 c 0,1.733478 1.391522,3.15625 3.125,3.15625 l 57.125,0 c 1.733477,0 3.125,-1.422772 3.125,-3.15625 l 0,-2.03125 c 0,-1.733478 -1.391523,-3.15625 -3.125,-3.15625 l -10.78125,0 -4.1875,-10.75 z" transform="translate(0,-5e-6)" style="" fill="#009FE3" fill-opacity="1"></path></svg>