<svg xmlns:dc="http://purl.org/dc/elements/1.1/" xmlns:cc="http://creativecommons.org/ns#" xmlns:rdf="http://www.w3.org/1999/02/22-rdf-syntax-ns#" xmlns:svg="http://www.w3.org/2000/svg" xmlns="http://www.w3.org/2000/svg" version="1.1" viewBox="0 0 100.00001 100" xml:space="preserve" x="0px" y="0px"><path d="m 21.22438,67.972649 c -2.639161,0 -5.138282,1.468081 -5.456703,4.889523 -0.15588,1.00674 -0.0279,2.113561 -0.0279,2.113561 -0.24372,0.02952 -0.981,0.3897 -1.00872,1.456021 -0.02412,1.28574 0.31482,2.784421 2.042101,3.605942 0.5049,0.89946 1.314541,1.91394 1.18278,3.529441 -0.20376,2.496962 -4.237562,2.192581 -5.881322,3.117062 -1.703521,0.95814 -2.7264618,3.096361 -3.125702,5.079242 -0.3893402,2.001601 2.051101,2.621522 4.372922,2.908442 2.321101,0.28692 5.218563,0.32814 7.902544,0.32814 2.683981,0 5.581443,-0.04122 7.902544,-0.32814 2.321821,-0.28692 4.762262,-0.906841 4.372922,-2.908442 -0.39924,-1.982881 -1.42218,-4.121102 -3.125701,-5.079242 -1.643761,-0.924481 -5.677563,-0.6201 -5.881323,-3.117062 -0.13176,-1.615501 0.67788,-2.629981 1.18278,-3.529441 1.727281,-0.821521 2.066221,-2.320202 2.042101,-3.605942 -0.02772,-1.066321 -0.765,-1.426501 -1.00872,-1.456021 0,0 0.12798,-1.106821 -0.0279,-2.113561 -0.31842,-3.421442 -2.817542,-4.889523 -5.456703,-4.889523 z" style="" fill="#292e31" fill-opacity="1" stroke="none"></path><path d="m 50.000095,67.972649 c -2.639162,0 -5.138283,1.468081 -5.456703,4.889523 -0.15588,1.00674 -0.0279,2.113561 -0.0279,2.113561 -0.24372,0.02952 -0.981001,0.3897 -1.008721,1.456021 -0.02412,1.28574 0.31482,2.784421 2.042101,3.605942 0.504901,0.89946 1.314541,1.91394 1.182781,3.529441 -0.20376,2.496962 -4.237562,2.192581 -5.881323,3.117062 -1.703521,0.95814 -2.726461,3.096361 -3.125702,5.079242 -0.38934,2.001601 2.051101,2.621522 4.372923,2.908442 2.321101,0.28692 5.218562,0.32814 7.902544,0.32814 2.683981,0 5.581442,-0.04122 7.902543,-0.32814 2.321822,-0.28692 4.762263,-0.906841 4.372923,-2.908442 -0.399241,-1.982881 -1.422181,-4.121102 -3.125702,-5.079242 -1.643761,-0.924481 -5.677563,-0.6201 -5.881323,-3.117062 -0.13176,-1.615501 0.67788,-2.629981 1.182781,-3.529441 1.727281,-0.821521 2.066221,-2.320202 2.042101,-3.605942 -0.02772,-1.066321 -0.765001,-1.426501 -1.008721,-1.456021 0,0 0.12798,-1.106821 -0.0279,-2.113561 -0.31842,-3.421442 -2.817541,-4.889523 -5.456702,-4.889523 z" style="" fill="#292e31" fill-opacity="1" stroke="none"></path><path d="m 78.775629,67.972649 c -2.639161,0 -5.138283,1.468081 -5.456703,4.889523 -0.15588,1.00674 -0.0279,2.113561 -0.0279,2.113561 -0.24372,0.02952 -0.981,0.3897 -1.00872,1.456021 -0.02412,1.28574 0.31482,2.784421 2.042101,3.605942 0.5049,0.89946 1.31454,1.91394 1.18278,3.529441 -0.20376,2.496962 -4.237562,2.192581 -5.881323,3.117062 -1.703521,0.95814 -2.726461,3.096361 -3.125701,5.079242 -0.38934,2.001601 2.051101,2.621522 4.372922,2.908442 2.321101,0.28692 5.218563,0.32814 7.902544,0.32814 2.683981,0 5.581443,-0.04122 7.902544,-0.32814 2.321821,-0.28692 4.762262,-0.906841 4.372922,-2.908442 -0.39924,-1.982881 -1.422181,-4.121102 -3.125702,-5.079242 -1.64376,-0.924481 -5.677562,-0.6201 -5.881322,-3.117062 -0.131761,-1.615501 0.67788,-2.629981 1.18278,-3.529441 1.727281,-0.821521 2.066221,-2.320202 2.042101,-3.605942 -0.02772,-1.066321 -0.765,-1.426501 -1.00872,-1.456021 0,0 0.12798,-1.106821 -0.0279,-2.113561 -0.318421,-3.421442 -2.817542,-4.889523 -5.456703,-4.889523 z" style="" fill="#292e31" fill-opacity="1" stroke="none"></path><path d="m 49.962929,14.41578 c -2.563722,0.03191 -5.450525,0.299311 -7.29043,2.243572 -3.408419,3.601666 -0.925366,3.903419 -6.715576,10.50072 -2.885908,3.288191 5.286664,0.733341 7.572809,-0.582505 l 0.05088,-0.028 0.07123,-0.0381 c 1.170138,1.604493 2.868569,2.886802 4.825528,3.304389 0.508756,0.108426 1.019466,0.139928 1.523744,0.106798 0.504279,0.03313 1.014989,0.0016 1.523744,-0.106798 1.95696,-0.417587 3.655391,-1.699896 4.825529,-3.304389 l 0.07123,0.0381 0.05087,0.028 c 2.286145,1.315846 10.458717,3.870696 7.57281,0.582505 C 58.255168,20.562771 60.73814,20.261018 57.329721,16.659352 55.489897,14.715091 52.603013,14.447689 50.03929,14.41578 l -0.03818,0 -0.03818,0 z" style="" fill="#292e31" fill-opacity="1"></path><path d="m 43.407631,28.037737 c -2.826891,1.416213 -5.924034,2.498276 -8.142616,3.61469 -1.533024,0.770785 -2.764783,2.445446 -3.675741,4.418524 -0.910958,1.973158 -1.48052,4.262478 -1.48052,6.351796 0,0.251366 0.159383,0.495731 0.389259,0.597808 5.371078,2.399944 15.229789,2.678579 19.503093,2.678579 4.273875,0 14.134621,-0.278635 19.505698,-2.678579 0.228737,-0.102891 0.387143,-0.346849 0.386655,-0.597808 0,-4.088525 -1.346697,-8.25959 -4.342252,-9.765507 -2.139542,-1.076772 -6.03653,-2.782528 -9.167698,-4.410954 -0.971357,1.029071 -2.167869,1.865872 -3.502845,2.358104 -3.290714,1.274331 -7.222297,0.06186 -9.473033,-2.566653 z m 6.593475,6.926731 c 0.71934,0 1.302415,0.583075 1.302415,1.302415 0,0.719177 -0.583075,1.302414 -1.302415,1.302414 -0.719258,0 -1.302415,-0.583237 -1.302415,-1.302414 0,-0.71934 0.583157,-1.302415 1.302415,-1.302415 z m 0,4.736476 c 0.71934,0 1.302415,0.583074 1.302415,1.302415 0,0.71934 -0.583075,1.302414 -1.302415,1.302414 -0.719258,0 -1.302415,-0.583074 -1.302415,-1.302414 0,-0.719341 0.583157,-1.302415 1.302415,-1.302415 z" style="text-indent:0;text-transform:none;direction:ltr;block-progression:tb;baseline-shift:baseline;color:#333333;enable-background:accumulate;" fill="#292e31" fill-opacity="1" stroke="none" marker="none" visibility="visible" display="inline" overflow="visible"></path><g transform="matrix(0.08140093,0,0,0.08140093,1036.0048,-1177.1107)"><path d="m -12113.325,14522.078 c -0.173,0 -0.343,0 -0.514,0.03 -19.98,-0.05 -40.155,2.397 -59.106,7.567 l -0.03,0 c -0.229,0.04 -0.462,0.06 -0.686,0.115 -18.717,5.172 -36.269,13.078 -49.026,27.496 l -0.03,0.03 c -2.865,3.224 -4.426,7.29 -4.426,11.621 l 0,0.03 0.343,85.061 c 0.04,3.339 2.822,6.451 6.139,6.852 3.316,0.402 3.371,-1.176 7.566,-5.196 19.143,-18.331 30.629,-19.996 42.688,-24.67 0.145,-0.03 0.311,-0.05 0.457,-0.08 18.057,-4.999 37.669,-7.372 57.021,-7.252 19.351,-0.12 38.991,2.253 57.049,7.252 0.145,0.04 0.283,0.06 0.429,0.08 12.058,4.674 23.546,6.339 42.687,24.67 4.196,4.02 4.251,5.598 7.567,5.196 3.316,-0.401 6.104,-3.513 6.139,-6.852 l 0.343,-85.061 0,-0.03 c 0,-4.331 -1.562,-8.397 -4.426,-11.621 l -0.03,-0.03 c -12.757,-14.418 -30.308,-22.324 -49.027,-27.496 -0.224,-0.06 -0.427,-0.08 -0.656,-0.115 l -0.06,0 c -18.95,-5.169 -39.126,-7.612 -59.105,-7.567 -0.172,-0.02 -0.342,-0.03 -0.514,-0.03 l -0.371,0 -0.03,0 -0.4,0 z m 0.4,10.308 c 21.931,0 39.717,17.758 39.717,39.689 0,21.931 -17.786,39.718 -39.717,39.718 -21.931,0 -39.718,-17.787 -39.718,-39.718 0,-21.931 17.787,-39.689 39.718,-39.689 z" style="text-indent:0;text-transform:none;direction:ltr;block-progression:tb;baseline-shift:baseline;color:#292e31;enable-background:accumulate;" fill="#292e31" fill-opacity="1" fill-rule="nonzero" stroke="none" marker="none" visibility="visible" display="inline" overflow="visible"></path><path d="m -12113.029,14540.472 a 6.8406946,6.8406946 0 0 0 -6.738,6.934 l 0,17.895 -17.886,0 a 6.8406946,6.8406946 0 1 0 0,13.674 l 17.886,0 0,17.885 a 6.8417555,6.8417555 0 0 0 13.683,0 l 0,-17.885 17.886,0 a 6.8406946,6.8406946 0 1 0 0,-13.674 l -17.886,0 0,-17.895 a 6.8406946,6.8406946 0 0 0 -6.945,-6.934 z" style="text-indent:0;text-transform:none;direction:ltr;block-progression:tb;baseline-shift:baseline;color:#292e31;enable-background:accumulate;" fill="#292e31" fill-opacity="1" stroke="none" marker="none" visibility="visible" display="inline" overflow="visible"></path></g><rect width="2.881357" height="60.432514" rx="1.4406786" ry="1.4406785" x="55.894646" y="-80.216141" transform="matrix(0,1,-1,0,0,0)" style="" fill="#292e31" fill-opacity="1" fill-rule="nonzero" stroke="none"></rect><rect width="2.881357" height="10.573133" rx="1.4406785" ry="1.4406785" x="-51.326832" y="-58.775703" transform="scale(-1,-1)" style="" fill="#292e31" fill-opacity="1" fill-rule="nonzero" stroke="none"></rect><rect width="2.881357" height="10.573133" rx="1.4406785" ry="1.4406785" x="-51.326832" y="-66.467896" transform="scale(-1,-1)" style="" fill="#292e31" fill-opacity="1" fill-rule="nonzero" stroke="none"></rect><rect width="2.881357" height="10.573133" rx="1.4406785" ry="1.4406785" x="-22.664982" y="-66.467896" transform="scale(-1,-1)" style="" fill="#292e31" fill-opacity="1" fill-rule="nonzero" stroke="none"></rect><rect width="2.881357" height="10.573133" rx="1.4406785" ry="1.4406785" x="-80.216141" y="-66.467896" transform="scale(-1,-1)" style="" fill="#292e31" fill-opacity="1" fill-rule="nonzero" stroke="none"></rect></svg>