<svg xmlns="http://www.w3.org/2000/svg" xmlns:xlink="http://www.w3.org/1999/xlink" version="1.1" x="0px" y="0px" viewBox="0 0 80 80" enable-background="new 0 0 80 80" xml:space="preserve"><g><path fill="#000000" d="M58.3,67.7c-7.3-7-25.6-8.3-33.6,0l-1.4-1.4c8.8-9.1,28.3-7.7,36.4,0L58.3,67.7z"></path></g><g><g><path fill="#000000" d="M37.5,60.9l-1.9-0.5c5.7-20.6,0.5-34.9,0.5-35l1.9-0.7C38.2,25.3,43.4,39.7,37.5,60.9z"></path></g><g><path fill="#000000" d="M44.5,60.9l-1.9-0.5c5.7-20.5-2.4-35.7-2.5-35.9l1.8-1C42.2,24.2,50.4,39.6,44.5,60.9z"></path></g><g><rect x="38" y="54.5" transform="matrix(0.9864 0.1644 -0.1644 0.9864 9.682 -5.9852)" fill="#000000" width="6.1" height="2"></rect></g><g><rect x="39" y="47.5" transform="matrix(0.9864 0.1644 -0.1644 0.9864 8.5448 -6.2449)" fill="#000000" width="6.1" height="2"></rect></g><g><rect x="41" y="39.5" transform="matrix(0.1646 0.9864 -0.9864 0.1646 77.0092 -5.9211)" fill="#000000" width="2" height="6.1"></rect></g><g><rect x="40.5" y="33.3" transform="matrix(0.3715 0.9284 -0.9284 0.3715 59.5077 -15.9035)" fill="#000000" width="2" height="5.4"></rect></g><g><rect x="39.5" y="28.2" transform="matrix(0.5547 0.8321 -0.8321 0.5547 42.9962 -20.339)" fill="#000000" width="2" height="3.6"></rect></g><g><rect x="38" y="22.4" transform="matrix(0.2427 0.9701 -0.9701 0.2427 53.3044 -19.2794)" fill="#000000" width="2" height="4.1"></rect></g><g><g><path fill="#000000" d="M30.1,42.5l-1-4.3c-0.3-1.3-3-12.8,0.5-17.2c0.9-1.1,2.2-1.7,3.7-1.7c1.5,0,3.3,0.6,5.4,1.8l1.4,0.8     l-1.3,0.9c-5,3.4-7.6,15.3-7.6,15.4L30.1,42.5z M33.2,21.3c-0.9,0-1.6,0.3-2.1,1c-1.7,2.1-1.5,7.2-0.9,11.2     c1.1-3.6,3.1-8.6,6-11.3C35,21.6,34,21.3,33.2,21.3z"></path></g><g><path fill="#000000" d="M55.9,34.8l-3-4c-0.1-0.1-6.1-8.1-12-8.1c-0.7,0-1.4,0.1-2.1,0.4l-3.3,1.2l2.2-2.8c2.3-2.9,4.7-4.4,7-4.4     c6.6,0,9.8,12.3,10,12.9L55.9,34.8z M41.2,20.7c3.8,0.1,7.5,2.8,10,5.2c-1.4-3.3-3.7-6.8-6.4-6.8C43.6,19.1,42.4,19.6,41.2,20.7z     "></path></g><g><path fill="#000000" d="M40.2,26l-1.9-2.9c-1.2-1.8-3.1-2.7-5.7-2.7c-3.1,0-6.4,1.3-8.1,2l-0.2,0.1l-0.3,0     c-0.5,0-0.9-0.3-1.1-0.7c-0.2-0.4-0.1-1,0.2-1.3c2.6-2.8,7.5-7.4,11.5-7.4c3.5,0,5.4,3.2,5.6,9.4L40.2,26z M32.5,18.4     c2.1,0,3.9,0.5,5.4,1.5c-0.5-3.2-1.6-4.8-3.4-4.8c-2.3,0-5.3,2.2-7.5,4.2C28.7,18.8,30.6,18.4,32.5,18.4z"></path></g><g><path fill="#000000" d="M37.5,24.9l0.1-3.5c0.2-6.2,2.1-9.4,5.6-9.4c4,0,8.9,4.6,11.5,7.4c0.3,0.4,0.4,0.9,0.2,1.3     c-0.2,0.5-0.6,0.7-1.1,0.7h-0.2l-0.3-0.1c-1.7-0.7-5-2-8.1-2c-2.6,0-4.6,0.9-5.7,2.7L37.5,24.9z M43.2,14c-1.8,0-2.9,1.6-3.4,4.8     c1.4-1,3.2-1.5,5.4-1.5c1.9,0,3.8,0.4,5.5,0.9C48.5,16.2,45.5,14,43.2,14z"></path></g></g></g><g><path fill="#000000" d="M71,71c-2.6,0-3.9-1.2-5-2.3c-1.1-1-1.9-1.7-3.7-1.7s-2.6,0.8-3.7,1.7c-1.2,1.1-2.5,2.3-5,2.3   c-2.6,0-3.9-1.2-5-2.3c-1.1-1-1.9-1.7-3.7-1.7c-1.8,0-2.6,0.8-3.7,1.7c-1.2,1.1-2.5,2.3-5,2.3c-2.6,0-3.9-1.2-5-2.3   c-1.1-1-1.9-1.7-3.7-1.7c-1.8,0-2.6,0.8-3.7,1.7c-1.2,1.1-2.5,2.3-5,2.3c-2.6,0-3.9-1.2-5-2.3c-1.1-1-1.9-1.7-3.7-1.7v-2   c2.6,0,3.9,1.2,5,2.3c1.1,1,1.9,1.7,3.7,1.7s2.6-0.8,3.7-1.7c1.2-1.1,2.5-2.3,5-2.3s3.9,1.2,5,2.3c1.1,1,1.9,1.7,3.7,1.7   c1.8,0,2.6-0.8,3.7-1.7c1.2-1.1,2.5-2.3,5-2.3c2.6,0,3.9,1.2,5,2.3c1.1,1,1.9,1.7,3.7,1.7c1.8,0,2.6-0.8,3.7-1.7   c1.2-1.1,2.5-2.3,5-2.3c2.6,0,3.9,1.2,5,2.3c1.1,1,1.9,1.7,3.7,1.7V71z"></path></g></svg>