<svg xmlns="http://www.w3.org/2000/svg" xmlns:xlink="http://www.w3.org/1999/xlink" version="1.1" x="0px" y="0px" viewBox="0 0 32 32" enable-background="new 0 0 32 32" xml:space="preserve"><path fill-rule="evenodd" clip-rule="evenodd" fill="#000000" d="M31.827,18.702c-0.173,0.353-0.45,0.616-0.776,0.772  c-0.003,0,0,0,0,0.002L25,22.501v6.209c0,0.714-0.576,1.29-1.288,1.29c-0.353,0-0.67-0.145-0.9-0.373l-3.811-4.128l-6.479,3.241  c-0.079,0.037-0.161,0.074-0.247,0.105c-1.305,0.479-2.749-0.189-3.229-1.494c-0.003-0.012-0.01-0.012-0.012-0.021L0.075,2.644  c-0.002-0.005,0-0.005-0.002-0.012C-0.155,2,0.171,1.302,0.806,1.071C1.144,0.95,1.499,0.99,1.793,1.148L31.1,16.48  C31.902,16.903,32.231,17.886,31.827,18.702L31.827,18.702z M23,26.999v-3.821c0.023-0.019,0.035-0.035,0.019-0.042  c-0.007-0.003-0.014-0.035-0.019-0.082v-1.125l-0.012,0.008C22.993,21.565,23,21.25,23,21.25l-7.59-5.383l5.621,6.359h0.002  l0.22,0.25l0.17,0.193l0,0l0.297,0.338l-1.624,0.801L23,26.999L23,26.999z M2.693,3.89l8.449,23.28l7.788-3.896l0,0l1.192-0.596  L9,10.25l15.095,10.442l5.479-2.739L2.693,3.89L2.693,3.89z"></path></svg>