<svg xmlns="http://www.w3.org/2000/svg" xmlns:xlink="http://www.w3.org/1999/xlink" version="1.1" x="0px" y="0px" viewBox="0 0 100 100" style="enable-background:new 0 0 100 100;" xml:space="preserve"><path d="M91.7,26c-2.1-1.1-2.6-2.3-3.6-4.3c-0.6-1.1-1.2-2.1-2.2-2.7c-1.1-0.7-3.5-0.6-4.3-1.5c-0.8-1-0.1-3.2,0-4.3  c0.2-1.7-0.1-3.4-1.7-3.6c-0.3-0.1-0.6-0.1-1,0.1c-0.3,0.1-0.5,0.2-0.7,0.3c-3.2,1.6-5.7,4.7-8,7.2c-3.8,4.1-7.5,8.4-11.6,12.4  c-3.3,3.2-6.3,6-11.1,5.7c-6.7-0.4-13.2-2.3-19.8-2.5c-4.5-0.2-9.6,0.3-13.3,3.1c-3-3.3-5.3-7-5.9-11.5c-0.3-2-3.3-1.2-3.1,0.8  c0.7,5,3.4,9.2,6.7,12.8c-3.9,5-3.5,12.1-1.5,17.8c0.5,1.5,1.2,3.1,1.3,4.7c0.1,2-0.7,4.2-1.3,6.1c-1,3.1-1.8,6-1.4,9.2  c0.6,4.8,2.2,13.5,8.2,14.4c2.1,0.3,4.8-0.3,5.7-2.4c1.1-2.5-1.4-5.6-2.2-7.9c-0.7-2-1.5-4.5-0.4-6.4c0.9-1.5,2.8-2.6,4-3.7  c1.1-1,2.2-2,3-3.3c0.9-1.4,0.9-3.1,1.5-4.5c1.4-3.1,7.6-3.9,10.6-4c2.6-0.2,5.2,0.1,7.7,0.7c6.3,1.6,11.4,4.5,12.4,11.2  c0.9,5.6,0.8,13.4,4.8,17.9c2.5,2.8,10.8,4,10-1.7c-0.2-1.3-0.9-2.5-1.6-3.5c-0.6-0.9-1.8-1.6-2.3-2.5c-1.4-2.5-0.5-7-0.3-9.7  c0.2-2.1,0.2-4.4,0.9-6.4c0.6-1.5,1.6-2.8,2.5-4.1c1.5-2.2,1.9-4.4,2.2-7c0.4-3.5,0.4-7,0.7-10.5c0.2-2.9-0.4-7.2,3.6-7.1  c1.8,0,3.2,1.2,4.9,1.5c1.4,0.3,3,0,4.4-0.4c2.8-0.9,5.1-2.9,5.4-6C95.2,28,93.7,27.1,91.7,26z M73.3,46.5c-0.1,2.7-0.2,5.5-0.7,8.2  c-0.5,2.7-2.2,4.3-3.5,6.6c-1.6,3-1.7,6.4-1.9,9.7c-0.2,2.8-0.5,5.8,0.1,8.6c0.4,2,1.4,2.7,2.7,4.2c1.2,1.4,2.6,3.3-0.3,3.2  c-1.8-0.1-2.9-1.3-3.7-2.8c-3.1-5.7-1.8-12.8-4-18.7C58.9,57,46.7,54.2,38.6,55c-3.1,0.3-6.2,1-9,2.5c-2.7,1.4-3.2,2.2-3.8,5  c-1.5,6.1-9.6,7.3-8.8,14.3c0.3,2.7,1.3,5,2.4,7.4c0.6,1.2,1.8,2.5-0.6,3c-0.8,0.2-1.6-0.1-2.2-0.5c-1.3-0.8-2-2.7-2.5-4  c-1.3-3.4-2.3-7.5-1.6-11.1c0.6-3.1,2.2-6,2.6-9.2c0.4-2.9-0.7-5.5-1.7-8.1c-1.3-3.6-1.6-7.5-0.3-11.2c2.3-6.5,9.5-7.2,15.5-6.9  c6.6,0.4,13,2.2,19.6,2.5c4.3,0.2,7.4-1.9,10.5-4.7c1.4-1.2,2.7-2.5,4-3.8c2.5,4.3,6.3,7.2,10.9,9.3C73.2,42,73.4,44.7,73.3,46.5z   M89.8,33c-4.6,2.9-10.2-3.8-14.5,1c-0.6,0.6-1,1.4-1.3,2.3c-3.9-2-7.1-4.6-9.1-8.5c1.8-1.9,3.6-3.9,5.4-5.9  c1.8-1.9,3.5-3.9,5.4-5.7c0.8-0.8,1.7-1.8,2.7-2.5c0,0,0,0,0,0.1c-0.1,0.5-0.2,1-0.2,1.5c-0.1,1.2-0.1,2.5,0.5,3.6  c1,1.9,3.1,1.9,4.9,2.7c2.5,1.1,2.5,4.5,4.7,6.2c0.8,0.6,1.7,0.8,2.5,1.4c0.7,0.5,1.1,0.2,1.2,1.2C92,31.3,90.6,32.5,89.8,33z"></path></svg>