<svg xmlns="http://www.w3.org/2000/svg" xmlns:xlink="http://www.w3.org/1999/xlink" version="1.1" x="0px" y="0px" viewBox="0 0 100 100" style="enable-background:new 0 0 100 100;" xml:space="preserve"><path d="M5.2,21.2v56c0,4,3.2,7.2,7.2,7.2h75.4c4,0,7.2-3.2,7.2-7.2v-56c0-4-3.2-7.2-7.2-7.2H12.4C8.5,14,5.2,17.3,5.2,21.2z   M87.8,80.2H12.4c-1.6,0-3-1.3-3-3v-5.3c6.9-7.1,13.9-14.2,20.8-21.3c3.8,3.8,7.6,7.6,11.5,11.5c0.8,0.8,2.2,0.8,3,0  c7.4-7.6,14.8-15.1,22.2-22.7c7.9,8.2,15.9,16.5,23.8,24.7v13.2C90.8,78.9,89.4,80.2,87.8,80.2z M12.4,18.3h75.4c1.6,0,3,1.3,3,3  v36.7c-7.4-7.7-14.9-15.4-22.3-23.1c-0.8-0.8-2.2-0.8-3,0C58,42.4,50.6,50,43.2,57.5c-3.8-3.8-7.6-7.6-11.5-11.5  c-0.8-0.8-2.2-0.8-3,0c-6.4,6.6-12.9,13.2-19.3,19.8V21.2C9.5,19.6,10.8,18.3,12.4,18.3z"></path></svg>