<svg xmlns="http://www.w3.org/2000/svg" xmlns:xlink="http://www.w3.org/1999/xlink" version="1.1" x="0px" y="0px" viewBox="0 0 80 80" enable-background="new 0 0 80 80" xml:space="preserve"><g><g><path fill="#000000" d="M39.4,72h-3.2c-0.6,0-1.2-0.3-1.6-0.8c-0.4-0.5-0.5-1.1-0.4-1.7l4.5-20.7l-10.2-0.8L25,56.2    c-0.2,0.5-0.7,0.8-1.3,0.8h-4.3c-0.4,0-0.8-0.2-1-0.4c-0.3-0.3-0.4-0.7-0.4-1.1L19,41l-1-14.5c0-0.4,0.1-0.8,0.4-1.1    c0.3-0.3,0.6-0.4,1-0.4h3.3c0.5,0,1,0.3,1.2,0.7l4.6,8.2l10.2-0.9l-4.5-20.7c-0.1-0.6,0-1.2,0.4-1.7c0.4-0.5,1-0.8,1.6-0.8h3.2    c0.7,0,1.4,0.4,1.7,1l13.4,22h6.5c3.4,0,15.8,2.9,15.8,8s-12.4,8-15.8,8h-6.5L41.2,71C40.8,71.6,40.1,72,39.4,72z M27.4,45.9    l13.8,1.2l-5,22.9l3.2,0c0,0,0,0,0,0l14-23h7.7c4,0,13.8-3.2,13.8-6s-9.8-6-13.8-6h-7.7l-14-23l-3.2,0l5,22.9L27.4,36l-5-9h-2.3    L21,41l0,0.1L20.1,55h3.3L27.4,45.9z"></path></g><g><path fill="#000000" d="M65.6,43.8l-1.3-1.5c0.5-0.4,1.5-1.5,1.4-2.3c-0.1-0.5-0.6-0.8-1.1-1l0.8-1.8c1.7,0.8,2.2,1.8,2.3,2.6    C68,41.7,65.9,43.6,65.6,43.8z"></path></g></g><g><rect x="20" y="12" fill="#000000" width="11" height="2"></rect></g><g><rect x="23" y="16" fill="#000000" width="9" height="2"></rect></g><g><rect x="27" y="20" fill="#000000" width="5" height="2"></rect></g><g><rect x="20" y="69" fill="#000000" width="11" height="2"></rect></g><g><rect x="23" y="65" fill="#000000" width="9" height="2"></rect></g><g><rect x="27" y="61" fill="#000000" width="5" height="2"></rect></g><g><rect x="8" y="34" fill="#000000" width="8" height="2"></rect></g><g><rect x="8" y="46" fill="#000000" width="8" height="2"></rect></g><g><rect x="11" y="42" fill="#000000" width="4" height="2"></rect></g><g><rect x="11" y="38" fill="#000000" width="4" height="2"></rect></g></svg>