<svg xmlns:dc="http://purl.org/dc/elements/1.1/" xmlns:cc="http://creativecommons.org/ns#" xmlns:rdf="http://www.w3.org/1999/02/22-rdf-syntax-ns#" xmlns:svg="http://www.w3.org/2000/svg" xmlns="http://www.w3.org/2000/svg" xmlns:sodipodi="http://sodipodi.sourceforge.net/DTD/sodipodi-0.dtd" xmlns:inkscape="http://www.inkscape.org/namespaces/inkscape" version="1.1" x="0px" y="0px" viewBox="0 0 100 100"><g transform="translate(0,-952.36218)"><path style="text-indent:0;text-transform:none;direction:ltr;block-progression:tb;baseline-shift:baseline;color:#000000;enable-background:accumulate;" d="m 35,970.36218 c 0,0.0934 0.28125,1 0.28125,1 l -23.28125,0 c -0.69105,0 -1,0.54964 -1,1 0,0.72307 0.59277,1 1,1 l 23.9375,0 6.71875,21 -8.15625,0 -6.71875,-8.625 C 27.59451,985.50397 27.29876,985.36201 27,985.36218 l -9,0 c -0.62163,-0.006 -1.14354,0.68467 -0.96875,1.28125 l 0.21875,0.71875 -9.25,0 c -0.69033,0 -1,0.54941 -1,1 0,0.699 0.59254,1 1,1 l 9.875,0 4.0625,13.00002 -4.0625,13 -9.875,0 c -0.69949,0 -1,0.5525 -1,1 0,0.7074 0.5952,1 1,1 l 9.25,0 -0.21875,0.6875 c -0.19874,0.604 0.33299,1.3244 0.96875,1.3125 l 9,0 c 0.30385,-0.01 0.60086,-0.1616 0.78125,-0.4063 l 6.6875,-8.5937 8.1875,0 -6.71875,21 -23.9375,0 c -0.7064,0 -1,0.5567 -1,1 0,0.7291 0.55932,1 1,1 l 23.28125,0 -0.21875,0.6875 c -0.19541,0.5941 0.31214,1.3047 0.9375,1.3125 l 9,0 c 0.3416,-0.01 0.67298,-0.2041 0.84375,-0.5 l 14.6875,-24.5 21.46875,0 c 3.49205,0 6.18455,-0.6614 8.09375,-2.0313 1.9092,-1.37 2.90625,-3.4852 2.90625,-5.9687 0,-2.65117 -1.39189,-4.78243 -3.4375,-6.09377 -2.04561,-1.31134 -4.71603,-1.90625 -7.5625,-1.90625 l -21.4375,0 -14.71875,-24.53125 C 45.66537,969.54649 45.33575,969.36337 45,969.36218 l -9,0 c -0.69661,0 -1,0.57984 -1,1 z m 2.34375,1 7.125,0 14.6875,24.5 c 0.17077,0.29595 0.50215,0.49232 0.84375,0.5 l 22,0 c 2.55545,0 4.89609,0.56556 6.5,1.59375 1.60391,1.02819 2.5,2.41547 2.5,4.40627 0,1.9978 -0.65539,3.334 -2.0625,4.3437 -1.40711,1.0096 -3.69477,1.6563 -6.9375,1.6563 l -22,0 c -0.33575,10e-4 -0.66537,0.1843 -0.84375,0.4687 l -14.71875,24.5313 -7.09375,0 7.59375,-23.7188 c 0.17201,-0.5866 -0.32632,-1.2676 -0.9375,-1.2812 l -10,0 c -0.29876,-2e-4 -0.59451,0.1418 -0.78125,0.375 l -6.71875,8.625 -7.125,0 4.59375,-14.7188 c 0.0596,-0.1919 0.0596,-0.4018 0,-0.5937 l -4.59375,-14.68752 7.15625,0 6.6875,8.59375 c 0.18039,0.24462 0.4774,0.39906 0.78125,0.40625 l 10,0 c 0.62536,-0.008 1.13291,-0.7184 0.9375,-1.3125 z" fill="#000000" fill-opacity="1" stroke="none" marker="none" visibility="visible" display="inline" overflow="visible"></path></g></svg>