<svg xmlns="http://www.w3.org/2000/svg" xmlns:xlink="http://www.w3.org/1999/xlink" version="1.1" x="0px" y="0px" viewBox="0 0 100 100" style="enable-background:new 0 0 100 100;" xml:space="preserve"><path d="M77.4,18.3c2.3-2.7,5.9-3.4,9.3-3.5c2.1,0,2.1-3.3,0-3.2c-6.8,0.1-12.6,3.2-14.5,10.1c-0.8,2.9-0.8,6-0.8,9.1  c-8.1,0-16.2,0-24.4,0c0-0.9,0-1.8,0-2.8c0-3.4,0.5-7,2.8-9.7c2.3-2.7,5.9-3.4,9.3-3.5c2.1,0,2.1-3.3,0-3.2  c-6.8,0.1-12.6,3.2-14.5,10.1c-1.1,3.9-0.8,8.2-0.8,12.2c0,9.3,0,18.6,0,27.8c0,2.1,3.2,2.1,3.2,0c0-4,0-7.9,0-11.9  c8.1,0,16.3,0,24.4,0c0,4,0,7.9,0,11.9c0,2.1,3.2,2.1,3.2,0c0-8.2,0-16.4,0-24.6c0-3,0-6.1,0-9.1C74.6,24.6,75.1,21,77.4,18.3z   M47,46.6c0-3.2,0-6.3,0-9.5c0-1,0-2.1,0-3.1c8.1,0,16.3,0,24.4,0c0,4.2,0,8.4,0,12.6C63.2,46.6,55.1,46.6,47,46.6z"></path><path d="M93.4,71.8c-4-0.2-5.3-6.2-7.9-8.5c-2.7-2.4-6.6-2.3-9.2,0.2c-2.3,2.3-3.9,8.3-7.7,8.3c-3.9,0-5.4-6.4-8-8.6  c-2.9-2.5-6.9-2.1-9.4,0.6c-2.3,2.3-4.5,9.8-8.9,7.7c-3.4-1.7-4-6.8-7.3-8.9c-3.2-2.1-6.9-0.9-9.2,1.9c-2.6,3.1-5.7,11.1-10.2,5.1  c-2.6-3.5-4-7.8-9-8.1c-2.1-0.1-2.1,3.1,0,3.2c4.1,0.2,5.4,6.5,8.2,8.8c3,2.4,7,1.8,9.5-1c2.2-2.4,4.4-9.6,8.7-7.5  c3.4,1.7,4,6.8,7.3,8.9c3.3,2.2,7.1,0.8,9.4-2.1c2.1-2.6,4.9-10.1,9.2-6c2.8,2.6,3.5,7,7.3,8.6c3.4,1.5,6.7-0.3,8.7-3.1  c1.3-1.8,2.2-4.2,3.9-5.7c2.3-2,4.6-0.7,6.1,1.5c2.4,3.4,4,7.5,8.8,7.8C95.5,75.1,95.5,71.9,93.4,71.8z"></path><path d="M93.4,85.2c-4-0.2-5.3-6.2-7.9-8.5c-2.7-2.4-6.6-2.3-9.2,0.2c-2.3,2.3-3.9,8.3-7.7,8.3c-3.9,0-5.4-6.4-8-8.6  c-2.9-2.5-6.9-2.1-9.4,0.6c-2.3,2.3-4.5,9.8-8.9,7.7c-3.4-1.7-4-6.8-7.3-8.9c-3.2-2.1-6.9-0.9-9.2,1.9C23.2,81,20,89,15.5,83  c-2.6-3.5-4-7.8-9-8.1c-2.1-0.1-2.1,3.1,0,3.2c4.1,0.2,5.4,6.5,8.2,8.8c3,2.4,7,1.8,9.5-1c2.2-2.4,4.4-9.6,8.7-7.5  c3.4,1.7,4,6.8,7.3,8.9c3.3,2.2,7.1,0.8,9.4-2.1c2.1-2.6,4.9-10.1,9.2-6c2.8,2.6,3.5,7,7.3,8.6c3.4,1.5,6.7-0.3,8.7-3.1  c1.3-1.8,2.2-4.2,3.9-5.7c2.3-2,4.6-0.7,6.1,1.5c2.4,3.4,4,7.5,8.8,7.8C95.5,88.5,95.5,85.3,93.4,85.2z"></path></svg>