<svg xmlns:dc="http://purl.org/dc/elements/1.1/" xmlns:cc="http://creativecommons.org/ns#" xmlns:rdf="http://www.w3.org/1999/02/22-rdf-syntax-ns#" xmlns:svg="http://www.w3.org/2000/svg" xmlns="http://www.w3.org/2000/svg" version="1.1" viewBox="0 0 100.00001 100" xml:space="preserve" x="0px" y="0px"><path d="M 42.21875,5 C 41.797802,5 41.380121,5.1995938 41.125,5.53125 40.863503,5.8565282 40.779329,6.3105578 40.875,6.71875 L 44.46875,22.25 c 0.140316,0.612288 0.749955,1.087373 1.375,1.09375 l 0.15625,0 8,0 0.15625,0 c 0.625046,-0.0064 1.234684,-0.481462 1.375,-1.09375 L 59.125,6.71875 c 0.09567,-0.4081922 0.0115,-0.8622218 -0.25,-1.1875 C 58.613501,5.1995938 58.19582,5 57.78125,5 l -15.5625,0 z m -31.3125,6.84375 c -1.5562328,0 -2.8125,1.262645 -2.8125,2.8125 l 0,77.53125 c 0,1.556233 1.2562672,2.8125 2.8125,2.8125 l 78.1875,0 c 1.543476,0 2.8125,-1.256267 2.8125,-2.8125 l 0,-77.53125 c 0,-1.549855 -1.269024,-2.8125 -2.8125,-2.8125 l -29.03125,0 -3.21875,12.375 c -0.261499,0.631422 -0.942554,1.0625 -1.625,1.0625 -3.584438,-0.03827 -7.286126,0 -10.46875,0 -0.656933,0 -1.27549,-0.375597 -1.5625,-0.96875 l -3.21875,-12.46875 -29.0625,0 z M 50,14.40625 c 1.779464,0 3.21875,1.439287 3.21875,3.21875 0,1.779463 -1.439286,3.21875 -3.21875,3.21875 -1.779462,0 -3.21875,-1.439287 -3.21875,-3.21875 0,-1.779463 1.439288,-3.21875 3.21875,-3.21875 z m -33.53125,13.75 67.0625,0 c 1.543476,0 2.78125,1.262645 2.78125,2.8125 l 0,55.625 c 0,1.549854 -1.237774,2.8125 -2.78125,2.8125 l -67.0625,0 c -1.556233,0 -2.78125,-1.262646 -2.78125,-2.8125 l 0,-55.625 c 0,-1.549855 1.225017,-2.8125 2.78125,-2.8125 z M 49.9375,32.875 c -1.575367,-0.0064 -3.163797,0.185557 -4.65625,0.59375 -0.01913,0.0064 -0.04975,-0.0064 -0.0625,0 -1.473319,0.401815 -2.842403,1.027344 -3.84375,2.15625 -0.22323,0.248742 -0.34375,0.593089 -0.34375,0.9375 L 41.0625,43.25 c 0,0.261497 0.207252,0.505737 0.46875,0.53125 0.25512,0.03189 0.262094,-0.08735 0.59375,-0.40625 1.50521,-1.435051 2.393427,-1.573952 3.34375,-1.9375 0.0064,-0.0064 0.04974,0 0.0625,0 1.422295,-0.395436 2.944407,-0.600127 4.46875,-0.59375 1.517964,-0.0064 3.052833,0.198314 4.46875,0.59375 0.01276,0 0.01849,-0.0064 0.03125,0 0.943944,0.363548 1.869792,0.502449 3.375,1.9375 0.325279,0.318899 0.332252,0.438139 0.59375,0.40625 0.261498,-0.02551 0.46875,-0.269753 0.46875,-0.53125 l 0.03125,-6.6875 c 0,-0.344411 -0.120519,-0.688758 -0.34375,-0.9375 -1.001346,-1.128906 -2.376809,-1.754435 -3.84375,-2.15625 -0.01913,-0.0064 -0.04336,0.0064 -0.0625,0 C 53.232676,33.060557 51.631488,32.868622 50.0625,32.875 l -0.03125,0 -0.03125,0 -0.03125,0 -0.03125,0 z M 50,33.6875 c 1.722061,0 3.125,1.371689 3.125,3.09375 0,1.728439 -1.402939,3.125 -3.125,3.125 -1.722061,0 -3.125,-1.396561 -3.125,-3.125 0,-1.722061 1.402939,-3.09375 3.125,-3.09375 z m 0,0.625 c -0.280633,0.0064 -0.53125,0.27549 -0.53125,0.5625 l 0,1.375 -1.40625,0 C 47.77549,36.23724 47.5,36.525489 47.5,36.8125 c 0,0.28701 0.27549,0.544006 0.5625,0.53125 l 1.40625,0 0,1.40625 c 0.0064,0.280631 0.250619,0.53125 0.53125,0.53125 0.280633,0 0.53125,-0.250619 0.53125,-0.53125 l 0,-1.40625 1.40625,0 C 52.224509,37.35651 52.5,37.09951 52.5,36.8125 52.5,36.525489 52.224509,36.237243 51.9375,36.25 l -1.40625,0 0,-1.375 C 50.53765,34.58799 50.287009,34.306121 50,34.3125 z m 0,7.21875 c -3.086953,0 -5.752427,0.658677 -7.5,2.40625 l -0.6875,0.75 c -0.0064,0.350791 -0.03125,0.875 -0.03125,0.875 -0.05102,0.02551 -0.111604,0.02424 -0.15625,0.0625 -0.216853,0.146693 -0.348207,0.376897 -0.4375,0.59375 C 41.015294,46.66521 41,47.156206 41,47.78125 c 0,1.964426 1.127471,3.840483 2.25,4.9375 0.880165,3.246403 3.42706,5.65625 6.75,5.65625 3.316562,0 5.869835,-2.409847 6.75,-5.65625 1.128906,-1.097017 2.25,-2.973074 2.25,-4.9375 0,-0.625044 -0.01529,-1.11604 -0.1875,-1.5625 -0.08929,-0.216853 -0.251899,-0.447057 -0.46875,-0.59375 -0.04465,-0.03827 -0.105225,-0.03699 -0.15625,-0.0625 0,0 0,-0.524209 0,-0.875 L 57.5,43.9375 C 55.752427,42.189927 53.086955,41.53125 50,41.53125 z m -6.75,14.0625 c -0.522996,0.204097 -6.448225,2.483978 -8.09375,3.59375 -1.722061,1.160796 -2.800316,2.478812 -3.71875,4.46875 -0.912055,1.989937 -1.46875,4.29513 -1.46875,6.40625 0,0.248742 0.139013,0.491701 0.375,0.59375 5.408545,2.417262 15.351098,2.6875 19.65625,2.6875 4.305154,0 14.247705,-0.270238 19.65625,-2.6875 0.229608,-0.102049 0.375,-0.345008 0.375,-0.59375 0,-2.11112 -0.550318,-4.416313 -1.46875,-6.40625 -0.918432,-1.989938 -1.996689,-3.307954 -3.71875,-4.46875 -1.645525,-1.103395 -7.557997,-3.383276 -8.09375,-3.59375 -0.912054,3.986253 -2.142744,7.87094 -3.75,11.1875 -0.593156,1.186311 -1.239759,2.400445 -1.75,3.3125 -0.255119,0.452838 -0.452794,0.850746 -0.625,1.125 -0.08929,0.133939 -0.18622,0.223208 -0.25,0.3125 -0.03827,0.03827 -0.05548,0.08674 -0.09375,0.125 -0.01913,0.01913 -0.03061,0.03699 -0.0625,0.0625 -0.03827,0.02551 -0.09757,0.0625 -0.21875,0.0625 -0.121182,0 -0.18686,-0.03699 -0.21875,-0.0625 -0.03827,-0.02551 -0.04336,-0.04337 -0.0625,-0.0625 -0.03827,-0.03827 -0.06186,-0.08674 -0.09375,-0.125 -0.06378,-0.08929 -0.160707,-0.178561 -0.25,-0.3125 -0.172206,-0.274254 -0.40113,-0.672162 -0.65625,-1.125 C 48.208511,69.181695 47.593155,67.967561 47,66.78125 45.399121,63.46469 44.155678,59.580003 43.25,55.59375 z M 48.375,59.75 c -0.184962,0 -0.350768,0.190038 -0.3125,0.375 l 0.5,2.46875 c 0.02551,0.146694 0.172183,0.25 0.3125,0.25 l 2.25,0 c 0.140315,0 0.286988,-0.103306 0.3125,-0.25 l 0.5,-2.46875 C 51.97577,59.940038 51.809962,59.75 51.625,59.75 l -3.25,0 z m 0.53125,3.75 c -0.133938,0.01276 -0.255738,0.122441 -0.28125,0.25 l -0.59375,2.625 c 0.593153,1.262845 1.241657,2.494812 1.96875,3.6875 0.727092,-1.186311 1.369218,-2.424655 1.96875,-3.6875 L 51.375,63.75 C 51.34311,63.616063 51.202817,63.5 51.0625,63.5 l -2.125,0 -0.03125,0 z M 23,78.71875 c -1.160797,0 -2.09375,0.932953 -2.09375,2.09375 0,1.160795 0.932953,2.09375 2.09375,2.09375 l 54,0 c 1.160797,0 2.09375,-0.932955 2.09375,-2.09375 0,-1.160797 -0.932953,-2.09375 -2.09375,-2.09375 l -54,0 z" transform="translate(0,-5e-6)" style="" fill="#009FE3" fill-opacity="1" fill-rule="nonzero" stroke="none"></path></svg>