<svg xmlns:dc="http://purl.org/dc/elements/1.1/" xmlns:cc="http://creativecommons.org/ns#" xmlns:rdf="http://www.w3.org/1999/02/22-rdf-syntax-ns#" xmlns:svg="http://www.w3.org/2000/svg" xmlns="http://www.w3.org/2000/svg" xmlns:sodipodi="http://sodipodi.sourceforge.net/DTD/sodipodi-0.dtd" xmlns:inkscape="http://www.inkscape.org/namespaces/inkscape" version="1.1" x="0px" y="0px" viewBox="0 0 100 100"><g transform="translate(0,-952.36218)"><path style="text-indent:0;text-transform:none;direction:ltr;block-progression:tb;baseline-shift:baseline;color:#000000;enable-background:accumulate;" d="m 50.000003,961.36217 c 0.14151,0 0.21257,0.0213 0.3125,0.0312 l 19,6 c 0.40275,0.13245 0.6954,0.54485 0.6875,0.96875 l 0,8.40625 8.5,4.71875 c 0.30489,0.17603 0.5031,0.52295 0.5,0.875 l 0,17.59375 7.4375,3.49993 c 0.42674,0.202 0.66509,0.7348 0.53125,1.1875 0,0 -10.16662,34.4627 -10.1875,34.5314 1.78218,1.3867 3.92447,2.1875 6.21875,2.1875 3.34557,0 6.32362,-1.8136 8.15625,-4.5625 0.18117,-0.2794 0.51274,-0.4275 0.84375,-0.4375 0.70642,0 1,0.5328 1,1 10e-4,0.1871 -0.0539,0.3732 -0.15625,0.5311 -2.16737,3.2511 -5.77851,5.4689 -9.84375,5.4689 -4.68285,0 -8.69849,-2.8559 -11,-6.9689 -2.30151,4.113 -6.31715,6.9689 -11,6.9689 -4.68285,0 -8.69849,-2.8559 -11,-6.9689 -2.30151,4.113 -6.31715,6.9689 -11,6.9689 -4.68285,0 -8.69849,-2.8559 -11,-6.9689 -2.30151,4.113 -6.31715,6.9689 -11,6.9689 -4.06524,0 -7.6763801,-2.2177 -9.8437501,-5.4689 -0.10233,-0.1579 -0.15745,-0.3441 -0.15625,-0.5311 0,-0.4672 0.29358,-1 1,-1 0.33101,0.01 0.66258,0.1581 0.84375,0.4375 1.8326301,2.7489 4.8106801,4.5625 8.1562501,4.5625 2.29429,0 4.43657,-0.8009 6.21875,-2.1875 -0.0315,-0.099 -10.1875,-34.5314 -10.1875,-34.5314 -0.13384,-0.4527 0.10451,-0.9855 0.53125,-1.1875 l 7.4375,-3.49993 0,-17.59375 c -0.003,-0.35205 0.19511,-0.69897 0.5,-0.875 l 8.5,-4.71875 0,-8.40625 c -0.008,-0.4239 0.28475,-0.8363 0.6875,-0.96875 l 19,-6 c 0.0999,-0.01 0.17099,-0.0312 0.3125,-0.0312 z m 0,2.03125 -18,5.6875 0,8.28125 c 0.003,0.35205 -0.19511,0.69897 -0.5,0.875 l -8.5,4.71875 0,16.03125 26.5625,-12.53125 c 0.12162,-0.0573 0.28836,-0.0937 0.4375,-0.0937 0.14915,0 0.28006,0.0195 0.4375,0.0937 l 26.5625,12.53125 0,-16.03125 -8.5,-4.71875 c -0.30489,-0.17603 -0.5031,-0.52295 -0.5,-0.875 l 0,-8.28125 z m 8,11.96875 c 2.1973,0 4,1.80271 4,4 0,2.19729 -1.8027,4 -4,4 -2.19729,0 -4,-1.80271 -4,-4 0,-2.19729 1.80271,-4 4,-4 z m -16,0 c 2.1973,0 4,1.80271 4,4 0,2.19729 -1.8027,4 -4,4 -2.19729,0 -4,-1.80271 -4,-4 0,-2.19729 1.80271,-4 4,-4 z m 16,2 c -1.11641,0 -2,0.88359 -2,2 0,1.11641 0.88359,2 2,2 1.11642,0 2,-0.88359 2,-2 0,-1.11641 -0.88358,-2 -2,-2 z m -16,0 c -1.11641,0 -2,0.88359 -2,2 0,1.11641 0.88359,2 2,2 1.11642,0 2,-0.88359 2,-2 0,-1.11641 -0.88358,-2 -2,-2 z m 8,11.125 -34.78125,16.40623 2.125,7.2813 32.34375,-10.7813 c 0.18278,-0.061 0.41323,-0.071 0.625,0 l 32.34375,10.7813 2.125,-7.2813 z m 0,14.90623 -32.0625,10.6875 6.90625,23.5625 c 0.91628,-1.0493 1.66667,-2.2828 2.21875,-3.6562 0.11618,-0.3099 0.39577,-0.553 0.71875,-0.625 0.46637,-0.105 0.98863,0.1773 1.15625,0.625 1.76665,4.3951 5.64262,7.375 10.0625,7.375 4.41988,0 8.29585,-2.9799 10.0625,-7.375 0.13963,-0.3814 0.5314,-0.6556 0.9375,-0.6563 0.4061,7e-4 0.79788,0.2749 0.9375,0.6563 1.76665,4.3951 5.64262,7.375 10.0625,7.375 4.41988,0 8.29585,-2.9799 10.0625,-7.375 0.16762,-0.4477 0.68989,-0.73 1.15625,-0.625 0.32298,0.072 0.60257,0.3151 0.71875,0.625 0.55208,1.3734 1.30247,2.6069 2.21875,3.6562 l 6.90625,-23.5625 z" fill="#000000" fill-opacity="1" stroke="none" marker="none" visibility="visible" display="inline" overflow="visible"></path></g></svg>