<svg xmlns="http://www.w3.org/2000/svg" xmlns:xlink="http://www.w3.org/1999/xlink" version="1.0" x="0px" y="0px" viewBox="0 0 100 100" enable-background="new 0 0 100 100" xml:space="preserve"><path fill="#009FE3" d="M12.8056355,43.6520729v42.1981239h4.2253628c0-7.0585861,5.7417355-12.8003159,12.8003197-12.8003159  c7.0585136,0,12.7998772,5.7417297,12.7998772,12.8003159h18.005127c0-7.0585861,5.7451324-12.8003159,12.799881-12.8003159  c7.0585785,0,12.8040848,5.7417297,12.8040848,12.8003159h3.2497559V64.6967392L69.9651489,43.6520729H12.8056355z   M25.0541172,64.7528381V48.4254379h41.9802246l15.29953,16.3274002H25.0541172z"></path><path fill="#009FE3" d="M29.8313179,76.9525223c-4.9158974,0-8.8938351,3.9890137-8.8938351,8.8976746  c0,4.9120636,3.9779377,8.8933945,8.8938351,8.8933945c4.9120598,0,8.8972321-3.9813309,8.8972321-8.8933945  C38.72855,80.9415359,34.7433777,76.9525223,29.8313179,76.9525223z"></path><path fill="#009FE3" d="M73.436203,76.9525223c-4.9159012,0-8.8934708,3.9890137-8.8934708,8.8976746  c0,4.9120636,3.9775696,8.8933945,8.8934708,8.8933945c4.9124222,0,8.8976669-3.9813309,8.8976669-8.8933945  C82.3338699,80.9415359,78.3486252,76.9525223,73.436203,76.9525223z"></path><path fill="#009FE3" d="M52.6920395,38.9163589l38.5463715-11.9517498c-3.6735229-11.85077-15.5354385-6.7212524-15.5354385-6.7212524  l-11.4492188,3.5502548L36.1055527,5.2143555l-8.5672073,2.656805l17.1044426,22.0126648l-10.736393,3.328516L19.6201897,22.9117508  l-8.5595293,2.649128L21.080019,38.9163589H52.6920395z"></path></svg>