<?xml version="1.0" standalone="yes"?>
<svg width="512" height="512">
<path style="fill:#000000; stroke:none;" d="M353 0L352.5 1.5L352.167 2.05554L351.722 3.05554L350.611 5L349.389 7L348.25 9L347.75 10L346.611 12L345.389 14L344.25 16L343.75 17L342.611 19L341.389 21L340.194 23L339.611 24L338.389 26L337.833 27L337.25 28L336.778 29L335.778 31L335.222 32L334.778 33L334.222 34L333.222 36L332.778 37L332.222 38L331.778 39L331.222 40L330.222 42L329.778 43L329.222 44L328.75 45L327.611 47L326.389 49L325.25 51L324.222 53L323.778 54L323.222 55L322.778 56L321.778 58L321.222 59L320.25 61L319.833 62L319.389 63L318.611 65L318.167 66L317.75 67L317.222 68L316.222 70L315.778 71L315.222 72L314.778 73L314.222 74L313.25 76L312.833 77L312.389 78L311.611 80L311.167 81L310.75 82L310.222 83L309.222 85L308.778 86L308.222 87L307.25 89L306.833 90L306.389 91L305.611 93L305.194 94L304.389 96L303.611 98L302.75 100L302.25 101L301.389 103L300.611 105L299.75 107L299.25 108L298.389 110L297.611 112L296.75 114L296.25 115L295.389 117L294.611 119L293.806 121L293.389 122L292.611 124L292.194 125L291.389 127L290.611 129L289.806 131L289.389 132L288.667 134L288.333 135L287.972 136L287.611 137L287.194 138L286.389 140L285.611 142L285.194 143L284.389 145L283.611 147L282.806 149L282.389 150L282.028 151L281.667 152L281.333 153L280.667 155L280.333 156L279.611 158L278.806 160L278.389 161L277.667 163L277 165L275.667 169L275.333 170L274.611 172L274.194 173L273.389 175L272.667 177L272 179L270.667 183L266.333 196L262 209L260.667 213L260 215L259.389 217L258.861 219L258.611 220L258.306 221L258 222L257.333 224L257 225L256.389 227L255.861 229L255.611 230L255.306 231L255 232L254.667 233L254 235L253.694 236L253.389 237L253.139 238L252.611 240L252 242L251.667 243L251 245L250.694 246L250.389 247L249.861 249L249.611 250L249.306 251L248.694 253L248.389 254L247.861 256L247.639 257L247.361 258L247.139 259L246.611 261L246.306 262L245.694 264L245.389 265L245.139 266L244.611 268L244.306 269L243.694 271L243.389 272L242.861 274L242.639 275L242.361 276L241.861 278L241.639 279L241.361 280L240.861 282L240.639 283L240.361 284L240.139 285L239.861 286L239.639 287L239.139 289L238.861 290L238.639 291L238.361 292L238.139 293L237.639 295L237.361 296L237.139 297L236.611 299L236.306 300L236 301L235.417 303L235 305L234.806 306L234.611 307L234.139 309L233.861 310L233.361 312L233.139 313L232.861 314L232.389 316L232.194 317L231.806 319L231.611 320L231.139 322L230.861 323L230.639 324L230.139 326L229.861 327L229.389 329L229.194 330L228.806 332L228.611 333L228.389 334L228.194 335L227.806 337L227.611 338L227.389 339L227 341L226.611 343L226.139 345L225.861 346L225.389 348L225.194 349L224.806 351L224.389 353L224.056 355L223.944 356L223.611 358L223.389 359L223.194 360L222.806 362L222.611 363L222.389 364L222.194 365L221.806 367L221.389 369L221.056 371L220.778 373L220.389 375L220.083 377L219.917 379L219.778 380L219.389 382L219.222 383L218.944 385L218.611 387L218.389 388L218.083 390L218.028 391L217.917 393L217.611 395L217.389 396L217.083 398L217.028 399L217 401L216.972 403L216.917 404L216.611 406L216.389 407L216.083 409L216.028 410L216 412L216 413L216.028 415L216.083 416L216.389 418L216.611 419L216.944 421L217.222 423L217.417 424L218 426L218.333 427L218.667 428L219.417 430L219.889 431L220.417 432L221.611 434L222.833 436L223.472 437L225 438.972L225.806 439.917L227.389 441.611L228.222 442.389L230.028 444.056L231 444.944L233 446.528L235 447.75L236 448.222L237 448.778L238 449.222L239 449.75L241 450.611L242 450.972L244 451.667L246 452.306L247 452.583L249 452.917L251 453L252 453L254 453L257 453L259 453L260 453L261 453L263 452.917L265 452.583L266 452.306L268 451.667L270 450.972L271 450.611L273 449.75L274 449.222L275 448.778L276 448.222L277 447.75L279 446.528L281 444.944L281.972 444.056L283.778 442.389L284.611 441.611L286.194 439.917L287 438.972L288.528 437L289.167 436L290.389 434L291.583 432L292.111 431L292.583 430L293.333 428L293.667 427L294.306 425L294.583 424L294.944 422L295.056 421L295.222 420L295.389 419L295.611 418L295.917 416L295.972 415L296 413L296 412L296 409L296 406L296 404L295.972 402L295.917 401L295.611 399L295.389 398L295.083 396L295.028 395L295 393L295 392L295 389L295 388L294.972 386L294.917 385L294.611 383L294.389 382L294.083 380L294.028 379L294 377L293.917 375L293.778 374L293.611 373L293.222 371L293.028 369L292.972 367L292.917 366L292.611 364L292.389 363L292.083 361L292.028 360L291.972 358L291.917 357L291.611 355L291.389 354L291.083 352L291.028 351L291 349L290.972 348L290.917 347L290.611 345L290.389 344L290.083 342L290.028 341L289.972 339L289.917 338L289.611 336L289.389 335L289.083 333L289 331L289 329L289 328L288.972 326L288.917 325L288.611 323L288.389 322L288.083 320L288.028 319L288 318L288 316L288 309L288 307L288 306L288 305L287.917 303L287.778 302L287.472 300L287.444 299L287.472 298L287.639 297L287.917 295L288 293L288 291L288 288L288 279L288 276L288 275L288.028 273L288.083 272L288.389 270L288.611 269L288.917 267L288.972 266L289 264L289 263L289 261L289.083 259L289.389 257L289.611 256L289.917 254L289.972 253L290.028 251L290.083 250L290.389 248L290.611 247L290.917 245L290.972 244L291.028 242L291.083 241L291.389 239L291.778 237L291.917 236L292.083 234L292.222 233L292.611 231L292.944 229L293.056 228L293.389 226L293.611 225L293.944 223L294.056 222L294.389 220L294.611 219L294.944 217L295.056 216L295.222 215L295.389 214L295.778 212L295.917 211L296.083 209L296.389 207L296.806 205L297.194 203L297.389 202L297.861 200L298.139 199L298.611 197L298.806 196L299.194 194L299.611 192L299.806 191L300.194 189L300.389 188L300.611 187L300.806 186L301.194 184L301.389 183L301.611 182L301.806 181L302.194 179L302.389 178L302.861 176L303.139 175L303.361 174L303.639 173L303.861 172L304.139 171L304.361 170L304.639 169L304.861 168L305.139 167L305.639 165L305.861 164L306.139 163L306.611 161L306.806 160L307.194 158L307.389 157L307.861 155L308.139 154L308.361 153L308.639 152L308.861 151L309.361 149L309.639 148L309.861 147L310.361 145L310.639 144L310.861 143L311.139 142L311.361 141L311.639 140L311.861 139L312.389 137L312.694 136L313.306 134L313.611 133L314.139 131L314.389 130L314.694 129L315.306 127L315.611 126L315.861 125L316.389 123L316.694 122L317.306 120L317.611 119L317.861 118L318.361 116L318.639 115L318.861 114L319.389 112L319.694 111L320.306 109L320.611 108L321.139 106L321.389 105L321.694 104L322.306 102L322.611 101L322.861 100L323.389 98L324 96L324.667 94L325.667 91L326 90L326.611 88L327.139 86L327.389 85L328 83L328.333 82L329.333 79L330 77L330.611 75L330.861 74L331.389 72L332 70L332.667 68L334.333 63L335 61L335.611 59L335.861 58L336.389 56L337 54L337.667 52L338.667 49L342.333 38L345.333 29L346.333 26L346.667 25L347.028 24L347.389 23L348.194 21L348.611 20L349.333 18L349.667 17L350.333 15L352 10L353 7L353.667 5L354.306 3.05554L354.583 2.05554L354.75 1.5L355 0L353 0M0 315L0 512L512 512L512 315L382 315L358 315L353 315L351 315L349 315L347 315.083L345 315.389L344 315.639L342 316.139L341 316.389L340 316.694L338 317.389L336 318.25L335 318.778L333 319.778L332 320.25L330 321.444L328 322.861L327 323.639L326 324.389L324 326.083L322.028 328L321.083 329L319.389 331L318.639 332L317.861 333L316.444 335L315.25 337L314.778 338L313.778 340L313.25 341L312.861 342L312.444 343L312.167 344L311.861 345L311.639 346L311.139 348L310.861 349L310.639 350L310.389 351L310.083 353L310.028 354L310 356L310 357L310 360L310 362L310 363L310.028 365L310.083 366L310.389 368L310.778 370L310.917 371L311.083 373L311.222 374L311.611 376L311.917 378L312.083 380L312.222 381L312.611 383L312.917 385L312.972 386L313.028 388L313.083 389L313.389 391L313.611 392L313.917 394L313.972 395L314 397L314 398L314 403L314 404L314.028 406L314.083 407L314.306 409L314.389 410L314.389 411L314.194 413L314.028 415L314 416L314 418L313.917 420L313.778 421L313.361 423L313.139 424L312.861 425L312.639 426L312.361 427L312.139 428L311.611 430L310.972 432L310.167 434L309.75 435L309.25 436L308.389 438L308 439L307.111 441L306.583 442L305.333 444L304.667 445L304.028 446L302.806 448L302.167 449L301.528 450L299.917 452L298.972 453L297 455L296 456L294 458L293 458.972L291 460.778L290 461.583L288 463L287 463.667L285 464.972L284 465.611L282 466.75L281 467.222L279 468.167L278 468.611L276 469.333L274 470L272 470.611L271 470.861L269 471.361L268 471.611L266 471.917L264 472.083L263 472.222L261 472.611L259 472.917L258 472.972L256 473L255 473L253 472.917L251 472.611L249 472.222L248 472.083L246 471.917L244 471.611L243 471.361L242 471.139L240 470.611L238 469.972L237 469.611L236 469.194L234 468.389L232 467.611L231 467.167L230 466.722L228 465.611L226 464.333L224 463L223 462.306L221 460.861L220 460.139L219 459.361L218 458.611L216 456.917L214.083 455L212.389 453L210.806 451L209.194 449L208.417 448L207.028 446L206.389 445L205.25 443L204.778 442L203.778 440L203.25 439L202.833 438L202.389 437L201.611 435L200.833 433L200.444 432L200.167 431L199.861 430L199.639 429L199.139 427L198.639 425L198.389 424L198.083 422L198.028 421L198 419L197.917 417L197.639 415L197.472 414L197.472 412L197.639 411L197.917 409L197.972 408L198 406L198 405L198 401L198.028 399L198.083 398L198.389 396L198.611 395L198.917 393L198.972 392L199.083 390L199.222 389L199.611 387L199.778 386L199.944 385L200.056 384L200.389 382L200.639 381L200.861 380L201.389 378L201.694 377L202.306 375L202.611 374L203.139 372L203.361 371L203.611 370L203.806 369L204.194 367L204.389 366L204.611 365L204.917 363L204.972 362L205 360L205 359L205 358L204.917 356L204.778 355L204.611 354L204.194 352L203.806 350L203.611 349L203.139 347L202.833 346L202.556 345L201.75 343L201.222 342L200.778 341L200.222 340L199.222 338L198.75 337L197.556 335L196.833 334L195.361 332L194.611 331L192.917 329L191 327.083L189 325.389L188 324.639L186 323.167L185 322.444L183 321.194L182 320.639L181 320.056L179 319.056L178 318.639L177 318.194L176 317.806L174 317.028L172 316.389L171 316.139L169 315.639L168 315.389L166 315.083L164 315L162 315L160 315L155 315L131 315L0 315z"/>
</svg>
