<svg xmlns:dc="http://purl.org/dc/elements/1.1/" xmlns:cc="http://creativecommons.org/ns#" xmlns:rdf="http://www.w3.org/1999/02/22-rdf-syntax-ns#" xmlns:svg="http://www.w3.org/2000/svg" xmlns="http://www.w3.org/2000/svg" version="1.1" viewBox="0 0 100.00001 100" xml:space="preserve" x="0px" y="0px"><path d="m 29.03125,5 c -1.11438,0 -2.0625,0.9481206 -2.0625,2.0625 l 0,5.5 c 0,1.114379 0.94812,2.0625 2.0625,2.0625 1.114379,0 2.0625,-0.948121 2.0625,-2.0625 l 0,-5.5 C 31.09375,5.9481206 30.145629,5 29.03125,5 z M 52.8125,5 c -1.114379,0 -2.03125,0.9481206 -2.03125,2.0625 l 0,5.5 c 0,1.114379 0.916871,2.0625 2.03125,2.0625 1.11438,0 2.0625,-0.948121 2.0625,-2.0625 l 0,-5.5 C 54.875,5.9481206 53.92688,5 52.8125,5 z m 3.5,3.40625 c -0.02286,0.9541794 0.05548,1.917221 0.0625,2.875 1.337939,0.15354 2.9715,0.584661 4.3125,1.4375 1.928519,1.22634 3.38223,3.153682 3.28125,6.875 -0.50868,18.75401 -6.377193,26.997721 -11.90625,30.75 -5.529056,3.752098 -11.125,3.0625 -11.125,3.0625 -0.10638,-0.0144 -5.626653,0.689598 -11.15625,-3.0625 -5.529056,-3.752459 -11.397571,-11.99599 -11.90625,-30.75 -0.10098,-3.721318 1.383801,-5.64866 3.3125,-6.875 1.33902,-0.851579 2.945831,-1.28198 4.28125,-1.4375 0.0126,-0.92934 0.10491,-1.8594305 0.09375,-2.71875 -0.0126,-0.04662 -0.02027,-0.07784 -0.03125,-0.125 -1.790999,0.1387799 -3.925601,0.6664102 -5.875,1.90625 -2.607119,1.657799 -4.7492,4.765452 -4.625,9.34375 0.52488,19.33415 6.816224,28.676222 13.1875,33 4.561838,3.095533 9.060022,3.592105 11.28125,3.625 0.06066,9.37892 1.704865,18.024047 4.46875,24.78125 2.817179,6.886436 6.782733,11.941091 11.90625,13.46875 2.834819,0.84546 5.752971,0.403169 8.28125,-1.03125 2.528099,-1.43442 4.720241,-3.790772 6.625,-6.84375 3.463019,-5.549937 5.933061,-13.458585 6.875,-22.75 -0.981899,0.07254 -1.95387,-0.02097 -2.90625,-0.28125 -0.916019,9.005755 -3.342621,16.595373 -6.5,21.65625 -1.735019,2.780999 -3.682261,4.77286 -5.625,5.875 -1.942739,1.102139 -3.808131,1.38803 -5.84375,0.78125 -3.671638,-1.094939 -7.409661,-5.358173 -10.0625,-11.84375 -2.604975,-6.367696 -4.192497,-14.746761 -4.25,-23.84375 2.258759,-0.0472 6.69962,-0.548315 11.1875,-3.59375 6.371456,-4.323778 12.63173,-13.66585 13.15625,-33 0.1242,-4.578298 -2.017881,-7.685951 -4.625,-9.34375 -1.955519,-1.2436198 -4.080761,-1.8010601 -5.875,-1.9375 z m 20.84375,38.5625 c -4.292998,0 -7.78125,3.488252 -7.78125,7.78125 0,4.292998 3.488252,7.8125 7.78125,7.8125 4.292818,0 7.8125,-3.519502 7.8125,-7.8125 0,-4.292998 -3.519682,-7.78125 -7.8125,-7.78125 z m 0,2.875 c 2.736539,0 4.9375,2.169711 4.9375,4.90625 0,2.736359 -2.200961,4.9375 -4.9375,4.9375 -2.736358,0 -4.90625,-2.201141 -4.90625,-4.9375 0,-2.736539 2.169892,-4.90625 4.90625,-4.90625 z" transform="translate(0,-5e-6)" style="text-indent:0;text-transform:none;direction:ltr;block-progression:tb;baseline-shift:baseline;color:#000000;enable-background:accumulate;" fill="#000000" fill-opacity="1" stroke="none" marker="none" visibility="visible" display="inline" overflow="visible"></path></svg>