<svg xmlns="http://www.w3.org/2000/svg" xmlns:xlink="http://www.w3.org/1999/xlink" version="1.1" x="0px" y="0px" viewBox="0 0 100 100" enable-background="new 0 0 100 100" xml:space="preserve"><g><g><path d="M89.817,89.277c-0.811-0.496-1.883-0.659-2.817-0.912c-0.026-2.919-0.259-3.296-2.863-4.271    c-5.198-1.947-10.436-3.827-15.585-5.904c-2.767-1.119-5.233-0.84-7.738,0.588c-3.049,1.737-6.182,3.324-9.193,5.122    c-2.393,1.43-4.563,1.372-6.983-0.025c-4.155-2.396-8.326-4.767-12.497-7.134c-0.853-0.478-1.717-0.963-2.563-1.437l-1.547-0.865    c-0.217-0.124-0.414-0.251-0.609-0.381c-4.05-2.291-8.099-4.58-12.144-6.875c-0.571-0.323-1.138-0.671-1.747-0.913    c-1.222-0.483-2.597-0.008-3.247,1.056c-0.66,1.083-0.495,2.55,0.458,3.413c0.426,0.386,0.956,0.669,1.46,0.959    c2.35,1.343,4.71,2.661,7.055,4.008c0.456,0.262,0.855,0.619,1.025,0.745c-0.975,1.193-1.93,2.167-2.655,3.294    c-1.546,2.395-3.022,4.836-4.431,7.316c-0.613,1.076-1.334,1.63-2.607,1.522c-0.942-0.082-1.912-0.072-2.846,0.061    c-1.242,0.178-1.711,1.134-1.49,2.386c0.061,0.35,0.202,1.215,0.308,1.215c27.826,0,55.652,0,83.481,0    C90.207,90.721,90.954,89.969,89.817,89.277z M40.785,87.675c-7.84,0-15.679,0-23.525,0c0.284,0,4.055-7.656,5.976-10.076    c5.863,3.321,11.747,6.47,17.634,9.806C40.843,87.557,40.814,87.675,40.785,87.675z M79.379,87.675c-7.914,0-15.824,0-24.046,0    c0.45,0,0.688-0.364,1.005-0.541c1.973-1.117,3.956-2.036,5.946-3.115c2.173-1.172,4.356-1.321,6.718-0.275    c2.938,1.299,5.966,2.438,8.954,3.624c0.513,0.207,1.017,0.086,1.528,0.3C79.448,87.785,79.414,87.675,79.379,87.675z"></path><path d="M26.123,64.161c0.139-2.504-1.838-4.653-4.384-4.758c-2.412-0.098-4.516,1.822-4.655,4.252    c-0.149,2.568,1.734,4.724,4.255,4.87C23.838,68.674,25.982,66.718,26.123,64.161z"></path><path d="M50.871,7.719c-23.373,0-42.39,19.013-42.39,42.389c0,0.891,0.521,1.696,1.327,2.07c0.809,0.378,1.766,0.244,2.441-0.334    c0.04-0.034,4.201-3.52,9.115-3.52c2.776,0,5.329,1.143,7.582,3.397c0.434,0.43,1.025,0.74,1.632,0.669    c0.611-0.005,1.196-0.254,1.624-0.692c0.038-0.038,4.043-3.884,8.956-3.884c2.621,0,4.635,1.114,7.683,3.284v21.883    c0,0.078,0.499,0.13,0.808,0.13c0.67,0,1.446-0.185,2.246-0.565c0.481-0.225,1.514-0.419,1.514-0.634V51.101    c1.524-2.17,4.808-3.284,7.429-3.284c4.939,0,8.732,3.85,8.766,3.883c0.426,0.439,0.977,0.687,1.59,0.693    c0.581,0.036,1.185-0.238,1.617-0.669c2.252-2.254,4.798-3.398,7.575-3.398c4.892,0,9.03,3.454,9.11,3.52    c0.421,0.36,0.95,0.548,1.482,0.548c0.321,0,0.646-0.07,0.951-0.21c0.812-0.373,1.331-1.183,1.331-2.075    C93.261,26.732,74.247,7.719,50.871,7.719z M32.595,49.601c0-1.399,0.05-2.547,0.129-3.858c0.022-0.013,0.043-0.024,0.063-0.037    C32.696,47.033,32.595,48.19,32.595,49.601z M48.842,19.141v26.264c-3.048-1.431-5.047-2.156-7.683-2.156    c-3.263,0-6.138,0.888-8.246,2.093c1.104-16.044,6.847-29.142,15.929-31.25V19.141z M50.935,9.211    c-3.892,0-7.43,1.666-10.604,4.618c-0.017,0.005-0.031,0.007-0.048,0.012c-6.521,6.07-11.158,17.599-12.033,31.425    c-0.03-0.015-0.055-0.032-0.081-0.047c-2.112-1.136-4.389-1.593-6.804-1.593c-3.13,0.004-5.945,1.051-8.071,2.111    c1.731-15.221,12.541-27.688,26.864-31.926c3.178-2.96,6.819-4.615,10.713-4.615c0.985,0,1.949,0.108,2.897,0.314    C52.841,9.314,51.894,9.211,50.935,9.211z M68.995,45.391c-2.114-1.233-4.845-2.269-8.157-2.269c-2.638,0-5.904,0.851-7.429,2.284    V19.141v-5.05c7.587,2.115,14.606,15.272,15.698,31.371C69.067,45.438,69.036,45.415,68.995,45.391z M80.379,43.753    c-2.415,0-4.686,0.331-6.793,1.462c-0.879-13.76-5.317-25.234-11.799-31.313c14.22,4.297,24.936,16.747,26.661,31.894    C86.323,44.735,83.506,43.753,80.379,43.753z"></path><path d="M52.359,74.01c-0.983,0.466-1.913,0.668-2.838,0.668c-1.039,0-2.07-0.33-3.161-0.978    c-4.335-2.579-8.792-5.197-13.222-7.616c-0.882-0.483-1.855-1.255-2.372-1.255c-0.028,0-0.059,0-0.085,0    c-2.723,0-4.428,1.962-4.426,4.239c0.002,1.822,1.001,3.074,2.516,3.92c5.171,2.89,10.348,5.83,15.475,8.795    c1.103,0.637,2.17,0.989,3.234,0.989c1.047,0,2.09-0.294,3.17-0.914c3.424-1.97,6.906-3.827,10.357-5.738    c1.215-0.669,2.427-1.007,3.668-1.007c0.997,0,2.009,0.221,3.056,0.665c4.17,1.769,8.398,3.406,12.613,5.071    c0.67,0.262,1.393,0.493,2.101,0.531c0.046,0,0.089,0.002,0.133,0.002c1.063,0,1.866-0.679,2.186-1.662    c0.359-1.101,0.031-2.331-0.858-2.951c-0.414-0.286-0.91-0.462-1.386-0.646c-5.052-1.93-10.145-3.756-15.147-5.812    c-1.162-0.48-2.279-0.708-3.378-0.708c-1.34,0-2.529,0.34-3.876,0.976c-2.247,1.062-5.185,1.966-6.709,2.995v0.394h-0.765    C52.551,73.968,52.452,73.964,52.359,74.01z"></path><path d="M52.645,73.798h0.509v-0.224C52.986,73.651,52.813,73.719,52.645,73.798z"></path></g></g></svg>