<svg xmlns="http://www.w3.org/2000/svg" xmlns:xlink="http://www.w3.org/1999/xlink" version="1.1" x="0px" y="0px" viewBox="0 0 48 48" enable-background="new 0 0 48 48" xml:space="preserve"><g><path fill="#009FE3" d="M9.789,20.279h33.338c1.565,0,3.039,0.7,4.044,1.923c0.178,0.217,0.332,0.449,0.473,0.688   c0.026-0.063,0.063-0.118,0.078-0.187c0.188-0.922,0.122-1.88-0.188-2.771l-5.7-16.4c-0.463-1.33-1.417-2.399-2.688-3.011   c-1.264-0.608-2.683-0.688-3.997-0.225L3.683,11.386c-2.727,0.958-4.169,3.971-3.216,6.715l3.909,11.242   c0.039,0.112,0.097,0.21,0.167,0.298v-4.089C4.543,22.645,6.896,20.279,9.789,20.279z"></path><path fill="none" d="M26.344,31.363H11.81c-0.529,0-0.958,0.428-0.958,0.957s0.429,0.958,0.958,0.958h14.534   c0.528,0,0.957-0.429,0.957-0.958S26.872,31.363,26.344,31.363z"></path><path fill="none" d="M39.317,38.806c-0.623-0.824-1.429-1.795-2.302-2.782l4.948-3.585l-1.155-1.16l-5.896,2.479   c-0.124-0.129-0.248-0.257-0.373-0.38c-2.987-3.009-4.371-3.665-4.824-3.209c-0.449,0.454,0.202,1.848,3.188,4.856   c0.122,0.124,0.25,0.251,0.377,0.376l-2.459,5.936l1.154,1.16l3.557-4.98c0.981,0.879,1.947,1.688,2.766,2.317l-0.733,2.653   l0.778,0.786l1.501-2.381c0.358,0.19,0.602,0.262,0.694,0.17c0.092-0.09,0.02-0.339-0.17-0.697l2.363-1.51l-0.78-0.787   L39.317,38.806z"></path><path fill="none" d="M26.344,36.938H11.81c-0.529,0-0.958,0.429-0.958,0.958s0.429,0.957,0.958,0.957h14.534   c0.528,0,0.957-0.428,0.957-0.957S26.872,36.938,26.344,36.938z"></path><path fill="#009FE3" d="M46.547,23.867c-0.134-0.228-0.28-0.45-0.45-0.656c-0.958-1.166-2.363-1.835-3.857-1.835H10.448   c-2.758,0-5.002,2.256-5.002,5.029v3.898v12.667c0,2.772,2.244,5.029,5.002,5.029h31.792c2.758,0,5-2.257,5-5.029V26.405   C47.239,25.51,46.994,24.635,46.547,23.867z M26.344,38.853H11.81c-0.529,0-0.958-0.428-0.958-0.957s0.429-0.958,0.958-0.958   h14.534c0.528,0,0.957,0.429,0.957,0.958S26.872,38.853,26.344,38.853z M26.344,33.278H11.81c-0.529,0-0.958-0.429-0.958-0.958   s0.429-0.957,0.958-0.957h14.534c0.528,0,0.957,0.428,0.957,0.957S26.872,33.278,26.344,33.278z M26.344,27.703H11.81   c-0.529,0-0.958-0.429-0.958-0.958s0.429-0.957,0.958-0.957h14.534c0.528,0,0.957,0.428,0.957,0.957S26.872,27.703,26.344,27.703z    M40.369,40.364c0.189,0.358,0.262,0.607,0.17,0.697c-0.093,0.092-0.336,0.021-0.694-0.17l-1.501,2.381l-0.778-0.786l0.733-2.653   c-0.818-0.629-1.784-1.438-2.766-2.317l-3.557,4.98l-1.154-1.16l2.459-5.936c-0.127-0.125-0.255-0.252-0.377-0.376   c-2.986-3.009-3.638-4.402-3.188-4.856c0.453-0.456,1.837,0.2,4.824,3.209c0.125,0.123,0.249,0.251,0.373,0.38l5.896-2.479   l1.155,1.16l-4.948,3.585c0.873,0.987,1.679,1.958,2.302,2.782l2.635-0.738l0.78,0.787L40.369,40.364z"></path></g></svg>