<?xml version="1.0" encoding="UTF-8" ?>
<!DOCTYPE svg PUBLIC "-//W3C//DTD SVG 1.1//EN" "http://www.w3.org/Graphics/SVG/1.1/DTD/svg11.dtd">
<svg width="512pt" height="512pt" viewBox="0 0 512 512" version="1.1" xmlns="http://www.w3.org/2000/svg">
<path fill="#fefefe" d=" M 0.00 0.00 L 131.47 0.00 C 102.32 1.64 73.91 13.58 52.41 33.35 C 29.54 54.11 14.57 83.37 11.41 114.12 C 6.77 154.56 22.95 196.72 53.68 223.45 C 54.30 263.23 58.17 302.94 64.87 342.16 C 71.21 378.40 79.57 414.48 93.03 448.80 C 99.33 464.33 106.60 479.71 116.99 492.97 C 124.21 501.98 133.65 510.40 145.53 512.00 L 0.00 512.00 L 0.00 0.00 Z" />
<path fill="#060606" d=" M 131.47 0.00 L 147.47 0.00 C 163.39 0.82 179.16 3.68 194.45 8.17 C 208.37 12.11 222.02 17.30 236.40 19.36 C 251.11 22.24 266.35 21.40 280.98 18.47 C 309.32 12.65 336.65 1.64 365.78 0.00 L 380.46 0.00 C 409.40 1.62 437.62 13.37 459.07 32.88 C 477.15 49.22 490.54 70.76 496.87 94.33 C 503.61 119.11 502.65 145.94 494.14 170.18 C 487.03 190.63 474.54 209.16 458.31 223.49 C 457.56 271.99 452.15 320.42 442.20 367.90 C 436.76 393.40 430.17 418.71 421.10 443.18 C 414.71 460.07 407.31 476.82 396.47 491.38 C 389.05 501.05 379.27 510.39 366.65 512.00 L 359.81 512.00 C 348.70 510.56 340.73 501.51 335.86 492.07 C 327.73 476.37 323.61 459.03 319.24 442.01 C 312.89 416.35 307.48 390.37 298.42 365.49 C 293.92 353.57 288.62 341.63 280.18 331.93 C 274.56 325.47 266.73 320.41 257.98 319.98 C 249.90 319.29 241.87 322.48 235.91 327.86 C 227.34 335.54 221.79 345.95 217.23 356.37 C 206.63 381.53 201.01 408.38 194.50 434.79 C 190.41 451.45 186.44 468.25 179.89 484.15 C 176.20 492.68 171.64 501.32 164.10 507.06 C 160.56 509.77 156.28 511.33 151.89 512.00 L 145.53 512.00 C 133.65 510.40 124.21 501.98 116.99 492.97 C 106.60 479.71 99.33 464.33 93.03 448.80 C 79.57 414.48 71.21 378.40 64.87 342.16 C 58.17 302.94 54.30 263.23 53.68 223.45 C 22.95 196.72 6.77 154.56 11.41 114.12 C 14.57 83.37 29.54 54.11 52.41 33.35 C 73.91 13.58 102.32 1.64 131.47 0.00 Z" />
<path fill="#fefefe" d=" M 147.47 0.00 L 365.78 0.00 C 336.65 1.64 309.32 12.65 280.98 18.47 C 266.35 21.40 251.11 22.24 236.40 19.36 C 222.02 17.30 208.37 12.11 194.45 8.17 C 179.16 3.68 163.39 0.82 147.47 0.00 Z" />
<path fill="#fefefe" d=" M 380.46 0.00 L 512.00 0.00 L 512.00 512.00 L 366.65 512.00 C 379.27 510.39 389.05 501.05 396.47 491.38 C 407.31 476.82 414.71 460.07 421.10 443.18 C 430.17 418.71 436.76 393.40 442.20 367.90 C 452.15 320.42 457.56 271.99 458.31 223.49 C 474.54 209.16 487.03 190.63 494.14 170.18 C 502.65 145.94 503.61 119.11 496.87 94.33 C 490.54 70.76 477.15 49.22 459.07 32.88 C 437.62 13.37 409.40 1.62 380.46 0.00 Z" />
<path fill="#fefefe" d=" M 107.05 25.96 C 126.68 19.71 147.78 20.26 167.87 23.75 C 188.05 27.19 207.00 35.38 227.03 39.44 C 250.12 44.21 271.30 55.42 290.98 68.09 C 306.31 78.36 321.35 89.58 333.12 103.94 C 336.80 107.87 343.60 108.18 347.60 104.55 C 351.65 101.23 352.52 94.76 349.49 90.49 C 345.40 85.01 340.48 80.23 335.56 75.51 C 320.04 61.50 302.89 49.15 284.42 39.36 C 308.31 35.21 331.08 26.00 355.14 22.57 C 375.35 19.44 396.47 21.60 415.29 29.78 C 437.39 39.20 456.08 56.36 467.38 77.56 C 478.82 98.68 482.68 123.77 478.20 147.36 C 473.99 170.61 461.62 192.22 443.88 207.80 C 440.72 210.41 437.14 213.46 437.03 217.91 C 436.80 261.23 432.63 304.54 424.70 347.14 C 420.25 370.84 414.77 394.39 407.55 417.41 C 402.14 434.54 395.90 451.51 387.36 467.35 C 383.09 474.78 378.50 482.37 371.58 487.64 C 368.71 489.63 365.07 491.52 361.51 490.39 C 358.79 488.85 356.98 486.18 355.45 483.54 C 351.57 476.46 349.05 468.74 346.61 461.07 C 338.88 435.31 333.83 408.84 326.46 382.98 C 320.58 362.81 313.92 342.41 301.95 324.93 C 294.52 314.03 284.14 304.59 271.31 300.71 C 258.04 296.75 243.08 298.00 230.99 304.91 C 221.58 310.21 214.19 318.45 208.37 327.43 C 199.97 340.36 194.38 354.87 189.62 369.47 C 179.75 399.81 174.41 431.37 165.14 461.88 C 162.40 470.17 159.77 478.67 154.97 486.06 C 153.12 488.77 149.95 491.81 146.38 490.40 C 140.29 488.18 135.96 483.00 132.10 478.02 C 125.39 468.83 120.27 458.57 115.83 448.12 C 103.96 419.80 96.27 389.93 89.94 359.94 C 81.64 319.05 76.65 277.46 75.35 235.75 C 75.17 229.52 75.32 223.27 74.93 217.04 C 74.53 214.08 72.77 211.47 70.42 209.68 C 51.65 194.11 38.45 171.94 33.97 147.95 C 29.09 123.02 33.54 96.37 46.39 74.45 C 59.62 51.47 81.71 33.77 107.05 25.96 Z" />
<path fill="#fefefe" d=" M 235.91 327.86 C 241.87 322.48 249.90 319.29 257.98 319.98 C 266.73 320.41 274.56 325.47 280.18 331.93 C 288.62 341.63 293.92 353.57 298.42 365.49 C 307.48 390.37 312.89 416.35 319.24 442.01 C 323.61 459.03 327.73 476.37 335.86 492.07 C 340.73 501.51 348.70 510.56 359.81 512.00 L 151.89 512.00 C 156.28 511.33 160.56 509.77 164.10 507.06 C 171.64 501.32 176.20 492.68 179.89 484.15 C 186.44 468.25 190.41 451.45 194.50 434.79 C 201.01 408.38 206.63 381.53 217.23 356.37 C 221.79 345.95 227.34 335.54 235.91 327.86 Z" />
</svg>
