<?xml version="1.0" encoding="utf-8"?>
<!-- Generator: Adobe Illustrator 19.0.1, SVG Export Plug-In . SVG Version: 6.00 Build 0)  -->
<svg version="1.1" id="Layer_1" xmlns="http://www.w3.org/2000/svg" xmlns:xlink="http://www.w3.org/1999/xlink" x="0px" y="0px"
	 viewBox="-280 340.7 150 113.2" style="enable-background:new -280 340.7 150 113.2;" xml:space="preserve">
<style type="text/css">
	.st0{fill:#009FE3;}
</style>
<g>
	<path class="st0" d="M-185.5,385.8c0.1,1.7,0.2,3.4,0.5,4.7c1.4-1.4,2.6-3.2,3.4-5.2C-182.1,385.2-183.9,385.3-185.5,385.8z"/>
	<path class="st0" d="M-194.1,393c0,2,1.5,1.9,2,1.9c1.1,0,2.3-0.5,3.5-1.3c-0.4-1.9-0.6-4-0.8-6.4
		C-192.2,388.5-194.1,390.6-194.1,393z"/>
	<path class="st0" d="M-155.2,389.1c1.5-13.3-10.2-25.6-26.1-27.5c-1.4-0.2-2.7-0.2-4.1-0.2c-14.2,0-26,8.8-27.4,20.9
		c-1.5,13.3,10.2,25.6,26.1,27.5c1.4,0.2,2.7,0.2,4,0.2c1.5,0,2.9-0.1,4.3-0.3c5.7,6.2,11.6,7.9,14.9,7.9c2.1,0,3.2-0.7,2.4-1.3
		c-4.8-3.8-5.9-7.6-5.6-10.6C-160.3,402-156,396.1-155.2,389.1z M-178.3,400.8l-1.7-3.5c4.2-1,6.7-3,6.7-6.2c0-1.2-0.4-3.9-4.2-5.1
		c-1.5,3.5-3.9,6.7-6.6,9.1c0.1,0.5,1,2.1,1.2,2.4l-3.6,2.3c-0.2-0.4-1.1-1.9-1.2-2.4c-1.7,1-3.7,1.6-5.6,1.6c-3.1,0-5.1-2-5.1-5.2
		c0-4.8,3.7-8.6,8.7-10.6c-0.1-1.5-0.1-3-0.1-4.6c-2.6,0.1-5.4,0.1-6.8,0.1l-0.2-4.1c1.6,0,4.5,0,7.1,0c0.1-1.5,0.1-3.2,0.2-4.7
		l4.5,0.3c-0.1,0.3-0.2,3.1-0.3,4.2c3.8-0.2,8.6-0.6,12.5-1.5l0.4,4.2c-3.8,0.7-8.9,1-13.1,1.2c0,1.2-0.1,2.4-0.1,3.6
		c1.5-0.4,3.6-0.6,5.2-0.5c0.1-0.5,0.2-1,0.3-1.6l4.3,1.1c-0.1,0.4-0.2,0.8-0.3,1.2c5.1,1.4,7.3,4.9,7.3,8.8
		C-168.7,395.7-171.8,399.2-178.3,400.8z"/>
</g>
<g>
	<path class="st0" d="M-215.7,381.9c0.1-1.3,0.7-3.2,1-4c-2.8-0.8-6.5-1.4-9.6-1.4c-1.3,0-2.7,0.1-4.1,0.2
		c-16,1.9-27.7,14.2-26.2,27.5c0.8,7,5.1,12.9,11.4,16.7c0.3,3-0.7,6.7-5.6,10.6c-0.8,0.6,0.3,1.3,2.4,1.3c3.3,0,9.3-1.7,15-7.9
		c1.4,0.2,2.9,0.3,4.3,0.3c1.3,0,2.7-0.1,4.1-0.2c10.6-1.2,19.3-6.6,24-15.5C-209.7,404.1-217,394-215.7,381.9z M-221.3,415.8
		l-2.1-7.9h-8.1l-2.1,7.9h-5.9l8.5-30.1h7.3l8.4,30.1H-221.3z"/>
	<path class="st0" d="M-227.5,390.5h-0.1c-0.4,1.9-0.9,4.3-1.3,6.1l-1.8,6.9h6.4l-1.8-6.8C-226.6,394.8-227.1,392.4-227.5,390.5z"/>
</g>
</svg>
