<svg xmlns="http://www.w3.org/2000/svg" xmlns:xlink="http://www.w3.org/1999/xlink" version="1.1" x="0px" y="0px" viewBox="0 0 100 100" style="enable-background:new 0 0 100 100;" xml:space="preserve"><path d="M11.8,88.2H70c3.7,0,6.8-3,6.8-6.7c0-3.4-2.5-7.1-5.7-8.3l-16.9-6.6c-0.6-0.2-0.9-0.6-1-0.9c-0.1-0.4,0.1-0.8,0.5-1.3  c0.4-0.4,8.9-10.4,8.9-21.7c0-11.9-9.7-21.5-21.5-21.5c-11.9,0-21.5,9.7-21.5,21.5c0,11.3,8.5,21.3,8.9,21.7  c0.4,0.5,0.6,0.9,0.5,1.3c-0.1,0.4-0.5,0.7-1,0.9l-16.9,6.6C7.5,74.4,5,78.1,5,81.5C5,85.2,8,88.2,11.8,88.2z M12.2,76.9l16.9-6.6  c1.8-0.7,3-2,3.4-3.7c0.4-1.6-0.1-3.4-1.3-4.9c-0.1-0.1-7.9-9.2-7.9-19.1c0-9.7,7.9-17.5,17.5-17.5c9.7,0,17.5,7.9,17.5,17.5  c0,9.8-7.8,19-7.9,19.1c-1.2,1.4-1.7,3.2-1.3,4.9c0.4,1.6,1.7,3,3.4,3.7l16.9,6.6c1.7,0.7,3.2,2.8,3.2,4.6c0,1.5-1.3,2.7-2.8,2.7  H11.8C10.2,84.3,9,83,9,81.5C9,79.7,10.5,77.6,12.2,76.9z"></path><path d="M94.6,69.3c-2.1-5.9-9.8-7.4-14.9-9.4c-1.8-0.7-5.8-1.4-7.2-2.8c-2-1.9,2.5-6.2,3.4-7.8c5-8.4,7.2-18.9,1.6-27.6  C71.1,11.7,58.3,9,48.2,14.7c-2.2,1.3-0.2,4.7,2,3.4c12.2-6.8,27.4,2.1,26.6,16.3C76.4,39.8,74,45,71,49.4c-1.5,2.2-4,4.4-3.5,7.3  c0.5,2.9,3.1,3.9,5.5,4.8c3.1,1.2,6.1,2.4,9.2,3.6c2.3,0.9,5.8,1.6,7.6,3.6c2.7,3.1,0.3,6-3.1,6c-1.6,0-3.1,0-4.7,0  c-2.6,0-2.6,4,0,4c2.5,0,5.5,0.4,8-0.2C94.1,77.5,95.9,73.2,94.6,69.3z"></path></svg>