<svg xmlns="http://www.w3.org/2000/svg" xmlns:xlink="http://www.w3.org/1999/xlink" version="1.1" x="0px" y="0px" viewBox="0 0 100 100" enable-background="new 0 0 100 100" xml:space="preserve"><path fill="#009FE3" d="M77.145,55.23c-2.24-3.045-8.957-5.963-8.733-5.894c-0.968-2.46-1.591-5.315-1.417-8.628  c0.259-4.896,0.798-11.004,0.938-18.618c0.018-0.947-0.027-1.905-0.135-2.853c-0.042-0.365-0.091-0.729-0.152-1.09  c-0.358-2.138-1.092-4.195-2.189-6.109c-0.805-1.4-1.816-2.688-3.002-3.835c-0.381-0.368-0.777-0.721-1.192-1.06  c-0.786-0.64-1.62-1.209-2.612-1.553c-0.672-0.233-1.422-0.3-2.148-0.301c-0.126,0-0.252,0-0.376,0.004  c-0.024,0-0.546-0.573-0.603-0.618c-0.36-0.284-0.769-0.52-1.201-0.719c-1.42-0.652-3.146-0.869-4.662-0.732  c-6.526,0.587-12.21,3.727-15.25,9.051c-1.279,2.24-2.09,4.868-2.296,7.856c-0.044,0.637-0.063,1.29-0.05,1.959  c0.134,7.3,0.667,13.161,0.906,17.871c0.187,3.674-0.568,6.807-1.671,9.475l0.001-0.001c-3.489,1.18-6.387,3.003-8.439,5.794  c-0.461,0.627,1.996,6.037,2.609,10.25c0.656,4.513-0.309,12.729,2.676,21.177c1.251,3.544,2.745,6.998,4.407,10.153H50h17.453  c1.662-3.155,3.154-6.609,4.408-10.153c2.982-8.447,2.019-16.664,2.676-21.177C75.148,61.27,77.605,55.857,77.145,55.23z   M36.817,20.033c2.758-0.56,6.119-1.824,9.507-3.696c4.626-2.556,8.146-5.602,9.602-8.057c0.008,0.096,0.021,0.193,0.038,0.294  c0.259,1.427,1.38,3.358,3.231,5.338c1.006,1.074,2.109,2.039,3.219,2.844c0.785,2.221,1.225,4.761,1.225,7.558  c0,7.932-4.027,14.537-8.863,17.255c0.043,2.381,0.427,5.558,0.875,8.018c1.649-0.057,3.265-0.132,4.832-0.221  C52.079,60.122,50,76.746,50,76.746s-2.313-16.624-10.481-27.38c1.619,0.091,3.286,0.171,4.991,0.228  c0.462-2.526,0.853-5.81,0.88-8.209c-4.574-2.827-8.94-9.314-8.94-17.071C36.448,22.808,36.579,21.38,36.817,20.033z M61.559,64.159  l2.438,1.729l-0.063,0.237c-0.757,2.871-1.479,5.272-2.146,7.14c-3.299,9.209-11.153,21.567-11.486,22.09L50,95.826l-0.3-0.471  c-0.333-0.521-8.187-12.881-11.486-22.09c-0.668-1.865-1.391-4.269-2.147-7.14l-0.063-0.237l2.692-1.91l2.482-1.76l-6.608-1.756  l0.056-0.32c0.731-4.197,1.541-8.494,2.041-11.102c0.242,0.007,0.482,0.018,0.719,0.034c-0.485,2.528-1.277,6.725-2.001,10.866  l6.918,1.839l0.529,0.141l-6.012,4.263c0.728,2.746,1.422,5.049,2.065,6.842c2.952,8.24,9.6,19.055,11.115,21.471  c1.516-2.416,8.164-13.229,11.116-21.471c0.644-1.793,1.338-4.096,2.065-6.842l-6.013-4.263l0.417-0.11l7.03-1.867  c-0.728-4.147-1.519-8.349-2.003-10.876c0.236-0.015,0.478-0.024,0.72-0.028c0.5,2.607,1.31,6.904,2.041,11.104l0.056,0.32  l-6.607,1.756L61.559,64.159z"></path></svg>