<svg xmlns="http://www.w3.org/2000/svg" xmlns:xlink="http://www.w3.org/1999/xlink" version="1.1" x="0px" y="0px" viewBox="0 0 100 100" enable-background="new 0 0 100 100" xml:space="preserve"><g><path fill-rule="evenodd" clip-rule="evenodd" d="M41.077,34.549c-0.007-0.031-0.039-0.038-0.039-0.076   c0.184-0.258,0.786-0.271,0.534-0.839c0.114-0.162,0.226-0.251,0.115-0.458c0.091-0.112,0.257-0.149,0.419-0.191   c0.118-0.365,0.305-0.66,0.343-1.105c-0.134-0.197-0.501-0.16-0.419-0.572c0.292-0.172,0.479,0.205,0.61,0.19   c0.092-0.073,0.173-0.156,0.152-0.343c-0.092-0.073-0.188-0.142-0.382-0.114c-0.055-0.25-0.232-0.377-0.533-0.381   c0.081-0.313,0.333-0.456,0.533-0.648c0.027-0.141-0.065-0.164-0.038-0.305c0.392-0.099,0.87-0.244,0.876-0.61   c0.396-0.125,0.835-0.207,0.953-0.61c-0.339-0.254-1.311-0.216-1.562,0.076c-0.156,0.017-0.244-0.035-0.343-0.076   c-0.281,0.215-0.681,0.514-0.992,0.572c0.177-0.231,0.337-0.477,0.534-0.686c-0.167-0.112-0.399-0.16-0.572-0.267   c0.094-0.083,0.292-0.063,0.305-0.229c-0.453-0.061-0.861-0.518-1.372-0.61c-0.615-0.11-1.229,0.114-1.906-0.038   c-0.077,0-0.153,0-0.229,0c-0.535,0.515-2.081,0.195-2.821,0.381c0.046,0.081,0.144,0.111,0.153,0.229   c-0.114,0.073-0.189-0.051-0.229,0.077c0.042,0.124,0.304,0.228,0.267,0.304c-0.343-0.155-0.786-0.404-1.296-0.266   c-0.067,0.221,0.241,0.265,0.191,0.343c-0.291,0.068-0.438-0.224-0.686-0.267c-0.603-0.104-1.265,0.334-1.868,0.343   c-0.062,0.053-0.042,0.188-0.115,0.229c-0.396,0.199-0.903,0.406-1.372,0.609c-0.118,0.051-0.386,0.015-0.382,0.229   c0.044,0.146,0.334,0.047,0.496,0.076c0.008,0.156,0.129,0.2,0.152,0.343c-0.639,0.305-1.535,0.246-1.982,0.801   c0.148,0.232,0.594,0.168,0.8,0.344c-0.069,0.095-0.26,0.069-0.267,0.228c0.521,0.902,2.201,0.129,3.05,0.725   c0.14,0.097,0.837,0.954,0.877,1.181c0.063,0.365-0.1,0.448-0.115,0.801c0.162,0.281,0.643,0.12,0.725-0.114   c0.18,0.138,0.305,0.331,0.495,0.458c-0.242,0.127-0.491,0.252-0.762,0.076c-0.023,0.104-0.159,0.095-0.152,0.229   c0.095,0.161,0.185,0.1,0.038,0.267c0.16,0.057,0.256,0.177,0.458,0.191c0.179-0.024,0.18-0.226,0.381-0.229   c0.049,0.154,0.069,0.499,0,0.648c-0.171-0.018-0.286,0.02-0.419,0.039c-0.343,0.387-0.138,0.738,0,1.105   c0.237,0.635,0.95,1.372,1.22,1.982c0.523-0.048,1.514,0.658,1.639-0.076c0.035-0.214-0.076-0.253-0.115-0.458   c0.261-0.287,0.629-0.464,0.534-1.106c0.337-0.416,1.012-0.225,1.411-0.496c0.32-0.217,0.353-0.631,0.648-0.839   c1.204-0.055,1.976-0.541,2.783-0.991C41.629,34.458,41.26,34.641,41.077,34.549z"></path><path fill-rule="evenodd" clip-rule="evenodd" d="M2.041,50.674c0,0.039,0,0.076,0,0.114c0.159,0.091,0.26-0.16,0.534-0.076   c0.042-0.121,0.003-0.086,0-0.229C2.368,50.597,2.293,50.659,2.041,50.674z"></path><path fill-rule="evenodd" clip-rule="evenodd" d="M71.572,29.593c-0.017,0.131,0.015,0.213,0.038,0.305   c0.457,0.221,1,0.545,1.564,0.533c-0.051-0.347,0.097-0.682,0.075-0.876c-0.26-0.021-0.625,0.065-0.726-0.114   c0.068-0.21,0.191-0.257,0.115-0.534c-0.675-0.217-1.137,0.166-1.638,0.344c-0.018,0.194,0.09,0.265,0.152,0.381   C71.31,29.635,71.466,29.639,71.572,29.593z"></path><path fill-rule="evenodd" clip-rule="evenodd" d="M50.226,30.28c0.223,0.285,0.676,0.34,0.914,0.609   c-0.033,0.068-0.105,0.097-0.076,0.229c0.351,0.044,0.453,0.334,0.687,0.496c0.238-0.486,0.393-1.057,0.916-1.259   c0.075,0.064,0.177,0.103,0.189,0.229c0.011,0.164-0.116,0.188-0.075,0.38c0.279,0.148,0.918,0.112,0.99-0.19   c-0.259-0.161-0.592-0.247-0.647-0.61c-0.262-0.146-0.759-0.055-0.84-0.381c0.421,0.026,0.826,0.301,1.335,0.229   c0.384-0.055,0.646-0.443,1.029-0.419c-0.358-0.283-0.953-0.241-1.448-0.305c-0.761-0.098-1.179,0.086-1.717,0.305   c-0.062,0.077,0.004,0.283-0.075,0.343c-0.188-0.002,0.044-0.312-0.114-0.267c-0.15-0.136-0.245,0.108-0.381,0.114   c0.001-0.306-0.454-0.157-0.726-0.191C50.115,29.843,50.314,29.972,50.226,30.28z"></path><path fill-rule="evenodd" clip-rule="evenodd" d="M21.444,29.708c0.152,0.025,0.261,0.095,0.381,0.152   C22.117,29.592,21.405,29.213,21.444,29.708z"></path><path fill-rule="evenodd" clip-rule="evenodd" d="M20.225,30.28c-0.021,0.148,0.096,0.157,0.114,0.267   c0.647-0.089,0.968,0.149,1.372,0.305c0.168-0.184,0.043-0.326-0.038-0.534c-0.467-0.114-1.18-0.676-1.639-0.305   c0.096,0.132,0.34,0.117,0.457,0.229C20.368,30.219,20.314,30.267,20.225,30.28z"></path><path fill-rule="evenodd" clip-rule="evenodd" d="M73.098,30.699c0.445,0.078,1.214-0.08,1.601-0.305   c-0.146-0.362-0.836-0.597-1.143-0.343C73.753,30.328,73.105,30.378,73.098,30.699z"></path><path fill-rule="evenodd" clip-rule="evenodd" d="M19.157,30.622c0.025-0.203-0.017-0.34-0.115-0.418   c-0.378,0.053-0.858,0.005-0.991,0.304C18.354,30.612,18.92,30.453,19.157,30.622z"></path><path fill-rule="evenodd" clip-rule="evenodd" d="M22.893,30.584c-0.147-0.26-0.662-0.427-0.954-0.305   c0.069,0.224,0.192,0.393,0.344,0.533C22.451,30.701,22.851,30.821,22.893,30.584z"></path><path fill-rule="evenodd" clip-rule="evenodd" d="M18.014,30.852c0.118,0.452,0.709,0.262,0.991,0.076   c0.027-0.129-0.141-0.062-0.153-0.152c0.102-0.025,0.194-0.061,0.268-0.114c-0.247-0.154-0.694,0.005-0.953,0.077   c-0.094-0.108-0.527-0.225-0.496,0.076C17.787,30.908,17.824,30.845,18.014,30.852z"></path><path fill-rule="evenodd" clip-rule="evenodd" d="M23.389,30.852c-0.154-0.06-0.853-0.154-0.916,0.113   C22.716,31.018,23.304,31.086,23.389,30.852z"></path><path fill-rule="evenodd" clip-rule="evenodd" d="M24.228,31.118c0.141-0.285-0.494-0.361-0.496-0.038   C23.939,31.051,24.027,31.141,24.228,31.118z"></path><path fill-rule="evenodd" clip-rule="evenodd" d="M16.107,31.766c0.031,0.072,0.05,0.155,0.115,0.191   c0.293-0.143,0.639,0.105,0.914-0.114c-0.028,0.11-0.18,0.099-0.152,0.266c0.129,0.235,0.545,0.135,0.839,0.115   c-0.085,0.152,0.022,0.261,0.076,0.381c0.738,0.097,1.119-0.464,1.791-0.191c0.19-0.103,0.402-0.182,0.572-0.305   c-0.021-0.151-0.021-0.114,0-0.266c-0.2-0.109-0.448,0.024-0.686,0c-0.099-0.102-0.156-0.33-0.076-0.496   c-0.243-0.027-0.368,0.064-0.61,0.038c-0.033,0.093-0.088,0.166-0.076,0.305c0.132,0.045,0.296,0.06,0.381,0.153   c-0.076,0.113-0.283,0.098-0.419,0.152c-0.434-0.64-1.464-0.424-2.058-0.267c-0.026-0.19,0.102-0.229,0.19-0.305   c0.082,0.084,0.186,0.146,0.381,0.115c0.146-0.07,0.264-0.37,0.152-0.573c-0.038,0.042-0.316-0.133-0.343,0.077   c-0.771-0.124-0.795,0.5-1.448,0.496c0.027,0.116-0.039,0.139-0.038,0.228C15.721,31.839,15.992,31.809,16.107,31.766z"></path><path fill-rule="evenodd" clip-rule="evenodd" d="M61.241,34.092c0,0.089,0,0.178,0,0.266c0.275,0.056,0.768,0.216,1.031,0.039   c-0.139-0.243-0.4-0.24-0.459-0.495c-0.143-0.627,0.618-1.03,0.915-1.335c0.343-0.05,0.484-0.303,0.763-0.419   c0.276-0.116,0.653-0.125,0.991-0.229c0.228-0.071,0.753-0.246,0.763-0.458c0.025-0.57-1.027-0.022-1.181,0   c-0.224,0.032-0.436-0.028-0.612,0c-0.589,0.095-0.893,0.554-1.486,0.572c-0.179,0.329-0.392,0.625-0.725,0.801   c0.286,0.491-0.595,0.56-0.532,1.181C60.844,34.083,61.106,34.023,61.241,34.092z"></path><path fill-rule="evenodd" clip-rule="evenodd" d="M23.16,32.491c0.095-0.108,0.189-0.218,0.153-0.458   c-0.236-0.195-0.911,0.046-1.144-0.152c0.017-0.156-0.036-0.245-0.077-0.343c-0.28-0.044-0.482-0.196-0.724-0.153   c-0.194,0.035-0.219,0.22-0.381,0.229c-0.28,0.016-0.275-0.258-0.609-0.267c-0.085,0.258,0.268,0.387,0.343,0.61   c-0.046,0.043-0.069,0.108-0.191,0.076c0.141,0.42,0.454-0.094,0.839,0c0.102,0.086-0.054,0.191,0.038,0.267   c0.485,0.26,0.654-0.266,1.068-0.152c-0.015,0.174-0.063,0.266,0.038,0.381C22.708,32.62,22.904,32.339,23.16,32.491z"></path><path fill-rule="evenodd" clip-rule="evenodd" d="M84.839,32.224c0.056-0.085,0.096-0.184,0.076-0.343   c-0.321-0.135-0.709,0.091-0.954-0.153c-0.311,0.324-1.198-0.359-1.105,0.572C83.478,32.544,84.164,32.222,84.839,32.224z"></path><path fill-rule="evenodd" clip-rule="evenodd" d="M86.363,32.3c-0.146-0.188-1.177-0.351-1.182,0.039   C85.376,32.477,86.238,32.579,86.363,32.3z"></path><path fill-rule="evenodd" clip-rule="evenodd" d="M15.574,34.244c0.224-0.031,0.348-0.16,0.572-0.19   c0.207-0.593,0.871-0.729,1.41-0.992c-0.07-0.222-0.35-0.388-0.572-0.419c-0.132-0.018-0.284,0.089-0.419,0.076   c-0.09-0.008-0.162-0.116-0.268-0.152c-0.302-0.103-0.923-0.096-1.181-0.076c0.314,0.499-0.016,0.978-0.343,1.258   C15.219,33.736,15.301,34.085,15.574,34.244z"></path><path fill-rule="evenodd" clip-rule="evenodd" d="M20.911,33.215c-0.042,0.072-0.048,0.18-0.076,0.267   c0.277,0.243,0.796,0.245,0.991,0.572c0.221-0.031,0.295-0.15,0.534-0.077c0.111-0.119,0.213-0.359,0.114-0.571   c-0.066-0.087-0.271-0.036-0.305-0.153c0.02-0.132,0.228-0.076,0.19-0.267c-0.126-0.378-1.096-0.236-1.22,0.076   c0.088,0.091,0.324,0.032,0.305,0.229C21.254,33.413,21.101,33.216,20.911,33.215z"></path><path fill-rule="evenodd" clip-rule="evenodd" d="M83.58,33.1c0.233,0.087,0.771,0.138,0.992,0   C84.533,32.74,83.611,32.71,83.58,33.1z"></path><path fill-rule="evenodd" clip-rule="evenodd" d="M94.712,34.054c-0.373-0.151-0.993-0.171-1.144,0.19   C93.816,34.438,94.694,34.451,94.712,34.054z"></path><path fill-rule="evenodd" clip-rule="evenodd" d="M43.555,36.341c-0.43-0.212-0.699,0.254-1.296,0.114   c-0.113,0.04-0.112,0.193-0.305,0.152c-0.055-0.314-0.763-0.389-0.839-0.039c0.044,0.006,0.042,0.061,0.039,0.115   c0.072,0.067,0.251,0.027,0.381,0.038c-0.075,0.166-0.279,0.204-0.381,0.343c0.239,0.027,0.449,0.085,0.648,0.152   c-0.091,0.113-0.259,0.147-0.457,0.152c0.965,0.53,2.005-0.066,2.744-0.419C43.881,36.776,43.669,36.606,43.555,36.341z"></path><path fill-rule="evenodd" clip-rule="evenodd" d="M46.604,41.22c-0.131,0.15-0.414,0.145-0.535,0.306   c0.283,0.364-0.016,0.746-0.152,1.029c0.713-0.012,1.115-0.334,1.792-0.381c-0.077-0.234,0.005-0.489,0.305-0.457   c-0.095-0.274-0.464-0.274-0.61-0.496c-0.046-0.385-0.621-0.506-0.725-0.953c0.095-0.173,0.322-0.212,0.306-0.496   c-0.124-0.073-0.382,0.072-0.534-0.039c0.022-0.079,0.08-0.123,0.115-0.19c-0.365-0.351-0.564,0.122-0.763,0.229   c0.068,0.334,0.086,0.493,0.114,0.839C46.263,40.697,46.524,40.868,46.604,41.22z"></path><path fill-rule="evenodd" clip-rule="evenodd" d="M45.879,41.563c-0.171-0.362,0.139-0.426,0.038-0.763   c-0.466-0.17-0.661,0.251-1.066,0.268c0.126,0.376-0.108,0.496-0.115,0.838C45.215,42.098,45.694,41.915,45.879,41.563z"></path><path fill-rule="evenodd" clip-rule="evenodd" d="M84.001,43.851c0.106-0.185,0.316-0.082,0.456,0   c0.087-0.361-0.288-0.778,0.076-1.03c0.113,0.025,0.154,0.247,0.267,0.153c0.051-0.356-0.238-0.688-0.305-1.106   c-0.04-0.264,0.029-0.554-0.113-0.799c-0.049-0.003-0.053-0.049-0.114-0.04c-0.307,0.471-0.087,1.464-0.153,2.173   C84.044,43.362,83.877,43.625,84.001,43.851z"></path><path fill-rule="evenodd" clip-rule="evenodd" d="M82.855,46.328c-0.082,0.311-0.188,0.6-0.456,0.725   c-0.693-0.049-1.245,0.317-1.487,0.839c0.099,0.169,0.122,0.412,0.306,0.496c0.292-0.021,0.438-0.598,0.229-0.763   c0.241-0.076,0.589-0.248,0.839-0.19c-0.215,0.104-0.559,0.078-0.648,0.305c0.195,0.49,0.479-0.192,0.801-0.038   c0.208-0.293,0.731-0.454,1.143-0.419c0.056-0.504,0.628-1.013,0.61-1.525c-0.01-0.288-0.243-0.406-0.306-0.724   c0.056-0.009,0.064-0.062,0.116-0.076c0.138,0.039,0.234,0.12,0.381,0.152c0.15-0.126,0.339-0.295,0.609-0.191   c-0.012-0.151,0.089-0.191,0.076-0.344c-0.476-0.057-0.607-0.459-1.066-0.533c0.091,0.562-0.271,0.671-0.421,0.992   c0.155,0.471-0.123,0.774-0.113,1.219C83.333,46.408,83.027,46.526,82.855,46.328z"></path><path fill-rule="evenodd" clip-rule="evenodd" d="M78.968,50.026c-0.506-0.321-0.765,0.841-0.382,1.066   C78.688,50.71,78.941,50.481,78.968,50.026z"></path><path fill-rule="evenodd" clip-rule="evenodd" d="M2.994,50.903c0.082,0.108,0.211,0.169,0.381,0.19   C3.495,50.835,3.108,50.615,2.994,50.903z"></path><path fill-rule="evenodd" clip-rule="evenodd" d="M4.176,51.322c-0.073-0.268-0.493-0.402-0.762-0.268   c0.152,0.102,0.252,0.086,0.229,0.305c0.118,0.031,0.215-0.174,0.152,0C3.941,51.367,4.076,51.361,4.176,51.322z"></path><path fill-rule="evenodd" clip-rule="evenodd" d="M4.214,51.436c-0.124,0.206-0.134,0.508,0,0.725   c0.157-0.084,0.309-0.173,0.495-0.229C4.615,51.697,4.462,51.519,4.214,51.436z"></path><path fill-rule="evenodd" clip-rule="evenodd" d="M77.71,54.448c0.618,0.153,0.574-1.026,1.183-0.763   c0.013,0.09,0.061,0.143,0.038,0.268c0.14,0.062,0.275,0.129,0.381,0.228c0.021,0.136-0.136,0.095-0.114,0.229   c0.392-0.104,0.562-0.429,0.724-0.764c-0.026-0.192-0.378-0.166-0.267-0.381c-0.198-0.002-0.282-0.061-0.457,0   c-0.391-0.277-0.24-0.982,0-1.334c-0.461-0.396-0.899,0.107-0.877,0.648c0.072,0.145,0.249,0.183,0.266,0.381   c-0.036,0.078-0.077,0.15-0.113,0.229c0.065,0.05,0.149,0.08,0.151,0.191c-0.15,0.014-0.276,0.053-0.38,0.113   C78.294,54.041,77.858,54.101,77.71,54.448z"></path><path fill-rule="evenodd" clip-rule="evenodd" d="M79.884,53.99c-0.028,0.378-0.334,0.48-0.725,0.496   c-0.109,0.119-0.166,0.291-0.267,0.42c0.274,0.084,0.368-0.176,0.494-0.115c0.114,0.152,0.145,0.391,0.306,0.496   c0.142-0.15,0.159-0.428,0.42-0.459C80.104,54.48,80.134,54.094,79.884,53.99z"></path><path fill-rule="evenodd" clip-rule="evenodd" d="M68.066,54.257c-0.013,0.343-0.078,0.7,0.075,0.954   c0.119-0.022,0.249-0.031,0.345-0.076C68.7,54.744,68.509,54.3,68.066,54.257z"></path><path fill-rule="evenodd" clip-rule="evenodd" d="M76.3,55.858c-0.089,0.153-0.069,0.414-0.229,0.497   c-0.083-0.096-0.105-0.251-0.267-0.268c-0.508,0.564,0.053,0.793,0.114,1.295c0.501,0.121,0.947,0.299,1.373,0.496   c0.415-0.334,0.268-1.232,0.876-1.373c-0.052-0.328-0.319-0.443-0.268-0.876c0.086-0.095,0.273-0.083,0.383-0.153   c-0.066-0.277-0.348-0.338-0.42-0.609C77.263,54.966,77.083,55.816,76.3,55.858z"></path><path fill-rule="evenodd" clip-rule="evenodd" d="M74.47,57.154c-0.305-0.891-1.355-1.033-1.791-1.792   c-0.304,0.05-0.358-0.149-0.609-0.151c-0.258,0.365,0.233,0.412,0.455,0.609c0.072,0.062,0.174,0.208,0.23,0.305   c0.454,0.783,1.008,1.926,1.906,2.098c0.098-0.271,0.141-0.596,0.19-0.916C74.774,57.207,74.599,57.204,74.47,57.154z"></path><path fill-rule="evenodd" clip-rule="evenodd" d="M79.273,57.078c-0.002-0.09,0.065-0.112,0.038-0.229   c-0.303-0.103-0.461-0.023-0.648,0.152c-0.094-0.057-0.155-0.15-0.305-0.152c-0.516,0.317-0.084,0.791-0.152,1.295   c0.092,0.072,0.188,0.143,0.38,0.115c0.184-0.26-0.167-0.8,0.077-0.877c-0.066,0.25,0.249,0.42,0.115,0.725   c0.175,0.002,0.258,0.097,0.456,0.076c0.18-0.391-0.235-0.724-0.38-1.029C78.946,57.082,79.102,57.072,79.273,57.078z"></path><path fill-rule="evenodd" clip-rule="evenodd" d="M84.306,57.573c-0.172-0.083-0.362-0.167-0.572-0.267   c-0.188-0.088-0.412-0.298-0.533-0.305c-0.4-0.022-0.555,0.5-0.954,0.496c-0.108-0.195-0.134-0.475-0.228-0.688   c-0.322-0.063-0.916-0.11-0.916,0.268c0.193,0.113,0.502,0.108,0.686,0.229c-0.147,0.005-0.178,0.127-0.266,0.191   c0.409,0.402,1.386,0.24,1.602,0.838c-0.021,0.172-0.217,0.166-0.191,0.381c0.115,0.125,0.375,0.139,0.572,0.076   c0.185,0.196,0.528,0.234,0.725,0.42c0.177-0.102,0.27-0.289,0.38-0.457c0.862-0.023,0.872,0.807,1.83,0.687   c-0.221-0.38-0.918-0.435-0.763-1.068C85.513,57.955,84.909,57.871,84.306,57.573z"></path><path fill-rule="evenodd" clip-rule="evenodd" d="M86.821,58.184c0.021-0.168,0.124-0.258,0.114-0.458   c-0.115-0.052-0.136,0.019-0.306,0c0.02,0.478-0.569,0.347-0.953,0.419C86.034,58.207,86.509,58.411,86.821,58.184z"></path><path fill-rule="evenodd" clip-rule="evenodd" d="M76.719,58.604c0.147-0.021,0.187,0.068,0.344,0.038   c0.017-0.146-0.075-0.18-0.115-0.268c-1.003,0.095-1.465,0.015-2.172-0.19c-0.017,0.17,0.026,0.278,0.076,0.383   c1.002-0.013,1.539,0.441,2.554,0.418C77.352,58.682,76.88,58.798,76.719,58.604z"></path><path fill-rule="evenodd" clip-rule="evenodd" d="M77.52,58.869c0.112,0.293,0.716,0.316,0.687-0.113   C77.979,58.672,77.715,58.803,77.52,58.869z"></path><path fill-rule="evenodd" clip-rule="evenodd" d="M79.35,59.403c0.366-0.153,0.714-0.329,1.067-0.495   C80.092,58.57,79.312,58.893,79.35,59.403z"></path><path fill-rule="evenodd" clip-rule="evenodd" d="M78.244,59.213c0.115,0.062,0.205,0.15,0.419,0.114   c0.018-0.144-0.075-0.179-0.114-0.267C78.385,59.049,78.241,59.059,78.244,59.213z"></path><path fill-rule="evenodd" clip-rule="evenodd" d="M86.363,62.491c-0.098-0.055-0.269-0.036-0.343-0.114   c-0.067-0.535-0.597-0.599-0.8-0.914c-0.229-0.355-0.278-1.028-0.688-1.221c-0.04-0.357-0.175-0.928-0.532-0.725   c-0.146,0.477,0.128,1.374-0.192,1.678c-0.661,0.001-0.778-0.542-1.371-0.61c0.069-0.298,0.321-0.415,0.342-0.763   c-0.184-0.204-0.392,0.012-0.608-0.037c-0.151-0.035-0.19-0.182-0.344-0.191c-0.246-0.015-0.424,0.225-0.725,0.191   c-0.192,0.175-0.247,0.49-0.305,0.8c-0.31-0.046-0.452-0.337-0.725-0.267c-0.218,0.056-0.147,0.393-0.381,0.534   c-0.19,0.112-0.267-0.02-0.533,0.075c-0.157,0.213-0.159,0.58-0.267,0.84c-0.682,0.322-1.768,0.239-2.136,0.876   c0.056,0.319,0.081,0.811-0.077,1.03c0.25,0.614,0.526,1.203,0.688,1.905c-0.095,0.07-0.287,0.043-0.305,0.191   c0.075,0.368,0.485,0.403,0.915,0.418c0.238-0.305,0.928-0.328,1.409-0.267c0.57-0.856,2.869-1.15,3.089,0.229   c0.283-0.046,0.236-0.425,0.532-0.457c0.152,0.039,0.113,0.268,0.116,0.457c0.382,0.469,0.704,0.999,1.409,1.145   c0.191-0.024,0.19-0.243,0.382-0.269c0.333,0.638,0.657-0.27,1.182,0.039c0.166-0.105,0.051-0.303,0.114-0.533   c0.105-0.382,0.437-0.594,0.61-0.953c0.233-0.486,0.346-1.246,0.267-1.868C87.023,63.208,86.478,63.091,86.363,62.491z"></path><path fill-rule="evenodd" clip-rule="evenodd" d="M60.098,59.9c-0.19,0.2-0.387,0.398-0.456,0.723   c-0.245,0.149-0.677,0.112-0.953,0.229c0.004,0.401,0.185,0.627,0.267,0.952c-0.54,0.426-0.476,1.898,0.457,1.64   c0.67-0.187,0.234-1.782,0.8-2.173c-0.026-0.166,0.066-0.215,0.039-0.381c0.058-0.069,0.261,0.008,0.229-0.153   C60.421,60.389,60.361,60.043,60.098,59.9z"></path><path fill-rule="evenodd" clip-rule="evenodd" d="M93.072,66.912c-0.08-0.35-0.549-0.313-0.533-0.762   c-0.124-0.042-0.226-0.104-0.381-0.114c0.04,0.469,0.523,0.491,0.457,1.069c-0.096,0.04-0.187,0.092-0.267,0.151   c0.183,0.223,0.249,0.563,0.381,0.838c0.248-0.132,0.461-0.303,0.457-0.686C93.701,67.396,93.729,66.677,93.072,66.912z"></path><path fill-rule="evenodd" clip-rule="evenodd" d="M92.158,67.979c-0.14-0.075-0.157-0.275-0.344-0.304   c0.024,1.092-1.211,0.924-1.22,1.982c0.178,0.037,0.346,0.087,0.496,0.153c0.202-0.167,0.438-0.299,0.646-0.458   c-0.035-0.761,0.743-0.709,0.802-1.374C92.428,67.881,92.32,68.015,92.158,67.979z"></path><path fill-rule="evenodd" clip-rule="evenodd" d="M84.839,67.752c-0.023,0.091-0.056,0.173-0.039,0.306   c0.177,0.179,0.288,0.421,0.421,0.646c0.207-0.021,0.313-0.022,0.456-0.037c0.007-0.329,0.216-0.643,0.114-0.953   C85.538,67.848,85.003,67.847,84.839,67.752z"></path><path fill-rule="evenodd" clip-rule="evenodd" d="M95.551,35.921c-0.128,0.04-0.053,0.278-0.153,0.343   c-0.12-0.087,0.049-0.202,0.04-0.304c-1.001-0.742-2.396-1.29-3.966-1.335c-0.14,0.209,0.17,0.25,0.152,0.458   c-0.35,0.204-0.488-0.079-0.61-0.305c-0.597-0.078-1.479,0.333-1.715-0.19c-0.114,0.084,0.169,0.212,0.077,0.267   c-0.455,0.27-0.417-0.161-0.764-0.419c-0.129-0.096-0.39-0.203-0.571-0.229c-0.351-0.05-0.673,0.112-1.067,0.076   c-0.302-0.027-0.526-0.286-0.839-0.306c-0.059-0.411-0.567-0.372-0.991-0.418c-0.175-0.002,0.056-0.108,0-0.229   c-0.279,0.393-1.202-0.024-1.677,0.19c-0.076,0.116,0.004,0.387-0.077,0.496c-0.659-0.146-1.449,0.274-1.677-0.305   c-0.154-0.035-0.118,0.222-0.229,0.115c-0.093-0.212-0.142-0.47-0.229-0.687c-0.116,0.395,0.345,0.664,0.191,1.106   c-0.088,0.054-0.365,0.117-0.42,0.076c-0.443-0.126-0.18-0.963-0.419-1.295c-0.418-0.041-0.781-0.134-1.221-0.153   c-0.124,0.349-0.421,0.525-0.763,0.496c-0.266-0.022-0.437-0.311-0.762-0.381c-0.586-0.127-1.193-0.002-1.752-0.114   c-0.012-0.116,0.121-0.148,0.037-0.229c-0.241,0.395-0.876,0.395-1.296,0.61c0.228-0.413,1.175-0.576,1.677-0.877   c0.158-0.094,0.369-0.242,0.381-0.419c0.044-0.676-1.111-0.708-1.791-0.496c-0.167-0.073-0.172-0.31-0.42-0.305   c0.078-0.107,0.068-0.157,0.038-0.305c-0.469-0.122-0.915,0.097-1.181,0.305c-0.008,0.119,0.025,0.28-0.038,0.343   c-0.308-0.047-0.57,0.205-0.916,0.266c-0.236,0.043-0.508-0.025-0.761,0c-0.377,0.039-0.859,0.235-1.221,0.267   c-0.121,0.012-0.259-0.027-0.344,0c-0.327,0.105-0.583,0.527-0.648,0.801c-0.695-0.131-1.646-0.007-1.525,0.61   c0.055,0.261,0.355,0.258,0.649,0.343c-0.403,0.299-0.957-0.131-1.219-0.343c-0.124,0.017-0.224,0.058-0.193,0.229   c-0.212-0.048-0.244,0.084-0.266,0.229c0.017,0.199,0.32,0.112,0.42,0.229c-0.237,0.16-0.483,0.005-0.687-0.076   c0.072-0.26,0.351-0.636,0-0.801c-0.086,0.041-0.014,0.24-0.038,0.343c-0.486,0.033-0.395,0.557-0.189,0.839   c-0.018,0.217-0.233,0.31-0.191,0.496c0.107,0.482,1.345-0.149,1.03,0.61c-0.128-0.204-0.328-0.333-0.726-0.267   c-0.076,0.712-0.364,1.211-1.296,1.068c0.35-0.19,0.894-0.278,0.952-0.762c0.018-0.143-0.085-0.193-0.114-0.343   c-0.068-0.369,0.117-0.972-0.229-1.144c0.06-0.22,0.264-0.296,0.343-0.496c-0.118-0.287-0.56-0.252-0.914-0.304   c-0.201,0.396-0.558,0.636-0.839,0.953c0.02,0.234,0.218,0.29,0.151,0.609c0.074,0.258,0.444,0.219,0.383,0.61   c-0.318-0.059-0.543-0.418-0.916-0.533c-0.307-0.095-0.652-0.087-0.952-0.19c-0.281-0.097-0.51-0.326-0.763-0.19   c-0.064,0.25,0.376,0.304,0.533,0.458c-0.019,0.133-0.017,0.288-0.076,0.381c-0.228,0.037-0.178-0.203-0.343-0.229   c-0.528,0.031-0.911,0.208-1.295,0.381c-0.024-0.163,0.122-0.155,0.114-0.305c-0.608-0.034-1.055,0.417-1.678,0.495   c-0.112,0.122,0.062,0.192,0.037,0.343c-0.275,0.077-0.571,0.105-0.648-0.19c0.16,0.024,0.297-0.112,0.305-0.343   c-0.238-0.116-0.669-0.203-0.875-0.229c0.082,0.349,0.296,0.568,0.266,1.03c-0.549-0.245-0.659,0.204-1.182,0.19   c0.01,0.22,0.161,0.298,0.192,0.496c-0.362,0.117-0.555-0.222-0.916-0.229c-0.191,0.279,0.257,0.42,0.229,0.533   c-0.314,0.023-0.481-0.104-0.687-0.19c0.142-0.662-0.388-0.682-0.609-1.068c0.721,0.222,1.764,0.788,2.249,0   c-0.09-0.213-0.304-0.551-0.572-0.686c-0.101-0.051-0.302-0.022-0.456-0.077c-0.283-0.097-0.51-0.375-0.992-0.19   c-0.154-0.189-0.532-0.314-0.762-0.305c-0.102-0.106,0.035-0.188,0.037-0.304c-0.302-0.149-0.771-0.366-1.104-0.153   c-0.155,0.014-0.06-0.22-0.23-0.19c-0.312-0.003-0.421,0.298-0.723,0.19c-0.229,0.019-0.29,0.259-0.497,0.344   c-0.169,0.068-0.373,0.012-0.534,0.076c-0.174,0.07-0.263,0.251-0.419,0.305c-0.112,0.039-0.226,0-0.344,0.038   c-0.295,0.099-0.551,0.275-0.799,0.382c0.082,0.133,0.282,0.149,0.495,0.152c-0.141,0.232-0.371,0.312-0.495,0.534   c-0.048,0.084-0.027,0.23-0.077,0.305c-0.152,0.233-0.484,0.295-0.533,0.61c-0.564,0.518-1.777,0.698-1.334,1.981   c0.039,0.153-0.06,0.17-0.114,0.229c0.263,0.656,1.195,0.292,1.449-0.115c0.334,0.377,0.376,1.046,0.686,1.449   c0.337-0.031,0.434-0.305,0.801-0.305c0.222-0.402,0.163-0.896,0.686-1.029c0.055-0.422-0.132-0.605-0.457-0.648   c0.073-0.702,0.538-1.012,1.029-1.296c0.037-0.269,0.176-0.433,0.268-0.648c0.265-0.026,0.457-0.128,0.761-0.114   c-0.064,0.573-0.704,0.639-0.914,1.106c0.112,0.357-0.015,0.955,0.19,1.219c0.563,0.067,0.818-0.173,1.183-0.305   c0.128,0.076,0.243,0.163,0.419,0.19c0.156-0.034,0.163-0.217,0.229-0.343c0.354,0.361-0.29,0.492-0.42,0.725   c-0.266-0.178-0.854-0.125-1.143,0c-0.016,0.294,0.177,0.382,0.267,0.572c-0.084,0.132-0.031,0.4-0.229,0.419   c-0.107-0.109-0.13-0.303-0.114-0.533c-0.423,0.187-0.573,0.646-0.686,1.144c-0.232,0.23-0.632,0.054-0.953,0.114   c-0.246,0.047-0.362,0.256-0.573,0.268c-0.364-0.374-0.81,0.189-1.105-0.153c0.026-0.317,0.414-0.271,0.495-0.533   c-0.183-0.235-0.475-0.364-0.495-0.763c-0.304,0.026-0.397,0.263-0.61,0.382c-0.014,0.395,0.152,0.612,0.307,0.838   c-0.077,0.378-0.434,0.187-0.688,0.267c-0.163,0.053-0.286,0.297-0.457,0.458c-0.354,0.333-0.781,0.413-0.839,0.915   c-0.163,0.137-0.394,0.105-0.61,0.19c-0.284,0.114-0.45,0.353-0.915,0.153c-0.164,0.436,0.316,0.544,0.647,0.61   c0.213,0.262,0.25,0.883,0,1.105c-0.709,0.118-1.373-0.292-1.829,0.039c0.021,0.358,0.205,0.621,0.152,0.915   c-0.03,0.17-0.234,0.244-0.267,0.419c-0.042,0.233,0.114,0.307,0.115,0.572c0.155,0.044,0.374,0.111,0.533,0.039   c0.128,0.139,0.215,0.318,0.343,0.457c-0.287,0.146-0.446,0.418-0.571,0.725c-0.397,0.086-0.565,0.401-0.687,0.762   c0,0.152,0.036,0.269,0.114,0.344c-0.217,0.253-0.513,0.427-0.876,0.534c-0.225,0.169-0.305,0.552-0.535,0.915   c-0.263,0.416-0.86,0.873-0.343,1.258c0.036,0.327,0.152,0.758-0.038,0.991c-0.168,0.815,0.327,0.982,0.649,1.448   c0.384,0.558,0.96,1.482,1.372,1.563c0.978,0.192,2.335-0.065,3.012-0.458c0.394,0.052,0.596,0.293,0.8,0.533   c0.337,0.033,0.718,0.021,0.953,0.153c0.128,0.53-0.229,0.737-0.229,1.105c0.002,0.619,0.809,0.8,0.763,1.448   c0.486,0.162,0.214,1.083,0.495,1.449c-0.261,0.389-0.597,1.062-0.495,1.677c0.07,0.425,0.502,0.798,0.61,1.258   c0.045,0.198-0.003,0.415,0.037,0.61c0.177,0.853,0.802,1.385,0.953,1.982c0.114,0.447,0.018,0.762,0.381,0.838   c0.256,0.054,0.935-0.075,1.259-0.115c1.246-0.15,1.808-1.047,2.402-1.981c0.048-0.228-0.121-0.234-0.115-0.419   c0.524-0.043,0.874-0.986,0.457-1.372c0.367-0.72,1.4-0.81,1.564-1.677c0.074-0.403-0.121-0.688-0.192-1.105   c-0.08-0.475,0.059-0.974-0.114-1.449c0.355-0.346,0.521-0.811,0.839-1.182c0.173-0.201,0.447-0.293,0.647-0.458   c0.792-0.646,1.25-1.485,1.487-2.706c-0.527-0.009-1.526,0.559-2.059,0.076c-0.04-0.615-0.74-0.723-1.029-1.182   c-0.053-0.086-0.052-0.248-0.113-0.381c-0.056-0.117-0.196-0.219-0.229-0.306c-0.097-0.241-0.077-0.437-0.19-0.647   c-0.091-0.164-0.252-0.309-0.344-0.496c-0.224-0.455-0.261-1.007-0.573-1.411c0.045,0.032,0.104,0.051,0.192,0.039   c0.461-0.744-0.194-1.056-0.877-1.03c-0.239,0.009-0.481,0.193-0.648,0.191c-0.118-0.003-0.23-0.13-0.419-0.191   c-0.188-0.059-0.418-0.027-0.572-0.076c-0.332-0.105-0.619-0.448-1.143-0.19c-0.085,0.152,0.01,0.272,0,0.458   c-0.113,0.078-0.254,0.128-0.306,0.266c-0.259-0.109-0.326-0.411-0.726-0.38c-0.044-0.718-1.1-0.252-1.41-0.648   c0.114-0.427-0.146-0.678-0.113-1.029c-0.638-0.061-1.293-0.055-2.021,0.038c-0.738,0.096-1.103,0.852-1.907,0.382   c0.018-0.237,0.159-0.351,0.267-0.497c0.6,0.136,0.958-0.213,1.22-0.533c0.02-0.172-0.019-0.285-0.038-0.419   c0.172-0.438,0.83-0.391,0.8-1.029c0.482-0.047,1.03,0.16,1.373-0.305c0.351,0.03,0.583,0.18,0.61,0.533   c0.353,0.309,0.864,0.457,1.182,0.801c-0.018,0.183,0.027,0.303,0.114,0.381c-0.202,0.233-0.865-0.188-0.915,0.229   c0.153,0.227,0.553,0.209,0.648,0.496c0.11-0.535,0.563-0.5,0.495-1.221c0.157,0.034,0.402,0.139,0.572,0.039   c-0.66-0.409-1.627-0.71-1.563-1.715c0.646,0.207,0.859,0.844,1.525,1.029c-0.152,0.912,0.642,1.181,0.838,1.868   c0.599-0.197,0.108-0.866,0.268-1.296c0.322,0.043,0.506-0.053,0.724-0.114c-0.025,0.838,0.406,1.221,1.03,1.411   c0.558-0.059,1.054-0.144,1.601-0.115c0.01,0.14-0.096,0.496,0.038,0.686c-0.453,0.225,0.033,1.28-0.344,1.64   c0.186,0.51,0.581,0.926,0.84,1.448c0.212,0.429,0.189,0.851,0.647,0.991c0.131,0.339,0.356,0.584,0.533,0.877   c0.038,0.311-0.062,0.621,0,0.838c0.591,0.42,2.279-0.378,2.668-0.838c0.168,0.027,0.216-0.065,0.382-0.039   c0.371-0.238,0.576-0.645,1.03-0.801c-0.028-0.447,0.231-0.606,0.38-0.875c-0.195-0.275-0.582-0.359-0.838-0.573   c-0.011-0.129,0.03-0.309-0.039-0.381c-0.381,0.336-1.121,1.011-1.523,0.343c-0.024-0.147-0.031-0.157,0.037-0.267   c-0.093-0.199-0.274-0.31-0.496-0.381c-0.087-0.218-0.118-0.49-0.419-0.496c0.138-0.509,0.823-0.262,0.992,0.038   c0.016,0.695,0.907,0.843,1.448,0.572c0.105,0.11,0.122,0.309,0.229,0.419c0.814,0.017,1.42,0.194,2.172,0   c0.232,0.099,0.216,0.446,0.382,0.61c0.165,0.042,0.427-0.025,0.61,0.076c0.077,0.124-0.117,0.249-0.153,0.381   c0.188,0.326,0.633,0.033,0.916,0c-0.316,1.371,0.564,2.467,0.953,3.508c0.668-0.18,1.231-0.869,0.914-1.678   c0.339-0.576,1.192-1.031,1.715-1.525c0.171-0.158,0.299-0.426,0.497-0.457c0.604-0.095,0.957,0.447,1.372,0.763   c-0.046,0.451,0.066,0.746,0.19,1.027c0.328,0.055,0.31-0.379,0.495-0.381c0.273-0.002,0.509,0.836,0.647,1.068   c-0.032,0.155-0.285,0.828-0.267,1.067c0.019,0.229,0.297,0.286,0.42,0.571c0.046,0.106,0.011,0.233,0.038,0.305   c0.194,0.515,0.687,1.099,1.144,0.991c0.034-0.376-0.438-0.57-0.19-0.915c-0.254-0.229-0.48-0.484-0.878-0.572   c-0.205-0.512-0.116-1.143-0.113-1.639c0.737,0.165,1.052,0.753,1.334,1.373c0.255-0.176,0.473-0.303,0.686-0.496   c0.325-0.295,0.63-0.755,0.42-1.334c-0.127-0.354-0.771-0.558-0.8-0.877c-0.029-0.312,0.366-0.59,0.42-0.801   c0.742,0.033,1.269-0.11,1.829-0.305c0.37-0.128,0.691-0.128,0.915-0.381c0.155-0.176,0.393-0.708,0.608-0.953   c0.142-0.158,0.325-0.25,0.344-0.381c0.023-0.164-0.15-0.363-0.189-0.533c-0.099-0.417-0.095-0.988-0.42-1.22   c0.086-0.282,0.42-0.317,0.647-0.458c0.068-0.466,0.357-0.71,0.61-0.991c0.221,0.136-0.042,0.394,0.038,0.572   c0.093,0.123,0.361,0.07,0.496,0.152c-0.017,0.273-0.169,0.651,0,0.876c0.044-0.006,0.066,0.008,0.076,0.038   c0.37,0.014,0.562-0.148,0.724-0.344c0.096-0.692-0.329-0.863-0.458-1.333c0.161-0.043,0.274-0.132,0.458-0.153   c0.165-0.111,0.092-0.33,0.19-0.457c0.186-0.238,0.443-0.16,0.839-0.267c0.327-0.089,0.703-0.467,0.991-0.877   c0.252-0.359,0.614-0.845,0.724-1.143c0.103-0.278,0.066-0.526,0.114-0.725c0.045-0.18,0.211-0.426,0.192-0.609   c-0.044-0.391-0.535-0.584-0.993-0.381c-0.174-0.08-0.274-0.232-0.494-0.268c0.188-0.324,0.521-0.462,0.839-0.762   c0.233-0.222,0.476-0.671,0.762-0.8c0.353-0.159,0.805-0.054,1.334-0.115c0.037,0.189-0.102,0.203-0.113,0.343   c0.19-0.012,0.146-0.262,0.228-0.381c0.56-0.35,1.177,0.342,1.83,0c0.108-0.654,0.571-0.953,1.296-0.991   c0.117,0.121-0.064,0.16-0.038,0.306c0.394,0.188,0.625-0.179,0.764-0.229c-0.238,0.34-0.785,0.988-0.23,0.419   c0.12-0.122,0.223-0.182,0.268-0.305c0.077-0.165-0.02-0.502,0.305-0.419c0.146,0.432-0.272,0.589-0.572,0.877   c-0.253,0.245-0.404,0.541-0.608,0.648c-0.118,0.062-0.273,0.045-0.382,0.114c-0.732,0.466-0.646,1.631-0.458,2.668   c0.646-0.13,0.966-0.583,1.145-1.181c0.132-0.084,0.326-0.107,0.458-0.191c-0.03-0.55,0.615-1.033,0-1.296   c0.281-0.471,0.481-0.583,1.066-0.724c0.091-0.021,0.189-0.108,0.267-0.115c0.272-0.025,0.479,0.166,0.725,0.152   c0.274-0.014,0.512-0.395,0.801-0.572c0.458-0.279,0.869-0.442,1.409-0.304c0.343-0.301,0.056-0.928-0.342-0.953   c0.224-0.131,0.605-0.105,0.876-0.191c0.113-0.131-0.158-0.361-0.076-0.457c0.303,0.13,0.524,0.34,0.953,0.343   c0.142,0.24,0.397,0.364,0.648,0.496c0.264-0.042,0.26-0.35,0.38-0.534c0.212-0.056,0.43-0.105,0.649-0.153   c0-0.039,0-0.077,0-0.114C96.37,36.245,96.001,36.043,95.551,35.921z"></path><path fill-rule="evenodd" clip-rule="evenodd" d="M38.179,57.993c-0.527,0.106-0.684-0.505-1.067-0.61   c-0.289-0.079-0.608,0.074-0.876-0.152c-0.214-0.01-0.216,0.191-0.42,0.191c0.004-0.1,0.149-0.056,0.152-0.154   c-0.15-0.197-0.572-0.459-0.876-0.418c-0.249,0.033-0.248,0.286-0.495,0.305c0.097-0.131,0.307-0.15,0.343-0.344   c-0.098-0.131-0.312-0.145-0.458-0.229c0.061-0.328-0.081-0.451-0.267-0.533c-0.038-0.149,0.085-0.223,0-0.305   c-0.189-0.294-0.435-0.58-0.838-0.648c-0.42-0.07-0.836,0.069-1.105-0.229c0.107-0.293-0.252-0.395-0.458-0.496   c-0.116-0.001-0.194,0.035-0.229,0.115c-0.089-0.08,0.145-0.16,0.115-0.306c-0.046-0.132-0.3-0.055-0.419-0.114   c-0.028-0.116,0.039-0.139,0.038-0.229c-0.284-0.119-0.53,0.061-0.686,0.189c-0.21-0.154-0.441-0.041-0.686-0.113   c-0.319-0.094-0.555-0.528-0.953-0.113c-0.143,0.196,0.117,0.373-0.039,0.494c-0.321-0.148,0.003-0.684,0.191-0.801   c-0.227-0.168-0.412,0.138-0.648,0.229c-0.184,0.071-0.39,0.005-0.534,0.114c-0.207,0.159-0.18,0.497-0.381,0.648   c-0.27-0.297-0.896-0.318-1.219-0.076c-0.66-0.213-0.649-0.905-0.496-1.678c-0.261-0.307-0.961-0.123-1.373-0.19   c0.074-0.144,0.15-0.282,0.114-0.534c0.223-0.223,0.248-0.643,0.382-0.953c-0.259-0.19-0.753-0.002-0.991,0.078   c-0.092,0.147-0.064,0.417-0.19,0.533c-0.39,0.155-0.85,0.242-1.22,0.037c-0.31-0.426-0.657-1.3-0.267-1.868   c-0.017-0.173-0.069-0.313-0.077-0.496c0.314-0.15,0.455-0.458,0.839-0.534c0.536-0.105,1.14,0.361,1.373-0.19   c0.617-0.146,0.826,0.301,1.258,0.114c0.339,0.372,0.343,1.081,0.763,1.373c0.701-0.465-0.224-1.123-0.076-1.868   c0.434-0.442,0.988-0.765,1.449-1.182c-0.082-0.413-0.379-0.527-0.268-0.876c0.165-0.146,0.054,0.228,0.191,0.229   c0.539-0.288,0.46-1.192,1.411-1.068c0.109-0.189-0.029-0.417,0-0.647c0.217-0.204,0.654-0.185,0.915-0.343   c0.083-0.306-0.258-0.632-0.152-0.953c0.331-0.126,0.754-0.161,0.876-0.496c-0.699-0.25-1.29,0.257-1.639,0.61   c0.032-0.667,0.813-0.585,1.029-1.067c0.648-0.098,1.121,0.127,1.601,0.038c0.392-0.073,0.668-0.563,1.258-0.533   c-0.051-0.278-0.11-0.382-0.114-0.648c-0.068-0.157-0.246,0.021-0.343-0.077c-0.035-0.185-0.213-0.12-0.076-0.305   c-0.18-0.062-0.305-0.177-0.572-0.152c-0.107-0.197-0.368-0.242-0.496-0.419c0.083-0.545-0.488-0.981-0.725-1.448   c-0.321,0.034-0.36,0.351-0.496,0.571c-0.165,0.013-0.312,0.045-0.457,0.076c-0.097-0.183-0.273-0.285-0.382-0.458   c-0.025-0.191,0.023-0.308,0.077-0.419c-0.312-0.077-0.681-0.532-1.106-0.649c-0.146-0.039-0.421,0.026-0.647,0   c-0.244-0.027-0.459-0.173-0.573,0.115c0.209,0.479,0.218,0.952-0.152,1.258c0.338,0.296,0.764,0.641,0.419,1.22   c-0.125,0.141-0.458,0.075-0.61,0.19c0.152,0.426,0.474,1.258-0.152,1.219c-0.41-0.024-0.622-0.715-0.458-1.219   c-0.234-0.233-0.597-0.102-0.876-0.152c-0.512-0.092-0.816-0.496-1.183-0.687c-0.288-0.062-0.493,0.13-0.647,0.077   c-0.032-0.413-0.292-0.598-0.572-0.763c-0.045-0.871,0.475-1.177,1.029-1.448c0.033-0.151-0.057-0.282,0-0.343   c0.315-0.073,0.796-0.154,0.954-0.496c0.065-0.192-0.178-0.192-0.076-0.304c0.175-0.079,0.351-0.156,0.381-0.381   c0.532-0.085,0.959,0.133,1.22-0.267c0.004-0.233-0.154-0.303-0.191-0.496c0.354-0.16-0.185-0.555,0.077-0.838   c0.207,0.095,0.435,0.112,0.572,0.19c0.077-0.037,0.083-0.146,0.076-0.267c0.215,0.078,0.245,0.339,0.61,0.267   c0.041,0.167-0.128,0.125-0.114,0.267c0.146,0.082,0.379,0.077,0.457,0.229c-0.042,0.098-0.205,0.075-0.343,0.076   c-0.08,0.124-0.147,0.26-0.152,0.458c0.001,0.127,0.215,0.04,0.266,0.115c0.246-0.182,0.183-0.638,0.61-0.533   c0.419,0.102,0.279,0.919-0.343,0.838c-0.028,0.197,0.34,0.146,0.191,0.343c-0.263,0.22-1-0.035-0.992,0.457   c0.299,0.26,0.75,0.022,1.106,0.115c0.368,0.095,0.538,0.533,0.8,0.686c0.563-0.027,0.876,0.391,1.334,0.343   c-0.161-0.335-0.528-0.463-0.648-0.838c0.22,0.027,0.383,0.426,0.725,0.458c0.133-0.02,0.076-0.229,0.266-0.19   c0.009-0.738-0.859-0.788-0.876-1.373c0.578-0.193,0.654,0.436,1.03,0.571c0.243-0.238,0.479-0.486,0.723-0.724   c-0.224-0.411-0.998-0.272-1.257-0.648c-0.316,0.013-0.563-0.042-0.686-0.305c0.152-0.165,0.459-0.176,0.533-0.42   c-0.157-0.175-0.461-0.358-0.762-0.266c-0.088-0.179-0.188-0.347-0.305-0.496c-0.499-0.124-1.068-0.178-1.258-0.61   c-0.089,0-0.178,0-0.267,0c0.033-0.166-0.082-0.259,0.038-0.305c-0.619-0.201-1.811-0.382-2.287,0.039   c0.057,0.37,0.042,0.455-0.076,0.762c-0.489-0.352-0.206-0.875,0.267-1.03c-0.271-0.089-0.702-0.116-0.991,0.039   c-0.414,0.221-0.797,1.414,0.038,1.258c0.008,0.147-0.238,0.041-0.305,0.114c0.164,0.345,0.836,0.181,0.992,0.534   c-0.059,0.473-0.225,1.169-0.687,0.992c-0.024-0.216,0.084-0.299,0.153-0.42c-0.13-0.394-0.583-0.321-0.762-0.038   c0.004-0.31-0.13-0.48-0.381-0.534c0.084-0.629-0.291-0.802-0.534-1.105c0.06-0.118,0.113-0.243,0.19-0.343   c0.412,0.096,0.685-0.214,0.839-0.497c-0.376-0.343-1.429-0.293-1.601,0.191c0.074,0.343,0.349,0.449,0.267,0.725   c-0.075,0.25-0.539,0.317-0.496,0.725c0.147,0.258,0.573,0.24,0.8,0.419c0.12,0.32-0.108,0.425-0.305,0.534   c-0.055,0.149,0.001,0.408-0.191,0.418c-0.097-0.154-0.08-0.435-0.152-0.533c0.19-0.025,0.327-0.104,0.38-0.267   c-0.224-0.119-0.461-0.224-0.647-0.381c-0.128,0.241-0.493,0.244-0.61,0.496c0.085,0.131,0.329,0.103,0.496,0.152   c-0.05,0.14-0.127,0.254-0.229,0.343c-0.751-0.017-1.281,0.041-1.678-0.419c0.193-0.073,0.658,0.215,0.877,0   c0.047-0.193-0.164-0.266-0.076-0.381c0.119-0.059,0.358,0.002,0.381-0.153c-0.013-0.318-0.433-0.227-0.687-0.304   c-0.239-0.231-0.201-0.74-0.457-0.954c0.346-0.259,0.234-0.725-0.343-0.647c-0.128,0.083,0.05,0.175,0.038,0.267   c-0.216-0.02-0.242-0.02-0.458,0c-0.085,0.173,0.113,0.565,0.114,0.648c-0.238-0.156-0.27-0.518-0.609-0.572   c-0.023,0.192-0.126,0.307-0.267,0.381c-0.006-0.427-0.55-0.311-0.762-0.152c0.025-0.115,0.146-0.133,0.114-0.305   c-0.506-0.017-1.998,0.587-1.067,0.916c0.092,0.103-0.118,0.135-0.076,0.304c0.313,0.329,1.057-0.009,1.487,0.191   c-0.399,0.168-1.215-0.173-1.259,0.228c-0.05,0.477,0.961,0.019,0.916,0.61c0.696,0.114,1.352-0.08,1.83-0.305   c0.132,0.007,0.145,0.135,0.267,0.153c-0.189,0.009-0.626,0.045-0.763,0.228c0.159,0.247,0.022,0.359,0.229,0.572   c-0.193,0.064-0.244-0.339-0.458-0.381c-0.388,0.12-0.971,0.045-1.411,0.114c-0.018-0.158,0.22-0.059,0.229-0.19   c0.009-0.174-0.064-0.267-0.114-0.382c-0.535-0.025-1.045-0.001-1.487-0.19c-0.398-0.171-0.531-0.494-0.876-0.038   c-0.19,0.012-0.115-0.241-0.268-0.267c-0.213,0.002-0.129,0.302-0.343,0.305c-0.223-0.121-0.302-0.383-0.457-0.572   c-0.203,0-0.098,0.309-0.266,0.343c-0.25,0.035-0.388-0.044-0.535-0.114c-0.397,0.062-0.583,0.427-0.991,0.267   c-0.249,0.021-0.329,0.297-0.572,0.305c-0.158,0.004-0.33-0.216-0.571-0.305c-0.436-0.16-0.752-0.071-1.03-0.305   c-0.158-0.065-0.265,0.114-0.419,0.115c-0.162,0-0.271-0.151-0.458-0.19c-0.14-0.03-0.322,0.021-0.496,0   C8.667,34.5,8.497,34.334,8.14,34.473c-0.183,0.03-0.101-0.204-0.229-0.229c-0.376,0.138-0.661-0.084-0.953-0.114   c-0.609-0.064-0.918,0.38-1.487,0.457c-0.217,0.43-0.738,0.558-1.219,0.724c0.278,0.357,0.793,0.477,1.067,0.839   c0.207,0.008,0.415,0.018,0.534,0.114c-0.118,0.148-0.399,0.135-0.611,0.191c-0.341-0.472-0.921,0.025-1.333,0.152   c0.165,0.636,1.324,0.604,1.83,0.458c0.067,0.072,0.028,0.252,0.038,0.381c-0.337,0.021-0.431,0.303-0.801,0.19   c-0.193,0.251-0.57,0.319-0.571,0.762c0.122,0.068,0.365,0.017,0.419,0.153c-0.029,0.135-0.209,0.12-0.304,0.19   c0.103,0.43,0.679,0.176,0.952,0.19c0.058,0.231-0.144,0.541,0.191,0.61c0.182-0.009,0.211-0.17,0.305-0.267   c0.192,0.216,0.431,0.237,0.762,0.153c0.142,0.044-0.25,0.169-0.114,0.458c-0.28,0.152-0.531,0.333-0.724,0.572   c-0.713,0.151-1.204,0.523-1.716,0.876c0.189,0.122,0.616-0.136,0.763-0.306c1.19-0.258,1.963-0.933,2.783-1.562   c0.008-0.109-0.01-0.193-0.077-0.229c0.306-0.266,0.453-0.691,0.953-0.763c-0.217,0.114-0.383,0.277-0.495,0.497   c0.03,0.122,0.08,0.225,0.152,0.304c0.302-0.158,0.464-0.272,0.877-0.266c0.095-0.124-0.027-0.283-0.038-0.419   c0.511-0.048,0.79,0.415,1.258,0.419c0.151,0.001,0.265-0.098,0.381-0.114c0.047-0.006,0.083,0.078,0.152,0.077   c0.122-0.004,0.067-0.101,0.152-0.077c0.464,0.128,0.701,0.909,1.373,0.647c0.152,0.217,0.414,0.324,0.458,0.648   c0.379,0.185,0.609,0.7,0.763,1.22c0.134,0.017,0.219,0.085,0.38,0.076c0.045,0.197,0.079,0.404,0.381,0.343   c-0.146,0.164,0.07,0.406,0.229,0.496c-0.05,0.109-0.302-0.099-0.381,0.038c0,0.268,0.277,0.256,0.419,0.381   c0.211,0.081,0.269,0.315,0.572,0.305c-0.069,0.344,0.282,1.37-0.077,1.792c0.089,0.192,0.178,0.474,0.038,0.687   c0.052,0.227,0.237,0.321,0.229,0.609c0.098,0.094,0.133,0.249,0.305,0.268c0.059,0.39,0.442,0.629,0.381,0.915   c1.06,0.218,1.125,1.256,1.754,1.944c-0.088-0.012-0.146,0.006-0.19,0.038c0.068,0.313,0.485,0.277,0.647,0.496   c-0.039,0.561,0.468,0.574,0.687,0.877c0.227-0.098,0.082-0.446-0.153-0.419c-0.156-0.886-0.975-1.108-1.105-2.021   c0.091,0.062,0.244,0.062,0.344,0.115c0.172,0.576,0.518,0.981,0.99,1.258c0,0.076,0,0.152,0,0.229   c0.397,0.339,0.736,0.738,1.067,1.143c0.008,0.125-0.098,0.189-0.076,0.42c0.233,0.398,0.54,0.45,0.991,0.648   c0.421,0.184,0.9,0.5,1.334,0.533c0.179,0.014,0.415-0.109,0.61-0.076c0.322,0.053,0.484,0.438,0.686,0.572   c0.479-0.061,0.6,0.238,1.068,0.189c0.144,0.289,0.402,0.463,0.458,0.84c0.323,0.108,0.553,0.311,0.725,0.572   c0.214-0.15,0.403,0.069,0.724,0.113c0.13-0.022,0.021-0.283,0.114-0.343c0.643,0.01,0.669,0.896,0.534,1.448   c-0.094,0.072-0.211,0.119-0.305,0.191c-0.068,0.402-0.374,0.566-0.572,0.838c0,0.139,0,0.279,0,0.42   c0.161,0.125,0.332-0.142,0.419-0.078c-0.116,0.266-0.466,0.297-0.534,0.611c0.428,0.842,1.035,1.506,1.296,2.516   c0.47,0.458,1.131,0.724,1.601,1.182c0.131,0.372-0.028,0.673-0.076,0.992c-0.062,0.404,0.086,0.844-0.039,1.257   c-0.063,0.214-0.245,0.642-0.267,0.991c-0.012,0.2,0.056,0.379,0.038,0.572c-0.055,0.574-0.348,1.046-0.533,1.486   c0.083,0.707-0.097,1.158-0.191,1.867c0.375,0.046,0.165-0.495,0.381-0.609c0.042,0.432-0.09,0.794-0.152,1.259   c-0.114-0.002-0.232,0.003-0.229-0.115c-0.131,0.087-0.284,0.149-0.343,0.305c0.014,0.202,0.12,0.313,0.381,0.268   c0.038,0.154-0.116,0.265,0.076,0.266c-0.034,0.119-0.267,0.039-0.343,0.115c0,0.467,0.474,0.865,0.267,1.183   c0.043,0.108,0.167,0.138,0.114,0.343c0.172,0.146,0.378,0.257,0.61,0.342c0.212,0.076,0.114-0.286,0.267-0.151   c0.12,0.161,0.024,0.223-0.077,0.342c0.173,0.146,0.347,0.289,0.534,0.42c0.039,0,0.076,0,0.114,0   c0.237-0.132,0.688-0.049,0.839-0.266c-0.3-0.134-0.656-0.209-0.8-0.496c-0.02-0.299-0.096-0.539-0.267-0.687   c0.027-0.239,0.136-0.396,0.381-0.419c-0.04-0.549,0.529-0.488,0.534-0.991c-0.084-0.157-0.417-0.067-0.458-0.268   c-0.019-0.12,0.069-0.133,0.039-0.266c0.165-0.077,0.364-0.12,0.495-0.229c0.011-0.244,0.107-0.403,0.153-0.611   c0.146,0.005,0.303,0.023,0.305-0.114c-0.004-0.16-0.205-0.126-0.343-0.152c0.026-0.151-0.037-0.217-0.039-0.343   c0.238,0.124,0.388,0.155,0.687,0.075c0.038-0.216,0.016-0.439,0.076-0.646c0.556,0.018,1.29-0.041,1.373-0.495   c0.04-0.219-0.075-0.693-0.343-0.802c0.18-0.078,0.468,0.153,0.725,0.113c0.539-0.08,0.724-0.84,0.991-1.218   c0.437-0.021,0.423-0.491,0.762-0.61c0.03-0.296-0.059-0.476-0.038-0.764c0.133-0.234,0.459-0.277,0.572-0.533   c0.116-0.027,0.139,0.039,0.229,0.038c0.228-0.089,0.303-0.333,0.686-0.266c0.854-0.405,1.032-1.485,1.068-2.707   c0.116,0.027,0.139-0.039,0.229-0.038c0.111-0.643,1.021-0.818,0.762-1.754C38.335,58.137,38.264,58.127,38.179,57.993z"></path><path fill-rule="evenodd" clip-rule="evenodd" d="M22.97,30.051c0.054-0.086,0.297-0.184,0.419-0.077   c-0.121,0.007-0.229,0.027-0.229,0.153c0,0.063,0,0.127,0,0.19c0.292,0.073,0.531,0.315,0.839,0.343   c0.483,0.045,0.671-0.354,1.029-0.533c-0.03,0.198-0.249,0.208-0.229,0.457c0.171,0.096,0.464,0.048,0.61,0.076   c-0.028,0.349-0.683-0.167-0.762,0.229c0.021,0.132,0.239,0.067,0.267,0.191c-0.368,0.108-0.641,0.232-1.067,0.267   c-0.619,0.049-1.163-0.308-1.487-0.153c-0.052,0.497,0.473,0.417,0.915,0.419c0.233,0.171,0.39,0.361,0.306,0.762   c0.292,0.101,0.667,0.267,0.991,0.115c0.282,0.251,1.001,0.065,1.333,0c0.108,0.253,0.44,0.061,0.763,0.114   c0.065-0.176,0.149-0.334,0.114-0.61c-0.838-0.424-2.089,0.44-2.631-0.343c0.637-0.121,1.386,0.124,2.097-0.114   c0.327,0.242,0.922,0.024,1.068-0.267c-0.121-0.044-0.261-0.07-0.343-0.152c0.087-0.039,0.23-0.024,0.306-0.076   c0.063-0.143-0.178-0.173-0.077-0.229c0.322,0.056,0.434-0.101,0.61-0.191c0.022-0.134-0.18-0.125-0.076-0.228   c0.341,0.023,0.462-0.173,0.495-0.458c-0.416-0.021-0.625-0.048-0.838,0.152c0.337-0.494,1.358-0.101,1.753-0.495   c0.016-0.156-0.26-0.021-0.267-0.152c0.14,0,0.279,0,0.419,0c0.394-0.394,1.146-0.43,1.525-0.838   c-0.278,0.019-0.844,0.211-1.029-0.039c0.604,0.002,1.495-0.025,1.791-0.458c-0.449-0.263-0.939-0.479-1.601-0.267   c0.012-0.09,0.181-0.023,0.152-0.152c-0.57,0.079-1.461-0.308-1.791,0.076c-0.257-0.233-0.733-0.222-0.953,0.038   c-0.76-0.306-1.12,0.425-2.021,0.229c-0.345,0.418-1.499,0.026-1.753,0.534c0.573,0.097,0.696,0.684,1.448,0.496   c0.085,0.042,0.104,0.151,0.191,0.191c0.474-0.094,0.789-0.081,1.182,0c-0.381,0.222-0.877,0.012-1.373,0.153   c-0.125,0.122,0.171,0.213,0.039,0.343c-0.198-0.082-0.314-0.245-0.419-0.419c-0.623,0.094-0.895-0.642-1.449-0.573   c-0.38,0.048-0.559,0.457-0.763,0.801C22.618,29.742,22.676,30.013,22.97,30.051z"></path></g></svg>