<svg xmlns:dc="http://purl.org/dc/elements/1.1/" xmlns:cc="http://creativecommons.org/ns#" xmlns:rdf="http://www.w3.org/1999/02/22-rdf-syntax-ns#" xmlns:svg="http://www.w3.org/2000/svg" xmlns="http://www.w3.org/2000/svg" version="1.1" viewBox="0 0 100.00001 100" xml:space="preserve" x="0px" y="0px"><path d="m 15.53125,5 c -1.414261,0 -2.5625,1.14788 -2.5625,2.5625 l 0,84.875 c 0,1.41462 1.148239,2.5625 2.5625,2.5625 l 68.90625,0 c 1.41426,0 2.59375,-1.14788 2.59375,-2.5625 l 0,-84.875 C 87.03125,6.14788 85.85176,5 84.4375,5 L 15.53125,5 z m 2.21875,3.5625 64.5,0 c 0.69678,0 1.25,0.5248501 1.25,1.21875 l 0,80.46875 c 0,0.69336 -0.54278,1.1875 -1.25,1.1875 l -64.5,0 c -0.70632,0 -1.25,-0.4945 -1.25,-1.1875 l 0,-80.46875 c 0,-0.6937199 0.55394,-1.21875 1.25,-1.21875 z m 2.90625,3 c -0.63342,0 -1.125,0.48114 -1.125,1.125 l 0,74.65625 c 0,0.64278 0.48222,1.09375 1.125,1.09375 l 58.6875,0 c 0.6435,0 1.125,-0.45061 1.125,-1.09375 l 0,-74.65625 c 0,-0.64422 -0.49122,-1.125 -1.125,-1.125 l -58.6875,0 z m 17.5,4.3125 c 0.31122,-0.0108 0.62511,0.25272 0.65625,0.5625 0.0765,0.656101 0.58297,1.26343 1.46875,1.84375 0.88596,0.58104 2.07957,1.09435 3.28125,1.46875 0.639,0.19944 1.30843,0.41102 1.84375,0.125 0.576,-0.30726 1.36466,-0.64521 2.375,-0.84375 0.61542,-1.42866 1.36231,-2.25 2.21875,-2.25 0.856441,0 1.60387,0.82134 2.21875,2.25 1.0107,0.19872 1.799,0.53649 2.375,0.84375 0.53532,0.28602 1.20475,0.07444 1.84375,-0.125 1.20186,-0.3744 2.39547,-0.88771 3.28125,-1.46875 0.88614,-0.58032 1.39243,-1.187649 1.46875,-1.84375 0.03132,-0.30978 0.34503,-0.5733 0.65625,-0.5625 0.17262,0.0054 0.32536,0.08717 0.4375,0.21875 0.11214,0.13158 0.17857,0.297389 0.15625,0.46875 -0.13752,1.18188 -0.98563,2.09563 -2.03125,2.78125 -1.0458,0.68544 -2.3587,1.19883 -3.625,1.59375 -1.47762,0.4059 -2.00983,0.40308 -3.15625,0.9375 -0.25452,0.1188 -0.26699,1.33502 -0.21875,1.625 1.00296,0.02286 2.57557,-0.01384 4.28125,-0.25 2.8836,-0.3996 6.04952,-1.42634 7.4375,-3.6875 0.11646,-0.19638 0.3348,-0.3287 0.5625,-0.3125 0.21348,0.0144 0.43441,0.15295 0.53125,0.34375 0.09684,0.1908 0.08269,0.44374 -0.03125,0.625 -1.72476,2.80908 -5.30229,3.86005 -8.34375,4.28125 -1.6695,0.23346 -3.19484,0.2662 -4.25,0.25 0.11052,0.86112 0.1933,1.77303 0.25,2.71875 1.071,0.10728 3.32479,0.2434 5.78125,0.0625 3.40614,-0.25092 7.04538,-1.18643 8.4375,-3.59375 0.11124,-0.19944 0.36533,-0.35275 0.59375,-0.34375 0.214021,0.009 0.39812,0.15529 0.5,0.34375 0.10098,0.18846 0.10926,0.40997 0,0.59375 -1.771021,3.06324 -5.87692,3.98792 -9.4375,4.25 -2.42658,0.17874 -4.63764,0.04874 -5.8125,-0.0625 0.0144,0.48996 0.03125,0.96475 0.03125,1.46875 0,0.29934 -0.02585,0.61195 -0.03125,0.90625 0.28782,0.0801 3.40712,0.92296 6.875,1 1.81962,0.0405 3.7312,-0.13555 5.3125,-0.71875 1.58112,-0.58338 2.83141,-1.54856 3.53125,-3.125 0.0972,-0.22986 0.34481,-0.384 0.59375,-0.375 0.20412,0.0072 0.39272,0.10773 0.5,0.28125 0.10692,0.17388 0.11657,0.40853 0.03125,0.59375 -0.85122,1.9188 -2.41587,3.11597 -4.21875,3.78125 -1.80306,0.6651 -3.83264,0.85516 -5.75,0.8125 -3.1329,-0.06984 -5.96881,-0.72755 -6.90625,-0.96875 -0.02124,0.45342 -0.0283,0.87546 -0.0625,1.3125 0.0918,0.0018 0.16828,0.05181 0.25,0.09375 0,0 3.34536,1.67959 7.125,2.40625 1.88982,0.36378 3.87842,0.49234 5.5625,0.0625 1.6839,-0.43056 3.05424,-1.361759 3.9375,-3.1875 0.10476,-0.22626 0.37642,-0.35995 0.625,-0.34375 0.20412,0.0126 0.3983,0.13466 0.5,0.3125 0.10224,0.17748 0.09306,0.37998 0,0.5625 -1.0395,2.149201 -2.795559,3.34443 -4.75,3.84375 -1.95426,0.49896 -4.09431,0.35323 -6.09375,-0.03125 -3.47184,-0.6678 -6.53245,-2.073 -7.28125,-2.4375 -0.05202,0.47376 -0.12126,0.9286 -0.1875,1.375 0.8271,0.52452 3.93279,2.42411 7.40625,3.59375 2.02734,0.68292 4.16569,1.09334 5.96875,0.875 1.80306,-0.21852 3.26187,-0.98849 4.21875,-2.84375 0.0702,-0.15156 0.21696,-0.25832 0.375,-0.3125 0.15786,-0.05436 0.32025,-0.04453 0.46875,0.03125 0.1485,0.0765 0.26444,0.2148 0.3125,0.375 0.0477,0.15966 0.01976,0.32331 -0.0625,0.46875 -1.13724,2.20482 -3.056549,3.27691 -5.15625,3.53125 -2.0997,0.25452 -4.3715,-0.22056 -6.5,-0.9375 -3.15432,-1.06254 -5.98919,-2.68185 -6.40625,-2.71875 -0.41724,-0.03654 3.01796,3.1982 6.875,5 2.07126,0.96768 4.25105,1.65985 6.03125,1.65625 1.780381,-0.0036 3.12257,-0.58634 3.96875,-2.375 0.0639,-0.15588 0.18661,-0.28273 0.34375,-0.34375 0.15696,-0.06102 0.34772,-0.04111 0.5,0.03125 0.15228,0.072 0.2603,0.18337 0.3125,0.34375 0.05238,0.1602 0.04921,0.35204 -0.03125,0.5 -1.03428,2.18646 -2.995309,3.09015 -5.09375,3.09375 C 64.93299,46.3161 62.66,45.54015 60.5,44.53125 c -1.10232,-0.51498 -2.17651,-1.11024 -3.15625,-1.6875 1.00188,0.93708 2.10178,1.92366 3.25,2.8125 2.02194,1.56456 4.14837,2.85544 5.90625,3.25 0.87912,0.19728 1.674399,0.16419 2.3125,-0.09375 0.6381,-0.25794 1.16474,-0.74527 1.625,-1.65625 0.07362,-0.14544 0.22038,-0.2621 0.375,-0.3125 0.15498,-0.05094 0.32331,-0.04201 0.46875,0.03125 0.14526,0.07362 0.26174,0.22056 0.3125,0.375 0.05076,0.1548 0.04219,0.32331 -0.03125,0.46875 -0.5652,1.1187 -1.37722,1.87236 -2.3125,2.25 -0.934921,0.378 -1.95168,0.39133 -3,0.15625 -2.09664,-0.47124 -4.31411,-1.88072 -6.40625,-3.5 -0.09234,-0.07164 -0.18963,-0.11514 -0.28125,-0.1875 0.31194,0.342 0.61854,0.66646 0.9375,1 1.94886,2.03886 3.99665,3.84834 5.65625,4.6875 0.8298,0.419581 1.55382,0.57938 2.0625,0.5 0.508501,-0.0792 0.8972,-0.33872 1.25,-1.0625 0.0711,-0.14652 0.18967,-0.2594 0.34375,-0.3125 0.15354,-0.05346 0.32223,-0.04021 0.46875,0.03125 0.14688,0.07092 0.29065,0.18985 0.34375,0.34375 0.05328,0.15426 0.04003,0.35348 -0.03125,0.5 -0.48096,0.985861 -1.286959,1.57835 -2.1875,1.71875 -0.9009,0.1404 -1.85094,-0.10793 -2.8125,-0.59375 -1.92276,-0.972181 -4.0065,-2.88309 -6,-4.96875 C 56.37967,44.91939 53.51322,41.07458 52.5,39.6875 c -0.0054,-0.0054 -0.02585,0.0072 -0.03125,0 -0.0018,1.1727 0,1.72787 0,3.03125 1.71234,0.77652 3.23316,2.3302 4.5,3.8125 1.7604,2.05938 2.96875,4.09375 2.96875,4.09375 a 0.71551582,0.71551582 0 1 1 -1.21875,0.75 c 0,0 -1.14408,-1.95415 -2.8125,-3.90625 -1.02474,-1.1988 -2.2585,-2.37429 -3.4375,-3.09375 0.0018,1.3608 -0.009,2.48618 0,2.5625 0.08856,0.02574 0.20627,0.0481 0.40625,0.0625 0.3393,0.02466 0.83633,0.0043 1.34375,0.3125 0.2034,0.12294 0.3678,0.35597 0.375,0.59375 0.0054,0.23778 -0.14665,0.49162 -0.34375,0.625 -0.55512,0.37872 -1.09892,0.34512 -1.4375,0.375 -0.08766,0.0072 -0.19665,-0.0068 -0.28125,-0.03125 -0.03546,-0.009 6.1e-4,-0.0279 -0.03125,0 -0.03222,0.02844 -0.0625,0.10783 -0.0625,0.15625 0.16578,0.96138 -0.03254,1.38515 0.0625,1.90625 0.02052,-0.07344 0.77675,0.04483 1.34375,0.15625 l 0.03125,0 c 0.02592,0.009 0.03622,0.02135 0.0625,0.03125 0.07236,0.0207 0.14279,0.05649 0.21875,0.09375 0.10458,0.0513 0.25091,0.05647 0.40625,0.34375 0.07794,0.14364 0.12161,0.43593 0.03125,0.65625 -0.08982,0.2205 -0.24061,0.31884 -0.34375,0.375 -0.14832,0.08064 -0.25051,0.08475 -0.34375,0.09375 -0.4455,0.18432 -0.9418,0.1749 -1.1875,0.1875 -0.11808,0.0036 -0.17663,-0.0054 -0.21875,0 -0.05364,0.54846 -0.0765,1.72191 0,2.15625 0.1611,0.0378 0.3667,0.0499 0.625,0.0625 0.4095,0.01962 0.92047,0.02745 1.46875,0.28125 0.22122,0.10368 0.38051,0.32004 0.40625,0.5625 0.02556,0.24318 -0.08631,0.50865 -0.28125,0.65625 -0.41094,0.31014 -0.84698,0.37133 -1.25,0.40625 -0.3735,0.03168 -0.72244,-0.0036 -1,0 -0.0036,0.009 0.009,0.02866 0,0.0625 -0.03402,0.13122 -0.03492,0.07749 0,0.28125 l 0,0.03125 c 0.0693,0.51462 -0.01685,0.9386 -0.03125,1.25 -0.009,0.16002 -0.018,0.28878 0,0.375 0.73296,0.0882 1.72944,-0.06611 2.8125,0.34375 0.24822,0.09522 0.44625,0.32915 0.46875,0.59375 0.02268,0.26514 -0.11515,0.55142 -0.34375,0.6875 -0.79632,0.47088 -1.67375,0.3642 -2.28125,0.375 -0.05634,0.0036 -0.13296,0.0108 -0.1875,0 -0.14418,-0.03204 -0.34372,-0.0306 -0.4375,0 -0.027,0.009 -0.0535,0 -0.0625,0 l 0,0.03125 c -0.0198,0.11772 0.03885,0.76481 0.09375,1.53125 1.01718,-0.20052 2.61326,-0.75369 5.375,-2.15625 1.2834,-0.91404 2.96085,-1.393 4.40625,-1.375 0.86706,0.0108 1.62979,0.17658 2.21875,0.5625 2.232,1.46232 2.64911,5.40509 0.78125,7.53125 -2.28294,3.514501 -5.08321,7.92148 -5.21875,11.875 -0.06498,1.89864 -0.64841,3.02386 -1.90625,4 -2.14056,1.63332 -2.76076,1.55981 -5.5,-0.53125 C 51.50983,81.59305 50.63594,81.11646 50,81 c -0.63576,0.11646 -1.50965,0.59305 -2.65625,1.46875 -2.73906,2.09124 -3.35944,2.16457 -5.5,0.53125 -1.25748,-0.97614 -1.87234,-2.10136 -1.9375,-4 -0.13554,-3.95352 -2.90456,-8.360499 -5.1875,-11.875 -1.86768,-2.12616 -1.482,-6.06893 0.75,-7.53125 0.58878,-0.38592 1.38258,-0.5517 2.25,-0.5625 1.44522,-0.018 3.09142,0.46078 4.375,1.375 2.79198,1.41804 4.42212,1.96149 5.4375,2.15625 0.0378,-0.77166 0.05087,-1.41461 0.03125,-1.53125 l 0,-0.03125 c -0.009,0 -0.0039,0.009 -0.03125,0 -0.09396,-0.03078 -0.32475,-0.03204 -0.46875,0 -0.0549,0.0108 -0.10027,0 -0.15625,0 -0.60732,-0.0108 -1.48493,0.09588 -2.28125,-0.375 -0.22878,-0.13608 -0.36625,-0.42218 -0.34375,-0.6875 0.0225,-0.2646 0.18964,-0.49853 0.4375,-0.59375 1.08342,-0.41004 2.07936,-0.25555 2.8125,-0.34375 0.018,-0.08622 0.03899,-0.21498 0.03125,-0.375 -0.0144,-0.3114 -0.10055,-0.7352 -0.03125,-1.25 l 0,-0.03125 c 0.0351,-0.20376 0.03366,-0.15003 0,-0.28125 -0.0108,-0.03348 0.0054,-0.0535 0,-0.0625 -0.27774,-0.0036 -0.62632,0.03168 -1,0 -0.40248,-0.03492 -0.83888,-0.09611 -1.25,-0.40625 C 45.08649,56.44615 44.97462,56.18068 45,55.9375 c 0.02592,-0.24246 0.18521,-0.45882 0.40625,-0.5625 0.54864,-0.25398 1.05925,-0.26163 1.46875,-0.28125 0.25812,-0.0126 0.46372,-0.0247 0.625,-0.0625 0.0765,-0.43434 0.05328,-1.60779 0,-2.15625 -0.04194,-0.0036 -0.10103,0.0054 -0.21875,0 -0.24588,-0.0126 -0.74254,-4.8e-4 -1.1875,-0.1875 -0.09342,-0.009 -0.19525,-0.01311 -0.34375,-0.09375 -0.10296,-0.05616 -0.25375,-0.1545 -0.34375,-0.375 -0.09018,-0.22032 -0.04615,-0.51261 0.03125,-0.65625 0.15588,-0.28728 0.30149,-0.29245 0.40625,-0.34375 0.07578,-0.03726 0.14657,-0.07305 0.21875,-0.09375 0.0261,-0.009 0.03676,-0.02315 0.0625,-0.03125 0.56682,-0.11142 1.3543,-0.22969 1.375,-0.15625 0.09504,-0.5211 -0.10292,-0.94487 0.0625,-1.90625 0.0018,-0.04842 -0.03028,-0.12781 -0.0625,-0.15625 -0.03168,-0.0288 0.0042,-0.0108 -0.03125,0 -0.0846,0.0252 -0.19341,0.04025 -0.28125,0.03125 -0.33894,-0.02988 -0.88256,0.0019 -1.4375,-0.375 -0.19692,-0.13338 -0.31808,-0.38722 -0.3125,-0.625 0.0054,-0.23778 0.14035,-0.47081 0.34375,-0.59375 C 46.28867,47.0038 46.7857,47.02466 47.125,47 c 0.20016,-0.0144 0.31769,-0.03676 0.40625,-0.0625 0.0108,-0.07632 0,-1.2017 0,-2.5625 -1.17882,0.71946 -2.4124,1.89459 -3.4375,3.09375 -1.6686,1.9521 -2.8125,3.90625 -2.8125,3.90625 a 0.71551582,0.71551582 0 1 1 -1.21875,-0.75 c 0,0 1.20853,-2.03437 2.96875,-4.09375 1.26756,-1.48266 2.78694,-3.03634 4.5,-3.8125 -0.0036,-1.30464 0.0036,-1.88944 0,-3.0625 -0.0054,0.0072 -0.02585,0.02315 -0.03125,0.03125 -1.01286,1.38708 -3.87967,5.23189 -7.09375,8.59375 -1.99368,2.08566 -4.10849,3.996569 -6.03125,4.96875 -0.96102,0.48582 -1.88035,0.7654 -2.78125,0.625 -0.90054,-0.1404 -1.70672,-0.764139 -2.1875,-1.75 -0.07128,-0.14652 -0.08435,-0.34574 -0.03125,-0.5 0.05346,-0.1539 0.19705,-0.27283 0.34375,-0.34375 0.1467,-0.07146 0.31485,-0.08471 0.46875,-0.03125 0.15426,0.0531 0.27247,0.16598 0.34375,0.3125 0.3528,0.72378 0.74186,0.9833 1.25,1.0625 0.50868,0.07938 1.20163,-0.08042 2.03125,-0.5 1.65978,-0.83916 3.73846,-2.64864 5.6875,-4.6875 0.31878,-0.33354 0.62556,-0.658 0.9375,-1 -0.0918,0.07236 -0.18891,0.11586 -0.28125,0.1875 -2.09214,1.61928 -4.30925,3.02894 -6.40625,3.5 -1.04796,0.23508 -2.09615,0.22175 -3.03125,-0.15625 -0.93474,-0.37764 -1.71605,-1.1313 -2.28125,-2.25 -0.07344,-0.14544 -0.08201,-0.31395 -0.03125,-0.46875 0.05094,-0.15444 0.16724,-0.30138 0.3125,-0.375 0.14544,-0.07326 0.31359,-0.08219 0.46875,-0.03125 0.15444,0.0504 0.30156,0.16706 0.375,0.3125 0.46026,0.91098 0.98672,1.39831 1.625,1.65625 0.6381,0.25794 1.433559,0.29121 2.3125,0.09375 1.75806,-0.39456 3.88449,-1.68544 5.90625,-3.25 1.14804,-0.88884 2.2483,-1.87542 3.25,-2.8125 -0.97974,0.57726 -2.05393,1.17252 -3.15625,1.6875 -2.16,1.0089 -4.43281,1.78503 -6.53125,1.78125 -2.098261,-0.0054 -4.05965,-0.90729 -5.09375,-3.09375 -0.08064,-0.14796 -0.08345,-0.3398 -0.03125,-0.5 0.05238,-0.16038 0.16022,-0.27175 0.3125,-0.34375 0.15228,-0.07236 0.34304,-0.09227 0.5,-0.03125 0.15714,0.06102 0.27985,0.18787 0.34375,0.34375 0.84618,1.78866 2.188549,2.3714 3.96875,2.375 1.7802,0.0036 3.95981,-0.68857 6.03125,-1.65625 3.85668,-1.8018 7.29224,-5.03654 6.875,-5 -0.41742,0.0369 -3.22086,1.65621 -6.375,2.71875 -2.12868,0.71712 -4.43155,1.19202 -6.53125,0.9375 -2.099701,-0.25434 -4.01919,-1.32643 -5.15625,-3.53125 -0.08244,-0.14544 -0.11038,-0.30909 -0.0625,-0.46875 0.04788,-0.1602 0.16382,-0.2985 0.3125,-0.375 0.14832,-0.07596 0.31089,-0.08561 0.46875,-0.03125 0.15804,0.05418 0.3048,0.16094 0.375,0.3125 0.9567,1.85526 2.416049,2.62523 4.21875,2.84375 1.80288,0.21834 3.94105,-0.19208 5.96875,-0.875 3.4731,-1.16964 6.57915,-3.06923 7.40625,-3.59375 -0.06624,-0.4464 -0.13548,-0.90124 -0.1875,-1.375 -0.7488,0.3645 -3.80941,1.7697 -7.28125,2.4375 -1.99944,0.38448 -4.13949,0.53021 -6.09375,0.03125 -1.954441,-0.49932 -3.71014,-1.663299 -4.75,-3.8125 -0.09198,-0.18252 -0.1008,-0.41609 0,-0.59375 0.10134,-0.17784 0.29606,-0.2981 0.5,-0.3125 0.24876,-0.0162 0.52024,0.11749 0.625,0.34375 0.88326,1.825741 2.253959,2.75694 3.9375,3.1875 1.6839,0.42984 3.67268,0.30128 5.5625,-0.0625 3.77964,-0.72666 7.125,-2.40625 7.125,-2.40625 0.0819,-0.04194 0.1582,-0.09213 0.25,-0.09375 -0.03402,-0.43704 -0.04108,-0.85908 -0.0625,-1.3125 -0.93726,0.2412 -3.77317,0.89909 -6.90625,0.96875 -1.917,0.04266 -3.94694,-0.1474 -5.75,-0.8125 C 31.666049,31.86597 30.10122,30.6688 29.25,28.75 c -0.08532,-0.18522 -0.07567,-0.41987 0.03125,-0.59375 0.10728,-0.17352 0.29606,-0.27405 0.5,-0.28125 0.24876,-0.0072 0.49655,0.14514 0.59375,0.375 0.69966,1.57644 1.949949,2.54162 3.53125,3.125 1.5813,0.5832 3.49288,0.75925 5.3125,0.71875 3.46806,-0.07704 6.55593,-0.9199 6.84375,-1 -0.0054,-0.2943 0,-0.60691 0,-0.90625 0,-0.504 0.01757,-0.97879 0.03125,-1.46875 -1.17504,0.11124 -3.38592,0.24124 -5.8125,0.0625 -3.56058,-0.26208 -7.66648,-1.18676 -9.4375,-4.25 -0.10926,-0.18396 -0.10206,-0.40529 0,-0.59375 0.10188,-0.18864 0.28616,-0.33475 0.5,-0.34375 0.22824,-0.009 0.48233,0.14431 0.59375,0.34375 1.391761,2.40732 5.03118,3.34283 8.4375,3.59375 2.45646,0.1809 4.71007,0.04424 5.78125,-0.0625 0.0567,-0.94572 0.13894,-1.85763 0.25,-2.71875 -1.05534,0.0162 -2.5805,-0.01852 -4.25,-0.25 -3.04164,-0.4212 -6.61899,-1.47217 -8.34375,-4.28125 -0.11412,-0.18126 -0.12791,-0.4342 -0.03125,-0.625 0.09702,-0.1908 0.31777,-0.32935 0.53125,-0.34375 0.2277,-0.0144 0.44604,0.11612 0.5625,0.3125 1.3878,2.26098 4.55372,3.2879 7.4375,3.6875 1.70514,0.2367 3.27829,0.27286 4.28125,0.25 0.04824,-0.28998 0.03649,-1.5062 -0.21875,-1.625 -1.14588,-0.53442 -1.67863,-0.5316 -3.15625,-0.9375 -1.26666,-0.39492 -2.57956,-0.90831 -3.625,-1.59375 -1.0458,-0.68562 -1.89409,-1.59937 -2.03125,-2.78125 -0.0225,-0.171361 0.04429,-0.33717 0.15625,-0.46875 0.11214,-0.13158 0.2647,-0.21335 0.4375,-0.21875 z m 6.5,54.0625 c -0.77076,0.03114 -1.16301,1.52463 -1.03125,2.15625 0.4185,2.00268 4.75254,6.4497 5.625,4.125 0.55764,-1.4868 -2.66039,-4.38299 -3.21875,-5.46875 -0.25092,-0.487801 -0.77488,-0.8368 -1.375,-0.8125 z m 10.5625,0 c -0.55314,0.02142 -1.01456,0.355119 -1.25,0.8125 -0.55836,1.08576 -3.776751,3.98195 -3.21875,5.46875 0.8721,2.3247 5.2065,-2.12232 5.625,-4.125 0.13176,-0.63162 -0.26067,-2.12511 -1.03125,-2.15625 l -0.125,0 z M 45,77.71875 c -1.6155,0.0243 -2.51236,1.08174 -1.5625,2.4375 0.83268,1.18962 1.75499,1.37765 3.21875,0.59375 1.46988,-0.86166 0.53639,-3.00803 -1.28125,-3.03125 -0.12096,-0.0018 -0.24612,-0.01908 -0.375,0 z m 9.625,0 c -1.81728,0.02322 -2.75095,2.16959 -1.28125,3.03125 1.46358,0.78372 2.38607,0.59587 3.21875,-0.59375 0.95022,-1.35576 0.053,-2.41302 -1.5625,-2.4375 -0.1287,-0.018 -0.25368,0 -0.375,0 z" transform="translate(0,-5e-6)" style="" fill="#000000" fill-opacity="1" fill-rule="nonzero" stroke="none"></path></svg>